<?xml version="1.0" encoding="utf-8"?>
<!-- Generator: Adobe Illustrator 23.0.0, SVG Export Plug-In . SVG Version: 6.00 Build 0)  -->
<svg version="1.1" id="Layer_1" xmlns="http://www.w3.org/2000/svg" xmlns:xlink="http://www.w3.org/1999/xlink" x="0px" y="0px"
	 viewBox="0 0 625.26 399.03" enable-background="new 0 0 625.26 399.03" xml:space="preserve">
<g>
	<g>
		<path fill="#0057A4" d="M381.4,185.77l-1.4-2.68c-15.13-28.93-44.79-46.91-77.41-46.91s-62.28,17.97-77.41,46.91l-1.4,2.68H97.42
			l11.85-41.16l3.61-0.14c15.46-0.6,32.44-1.26,50.6-1.96c4.64-7.85,9.43-14.69,15.16-21.67l-14.73-52.61l34.01-24.96
			c0,0,31.21,21.28,45.03,30.71c6.27-2.46,12.47-4.46,19.91-6.44c6.53-18.53,17.01-48.2,17.01-48.2l1.18-3.34h42.2
			c0,0,14.12,38.28,19.01,51.55c2.33,0.67,5.06,1.54,7.9,2.45c4.01,1.28,10.44,3.35,13.07,3.77c13.51-9.04,27-18.05,39.45-26.37
			l5.94-3.97l2.83,2.11c8.95,6.68,28.18,21.07,28.18,21.07l2.77,2.07l-15.31,52.83c5.25,6.47,9.67,12.75,13.97,19.85
			c19.62,1,51.02,2.63,51.02,2.63l3.53,0.18l12.32,41.59H381.4z"/>
		<path fill="#0057A4" d="M319.77,21c5.72,15.5,11.99,32.52,18.69,50.71c6.73,1.63,21.31,7.14,25.51,7.14
			c0.36,0,0.64-0.04,0.84-0.13c15-10.04,30.02-20.07,43.65-29.18c8.94,6.68,28.18,21.07,28.18,21.07s-9.67,33.39-15.08,52.04
			c6.44,7.72,11.55,14.99,16.58,23.56c19.28,0.98,53.68,2.77,53.68,2.77s6.05,20.44,9.42,31.78H384.43
			c-15.41-29.47-46.28-49.59-81.84-49.59c-35.57,0-66.43,20.12-81.84,49.59H104.06c2.92-10.15,6.17-21.41,9.02-31.3
			c16.23-0.64,34.14-1.33,53.35-2.07c5.38-9.39,10.83-17.19,17.75-25.38c-5.21-18.58-10.07-35.97-14.5-51.8
			c9.03-6.63,19.36-14.21,28.37-20.82c13.51,9.21,28.4,19.36,44.31,30.21c8.25-3.37,15.73-5.7,24.36-7.91
			C273.12,53.49,284.59,21,284.59,21S308.57,21,319.77,21 M326.74,11h-6.97h-35.18h-7.07l-2.35,6.67c0,0-9.58,27.15-16.14,45.73
			c-5.58,1.55-10.52,3.14-15.41,4.97c-11.91-8.13-23.22-15.83-33.77-23.03l-6.18-4.21l-5.85-3.99l-5.7,4.19
			c-4.6,3.38-9.55,7.01-14.49,10.64l-13.88,10.18l-5.58,4.09l1.87,6.66l5.58,19.93c2.41,8.61,4.92,17.57,7.52,26.85
			c-4.62,5.78-8.66,11.55-12.55,17.92c-17.15,0.66-33.21,1.29-47.9,1.86l-7.22,0.28l-2,6.95c-1.5,5.21-3.11,10.8-4.73,16.41
			c-1.45,5.04-2.91,10.09-4.29,14.89l-3.67,12.76h13.28h116.69h6.06l2.81-5.37c14.27-27.28,42.23-44.23,72.98-44.23
			s58.71,16.95,72.98,44.23l2.81,5.37h6.06h116.82h13.39l-3.81-12.84c-3.36-11.34-9.42-31.78-9.42-31.78l-2.01-6.78l-7.06-0.37
			c0,0-28.73-1.49-48.39-2.49c-3.53-5.65-7.18-10.84-11.33-16.09l13.62-47.02l1.93-6.64l-5.54-4.14c0,0-19.24-14.4-28.18-21.08
			l-5.66-4.23l-5.88,3.93l-3.54,2.36c-11.76,7.86-24.43,16.32-37.15,24.84c-2.86-0.73-7.48-2.21-10.53-3.19
			c-1.94-0.62-3.83-1.23-5.6-1.77c-4.85-13.15-9.46-25.67-13.79-37.4l-3.15-8.53L326.74,11L326.74,11z"/>
	</g>
	<path fill="#FFDF00" d="M216,175.92c15.41-29.47,46.28-49.59,81.84-49.59s66.43,20.12,81.84,49.59H496.5
		c-3.36-11.34-9.42-31.78-9.42-31.78s-34.4-1.78-53.68-2.77c-5.04-8.57-10.14-15.84-16.58-23.56c5.4-18.66,15.08-52.04,15.08-52.04
		s-19.23-14.39-28.18-21.07c-13.63,9.11-28.64,19.14-43.65,29.18c-2.5,1.09-19.05-5.24-26.35-7.02
		c-6.7-18.19-12.98-35.21-18.69-50.71c-11.2,0-35.18,0-35.18,0s-11.47,32.49-17.89,50.71c-8.63,2.21-16.11,4.54-24.36,7.91
		c-15.91-10.85-30.79-21-44.31-30.21c-9.01,6.61-19.34,14.19-28.37,20.82c4.43,15.83,9.3,33.22,14.5,51.8
		c-6.92,8.19-12.37,15.98-17.75,25.38c-19.2,0.74-37.11,1.43-53.35,2.07c-2.84,9.89-6.1,21.15-9.02,31.3H216z"/>
	<g>
		<g>
			<path fill="#0057A4" d="M16.03,231.04v-29.74h91.22v29.74H78.42v101.01H45.05V231.04H16.03z"/>
			<path fill="#0057A4" d="M111.97,332.05V201.29h33.37v130.75H111.97z"/>
			<path fill="#0057A4" d="M147.51,332.05l46.06-130.75h34.64l46.06,130.75h-34.46l-7.62-24.3h-42.8l-7.62,24.3H147.51z
				 M207.17,250.44l-10.52,33.01h28.29l-10.34-33.01l-1.81-7.07c-0.61-2.78-1.09-5.71-1.45-8.8c-0.36-3.08-0.54-6.68-0.54-10.79
				c0,4.6-0.12,8.22-0.36,10.88c-0.24,2.66-0.73,5.56-1.45,8.7L207.17,250.44z"/>
			<path fill="#0057A4" d="M270.1,315.36l11.79-26.3c10.76,12.45,21.7,18.68,32.82,18.68c4.83,0,8.86-1.3,12.06-3.9
				c3.2-2.6,4.81-5.89,4.81-9.88c0-3.14-1.45-5.8-4.35-7.98c-2.42-1.45-7.98-3.69-16.68-6.71c-6.29-2.05-10.97-3.81-14.05-5.26
				c-3.08-1.45-6.02-3.32-8.8-5.62c-8.22-7.13-12.33-16.2-12.33-27.2c0-12.33,4.53-22.49,13.6-30.47
				c9.07-7.98,20.55-11.97,34.46-11.97c7.74,0,14.69,1.15,20.86,3.45c6.17,2.3,12.21,5.98,18.14,11.06l-13.24,24.12
				c-9.07-7.98-17.47-11.97-25.21-11.97c-3.99,0-7.29,1.06-9.88,3.17c-2.6,2.12-3.9,4.81-3.9,8.07c0,3.15,1.21,5.74,3.63,7.8
				c1.21,1.09,2.75,2.03,4.62,2.81c1.87,0.79,5.65,2.09,11.33,3.9c10.16,3.39,17.77,7.01,22.85,10.88
				c8.1,6.77,12.15,16.08,12.15,27.93c0,13.3-4.53,24.12-13.6,32.46c-9.07,8.34-20.86,12.51-35.36,12.51
				C297.54,334.95,282.31,328.42,270.1,315.36z"/>
			<path fill="#0057A4" d="M368.75,315.36l11.79-26.3c10.76,12.45,21.7,18.68,32.82,18.68c4.83,0,8.86-1.3,12.06-3.9
				c3.2-2.6,4.81-5.89,4.81-9.88c0-3.14-1.45-5.8-4.35-7.98c-2.42-1.45-7.98-3.69-16.68-6.71c-6.29-2.05-10.97-3.81-14.05-5.26
				c-3.08-1.45-6.02-3.32-8.8-5.62c-8.22-7.13-12.33-16.2-12.33-27.2c0-12.33,4.53-22.49,13.6-30.47
				c9.07-7.98,20.55-11.97,34.46-11.97c7.74,0,14.69,1.15,20.86,3.45c6.17,2.3,12.21,5.98,18.13,11.06l-13.24,24.12
				c-9.07-7.98-17.47-11.97-25.21-11.97c-3.99,0-7.28,1.06-9.88,3.17c-2.6,2.12-3.9,4.81-3.9,8.07c0,3.15,1.21,5.74,3.63,7.8
				c1.21,1.09,2.75,2.03,4.62,2.81c1.87,0.79,5.65,2.09,11.33,3.9c10.16,3.39,17.77,7.01,22.85,10.88
				c8.1,6.77,12.15,16.08,12.15,27.93c0,13.3-4.53,24.12-13.6,32.46c-9.07,8.34-20.86,12.51-35.36,12.51
				C396.19,334.95,380.96,328.42,368.75,315.36z"/>
			<path fill="#0057A4" d="M462.51,332.05l46.06-130.75h34.64l46.06,130.75h-34.46l-7.62-24.3h-42.8l-7.62,24.3H462.51z
				 M522.17,250.44l-10.52,33.01h28.29l-10.34-33.01l-1.81-7.07c-0.61-2.78-1.09-5.71-1.45-8.8c-0.36-3.08-0.54-6.68-0.54-10.79
				c0,4.6-0.12,8.22-0.36,10.88c-0.24,2.66-0.73,5.56-1.45,8.7L522.17,250.44z"/>
		</g>
		<g>
			<path fill="#0057A4" d="M50.04,358.62l-11.92,15.89h-1.36L25.1,358.56v26.61h-6.9v-36.6h7.95l11.45,15.74l11.45-15.74h7.89v36.6
				h-6.9V358.62z"/>
			<path fill="#0057A4" d="M102.17,385.12h-27.4c0-12.18,0-24.42,0-36.6h27.4v6.69H81.62v8.42h19.82v6.43H81.62v8.26h20.55V385.12z"
				/>
			<path fill="#0057A4" d="M130.55,354.8h-11.61v-6.27c10.56,0,19.5,0,30.12,0v6.27h-11.61v30.32h-6.9V354.8z"/>
			<path fill="#0057A4" d="M190.68,378.22h-19.14l-3.14,6.9h-7.48l16.42-36.6h7.53l16.42,36.6h-7.53L190.68,378.22z M181.11,356.21
				l-6.8,15.58h13.59L181.11,356.21z"/>
			<path fill="#0057A4" d="M223.3,348.53v30.22h18.82v6.38H216.4v-36.6H223.3z"/>
			<path fill="#0057A4" d="M290.32,358.62l-11.92,15.89h-1.36l-11.66-15.95v26.61h-6.9v-36.6h7.95l11.45,15.74l11.45-15.74h7.89
				v36.6h-6.9V358.62z"/>
			<path fill="#0057A4" d="M342.45,385.12h-27.4c0-12.18,0-24.42,0-36.6h27.4v6.69H321.9v8.42h19.82v6.43H321.9v8.26h20.55V385.12z"
				/>
			<path fill="#0057A4" d="M391.48,380.52c-3.76,3.71-8.63,5.44-13.91,5.44c-13.59,0-19.35-9.36-19.4-18.87
				c-0.05-9.57,6.17-19.29,19.4-19.29c4.97,0,9.67,1.88,13.44,5.59l-4.6,4.44c-2.4-2.35-5.65-3.45-8.84-3.45
				c-8.84,0-12.65,6.59-12.6,12.71c0.05,6.06,3.56,12.39,12.6,12.39c3.19,0,6.8-1.31,9.2-3.71L391.48,380.52z"/>
			<path fill="#0057A4" d="M431.17,378.22h-19.14l-3.14,6.9h-7.48l16.42-36.6h7.53l16.42,36.6h-7.53L431.17,378.22z M428.39,371.79
				l-6.8-15.58l-6.8,15.58H428.39z M430.12,337.34h-7.53l-3.87,7.11v0.31h5.65l5.75-7.16V337.34z"/>
			<path fill="#0057A4" d="M480.41,348.47h6.9v36.65h-4.29v0.05l-19.24-24.73v24.68h-6.9v-36.6h5.59l17.93,22.69V348.47z"/>
			<path fill="#0057A4" d="M505.14,385.12v-36.6h6.85v36.6H505.14z"/>
			<path fill="#0057A4" d="M562.18,380.52c-3.76,3.71-8.63,5.44-13.91,5.44c-13.59,0-19.35-9.36-19.4-18.87
				c-0.05-9.57,6.17-19.29,19.4-19.29c4.97,0,9.67,1.88,13.44,5.59l-4.6,4.44c-2.41-2.35-5.65-3.45-8.84-3.45
				c-8.84,0-12.65,6.59-12.6,12.71c0.05,6.06,3.56,12.39,12.6,12.39c3.19,0,6.8-1.31,9.2-3.71L562.18,380.52z"/>
			<path fill="#0057A4" d="M601.86,378.22h-19.14l-3.14,6.9h-7.48l16.42-36.6h7.53l16.42,36.6h-7.53L601.86,378.22z M592.29,356.21
				l-6.8,15.58h13.59L592.29,356.21z"/>
		</g>
	</g>
	<g>
		<path fill="#0057A4" d="M533.89,176.07c0,5.43-3.57,10.02-9.94,10.02c-6.34,0-9.91-4.58-9.91-10.02c0-5.44,3.57-10.02,9.91-10.02
			C530.32,166.05,533.89,170.63,533.89,176.07z M523.96,183.48c4.47,0,7-3.27,7-7.41c0-4.15-2.53-7.41-7-7.41
			c-4.45,0-6.97,3.27-7,7.41C516.98,180.21,519.51,183.48,523.96,183.48z M526.34,177.44c3.65-0.82,2.91-6.42-1.54-6.42
			c-1.59,0-3.21,0-4.8,0v10.07h2.66v-3.13h0.93l2.39,3.13h2.86v-0.58L526.34,177.44z M524.81,173.4c1.56,0,1.56,2.31,0,2.31h-2.14
			v-2.31H524.81z"/>
	</g>
</g>
</svg>
