<?xml version="1.0" encoding="utf-8"?>
<!-- Generator: Adobe Illustrator 23.0.0, SVG Export Plug-In . SVG Version: 6.00 Build 0)  -->
<svg version="1.1" id="Layer_1" xmlns="http://www.w3.org/2000/svg" xmlns:xlink="http://www.w3.org/1999/xlink" x="0px" y="0px"
	 viewBox="0 0 625.3 399" style="enable-background:new 0 0 625.3 399;" xml:space="preserve">
<style type="text/css">
	.st0{fill:#0055A2;}
	.st1{fill:#FFDE00;}
</style>
<g>
	<path class="st0" d="M516.2,175.7c-3.3-11.1-9.2-31.1-9.2-31.1l-2-6.6l-6.9-0.4c0,0-28.1-1.5-47.3-2.4c-3.5-5.5-7-10.6-11.1-15.7
		l13.3-46l1.9-6.5l-5.4-4.1c0,0-18.8-14.1-27.6-20.6l-5.5-4.1l-5.7,3.8l-3.5,2.3c-11.5,7.7-23.9,16-36.4,24.3
		c-2.8-0.7-7.3-2.2-10.3-3.1c-1.9-0.6-3.8-1.2-5.5-1.7c-4.7-12.9-9.3-25.1-13.5-36.6l-3.1-8.3l-2.4-6.4h-6.8h-34.4H288l-2.3,6.5
		c0,0-9.4,26.6-15.8,44.7c-5.5,1.5-10.3,3.1-15.1,4.9c-11.7-8-45.7-32.1-45.7-32.1l-5.6,4.1c-4.5,3.3-9.3,6.9-14.2,10.4l-13.6,10
		l-5.5,4c0,0,13,44.7,15.6,53.8c-4.5,5.7-8.5,11.3-12.3,17.5c-16.8,0.6-32.5,1.3-46.9,1.8l-7.1,0.3l-2,6.8c-1.5,5.1-3,10.6-4.6,16.1
		c-1.4,4.9-2.8,9.9-4.2,14.6l-3.6,12.5h13h114.2h5.9l2.7-5.2c14-26.7,41.3-43.3,71.4-43.3c30.1,0,57.4,16.6,71.4,43.3l2.7,5.2h5.9
		h114.3H520L516.2,175.7z"/>
	<polygon class="st0" points="32.1,234.9 32.1,205.8 121.4,205.8 121.4,234.9 93.2,234.9 93.2,333.8 60.5,333.8 60.5,234.9 	"/>
	<rect x="126" y="205.8" class="st0" width="32.6" height="127.9"/>
	<path class="st0" d="M280.7,317.5l11.5-25.7c10.5,12.2,21.2,18.3,32.1,18.3c4.7,0,8.7-1.3,11.8-3.8c3.1-2.5,4.7-5.8,4.7-9.7
		c0-3.1-1.4-5.7-4.3-7.8c-2.4-1.4-7.8-3.6-16.3-6.6c-6.2-2-10.7-3.7-13.8-5.1c-3-1.4-5.9-3.3-8.6-5.5c-8-7-12.1-15.9-12.1-26.6
		c0-12.1,4.4-22,13.3-29.8c8.9-7.8,20.1-11.7,33.7-11.7c7.6,0,14.4,1.1,20.4,3.4c6,2.2,11.9,5.9,17.7,10.8l-13,23.6
		c-8.9-7.8-17.1-11.7-24.7-11.7c-3.9,0-7.1,1-9.7,3.1c-2.5,2.1-3.8,4.7-3.8,7.9c0,3.1,1.2,5.6,3.5,7.6c1.2,1.1,2.7,2,4.5,2.8
		c1.8,0.8,5.5,2,11.1,3.8c9.9,3.3,17.4,6.9,22.4,10.6c7.9,6.6,11.9,15.7,11.9,27.3c0,13-4.4,23.6-13.3,31.8
		c-8.9,8.2-20.4,12.2-34.6,12.2C307.6,336.6,292.7,330.2,280.7,317.5"/>
	<path class="st0" d="M377.2,317.5l11.5-25.7c10.5,12.2,21.2,18.3,32.1,18.3c4.7,0,8.7-1.3,11.8-3.8c3.1-2.5,4.7-5.8,4.7-9.7
		c0-3.1-1.4-5.7-4.3-7.8c-2.4-1.4-7.8-3.6-16.3-6.6c-6.2-2-10.7-3.7-13.8-5.1c-3-1.4-5.9-3.3-8.6-5.5c-8-7-12.1-15.9-12.1-26.6
		c0-12.1,4.4-22,13.3-29.8c8.9-7.8,20.1-11.7,33.7-11.7c7.6,0,14.4,1.1,20.4,3.4c6,2.2,11.9,5.9,17.7,10.8l-13,23.6
		c-8.9-7.8-17.1-11.7-24.7-11.7c-3.9,0-7.1,1-9.7,3.1c-2.5,2.1-3.8,4.7-3.8,7.9c0,3.1,1.2,5.6,3.5,7.6c1.2,1.1,2.7,2,4.5,2.8
		c1.8,0.8,5.5,2,11.1,3.8c9.9,3.3,17.4,6.9,22.4,10.6c7.9,6.6,11.9,15.7,11.9,27.3c0,13-4.4,23.6-13.3,31.8
		c-8.9,8.2-20.4,12.2-34.6,12.2C404.1,336.6,389.2,330.2,377.2,317.5"/>
	<path class="st0" d="M469,333.8L514,205.8h33.9L593,333.8h-33.7l-7.5-23.8h-41.9l-7.5,23.8H469z M517,286.2h27.7l-13.8-58.4
		L517,286.2z"/>
	<path class="st0" d="M160.8,333.8l45.1-127.9h33.9l45.1,127.9h-33.7l-7.5-23.8h-41.9l-7.5,23.8H160.8z M208.9,286.2h27.7
		l-13.8-58.4L208.9,286.2z"/>
	<polygon class="st0" points="62.2,360.8 50.9,375.8 49.7,375.8 38.7,360.7 38.7,385.9 32.1,385.9 32.1,351.3 39.6,351.3 
		50.4,366.2 61.3,351.3 68.7,351.3 68.7,385.9 62.2,385.9 	"/>
	<polygon class="st0" points="111.4,385.8 85.5,385.8 85.5,351.3 111.4,351.3 111.4,357.6 92,357.6 92,365.5 110.7,365.5 
		110.7,371.6 92,371.6 92,379.4 111.4,379.4 	"/>
	<polygon class="st0" points="138.2,357.2 127.2,357.2 127.2,351.3 155.7,351.3 155.7,357.2 144.7,357.2 144.7,385.8 138.2,385.8 	
		"/>
	<path class="st0" d="M195,379.3h-18.1l-3,6.5h-7.1l15.5-34.5h7.1l15.5,34.5h-7.1L195,379.3z M185.9,358.5l-6.4,14.7h12.8
		L185.9,358.5z"/>
	<polygon class="st0" points="225.7,351.3 225.7,379.8 243.5,379.8 243.5,385.8 219.2,385.8 219.2,351.3 	"/>
	<polygon class="st0" points="289,360.8 277.8,375.8 276.5,375.8 265.5,360.7 265.5,385.9 259,385.9 259,351.3 266.5,351.3 
		277.3,366.2 288.1,351.3 295.5,351.3 295.5,385.9 289,385.9 	"/>
	<polygon class="st0" points="338.2,385.8 312.4,385.8 312.4,351.3 338.2,351.3 338.2,357.6 318.8,357.6 318.8,365.5 337.5,365.5 
		337.5,371.6 318.8,371.6 318.8,379.4 338.2,379.4 	"/>
	<path class="st0" d="M384.5,381.5c-3.6,3.5-8.1,5.1-13.1,5.1c-12.8,0-18.3-8.8-18.3-17.8c0-9,5.8-18.2,18.3-18.2
		c4.7,0,9.1,1.8,12.7,5.3l-4.3,4.2c-2.3-2.2-5.3-3.3-8.3-3.3c-8.3,0-11.9,6.2-11.9,12c0.1,5.7,3.4,11.7,11.9,11.7
		c3,0,6.4-1.2,8.7-3.5L384.5,381.5z"/>
	<path class="st0" d="M422,379.3h-18.1l-3,6.5h-7.1l15.5-34.5h7.1l15.5,34.5h-7.1L422,379.3z M419.4,373.2l-6.4-14.7l-6.4,14.7
		H419.4z M421,340.7h-7.1l-3.7,6.7v0.3h5.3l5.4-6.8V340.7z"/>
	<polygon class="st0" points="468.5,351.2 475,351.2 475,385.8 470.9,385.8 470.9,385.9 452.8,362.5 452.8,385.8 446.2,385.8 
		446.2,351.3 451.5,351.3 468.5,372.7 	"/>
	<rect x="491.8" y="351.3" class="st0" width="6.5" height="34.5"/>
	<path class="st0" d="M545.6,381.5c-3.6,3.5-8.1,5.1-13.1,5.1c-12.8,0-18.3-8.8-18.3-17.8c0-9,5.8-18.2,18.3-18.2
		c4.7,0,9.1,1.8,12.7,5.3l-4.3,4.2c-2.3-2.2-5.3-3.3-8.3-3.3c-8.3,0-11.9,6.2-11.9,12c0,5.7,3.4,11.7,11.9,11.7c3,0,6.4-1.2,8.7-3.5
		L545.6,381.5z"/>
	<path class="st0" d="M583.1,379.3H565l-3,6.5H555l15.5-34.5h7.1l15.5,34.5H586L583.1,379.3z M574.1,358.5l-6.4,14.7h12.8
		L574.1,358.5z"/>
	<path class="st0" d="M539.4,178.5c0,5.3-3.5,9.8-9.7,9.8c-6.2,0-9.7-4.5-9.7-9.8c0-5.3,3.5-9.8,9.7-9.8
		C535.9,168.7,539.4,173.2,539.4,178.5 M529.7,185.7c4.4,0,6.8-3.2,6.8-7.3c0-4.1-2.5-7.3-6.8-7.3c-4.4,0-6.8,3.2-6.8,7.3
		C522.8,182.5,525.3,185.7,529.7,185.7 M532,179.8c3.6-0.8,2.8-6.3-1.5-6.3h-4.7v9.9h2.6v-3.1h0.9l2.3,3.1h2.8v-0.6L532,179.8z
		 M530.5,175.9c1.5,0,1.5,2.3,0,2.3h-2.1v-2.3H530.5z"/>
	<path class="st1" d="M227.8,173.8c15.1-28.8,45.3-48.5,80.1-48.5c34.8,0,65,19.7,80.1,48.5h114.3c-3.3-11.1-9.2-31.1-9.2-31.1
		s-33.7-1.7-52.5-2.7c-4.9-8.4-9.9-15.5-16.2-23.1C429.5,98.7,439,66,439,66s-18.8-14.1-27.6-20.6c-13.3,8.9-28,18.7-42.7,28.5
		c-2.4,1.1-18.6-5.1-25.8-6.9c-6.6-17.8-12.7-34.4-18.3-49.6h-34.4c0,0-11.2,31.8-17.5,49.6c-8.4,2.2-15.8,4.4-23.8,7.7
		c-15.6-10.6-30.1-20.5-43.3-29.6c-8.8,6.5-18.9,13.9-27.8,20.4c4.3,15.5,9.1,32.5,14.2,50.7c-6.8,8-12.1,15.6-17.4,24.8
		c-18.8,0.7-36.3,1.4-52.2,2c-2.8,9.7-6,20.7-8.8,30.6H227.8z"/>
</g>
</svg>
