<?xml version="1.0" encoding="utf-8"?>
<!-- Generator: Adobe Illustrator 23.0.0, SVG Export Plug-In . SVG Version: 6.00 Build 0)  -->
<svg version="1.1" id="Layer_1" xmlns="http://www.w3.org/2000/svg" xmlns:xlink="http://www.w3.org/1999/xlink" x="0px" y="0px"
	 viewBox="0 0 682 427.3" style="enable-background:new 0 0 682 427.3;" xml:space="preserve">
<style type="text/css">
	.st0{fill:#FFFFFF;}
	.st1{fill:#0055A2;}
	.st2{fill:#FFDE00;}
</style>
<g>
	<g>
		<g>
			<path class="st0" d="M616.6,386.4c0,0-15.3-34-15.7-34.5h6c3.4,0,6.6-1.7,8.6-4.4c2-2.8,2.5-6.3,1.3-9.6L574,216.5
				c-1.5-4.2-5.5-7-9.9-7h-4.7c4.4-3.6,7.1-9.1,7.1-15.4c0-11.3-8.5-19.8-19.7-19.8c-2.3,0-4.5,0.4-6.6,1.1l-6.7-22.6
				c-1.3-4.3-5.1-7.3-9.5-7.5l-6.6-0.3c0,0-21.9-1.1-39.5-2c-1.6-2.3-3.2-4.6-4.9-6.9L486,91.3c1.2-4.2-0.3-8.7-3.8-11.3l-5.1-3.8
				c0,0-17.9-13.4-26.2-19.6l-5.3-3.9c-3.6-2.7-8.4-2.8-12.1-0.3l-8.7,5.8c-9.7,6.5-20,13.4-30.4,20.3c-1.7-0.5-3.5-1.1-4.8-1.5
				c-0.1,0-0.2-0.1-0.3-0.1L373.1,33c-1.5-4.1-5.5-6.9-9.9-6.9h-45.7c-4.5,0-8.4,2.8-9.9,7l-2.2,6.2c0,0-7.3,20.6-13.2,37.3
				c-1.6,0.5-3.1,1-4.6,1.5c-13.3-9.2-38.6-27.1-38.8-27.3c-3.7-2.6-8.6-2.6-12.3,0.1l-36.8,27c-3.6,2.6-5.1,7.2-3.9,11.4
				c0.1,0.4,9.3,31.9,13.3,45.9c-2.1,2.8-4.1,5.6-6,8.6c-13.9,0.5-26.9,1-38.9,1.5l-6.7,0.3c-4.5,0.2-8.4,3.2-9.7,7.6l-13.6,47.3
				c-0.9,3.1-0.3,6.4,1.6,9H75c-5.8,0-10.5,4.7-10.5,10.5v27.6c0,5.8,4.7,10.5,10.5,10.5h16.4v83.2c0,3.5-2.6,6.1-5.9,6.1H75
				c-5.8,0-10.5,4.7-10.5,10.5v32.8c0,5.8,4.7,10.5,10.5,10.5l531.9,0c3.6,0,6.9-1.8,8.8-4.8C617.7,393.4,618,389.6,616.6,386.4"/>
			<path class="st1" d="M534.1,191.5c-3.1-10.5-8.7-29.5-8.7-29.5l-1.9-6.3l-6.6-0.3c0,0-26.6-1.4-44.9-2.3
				c-3.3-5.2-6.7-10.1-10.5-14.9l12.6-43.6l1.8-6.2l-5.1-3.8c0,0-17.8-13.4-26.1-19.6l-5.3-3.9l-5.4,3.6l-3.3,2.2
				c-10.9,7.3-22.7,15.1-34.5,23c-2.7-0.7-6.9-2-9.8-3c-1.8-0.6-3.6-1.1-5.2-1.6c-4.5-12.2-8.8-23.8-12.8-34.7l-2.9-7.9l-2.2-6.1
				h-6.5h-32.6h-6.6l-2.2,6.2c0,0-8.9,25.2-15,42.4c-5.2,1.4-9.8,2.9-14.3,4.6c-11.1-7.5-43.4-30.4-43.4-30.4l-5.3,3.9
				c-4.3,3.1-8.9,6.5-13.4,9.9l-12.9,9.4l-5.2,3.8c0,0,12.4,42.4,14.8,51c-4.3,5.4-8,10.7-11.6,16.6c-15.9,0.6-30.8,1.2-44.4,1.7
				l-6.7,0.3l-1.9,6.4c-1.4,4.8-2.9,10-4.4,15.2c-1.3,4.7-2.7,9.4-4,13.8l-3.4,11.8h12.3H265h5.6l2.6-5c13.2-25.3,39.2-41,67.7-41
				c28.5,0,54.5,15.7,67.7,41l2.6,5h5.6h108.4h12.4L534.1,191.5z"/>
			<polygon class="st1" points="75,247.6 75,220 159.7,220 159.7,247.6 132.9,247.6 132.9,341.3 102,341.3 102,247.6 			"/>
			<rect x="164" y="220" class="st1" width="31" height="121.3"/>
			<path class="st1" d="M310.7,325.8l10.9-24.4c10,11.6,20.1,17.3,30.5,17.3c4.5,0,8.2-1.2,11.2-3.6c3-2.4,4.5-5.5,4.5-9.2
				c0-2.9-1.3-5.4-4-7.4c-2.2-1.3-7.4-3.4-15.5-6.2c-5.8-1.9-10.2-3.5-13-4.9c-2.9-1.3-5.6-3.1-8.2-5.2c-7.6-6.6-11.4-15-11.4-25.2
				c0-11.4,4.2-20.9,12.6-28.3c8.4-7.4,19.1-11.1,32-11.1c7.2,0,13.6,1.1,19.3,3.2c5.7,2.1,11.3,5.5,16.8,10.3l-12.3,22.4
				c-8.4-7.4-16.2-11.1-23.4-11.1c-3.7,0-6.8,1-9.2,2.9c-2.4,2-3.6,4.5-3.6,7.5c0,2.9,1.1,5.3,3.4,7.2c1.1,1,2.5,1.9,4.3,2.6
				c1.7,0.7,5.2,1.9,10.5,3.6c9.4,3.1,16.5,6.5,21.2,10.1c7.5,6.3,11.3,14.9,11.3,25.9c0,12.3-4.2,22.4-12.6,30.1
				c-8.4,7.7-19.3,11.6-32.8,11.6C336.2,344,322.1,337.9,310.7,325.8"/>
			<path class="st1" d="M402.3,325.8l10.9-24.4c10,11.6,20.1,17.3,30.5,17.3c4.5,0,8.2-1.2,11.2-3.6c3-2.4,4.5-5.5,4.5-9.2
				c0-2.9-1.3-5.4-4-7.4c-2.2-1.3-7.4-3.4-15.5-6.2c-5.8-1.9-10.2-3.5-13-4.9c-2.9-1.3-5.6-3.1-8.2-5.2c-7.6-6.6-11.4-15-11.4-25.2
				c0-11.4,4.2-20.9,12.6-28.3c8.4-7.4,19.1-11.1,32-11.1c7.2,0,13.6,1.1,19.3,3.2c5.7,2.1,11.3,5.5,16.8,10.3l-12.3,22.4
				c-8.4-7.4-16.2-11.1-23.4-11.1c-3.7,0-6.8,1-9.2,2.9c-2.4,2-3.6,4.5-3.6,7.5c0,2.9,1.1,5.3,3.4,7.2c1.1,1,2.5,1.9,4.3,2.6
				c1.7,0.7,5.2,1.9,10.5,3.6c9.4,3.1,16.5,6.5,21.2,10.1c7.5,6.3,11.3,14.9,11.3,25.9c0,12.3-4.2,22.4-12.6,30.1
				c-8.4,7.7-19.3,11.6-32.8,11.6C427.7,344,413.6,337.9,402.3,325.8"/>
			<path class="st1" d="M489.2,341.3L532,220h32.1l42.7,121.3h-32l-7.1-22.5h-39.7l-7.1,22.5H489.2z M534.8,296.2h26.2L548,240.9
				L534.8,296.2z"/>
			<path class="st1" d="M197,341.3L239.7,220h32.1l42.7,121.3h-32l-7.1-22.5h-39.7l-7.1,22.5H197z M242.6,296.2h26.2l-13.1-55.4
				L242.6,296.2z"/>
			<polygon class="st1" points="103.5,366.9 92.9,381.1 91.6,381.1 81.2,366.9 81.2,390.7 75,390.7 75,357.9 82.1,357.9 92.4,372 
				102.6,357.9 109.7,357.9 109.7,390.7 103.5,390.7 			"/>
			<polygon class="st1" points="150.2,390.7 125.7,390.7 125.7,357.9 150.2,357.9 150.2,363.9 131.8,363.9 131.8,371.4 149.5,371.4 
				149.5,377.2 131.8,377.2 131.8,384.6 150.2,384.6 			"/>
			<polygon class="st1" points="175.6,363.5 165.2,363.5 165.2,357.9 192.2,357.9 192.2,363.5 181.8,363.5 181.8,390.7 175.6,390.7 
							"/>
			<path class="st1" d="M229.4,384.5h-17.1l-2.8,6.2h-6.7l14.7-32.8h6.7l14.7,32.8h-6.7L229.4,384.5z M220.9,364.8l-6.1,13.9h12.2
				L220.9,364.8z"/>
			<polygon class="st1" points="258.6,357.9 258.6,384.9 275.5,384.9 275.5,390.7 252.4,390.7 252.4,357.9 			"/>
			<polygon class="st1" points="318.6,366.9 307.9,381.1 306.7,381.1 296.3,366.9 296.3,390.7 290.1,390.7 290.1,357.9 297.2,357.9 
				307.5,372 317.7,357.9 324.8,357.9 324.8,390.7 318.6,390.7 			"/>
			<polygon class="st1" points="365.3,390.7 340.7,390.7 340.7,357.9 365.3,357.9 365.3,363.9 346.9,363.9 346.9,371.4 364.6,371.4 
				364.6,377.2 346.9,377.2 346.9,384.6 365.3,384.6 			"/>
			<path class="st1" d="M409.2,386.5c-3.4,3.3-7.7,4.9-12.4,4.9c-12.2,0-17.3-8.4-17.4-16.9c0-8.6,5.5-17.3,17.4-17.3
				c4.4,0,8.7,1.7,12,5l-4.1,4c-2.2-2.1-5.1-3.1-7.9-3.1c-7.9,0-11.3,5.9-11.3,11.4c0,5.4,3.2,11.1,11.3,11.1c2.9,0,6.1-1.2,8.2-3.3
				L409.2,386.5z"/>
			<path class="st1" d="M444.7,384.5h-17.1l-2.8,6.2h-6.7l14.7-32.8h6.7l14.7,32.8h-6.7L444.7,384.5z M442.2,378.7l-6.1-13.9
				l-6.1,13.9H442.2z M443.7,347.9H437l-3.5,6.4v0.3h5.1l5.1-6.4V347.9z"/>
			<polygon class="st1" points="488.8,357.8 494.9,357.8 494.9,390.7 491.1,390.7 491.1,390.7 473.9,368.6 473.9,390.7 467.7,390.7 
				467.7,357.9 472.7,357.9 488.8,378.2 			"/>
			<rect x="510.9" y="357.9" class="st1" width="6.1" height="32.8"/>
			<path class="st1" d="M562,386.5c-3.4,3.3-7.7,4.9-12.5,4.9c-12.2,0-17.3-8.4-17.4-16.9c0-8.6,5.5-17.3,17.4-17.3
				c4.4,0,8.7,1.7,12,5l-4.1,4c-2.2-2.1-5.1-3.1-7.9-3.1c-7.9,0-11.3,5.9-11.3,11.4c0,5.4,3.2,11.1,11.3,11.1c2.9,0,6.1-1.2,8.2-3.3
				L562,386.5z"/>
			<path class="st1" d="M597.5,384.5h-17.1l-2.8,6.2h-6.7l14.7-32.8h6.7l14.7,32.8h-6.7L597.5,384.5z M588.9,364.8l-6.1,13.9H595
				L588.9,364.8z"/>
			<path class="st1" d="M556,194.1c0,5-3.3,9.3-9.2,9.3c-5.9,0-9.2-4.3-9.2-9.3c0-5,3.3-9.3,9.2-9.3C552.7,184.8,556,189,556,194.1
				 M546.8,200.9c4.2,0,6.5-3,6.5-6.9c0-3.8-2.3-6.9-6.5-6.9c-4.1,0-6.5,3-6.5,6.9C540.3,197.9,542.7,200.9,546.8,200.9 M549,195.3
				c3.4-0.8,2.7-6-1.4-6h-4.5v9.3h2.5v-2.9h0.9l2.2,2.9h2.6v-0.5L549,195.3z M547.6,191.6c1.5,0,1.5,2.1,0,2.1h-2v-2.1H547.6z"/>
			<path class="st2" d="M260.5,189.6c14.3-27.3,42.9-46,75.9-46c33,0,61.6,18.7,75.9,46h108.4c-3.1-10.5-8.7-29.5-8.7-29.5
				s-31.9-1.7-49.8-2.6c-4.7-8-9.4-14.7-15.4-21.9c5-17.3,14-48.3,14-48.3S443,74.1,434.7,67.9c-12.6,8.4-26.6,17.8-40.5,27.1
				c-2.3,1-17.7-4.9-24.4-6.5c-6.2-16.9-12-32.7-17.3-47h-32.6c0,0-10.6,30.1-16.6,47c-8,2-15,4.2-22.6,7.3
				c-14.8-10.1-28.6-19.5-41.1-28c-8.4,6.1-17.9,13.2-26.3,19.3c4.1,14.7,8.6,30.8,13.5,48.1c-6.4,7.6-11.5,14.8-16.5,23.5
				c-17.8,0.7-34.4,1.3-49.5,1.9c-2.6,9.2-5.7,19.6-8.4,29H260.5z"/>
		</g>
	</g>
</g>
</svg>
