<?xml version="1.0" encoding="utf-8"?>
<!-- Generator: Adobe Illustrator 23.0.0, SVG Export Plug-In . SVG Version: 6.00 Build 0)  -->
<svg version="1.1" id="Layer_1" xmlns="http://www.w3.org/2000/svg" xmlns:xlink="http://www.w3.org/1999/xlink" x="0px" y="0px"
	 viewBox="0 0 682 427.3" style="enable-background:new 0 0 682 427.3;" xml:space="preserve">
<style type="text/css">
	.st0{fill:#0000D0;}
	.st1{fill:#FFFFFF;}
	.st2{fill:#FFDF00;}
</style>
<rect x="-396" y="447" class="st0" width="801" height="512"/>
<g>
	<g>
		<path class="st1" d="M940.2,675l-1.4-2.7c-15.1-28.9-44.8-46.9-77.4-46.9s-62.3,18-77.4,46.9l-1.4,2.7H656.2l11.8-41.2l3.6-0.1
			c15.5-0.6,32.4-1.3,50.6-2c4.6-7.8,9.4-14.7,15.2-21.7l-14.7-52.6l34-25c0,0,31.2,21.3,45,30.7c6.3-2.5,12.5-4.5,19.9-6.4
			c6.5-18.5,17-48.2,17-48.2l1.2-3.3H882c0,0,14.1,38.3,19,51.5c2.3,0.7,5.1,1.5,7.9,2.5c4,1.3,10.4,3.3,13.1,3.8
			c13.5-9,27-18.1,39.5-26.4l5.9-4l2.8,2.1c9,6.7,28.2,21.1,28.2,21.1l2.8,2.1l-15.3,52.8c5.3,6.5,9.7,12.8,14,19.8
			c19.6,1,51,2.6,51,2.6l3.5,0.2l12.3,41.6L940.2,675L940.2,675z"/>
		<path class="st1" d="M878.5,510.3c5.7,15.5,12,32.5,18.7,50.7c6.7,1.6,21.3,7.1,25.5,7.1c0.4,0,0.6,0,0.8-0.1
			c15-10,30-20.1,43.6-29.2c8.9,6.7,28.2,21.1,28.2,21.1s-9.7,33.4-15.1,52c6.4,7.7,11.5,15,16.6,23.6c19.3,1,53.7,2.8,53.7,2.8
			s6,20.4,9.4,31.8H943.2c-15.4-29.5-46.3-49.6-81.8-49.6c-35.6,0-66.4,20.1-81.8,49.6H662.8c2.9-10.2,6.2-21.4,9-31.3
			c16.2-0.6,34.1-1.3,53.4-2.1c5.4-9.4,10.8-17.2,17.8-25.4c-5.2-18.6-10.1-36-14.5-51.8c9-6.6,19.4-14.2,28.4-20.8
			c13.5,9.2,28.4,19.4,44.3,30.2c8.3-3.4,15.7-5.7,24.4-7.9c6.4-18.2,17.9-50.7,17.9-50.7S867.3,510.3,878.5,510.3 M885.5,500.3h-7
			h-35.2h-7.1l-2.4,6.7c0,0-9.6,27.1-16.1,45.7c-5.6,1.5-10.5,3.1-15.4,5c-11.9-8.1-23.2-15.8-33.8-23l-6.2-4.2l-5.9-4l-5.7,4.2
			c-4.6,3.4-9.6,7-14.5,10.6l-13.9,10.2l-5.6,4.1l1.9,6.7l5.6,19.9c2.4,8.6,4.9,17.6,7.5,26.8c-4.6,5.8-8.7,11.5-12.5,17.9
			c-17.2,0.7-33.2,1.3-47.9,1.9l-7.2,0.3l-2,7c-1.5,5.2-3.1,10.8-4.7,16.4c-1.5,5-2.9,10.1-4.3,14.9l-3.7,12.8h13.3h116.7h6.1
			l2.8-5.4c14.3-27.3,42.2-44.2,73-44.2s58.7,16.9,73,44.2l2.8,5.4h6.1H1060h13.4l-3.8-12.8c-3.4-11.3-9.4-31.8-9.4-31.8l-2-6.8
			l-7.1-0.4c0,0-28.7-1.5-48.4-2.5c-3.5-5.6-7.2-10.8-11.3-16.1l13.6-47l1.9-6.6l-5.5-4.1c0,0-19.2-14.4-28.2-21.1l-5.7-4.2
			l-5.9,3.9l-3.5,2.4c-11.8,7.9-24.4,16.3-37.1,24.8c-2.9-0.7-7.5-2.2-10.5-3.2c-1.9-0.6-3.8-1.2-5.6-1.8
			c-4.9-13.2-9.5-25.7-13.8-37.4l-3.2-8.5L885.5,500.3L885.5,500.3z"/>
	</g>
	<path class="st2" d="M237.8,183.4c15.4-29.5,46.3-49.6,81.8-49.6s66.4,20.1,81.8,49.6h116.8c-3.4-11.3-9.4-31.8-9.4-31.8
		s-34.4-1.8-53.7-2.8c-5-8.6-10.1-15.8-16.6-23.6c5.4-18.7,15.1-52,15.1-52s-19.2-14.4-28.2-21.1c-13.6,9.1-28.6,19.1-43.6,29.2
		c-2.5,1.1-19-5.2-26.4-7c-6.7-18.2-13-35.2-18.7-50.7c-11.2,0-35.2,0-35.2,0s-11.5,32.5-17.9,50.7c-8.6,2.2-16.1,4.5-24.4,7.9
		c-15.9-10.9-30.8-21-44.3-30.2c-9,6.6-19.3,14.2-28.4,20.8c4.4,15.8,9.3,33.2,14.5,51.8c-6.9,8.2-12.4,16-17.8,25.4
		c-19.2,0.7-37.1,1.4-53.4,2.1c-2.8,9.9-6.1,21.1-9,31.3L237.8,183.4L237.8,183.4z"/>
	<g>
		<g>
			<path class="st1" d="M37.8,238.5v-29.7H129v29.7h-28.8v101H66.8v-101H37.8z"/>
			<path class="st1" d="M133.7,339.5V208.7h33.4v130.8H133.7z"/>
			<path class="st1" d="M169.3,339.5l46.1-130.8h34.6L296,339.5h-34.5l-7.6-24.3h-42.8l-7.6,24.3H169.3z M228.9,257.9l-10.5,33h28.3
				l-10.3-33l-1.8-7.1c-0.6-2.8-1.1-5.7-1.4-8.8c-0.4-3.1-0.5-6.7-0.5-10.8c0,4.6-0.1,8.2-0.4,10.9s-0.7,5.6-1.4,8.7L228.9,257.9z"
				/>
			<path class="st1" d="M291.8,322.8l11.8-26.3c10.8,12.5,21.7,18.7,32.8,18.7c4.8,0,8.9-1.3,12.1-3.9s4.8-5.9,4.8-9.9
				c0-3.1-1.5-5.8-4.4-8c-2.4-1.5-8-3.7-16.7-6.7c-6.3-2-11-3.8-14-5.3s-6-3.3-8.8-5.6c-8.2-7.1-12.3-16.2-12.3-27.2
				c0-12.3,4.5-22.5,13.6-30.5s20.5-12,34.5-12c7.7,0,14.7,1.1,20.9,3.4c6.2,2.3,12.2,6,18.1,11.1l-13.2,24.1
				c-9.1-8-17.5-12-25.2-12c-4,0-7.3,1.1-9.9,3.2c-2.6,2.1-3.9,4.8-3.9,8.1c0,3.1,1.2,5.7,3.6,7.8c1.2,1.1,2.8,2,4.6,2.8
				c1.9,0.8,5.6,2.1,11.3,3.9c10.2,3.4,17.8,7,22.9,10.9c8.1,6.8,12.1,16.1,12.1,27.9c0,13.3-4.5,24.1-13.6,32.5
				s-20.9,12.5-35.4,12.5C319.3,342.4,304,335.9,291.8,322.8z"/>
			<path class="st1" d="M390.5,322.8l11.8-26.3c10.8,12.5,21.7,18.7,32.8,18.7c4.8,0,8.9-1.3,12.1-3.9s4.8-5.9,4.8-9.9
				c0-3.1-1.5-5.8-4.4-8c-2.4-1.5-8-3.7-16.7-6.7c-6.3-2-11-3.8-14-5.3s-6-3.3-8.8-5.6c-8.2-7.1-12.3-16.2-12.3-27.2
				c0-12.3,4.5-22.5,13.6-30.5s20.5-12,34.5-12c7.7,0,14.7,1.1,20.9,3.4s12.2,6,18.1,11.1l-13.2,24.1c-9.1-8-17.5-12-25.2-12
				c-4,0-7.3,1.1-9.9,3.2c-2.6,2.1-3.9,4.8-3.9,8.1c0,3.1,1.2,5.7,3.6,7.8c1.2,1.1,2.8,2,4.6,2.8c1.9,0.8,5.6,2.1,11.3,3.9
				c10.2,3.4,17.8,7,22.9,10.9c8.1,6.8,12.1,16.1,12.1,27.9c0,13.3-4.5,24.1-13.6,32.5s-20.9,12.5-35.4,12.5
				C417.9,342.4,402.7,335.9,390.5,322.8z"/>
			<path class="st1" d="M484.3,339.5l46.1-130.8H565L611,339.5h-34.5l-7.6-24.3h-42.8l-7.6,24.3H484.3z M543.9,257.9l-10.5,33h28.3
				l-10.3-33l-1.8-7.1c-0.6-2.8-1.1-5.7-1.5-8.8c-0.4-3.1-0.5-6.7-0.5-10.8c0,4.6-0.1,8.2-0.4,10.9s-0.7,5.6-1.5,8.7L543.9,257.9z"
				/>
		</g>
		<g>
			<path class="st1" d="M71.8,366.1L59.9,382h-1.4l-11.7-16v26.6H40V356h8l11.4,15.7L70.8,356h7.9v36.6h-6.9
				C71.8,392.6,71.8,366.1,71.8,366.1z"/>
			<path class="st1" d="M123.9,392.6H96.5c0-12.2,0-24.4,0-36.6h27.4v6.7h-20.6v8.4h19.8v6.4h-19.8v8.3h20.5L123.9,392.6
				L123.9,392.6z"/>
			<path class="st1" d="M152.3,362.2h-11.6V356c10.6,0,19.5,0,30.1,0v6.3h-11.6v30.3h-6.9V362.2z"/>
			<path class="st1" d="M212.4,385.7h-19.1l-3.1,6.9h-7.5l16.4-36.6h7.5l16.4,36.6h-7.5L212.4,385.7z M202.9,363.6l-6.8,15.6h13.6
				L202.9,363.6z"/>
			<path class="st1" d="M245,356v30.2h18.8v6.4h-25.7V356H245z"/>
			<path class="st1" d="M312.1,366.1L300.1,382h-1.4l-11.7-16v26.6h-6.9V356h8l11.5,15.7l11.5-15.7h7.9v36.6h-6.9L312.1,366.1
				L312.1,366.1z"/>
			<path class="st1" d="M364.2,392.6h-27.4c0-12.2,0-24.4,0-36.6h27.4v6.7h-20.5v8.4h19.8v6.4h-19.8v8.3h20.5V392.6z"/>
			<path class="st1" d="M413.2,388c-3.8,3.7-8.6,5.4-13.9,5.4c-13.6,0-19.4-9.4-19.4-18.9c0-9.6,6.2-19.3,19.4-19.3
				c5,0,9.7,1.9,13.4,5.6l-4.6,4.4c-2.4-2.4-5.6-3.5-8.8-3.5c-8.8,0-12.6,6.6-12.6,12.7c0,6.1,3.6,12.4,12.6,12.4
				c3.2,0,6.8-1.3,9.2-3.7L413.2,388z"/>
			<path class="st1" d="M452.9,385.7h-19.1l-3.1,6.9h-7.5l16.4-36.6h7.5l16.4,36.6H456L452.9,385.7z M450.1,379.2l-6.8-15.6
				l-6.8,15.6H450.1z M451.9,344.8h-7.5l-3.9,7.1v0.3h5.6l5.8-7.2V344.8z"/>
			<path class="st1" d="M502.2,355.9h6.9v36.6h-4.3v0l-19.2-24.7v24.7h-6.9V356h5.6l17.9,22.7L502.2,355.9L502.2,355.9z"/>
			<path class="st1" d="M526.9,392.6V356h6.8v36.6H526.9z"/>
			<path class="st1" d="M583.9,388c-3.8,3.7-8.6,5.4-13.9,5.4c-13.6,0-19.3-9.4-19.4-18.9c0-9.6,6.2-19.3,19.4-19.3
				c5,0,9.7,1.9,13.4,5.6l-4.6,4.4c-2.4-2.4-5.7-3.5-8.8-3.5c-8.8,0-12.7,6.6-12.6,12.7c0,6.1,3.6,12.4,12.6,12.4
				c3.2,0,6.8-1.3,9.2-3.7L583.9,388z"/>
			<path class="st1" d="M623.6,385.7h-19.1l-3.1,6.9h-7.5l16.4-36.6h7.5l16.4,36.6h-7.5L623.6,385.7z M614,363.6l-6.8,15.6h13.6
				L614,363.6z"/>
		</g>
	</g>
	<g>
		<path class="st1" d="M555.6,183.5c0,5.4-3.6,10-9.9,10c-6.3,0-9.9-4.6-9.9-10s3.6-10,9.9-10C552.1,173.5,555.6,178.1,555.6,183.5z
			 M545.7,190.9c4.5,0,7-3.3,7-7.4c0-4.1-2.5-7.4-7-7.4c-4.5,0-7,3.3-7,7.4C538.7,187.6,541.3,190.9,545.7,190.9z M548.1,184.9
			c3.7-0.8,2.9-6.4-1.5-6.4c-1.6,0-3.2,0-4.8,0v10.1h2.7v-3.1h0.9l2.4,3.1h2.9v-0.6L548.1,184.9z M546.5,180.8c1.6,0,1.6,2.3,0,2.3
			h-2.1v-2.3H546.5z"/>
	</g>
</g>
</svg>
