<?xml version="1.0" encoding="utf-8"?>
<!-- Generator: Adobe Illustrator 24.3.0, SVG Export Plug-In . SVG Version: 6.00 Build 0)  -->
<svg version="1.1" id="Capa_1" xmlns="http://www.w3.org/2000/svg" xmlns:xlink="http://www.w3.org/1999/xlink" x="0px" y="0px"
	 viewBox="0 0 668 700" style="enable-background:new 0 0 668 700;" xml:space="preserve">
<style type="text/css">
	.st0{clip-path:url(#SVGID_2_);fill:#1156A3;}
	.st1{clip-path:url(#SVGID_4_);}
	.st2{fill:#774E3E;}
	.st3{fill:#F9D5BE;}
	.st4{fill:#FFFFFF;}
	.st5{opacity:0.35;fill:#C69E89;enable-background:new    ;}
	.st6{opacity:0.55;fill:#CCCCCC;enable-background:new    ;}
	.st7{fill:#BABABA;}
	.st8{clip-path:url(#SVGID_6_);}
	.st9{fill:#FFED00;}
</style>
<g>
	<g>
		<defs>
			<rect id="SVGID_1_" width="668" height="700"/>
		</defs>
		<clipPath id="SVGID_2_">
			<use xlink:href="#SVGID_1_"  style="overflow:visible;"/>
		</clipPath>
		<rect class="st0" width="668" height="700"/>
	</g>
	<g>
		<defs>
			<rect id="SVGID_3_" width="668" height="700"/>
		</defs>
		<clipPath id="SVGID_4_">
			<use xlink:href="#SVGID_3_"  style="overflow:visible;"/>
		</clipPath>
		<g class="st1">
			<g>
				<path class="st2" d="M171.9,285.1c0.2,41.4,13.1,68.7,20.6,70.8c24,6.5,73.7-99.2,141.7-99.2l0,0l0,0
					c68,0,117.8,105.6,141.7,99.2c7.5-2,20.3-31.2,20.3-72.6c0-47.1-3.6-118.8-55.1-114.9c0,0,3.3-40.1-73.6-42.7
					C340.6,124.7,170.8,99.5,171.9,285.1z"/>
				<g>
					<path class="st3" d="M29.4,692.9c3.4-62.1,93.9-78.2,167.4-89.6c39.3-6.1,51.6-45.1,54.7-80.2c24.9,22.1,57.1,44.6,82.5,44.6
						c25.2,0,57.4-22.6,82.5-44.8c3.1,35.1,15.4,74.2,54.7,80.3c73.5,11.4,162.9,31.4,166.3,93.5c3.4,62.1,7.2,213.3,7.2,213.3
						H337.8h-7.6h-307C23.2,910,26,755,29.4,692.9z"/>
					<path class="st4" d="M29.4,692.9c3.4-62.1,93.9-78.2,167.4-89.6c39.3-6.1,111.7,30.5,137.2,30.5c25.2,0,97.8-36.6,137.2-30.5
						c73.5,11.4,158.9,27.5,162.3,89.6S644.8,910,644.8,910h-307h-7.6h-307C23.2,910,26,755,29.4,692.9z"/>
					<path class="st3" d="M251.5,523.1c0.5-5.9,0.9-11.6,1-17.1h163.2c0.1,5.4,0.4,11.1,0.9,16.9c-25,22.1-57.4,44.8-82.5,44.8
						C308.5,567.7,276.4,545.1,251.5,523.1z"/>
					<path class="st5" d="M251.5,523.1c0.5-5.9,0.9-11.6,1-17.1h163.2c0.1,5.4,0.4,11.1,0.9,16.9c-25,22.1-57.4,44.8-82.5,44.8
						C308.5,567.7,276.4,545.1,251.5,523.1z"/>
				</g>
				<path class="st3" d="M170.1,335.1c8.1-2.7,15.6,1.8,21.4,7.7c-0.3-7.7-0.2-13.6,0-16.7c0-92,75.6-144.3,142.4-144.4
					c66.8,0.1,142.4,52.4,142.4,144.4c0.3,3.1,0.3,9,0,16.7c5.8-5.9,13.3-10.4,21.4-7.7c13,4.3,6.5,79.7-31.2,93.2
					c-1.1,0.4-2.1,0.5-3.1,0.8c-4.9,17.4-11.5,34.3-20.3,48.3c-10.2,16.1-69.6,79.2-109.1,79.2c-40.1,0-98.9-63.1-109.1-79.2
					c-8.9-14-15.5-30.9-20.3-48.3c-1-0.3-1.9-0.4-3.1-0.8C163.7,414.8,157.3,339.4,170.1,335.1z"/>
				<path class="st2" d="M338.9,146.8c-125.3,0-171,87.1-166.6,158c2,31.9,16.3,73.9,16.3,73.9c1.6,2.1,7.7,0.8,7.1-3
					c-10.9-64.8,14.2-123.2,34.2-141c64.9,19,145.2,20.1,213.8-1c0,0,40.7,68.5,30,142c-0.6,3.8,5.5,5.1,7.2,3
					c0,0,15.7-47.9,15.7-79.9C496.4,267.2,481.1,146.8,338.9,146.8z"/>
			</g>
			<path class="st4" d="M24.9,689.1c3.4-62.1,109.8-78.2,183.4-89.6l125.8,231.9l126.5-233.5c73.5,11.4,178.9,29.1,182.4,91.3
				c3.4,62.1,1.7,221,1.7,221H337.8h-7.6h-307C23.2,910,21.6,751.2,24.9,689.1z"/>
			<polygon class="st6" points="423.7,583.7 333.6,633.7 244.3,583.7 202.4,602.5 246.1,696.6 334,643.2 421.9,696.6 465.6,602.5 
							"/>
			<polygon class="st4" points="434.6,560.9 333.5,630.6 233.3,560.9 184.6,595.9 238.6,690.6 333.7,637.1 429.4,690.6 483.4,595.9 
							"/>
			<path class="st7" d="M345.9,701.7c0,6.1-5.2,11.1-11.6,11.1c-6.5,0-11.6-5-11.6-11.1s5.2-11.1,11.6-11.1
				C340.7,690.6,345.9,695.6,345.9,701.7z"/>
			<path class="st7" d="M345.9,738.1c0,6.1-5.2,11.1-11.6,11.1c-6.5,0-11.6-5-11.6-11.1s5.2-11.1,11.6-11.1
				C340.7,727,345.9,732,345.9,738.1z"/>
			<path class="st7" d="M345.9,774.5c0,6.1-5.2,11.1-11.6,11.1c-6.5,0-11.6-5-11.6-11.1s5.2-11.1,11.6-11.1
				C340.7,763.3,345.9,768.3,345.9,774.5z"/>
		</g>
	</g>
	<g>
		<defs>
			<rect id="SVGID_5_" width="668" height="700"/>
		</defs>
		<clipPath id="SVGID_6_">
			<use xlink:href="#SVGID_5_"  style="overflow:visible;"/>
		</clipPath>
		<g class="st8">
			<path class="st9" d="M645.1,24v652H22.9V24H645.1 M668,0H0v700h668V0L668,0z"/>
		</g>
	</g>
</g>
</svg>
