<svg id="Capa_1" data-name="Capa 1" xmlns="http://www.w3.org/2000/svg" viewBox="0 0 200 200"><defs><style>.cls-1{fill:#ffde00;}</style></defs><path class="cls-1" d="M186.72,102.24a89,89,0,1,1-89-89,89,89,0,0,1,89,89"/><path d="M97,126.48H81.3A2.28,2.28,0,0,1,79,124.2v-7.13a35.66,35.66,0,0,1-6.86-2.83l-5,5a2.26,2.26,0,0,1-3.21,0L52.83,108.19a2.29,2.29,0,0,1,0-3.22l5.05-5A34.33,34.33,0,0,1,55,93.07H47.91a2.27,2.27,0,0,1-2.28-2.27V75.13a2.27,2.27,0,0,1,2.28-2.27H55A34.91,34.91,0,0,1,57.88,66l-5-5a2.28,2.28,0,0,1,0-3.22L63.92,46.66a2.34,2.34,0,0,1,3.21,0l5,5A36.07,36.07,0,0,1,79,48.86V41.73a2.27,2.27,0,0,1,2.27-2.27H97a2.27,2.27,0,0,1,2.27,2.27v7.13a35.54,35.54,0,0,1,6.86,2.84l5-5a2.27,2.27,0,0,1,3.22,0l11.08,11.08a2.28,2.28,0,0,1,0,3.22l-5,5a35.8,35.8,0,0,1,2.84,6.86h7.13a2.26,2.26,0,0,1,2.27,2.27V90.8a2.26,2.26,0,0,1-2.27,2.27h-7.13a35.89,35.89,0,0,1-2.84,6.87l5,5a2.28,2.28,0,0,1,0,3.22l-11.08,11.08a2.28,2.28,0,0,1-3.22,0l-5-5a35.14,35.14,0,0,1-6.86,2.83v7.13A2.27,2.27,0,0,1,97,126.48m-13.4-4.55H94.7v-6.61a2.28,2.28,0,0,1,1.75-2.21,30.62,30.62,0,0,0,8.85-3.66,2.28,2.28,0,0,1,2.79.33l4.67,4.66,7.86-7.86L116,101.92a2.29,2.29,0,0,1-.34-2.8,30.53,30.53,0,0,0,3.67-8.85,2.27,2.27,0,0,1,2.22-1.74h6.6V77.41h-6.6a2.28,2.28,0,0,1-2.22-1.74,30.65,30.65,0,0,0-3.67-8.87A2.27,2.27,0,0,1,116,64l4.66-4.66-7.86-7.87-4.67,4.67a2.27,2.27,0,0,1-2.79.33,30.83,30.83,0,0,0-8.85-3.66,2.28,2.28,0,0,1-1.75-2.21V44H83.58v6.6a2.29,2.29,0,0,1-1.74,2.21A31,31,0,0,0,73,56.48a2.27,2.27,0,0,1-2.79-.33l-4.67-4.67-7.86,7.87L62.32,64a2.26,2.26,0,0,1,.34,2.79A31,31,0,0,0,59,75.67a2.25,2.25,0,0,1-2.21,1.73h-6.6V88.53h6.6A2.25,2.25,0,0,1,59,90.27a31.24,31.24,0,0,0,3.66,8.85,2.26,2.26,0,0,1-.33,2.8l-4.66,4.66,7.86,7.86,4.67-4.66a2.28,2.28,0,0,1,2.79-.33,30.68,30.68,0,0,0,8.86,3.66,2.28,2.28,0,0,1,1.74,2.21Z"/><path d="M89.14,100.57A17.6,17.6,0,1,1,106.74,83a17.63,17.63,0,0,1-17.6,17.6m0-30.65a13,13,0,1,0,13,13,13.07,13.07,0,0,0-13-13"/><path d="M109,165H97.75a2.28,2.28,0,0,1-2.28-2.28v-4.63a27.13,27.13,0,0,1-4.14-1.71l-3.28,3.27a2.27,2.27,0,0,1-3.22,0l-7.93-7.93a2.28,2.28,0,0,1,0-3.22l3.27-3.27a25.92,25.92,0,0,1-1.72-4.15H73.82a2.27,2.27,0,0,1-2.27-2.27V127.59a2.27,2.27,0,0,1,2.27-2.27H77.1v4.55h-1v6.68h4.08a2.27,2.27,0,0,1,2.21,1.74,21.34,21.34,0,0,0,2.55,6.16,2.28,2.28,0,0,1-.33,2.79l-2.89,2.89,4.73,4.72L89.33,152a2.28,2.28,0,0,1,2.79-.34,21.3,21.3,0,0,0,6.16,2.55,2.28,2.28,0,0,1,1.74,2.21v4.08h6.68v-4.09a2.28,2.28,0,0,1,1.74-2.21,21.5,21.5,0,0,0,6.17-2.54,2.27,2.27,0,0,1,2.79.33l2.88,2.88,4.73-4.72-2.89-2.88a2.28,2.28,0,0,1-.33-2.8,21.63,21.63,0,0,0,2.55-6.16,2.27,2.27,0,0,1,2.21-1.74h4.08v-6.68h-4.08a2.27,2.27,0,0,1-2.21-1.74,21.63,21.63,0,0,0-2.55-6.16,2.27,2.27,0,0,1,.33-2.79l2.89-2.89-1.21-1.21,3.22-3.21,2.81,2.81a2.28,2.28,0,0,1,0,3.22l-3.27,3.27a25.88,25.88,0,0,1,1.71,4.15h4.63a2.28,2.28,0,0,1,2.28,2.28v11.23a2.28,2.28,0,0,1-2.28,2.27h-4.63a25.88,25.88,0,0,1-1.71,4.15l3.27,3.27a2.28,2.28,0,0,1,0,3.22l-7.94,7.93a2.25,2.25,0,0,1-3.21,0l-3.28-3.27a26.83,26.83,0,0,1-4.15,1.71v4.63A2.27,2.27,0,0,1,109,165"/><path d="M103.36,146.46a13.27,13.27,0,0,1-13.25-13.25h4.55a8.71,8.71,0,1,0,8.7-8.7V120a13.25,13.25,0,1,1,0,26.5"/><path class="cls-1" d="M100,193.71A93.71,93.71,0,1,1,193.72,100,93.83,93.83,0,0,1,100,193.71"/><path d="M100,8.41A91.59,91.59,0,1,1,8.41,100,91.59,91.59,0,0,1,100,8.41m0-4.24A95.83,95.83,0,1,0,195.83,100,95.93,95.93,0,0,0,100,4.17"/><rect x="100.78" y="70.28" width="54.2" height="7.01"/><rect x="45.03" y="70.28" width="56.78" height="7.01"/><path d="M100.06,107.55v-1.79h1.75v-2.7h-1.75v-2.5h1.75V81.13H45v21.93H58v-2.5h7.32v2.5H58v2.7h7.32v1.79H45v16.84h56.78V107.55Zm-23.8,0h-9v-1.79h9Zm0-4.49h-9v-2.49h9Zm10.92,4.49h-9v-1.79h9Zm0-4.49h-9v-2.49h9Zm10.91,4.49h-9v-1.79h9Zm0-4.49h-9v-2.49h9Z"/><path d="M109.73,100.56v2.5h-9v2.7h9v1.79h-9v16.84H155V107.55H133.52v-1.79h8.88v-2.7h-8.88v-2.5h8.88v2.5H155V81.13H100.78v19.43Zm12.88,0h9v2.49h-9Zm0,5.2h9v1.79h-9Zm-10.92-5.2h9v2.49h-9Zm0,5.2h9v1.79h-9Z"/><polygon points="17.17 129.72 43.56 129.72 43.56 70.28 30.37 79.09 17.17 129.72"/><path d="M169.64,79.09l-13.2-8.81v59.44h26.38Zm-4,45.61a1.53,1.53,0,1,1,1.42-1.53,1.48,1.48,0,0,1-1.42,1.53m0-5.43a2.51,2.51,0,1,1,2.32-2.51,2.41,2.41,0,0,1-2.32,2.51m0-6a4.31,4.31,0,1,1,4-4.29,4.14,4.14,0,0,1-4,4.29"/><path class="cls-1" d="M79.35,89a1.79,1.79,0,0,0-1.9-1.82c-1.23,0-2,1.09-2,3.24,0,1.56.32,3,2.11,3,1.12,0,1.66-.82,1.79-1.88h3.37a4.84,4.84,0,0,1-5.11,4.6c-3.53,0-5.67-2.26-5.67-5.87s2.34-5.83,5.33-5.83c3.27,0,5.09,1.68,5.38,4.54Z"/><path class="cls-1" d="M95,90.26c0,3.78-2.45,5.91-5.61,5.91-3.36,0-5.6-2.16-5.6-5.94a5.37,5.37,0,0,1,5.6-5.76c3.81,0,5.61,2.86,5.61,5.79m-7.71,0c0,1.42.42,3.2,2.1,3.2,1.51,0,2.11-1.36,2.11-3.2,0-1.51-.6-3.12-2.14-3.07s-2.07,1.67-2.07,3.07"/><path class="cls-1" d="M100,92v3.88H96.5V84.76h5c3.56,0,4.73,1,4.73,3.16a2.56,2.56,0,0,1-1.79,2.72c1.13.44,1.81.72,1.81,3,0,1.46,0,1.94.37,1.94v.35h-3.55a7.51,7.51,0,0,1-.18-1.95c0-1.45-.23-1.93-1.86-1.93Zm0-2.44h1.38c1.09,0,1.67-.28,1.67-1s-.6-1.15-1.42-1.15H100Z"/><polygon class="cls-1" points="107.35 84.77 117.15 84.77 117.15 87.68 114.01 87.68 114.01 95.88 110.5 95.88 110.5 87.68 107.35 87.68 107.35 84.77"/><polygon class="cls-1" points="118.75 95.88 118.75 84.76 127.47 84.76 127.47 87.36 122.26 87.36 122.26 88.94 126.67 88.94 126.67 91.54 122.26 91.54 122.26 93.28 127.68 93.28 127.68 95.88 118.75 95.88"/></svg>