<?xml version="1.0" encoding="utf-8"?>
<!-- Generator: Adobe Illustrator 24.3.0, SVG Export Plug-In . SVG Version: 6.00 Build 0)  -->
<svg version="1.1" id="Capa_1" xmlns="http://www.w3.org/2000/svg" xmlns:xlink="http://www.w3.org/1999/xlink" x="0px" y="0px"
	 viewBox="0 0 200 200" style="enable-background:new 0 0 200 200;" xml:space="preserve">
<style type="text/css">
	.st0{fill:#FFDE00;}
	.st1{fill:#0056A3;}
</style>
<path class="st0" d="M186.7,102.2c0,49.2-39.8,89-89,89s-89-39.8-89-89s39.8-89,89-89S186.7,53.1,186.7,102.2"/>
<path class="st0" d="M97,126.5H81.3c-1.3,0-2.3-1-2.3-2.3c0,0,0,0,0,0v-7.1c-2.4-0.7-4.7-1.7-6.9-2.8l-5,5c-0.9,0.9-2.3,0.9-3.2,0
	c0,0,0,0,0,0l-11.1-11c-0.9-0.9-0.9-2.3,0-3.2l5-5c-1.2-2.2-2.2-4.5-2.9-6.9h-7.1c-1.3,0-2.3-1-2.3-2.3c0,0,0,0,0,0V75.1
	c0-1.3,1-2.3,2.3-2.3c0,0,0,0,0,0H55c0.7-2.4,1.7-4.7,2.9-6.9l-5-5c-0.9-0.9-0.9-2.3,0-3.2l11-11.1c0.9-0.8,2.3-0.8,3.2,0l5,5
	c2.2-1.2,4.5-2.1,6.9-2.8v-7.1c0-1.3,1-2.3,2.3-2.3H97c1.3,0,2.3,1,2.3,2.3v7.1c2.4,0.7,4.7,1.7,6.9,2.8l5-5c0.9-0.9,2.3-0.9,3.2,0
	c0,0,0,0,0,0l11.1,11.1c0.9,0.9,0.9,2.3,0,3.2l-5,5c1.2,2.2,2.1,4.5,2.8,6.9h7.1c1.2,0,2.3,1,2.3,2.2c0,0,0,0,0,0v15.7
	c0,1.2-1,2.3-2.2,2.3c0,0,0,0,0,0h-7.1c-0.7,2.4-1.7,4.7-2.8,6.9l5,5c0.9,0.9,0.9,2.3,0,3.2l-11.1,11.1c-0.9,0.9-2.3,0.9-3.2,0l-5-5
	c-2.2,1.2-4.5,2.1-6.9,2.8v7.1C99.3,125.5,98.3,126.5,97,126.5C97,126.5,97,126.5,97,126.5 M83.6,121.9h11.1v-6.6
	c0-1.1,0.7-2,1.8-2.2c3.1-0.7,6.1-2,8.8-3.7c0.9-0.5,2-0.4,2.8,0.3l4.7,4.7l7.9-7.9l-4.6-4.7c-0.7-0.7-0.9-1.9-0.3-2.8
	c1.7-2.7,2.9-5.7,3.7-8.8c0.2-1,1.2-1.7,2.2-1.7h6.6V77.4h-6.6c-1.1,0-2-0.7-2.2-1.7c-0.7-3.1-2-6.1-3.7-8.9
	c-0.6-0.9-0.4-2.1,0.3-2.8l4.7-4.7l-7.9-7.9l-4.7,4.7c-0.7,0.7-1.9,0.9-2.8,0.3c-2.7-1.7-5.7-2.9-8.8-3.7c-1-0.2-1.7-1.2-1.8-2.2V44
	H83.6v6.6c0,1-0.7,2-1.7,2.2c-3.1,0.8-6.1,2-8.8,3.7c-0.9,0.5-2,0.4-2.8-0.3l-4.7-4.7l-7.9,7.9l4.6,4.7c0.7,0.7,0.9,1.9,0.3,2.8
	c-1.7,2.8-2.9,5.7-3.7,8.9c-0.2,1-1.2,1.7-2.2,1.7h-6.6v11.1h6.6c1.1,0,2,0.7,2.2,1.7c0.8,3.1,2,6.1,3.7,8.8
	c0.6,0.9,0.4,2.1-0.3,2.8l-4.7,4.7l7.9,7.9l4.7-4.7c0.7-0.7,1.9-0.9,2.8-0.3c2.7,1.7,5.7,2.9,8.9,3.7c1,0.2,1.7,1.2,1.7,2.2
	L83.6,121.9z"/>
<path class="st0" d="M89.1,100.6c-9.7,0-17.6-7.9-17.6-17.6s7.9-17.6,17.6-17.6c9.7,0,17.6,7.9,17.6,17.6c0,0,0,0,0,0
	C106.7,92.7,98.9,100.6,89.1,100.6 M89.1,69.9c-7.2,0-13,5.8-13,13s5.8,13,13,13s13-5.8,13-13C102.1,75.8,96.3,70,89.1,69.9"/>
<path class="st0" d="M109,165H97.8c-1.3,0-2.3-1-2.3-2.3v-4.6c-1.4-0.5-2.8-1-4.1-1.7l-3.3,3.3c-0.9,0.9-2.3,0.9-3.2,0c0,0,0,0,0,0
	l-7.9-7.9c-0.9-0.9-0.9-2.3,0-3.2l3.3-3.3c-0.7-1.3-1.3-2.7-1.7-4.1h-4.6c-1.3,0-2.3-1-2.3-2.3l0,0v-11.2c0-1.3,1-2.3,2.3-2.3h3.3
	v4.5h-1v6.7h4.1c1.1,0,2,0.7,2.2,1.7c0.5,2.2,1.4,4.3,2.6,6.2c0.5,0.9,0.4,2-0.3,2.8l-2.9,2.9l4.7,4.7l2.9-2.8
	c0.7-0.7,1.9-0.9,2.8-0.3c1.9,1.2,4,2,6.2,2.6c1,0.2,1.7,1.2,1.7,2.2v4.1h6.7v-4.1c0-1,0.7-2,1.7-2.2c2.2-0.5,4.3-1.4,6.2-2.5
	c0.9-0.5,2-0.4,2.8,0.3l2.9,2.9l4.7-4.7l-2.9-2.9c-0.7-0.7-0.9-1.9-0.3-2.8c1.2-1.9,2-4,2.6-6.2c0.2-1,1.2-1.7,2.2-1.7h4.1v-6.7
	h-4.1c-1.1,0-2-0.7-2.2-1.7c-0.5-2.2-1.4-4.3-2.6-6.2c-0.5-0.9-0.4-2,0.3-2.8l2.9-2.9l-1.2-1.2l3.2-3.2l2.8,2.8
	c0.9,0.9,0.9,2.3,0,3.2l-3.3,3.3c0.7,1.3,1.3,2.7,1.7,4.2h4.6c1.3,0,2.3,1,2.3,2.3v11.2c0,1.3-1,2.3-2.3,2.3h-4.6
	c-0.4,1.4-1,2.8-1.7,4.1l3.3,3.3c0.9,0.9,0.9,2.3,0,3.2l-7.9,7.9c-0.9,0.9-2.3,0.9-3.2,0c0,0,0,0,0,0l-3.3-3.3
	c-1.3,0.7-2.7,1.3-4.2,1.7v4.6C111.2,164,110.2,165,109,165"/>
<path class="st0" d="M103.4,146.5c-7.3,0-13.2-5.9-13.3-13.3h4.6c0,4.8,3.9,8.7,8.7,8.7c4.8,0,8.7-3.9,8.7-8.7
	c0-4.8-3.9-8.7-8.7-8.7c0,0,0,0,0,0V120c7.3,0,13.3,5.9,13.3,13.3C116.6,140.6,110.7,146.5,103.4,146.5"/>
<path class="st1" d="M100,193.7c-51.8,0-93.7-42-93.7-93.7c0-51.8,42-93.7,93.7-93.7c51.8,0,93.7,42,93.7,93.7
	C193.7,151.7,151.7,193.6,100,193.7"/>
<path class="st0" d="M100,8.4c50.6,0,91.6,41,91.6,91.6s-41,91.6-91.6,91.6S8.4,150.6,8.4,100C8.4,49.4,49.4,8.4,100,8.4
	C100,8.4,100,8.4,100,8.4 M100,4.2C47.1,4.2,4.2,47.1,4.2,100s42.9,95.8,95.8,95.8s95.8-42.9,95.8-95.8c0,0,0,0,0,0
	C195.8,47.1,152.9,4.2,100,4.2"/>
<rect x="100.8" y="70.3" class="st0" width="54.2" height="7"/>
<rect x="45" y="70.3" class="st0" width="56.8" height="7"/>
<path class="st0" d="M100.1,107.6v-1.8h1.8v-2.7h-1.8v-2.5h1.8V81.1H45v21.9h13v-2.5h7.3v2.5H58v2.7h7.3v1.8H45v16.8h56.8v-16.8
	H100.1z M76.3,107.6h-9v-1.8h9V107.6z M76.3,103.1h-9v-2.5h9V103.1z M87.2,107.6h-9v-1.8h9V107.6z M87.2,103.1h-9v-2.5h9V103.1z
	 M98.1,107.6h-9v-1.8h9V107.6z M98.1,103.1h-9v-2.5h9V103.1z"/>
<path class="st0" d="M109.7,100.6v2.5h-9v2.7h9v1.8h-9v16.8H155v-16.8h-21.5v-1.8h8.9v-2.7h-8.9v-2.5h8.9v2.5H155V81.1h-54.2v19.4
	H109.7z M122.6,100.6h9v2.5h-9V100.6z M122.6,105.8h9v1.8h-9V105.8z M111.7,100.6h9v2.5h-9V100.6z M111.7,105.8h9v1.8h-9V105.8z"/>
<polygon class="st0" points="17.2,129.7 43.6,129.7 43.6,70.3 30.4,79.1 "/>
<path class="st0" d="M169.6,79.1l-13.2-8.8v59.4h26.4L169.6,79.1z M165.6,124.7c-0.8,0.1-1.6-0.6-1.6-1.4c-0.1-0.8,0.6-1.6,1.4-1.6
	c0.8-0.1,1.6,0.6,1.6,1.4c0,0,0,0.1,0,0.1C167.1,124,166.5,124.7,165.6,124.7 M165.6,119.3c-1.4,0.1-2.6-0.9-2.7-2.3
	c-0.1-1.4,0.9-2.6,2.3-2.7c1.4-0.1,2.6,0.9,2.7,2.3c0,0.1,0,0.1,0,0.2C168,118.1,167,119.2,165.6,119.3
	C165.6,119.3,165.6,119.3,165.6,119.3 M165.6,113.3c-2.4,0.2-4.4-1.6-4.6-4s1.6-4.4,4-4.6c2.4-0.2,4.4,1.6,4.6,4c0,0.1,0,0.2,0,0.3
	C169.7,111.3,167.9,113.2,165.6,113.3C165.7,113.3,165.6,113.3,165.6,113.3"/>
<path class="st1" d="M79.3,89c0-1-0.8-1.8-1.8-1.8c0,0-0.1,0-0.1,0c-1.2,0-2,1.1-2,3.2c0,1.6,0.3,3,2.1,3c1.1,0,1.7-0.8,1.8-1.9h3.4
	c-0.1,2.7-2.4,4.7-5.1,4.6c0,0,0,0,0,0c-3.5,0-5.7-2.3-5.7-5.9s2.3-5.8,5.3-5.8c3.3,0,5.1,1.7,5.4,4.5L79.3,89z"/>
<path class="st1" d="M95,90.3c0,3.8-2.4,5.9-5.6,5.9c-3.4,0-5.6-2.2-5.6-5.9c-0.2-3,2-5.5,5-5.8c0.2,0,0.4,0,0.6,0
	C93.2,84.5,95,87.3,95,90.3 M87.3,90.3c0,1.4,0.4,3.2,2.1,3.2c1.5,0,2.1-1.4,2.1-3.2c0-1.5-0.6-3.1-2.1-3.1S87.3,88.9,87.3,90.3"/>
<path class="st1" d="M100,92v3.9h-3.5V84.8h5c3.6,0,4.7,1,4.7,3.2c0.1,1.2-0.6,2.4-1.8,2.7c1.1,0.4,1.8,0.7,1.8,3
	c0,1.5,0,1.9,0.4,1.9v0.3h-3.6c-0.1-0.6-0.2-1.3-0.2-1.9c0-1.4-0.2-1.9-1.9-1.9L100,92z M100,89.6h1.4c1.1,0,1.7-0.3,1.7-1
	s-0.6-1.2-1.4-1.2H100V89.6z"/>
<polygon class="st1" points="107.3,84.8 117.2,84.8 117.2,87.7 114,87.7 114,95.9 110.5,95.9 110.5,87.7 107.3,87.7 "/>
<polygon class="st1" points="118.8,95.9 118.8,84.8 127.5,84.8 127.5,87.4 122.3,87.4 122.3,88.9 126.7,88.9 126.7,91.5 122.3,91.5 
	122.3,93.3 127.7,93.3 127.7,95.9 "/>
</svg>
