<?xml version="1.0" encoding="utf-8"?>
<!-- Generator: Adobe Illustrator 24.3.0, SVG Export Plug-In . SVG Version: 6.00 Build 0)  -->
<svg version="1.1" id="Capa_1" xmlns="http://www.w3.org/2000/svg" xmlns:xlink="http://www.w3.org/1999/xlink" x="0px" y="0px"
	 viewBox="0 0 200 200" style="enable-background:new 0 0 200 200;" xml:space="preserve">
<style type="text/css">
	.st0{fill:#0056A3;}
	.st1{fill:#FFDE00;}
</style>
<path class="st0" d="M100,193.7c-51.8,0-93.7-42-93.7-93.7S48.2,6.3,100,6.3s93.7,42,93.7,93.7c0,0,0,0,0,0
	C193.7,151.7,151.7,193.6,100,193.7"/>
<path class="st1" d="M100,8.4c50.6,0,91.6,41,91.6,91.6s-41,91.6-91.6,91.6S8.4,150.6,8.4,100C8.4,49.4,49.4,8.4,100,8.4
	C100,8.4,100,8.4,100,8.4 M100,4.2C47.1,4.2,4.2,47.1,4.2,100s42.9,95.8,95.8,95.8s95.8-42.9,95.8-95.8c0,0,0,0,0,0
	C195.8,47.1,152.9,4.2,100,4.2"/>
<path class="st0" d="M86.9,99.2v72.6c0,1.3,1,2.3,2.3,2.3c0.4,0,0.8-0.1,1.2-0.3l12.3-7.2c1-0.8,1.2-2.2,0.4-3.3
	c-0.6-0.8-1.8-1.1-2.7-0.7l-8,4.4c-0.7,0.6-0.4-3.3-0.4-3.7v-64c0-1-0.7-1.9-1.6-2.2L89.9,97c-1.2-0.4-2.5,0.3-2.9,1.6
	C86.9,98.8,86.9,99,86.9,99.2"/>
<path class="st1" d="M89.2,174.3c-0.4,0-0.9-0.1-1.3-0.3c-0.8-0.5-1.3-1.3-1.3-2.2V99.2c0-1.4,1.1-2.5,2.5-2.6c0.3,0,0.5,0,0.8,0.1
	l0.4,0.1c1.1,0.3,1.8,1.3,1.8,2.4v64c0,0.1,0,0.2,0,0.4c-0.1,1-0.1,2.1,0.1,3.1l8-4.4c0.6-0.3,1.3-0.4,2-0.2
	c1.4,0.4,2.1,1.8,1.7,3.2c-0.2,0.6-0.6,1.2-1.2,1.5L90.5,174C90.1,174.2,89.6,174.3,89.2,174.3 M89.2,97.1c-0.4,0-0.9,0.1-1.2,0.4
	c-0.6,0.4-0.9,1-0.9,1.7v72.6c0,0.7,0.4,1.4,1,1.8c0.7,0.4,1.5,0.4,2.1,0l12.3-7.2c1-0.6,1.4-1.9,0.8-2.9c-0.6-1-1.9-1.4-2.9-0.8
	l0,0l-8,4.4c-0.1,0.1-0.3,0.1-0.4,0c-0.4-0.2-0.5-1.1-0.3-3.6c0-0.2,0-0.3,0-0.4v-64c0-0.9-0.6-1.7-1.5-2l-0.4-0.1
	C89.5,97.1,89.3,97.1,89.2,97.1"/>
<path class="st0" d="M146.4,62.8l-0.1,70.5c0,0.8-0.5,1.6-1.2,2l-6,3.3c-1.1,0.6-1.5,2-0.9,3.1c0.4,0.7,1.2,1.2,2,1.2h0.4
	c0.4,0,0.8-0.1,1.1-0.3l8.3-4.8c0.7-0.4,1.2-1.2,1.1-2l0.4-73c0-0.6-0.2-1.2-0.7-1.7l-0.2-0.2c-0.8-0.8-2.2-0.9-3.1-0.1l-0.3,0.2
	C146.7,61.4,146.4,62.1,146.4,62.8"/>
<path class="st1" d="M140.6,143.1h-0.4c-1.4,0-2.5-1.1-2.5-2.5c0-0.2,0-0.4,0.1-0.6c0.2-0.7,0.6-1.2,1.2-1.6l6-3.3
	c0.7-0.4,1.1-1.1,1.1-1.8l0.1-70.5c0-0.8,0.3-1.5,0.9-1.9l0.3-0.2c1-0.8,2.5-0.8,3.4,0.2L151,61c0.5,0.5,0.8,1.1,0.8,1.8l-0.4,73
	c0,0.9-0.5,1.7-1.3,2.2l-8.3,4.8C141.5,143,141,143.1,140.6,143.1 M146.7,62.8l-0.1,70.5c0,0.9-0.5,1.8-1.3,2.2l-6,3.3
	c-1,0.6-1.4,1.8-0.8,2.8c0.1,0.1,0.1,0.2,0.2,0.3c0.4,0.5,1,0.8,1.6,0.8h0.4c0.4,0,0.7-0.1,1-0.3l8.3-4.8c0.6-0.4,1-1.1,1-1.8
	l0.4-73c0-0.6-0.2-1.1-0.6-1.5l-0.2-0.2c-0.8-0.8-2-0.8-2.8-0.1l-0.3,0.2C146.9,61.6,146.6,62.2,146.7,62.8"/>
<path class="st0" d="M128.7,57.2l-0.1,66.4c0,0.8-0.5,1.6-1.2,2l-6,3.3c-1.1,0.6-1.5,2-0.9,3.1c0.4,0.7,1.2,1.2,2,1.2h0.4
	c0.4,0,0.8-0.1,1.1-0.3l8.3-4.8c0.7-0.4,1.2-1.2,1.1-2l0.4-68.9c0-0.6-0.2-1.2-0.7-1.7l-0.2-0.2c-0.8-0.8-2.2-0.9-3.1-0.1l-0.3,0.2
	C129,55.9,128.7,56.5,128.7,57.2"/>
<path class="st1" d="M122.9,133.5h-0.3c-1.4,0-2.5-1.2-2.5-2.6c0-0.2,0-0.4,0.1-0.6c0.2-0.7,0.6-1.2,1.2-1.6l6-3.3
	c0.7-0.4,1.1-1.1,1.1-1.8l0.1-66.4c0-0.8,0.3-1.5,0.9-2l0.3-0.2c1-0.8,2.5-0.8,3.4,0.2l0.2,0.2c0.5,0.5,0.8,1.1,0.8,1.8l-0.4,68.9
	c0,0.9-0.5,1.7-1.3,2.2l-8.3,4.8C123.8,133.4,123.3,133.5,122.9,133.5 M129,57.2l-0.1,66.4c0,0.9-0.5,1.8-1.3,2.2l-6,3.3
	c-0.5,0.3-0.9,0.7-1,1.3c-0.3,1.1,0.4,2.3,1.5,2.6c0.2,0,0.3,0.1,0.5,0.1h0.3c0.4,0,0.7-0.1,1-0.3l8.3-4.8c0.6-0.4,1-1.1,1-1.8
	l0.4-68.9c0-0.6-0.2-1.1-0.6-1.5l-0.2-0.2c-0.8-0.7-1.9-0.8-2.8-0.1l-0.3,0.2c-0.5,0.4-0.8,1-0.8,1.6"/>
<path class="st0" d="M113.4,47.7l-0.2,66.4c0,0.8-0.5,1.6-1.2,2l-6,3.3c-0.5,0.3-0.9,0.8-1.1,1.4c-0.3,1.2,0.4,2.5,1.6,2.8
	c0.2,0.1,0.4,0.1,0.6,0.1h0.4c0.4,0,0.8-0.1,1.2-0.3l8.3-4.8c0.7-0.4,1.2-1.2,1.2-2l0.4-68.9c0-0.6-0.2-1.2-0.7-1.7l-0.2-0.2
	c-0.8-0.8-2.2-0.9-3.1-0.1l-0.3,0.2C113.7,46.3,113.3,47,113.4,47.7"/>
<path class="st1" d="M107.5,123.9h-0.3c-1.4,0-2.5-1.1-2.5-2.5c0-0.2,0-0.4,0.1-0.6c0.2-0.7,0.6-1.2,1.2-1.6l6-3.3
	c0.7-0.4,1.1-1.1,1.1-1.8l0.2-66.4c0-0.8,0.3-1.5,0.9-2l0.3-0.2c1-0.8,2.5-0.8,3.4,0.2l0.2,0.2c0.5,0.5,0.8,1.1,0.8,1.8l-0.4,68.9
	c0,0.9-0.5,1.7-1.3,2.2l-8.3,4.8C108.4,123.8,108,123.9,107.5,123.9 M113.6,47.7l-0.2,66.4c0,0.9-0.5,1.8-1.3,2.2l-6,3.3
	c-0.5,0.3-0.9,0.7-1,1.3c-0.3,1.1,0.4,2.2,1.5,2.5c0.2,0,0.4,0.1,0.5,0.1h0.3c0.4,0,0.7-0.1,1-0.3l8.3-4.8c0.6-0.4,1-1.1,1-1.8
	l0.4-68.9c0-0.6-0.2-1.1-0.6-1.5l-0.2-0.2c-0.7-0.8-2-0.8-2.8-0.1l-0.3,0.2C113.8,46.5,113.5,47.1,113.6,47.7"/>
<path class="st0" d="M68.6,88.4V161c0,1.3,1,2.3,2.3,2.3c0.4,0,0.8-0.1,1.2-0.3l12.3-7.2c1.1-0.7,1.4-2.1,0.8-3.2
	c-0.6-1-2-1.4-3.1-0.8l-8,4.4c-0.7,0.6-0.4-3.3-0.4-3.7V88.6c0-1-0.7-1.9-1.6-2.2l-0.4-0.1c-1.2-0.4-2.5,0.3-2.9,1.6
	C68.6,88,68.6,88.2,68.6,88.4"/>
<path class="st1" d="M70.9,163.6c-1.4,0-2.6-1.1-2.6-2.5c0,0,0,0,0,0V88.4c0-0.8,0.4-1.5,1-2c0.7-0.5,1.5-0.7,2.3-0.4l0.4,0.1
	c1.1,0.3,1.8,1.3,1.8,2.4v63.9c0,0.1,0,0.2,0,0.4c-0.1,1-0.1,2.1,0.1,3.1l8-4.4c0.6-0.3,1.3-0.4,2-0.2c1.4,0.4,2.1,1.8,1.7,3.2
	c-0.2,0.6-0.6,1.2-1.2,1.5l-12.4,7.2C71.8,163.4,71.3,163.6,70.9,163.6 M70.9,86.3c-1.2,0-2.1,0.9-2.1,2.1V161
	c0,0.8,0.4,1.5,1.1,1.8c0.6,0.4,1.5,0.4,2.1,0l12.3-7.2c1-0.6,1.3-1.9,0.8-2.9c-0.3-0.5-0.7-0.8-1.2-1c-0.5-0.2-1.1-0.1-1.6,0.2
	l-8,4.4c-0.1,0.1-0.3,0.1-0.4,0c-0.4-0.2-0.5-1.1-0.3-3.6c0-0.2,0-0.3,0-0.4V88.6c0-0.9-0.6-1.7-1.5-2l-0.4-0.1
	C71.3,86.4,71.1,86.3,70.9,86.3"/>
<path class="st0" d="M50.5,78.8v72.6c0,1.3,1.1,2.3,2.3,2.3c0.4,0,0.8-0.1,1.2-0.3l12.3-7.2c1-0.8,1.3-2.2,0.5-3.2
	c-0.6-0.9-1.8-1.2-2.8-0.8l-8,4.4c-0.7,0.6-0.4-3.3-0.4-3.7v-64c0-1-0.7-1.9-1.6-2.2l-0.4-0.1c-1.2-0.4-2.5,0.3-2.9,1.6
	C50.5,78.4,50.5,78.6,50.5,78.8"/>
<path class="st1" d="M52.8,153.9c-0.4,0-0.9-0.1-1.3-0.3c-0.8-0.5-1.3-1.3-1.3-2.2V78.8c0-1.4,1.1-2.6,2.5-2.6c0.3,0,0.5,0,0.8,0.1
	l0.4,0.1c1.1,0.3,1.8,1.3,1.8,2.4v64c0,0.1,0,0.2,0,0.4c-0.1,1-0.1,2.1,0.1,3.1l8-4.4c0.6-0.3,1.3-0.4,2-0.2
	c0.6,0.2,1.2,0.6,1.5,1.2c0.7,1.2,0.2,2.7-1,3.4L54,153.6C53.6,153.8,53.2,153.9,52.8,153.9 M52.8,76.7c-1.2,0-2.1,0.9-2.1,2.1v72.6
	c0,1.2,0.9,2.1,2.1,2.1c0.4,0,0.7-0.1,1.1-0.3l12.3-7.2c1-0.6,1.3-1.9,0.8-2.9c-0.3-0.5-0.7-0.8-1.2-1c-0.5-0.2-1.1-0.1-1.6,0.2
	l-8,4.4c-0.1,0.1-0.3,0.1-0.4,0c-0.4-0.2-0.5-1.1-0.4-3.6c0-0.2,0-0.3,0-0.4V78.9c0-0.9-0.6-1.7-1.5-2l-0.4-0.1
	C53.2,76.8,53,76.7,52.8,76.7"/>
<path class="st0" d="M124.9,130.9c0,1.3-1,2.3-2.3,2.3s-2.3-1-2.3-2.3c0-1.3,1-2.3,2.3-2.3C123.9,128.6,124.9,129.6,124.9,130.9
	C124.9,130.9,124.9,130.9,124.9,130.9"/>
<path class="st1" d="M122.6,133.5c-1.4,0-2.5-1.1-2.5-2.5c0-1.4,1.1-2.5,2.5-2.5s2.5,1.1,2.5,2.5l0,0
	C125.1,132.3,124,133.5,122.6,133.5 M122.6,128.8c-1.2,0-2.1,0.9-2.1,2.1s0.9,2.1,2.1,2.1c1.2,0,2.1-0.9,2.1-2.1l0,0
	C124.7,129.8,123.8,128.8,122.6,128.8"/>
<path class="st0" d="M142.5,140.6c0,1.3-1,2.3-2.3,2.3c-1.3,0-2.3-1-2.3-2.3c0-1.3,1-2.3,2.3-2.3c0,0,0,0,0,0
	C141.5,138.2,142.5,139.3,142.5,140.6C142.5,140.6,142.5,140.6,142.5,140.6"/>
<path class="st1" d="M140.2,143.1c-1.4,0-2.5-1.1-2.5-2.5s1.1-2.5,2.5-2.5s2.5,1.1,2.5,2.5v0C142.8,142,141.6,143.1,140.2,143.1
	 M140.2,138.5c-1.2,0-2.1,0.9-2.1,2.1c0,1.2,0.9,2.1,2.1,2.1c1.2,0,2.1-0.9,2.1-2.1c0,0,0,0,0,0
	C142.3,139.4,141.4,138.5,140.2,138.5"/>
<path class="st0" d="M109.5,121.4c0,1.3-1,2.3-2.3,2.3s-2.3-1-2.3-2.3s1-2.3,2.3-2.3c0,0,0,0,0,0
	C108.4,119.1,109.5,120.1,109.5,121.4C109.5,121.4,109.5,121.4,109.5,121.4"/>
<path class="st1" d="M107.2,123.9c-1.4,0-2.5-1.1-2.5-2.5c0-1.4,1.1-2.5,2.5-2.5c1.4,0,2.5,1.1,2.5,2.5
	C109.7,122.8,108.6,123.9,107.2,123.9C107.2,123.9,107.2,123.9,107.2,123.9 M107.2,119.3c-1.2,0-2.1,0.9-2.1,2.1s0.9,2.1,2.1,2.1
	s2.1-0.9,2.1-2.1v0C109.2,120.2,108.3,119.3,107.2,119.3"/>
<polygon class="st0" points="40.7,71.9 113.7,30.7 161.5,58.3 89.9,100.4 "/>
<path class="st1" d="M90,100.6l-0.1-0.1L40.2,71.9l73.4-41.5l0.1,0.1l48.1,27.8l-0.3,0.2L90,100.6z M41.1,71.9L90,100.1l71-41.9
	L113.7,31L41.1,71.9z"/>
<polygon class="st0" points="40.7,71.9 40.9,69 45.5,66.5 90,97.6 89.9,100.4 161.5,58.3 161.2,56.1 90,97.6 89.9,100.4 "/>
<path class="st1" d="M89.7,100.8v-0.3L40.4,72.1l0.3-3.2l4.8-2.6L90,97.3l71.4-41.6l0.3,2.7l-0.1,0.1l-71.4,42v0.3l-0.2-0.1
	L89.7,100.8z M40.9,71.8L89.7,100v-2.3l-44.3-31l-4.3,2.4L40.9,71.8z M90.2,97.7v2.3l71-41.8l-0.2-1.6L90.2,97.7z"/>
<polygon class="st0" points="40.7,69.1 114.6,28.3 161.2,56.1 90,97.6 "/>
<path class="st1" d="M90,97.9L40.2,69.1l74.4-41.1l0.1,0.1l46.9,28l-0.3,0.2L90,97.9z M41.1,69.1L90,97.3l70.8-41.2l-46.2-27.5
	L41.1,69.1z"/>
<rect x="88.1" y="87.9" class="st0" width="4.3" height="3.1"/>
<path class="st1" d="M92.4,91.2h-4.3c-0.1,0-0.1-0.1-0.1-0.2v-3.1c0-0.1,0.1-0.2,0.2-0.2h4.3c0.1,0,0.2,0.1,0.2,0.2V91
	C92.6,91.1,92.5,91.2,92.4,91.2 M88.3,90.8h3.9v-2.8h-4L88.3,90.8z"/>
<polygon class="st0" points="92.4,91 93.7,88.5 93.7,85.4 92.4,87.9 "/>
<path class="st1" d="M92.4,91.2L92.4,91.2c-0.1,0-0.1-0.1-0.1-0.2v-3.1c0,0,0-0.1,0-0.1l1.3-2.5c0-0.1,0.1-0.1,0.2-0.1
	c0.1,0,0.1,0.1,0.1,0.2v3.1c0,0,0,0,0,0.1l-1.3,2.5C92.5,91.1,92.5,91.2,92.4,91.2 M92.6,87.9v2.4l1-1.9v-2.4L92.6,87.9z"/>
<polygon class="st0" points="88.1,91 85.9,89 85.9,85.9 88.1,87.9 "/>
<path class="st1" d="M88.1,91.2c0,0-0.1,0-0.1,0l-2.2-2c0,0-0.1-0.1-0.1-0.1v-3.2c0-0.1,0-0.1,0.1-0.2c0.1,0,0.1,0,0.2,0l2.2,2
	c0,0,0,0.1,0,0.1V91C88.3,91.1,88.2,91.1,88.1,91.2L88.1,91.2 M86.1,88.9l1.9,1.7V88l-1.8-1.7L86.1,88.9z"/>
<polygon class="st0" points="85.9,85.9 88.1,87.9 92.4,87.9 93.7,85.4 91.7,84.2 88.1,84.2 "/>
<path class="st1" d="M92.4,88.1h-4.3c-0.1,0-0.1,0-0.1-0.1l-2.2-2c0,0-0.1-0.1-0.1-0.1c0-0.1,0-0.1,0.1-0.1L88,84c0,0,0.1,0,0.1,0
	h3.6h0.1l2,1.2c0.1,0,0.1,0.1,0.1,0.2L92.5,88C92.5,88.1,92.5,88.1,92.4,88.1 M88.2,87.8h4.1l1.2-2.3l-1.8-1.1h-3.5l-2,1.6
	L88.2,87.8z"/>
<path class="st0" d="M92.3,85.8c-0.8,1.3-2.5,1.6-3.8,0.8c-0.3-0.2-0.6-0.5-0.8-0.8v-5.4c0,0,0.1,1.2,2.3,1.2s2.3-1.2,2.3-1.2
	L92.3,85.8z"/>
<path class="st1" d="M90,87.3c-1,0.1-1.9-0.5-2.4-1.3v-0.1v-5.4h0.3c0,0,0.2,1.1,2.1,1.1s2.1-1,2.1-1.1h0.3v5.5
	C92,86.8,91,87.3,90,87.3 M87.9,85.8c0.4,0.7,1.2,1.2,2.1,1.1c0.9,0.1,1.7-0.4,2.1-1.1v-4.6c-0.6,0.5-1.4,0.8-2.1,0.7
	c-0.8,0.1-1.5-0.2-2.1-0.7L87.9,85.8z"/>
<path class="st0" d="M92.3,80.4c0,0.7-1,1.3-2.3,1.3s-2.3-0.6-2.3-1.3s1-1.3,2.3-1.3S92.3,79.7,92.3,80.4"/>
<path class="st1" d="M90,81.9c-1.4,0-2.5-0.7-2.5-1.5S88.6,79,90,79s2.5,0.6,2.5,1.4S91.4,81.9,90,81.9 M90,79.3
	c-1.1,0-2.1,0.5-2.1,1.1s1,1.1,2.1,1.1s2.1-0.5,2.1-1.1S91.1,79.3,90,79.3"/>
<path class="st0" d="M90,82.4c-1.3,0-2.3-0.6-2.3-1.3"/>
<path class="st1" d="M90,82.6c-1.4,0-2.5-0.6-2.5-1.5h0.3c0,0.6,1,1.1,2.1,1.1V82.6z"/>
<path class="st0" d="M92.3,81.2c0,0.7-1,1.3-2.3,1.3"/>
<path class="st1" d="M90,82.6v-0.3c1.2,0,2.1-0.5,2.1-1.1h0.3C92.5,82,91.4,82.6,90,82.6"/>
<path class="st0" d="M90,83.2c-1.3,0-2.3-0.6-2.3-1.3"/>
<path class="st1" d="M90,83.4c-1.4,0-2.5-0.6-2.5-1.5h0.3c0,0.6,1,1.1,2.1,1.1V83.4z"/>
<path class="st0" d="M92.3,81.9c0,0.7-1,1.3-2.3,1.3"/>
<path class="st1" d="M90,83.4V83c1.2,0,2.1-0.5,2.1-1.1h0.3C92.5,82.7,91.4,83.3,90,83.4"/>
<path class="st0" d="M90,83.9c-1.3,0-2.3-0.6-2.3-1.3"/>
<path class="st1" d="M90,84.1c-1.4,0-2.5-0.7-2.5-1.5h0.3c0,0.6,1,1.1,2.1,1.1V84.1z"/>
<path class="st0" d="M92.3,82.7c0,0.7-1,1.3-2.3,1.3"/>
<path class="st1" d="M90,84.1v-0.3c1.2,0,2.1-0.5,2.1-1.1h0.3C92.5,83.5,91.4,84.1,90,84.1"/>
<path class="st0" d="M90,84.7c-1.3,0-2.3-0.6-2.3-1.3"/>
<path class="st1" d="M90,84.9c-1.4,0-2.5-0.7-2.5-1.5h0.3c0,0.6,1,1.1,2.1,1.1V84.9z"/>
<path class="st0" d="M92.3,83.4c0,0.7-1,1.3-2.3,1.3"/>
<path class="st1" d="M90,84.9v-0.3c1.2,0,2.1-0.5,2.1-1.1h0.3C92.5,84.2,91.4,84.9,90,84.9"/>
<path class="st0" d="M90,85.4c-1.3,0-2.3-0.6-2.3-1.3"/>
<path class="st1" d="M90,85.6c-1.4,0-2.5-0.6-2.5-1.5h0.3c0,0.6,1,1.1,2.1,1.1V85.6z"/>
<path class="st0" d="M92.3,84.1c0,0.7-1,1.3-2.3,1.3"/>
<path class="st1" d="M90,85.6v-0.3c1.2,0,2.1-0.5,2.1-1.1h0.3C92.5,85,91.4,85.6,90,85.6"/>
<path class="st0" d="M90,86.2c-1.3,0-2.3-0.6-2.3-1.3"/>
<path class="st1" d="M90,86.3c-1.4,0-2.5-0.6-2.5-1.5h0.3c0,0.6,1,1.1,2.1,1.1V86.3z"/>
<path class="st0" d="M92.3,84.9c0,0.7-1,1.3-2.3,1.3"/>
<path class="st1" d="M90,86.3V86c1.2,0,2.1-0.5,2.1-1.1h0.3C92.5,85.7,91.4,86.3,90,86.3"/>
<rect x="69.6" y="77.3" class="st0" width="4.3" height="3.1"/>
<path class="st1" d="M73.8,80.6h-4.3c-0.1,0-0.2-0.1-0.2-0.2v-3.1c0-0.1,0.1-0.2,0.2-0.2h4.3c0.1,0,0.2,0.1,0.2,0.2v3.1
	C74,80.6,74,80.6,73.8,80.6C73.9,80.6,73.9,80.6,73.8,80.6 M69.8,80.3h3.9v-2.8h-3.9V80.3z"/>
<polygon class="st0" points="73.8,80.5 75.1,77.9 75.1,74.8 73.8,77.3 "/>
<path class="st1" d="M73.9,80.6L73.9,80.6c-0.1,0-0.1-0.1-0.1-0.2v-3.1c0,0,0-0.1,0-0.1l1.3-2.5c0-0.1,0.1-0.1,0.2-0.1
	c0.1,0,0.1,0.1,0.1,0.2v3.1c0,0,0,0.1,0,0.1L74,80.5C74,80.6,73.9,80.6,73.9,80.6 M74,77.4v2.4l1-1.9v-2.4L74,77.4z"/>
<polygon class="st0" points="69.6,80.5 67.4,78.5 67.4,75.3 69.6,77.3 "/>
<path class="st1" d="M69.6,80.6c0,0-0.1,0-0.1,0l-2.2-2c0,0,0-0.1-0.1-0.1v-3.2c0-0.1,0-0.1,0.1-0.2c0.1,0,0.1,0,0.2,0l2.2,2
	c0,0,0,0.1,0,0.1v3.1C69.7,80.5,69.7,80.6,69.6,80.6L69.6,80.6 M67.6,78.3l1.8,1.7v-2.6l-1.8-1.7V78.3z"/>
<polygon class="st0" points="67.4,75.3 69.6,77.3 73.8,77.3 75.2,74.8 73.2,73.6 69.6,73.6 "/>
<path class="st1" d="M73.8,77.5h-4.3c0,0-0.1,0-0.1,0l-2.2-2c0,0-0.1-0.1-0.1-0.1c0,0,0-0.1,0.1-0.1l2.2-1.7c0,0,0.1,0,0.1,0h3.6
	h0.1l2,1.2c0.1,0,0.1,0.1,0.1,0.2L74,77.4C74,77.5,73.9,77.5,73.8,77.5 M69.7,77.2h4.1l1.2-2.3l-1.8-1.1h-3.5l-2,1.6L69.7,77.2z"/>
<path class="st0" d="M73.8,75.3c-0.8,1.3-2.5,1.6-3.8,0.8c-0.3-0.2-0.6-0.5-0.8-0.8v-5.4c0,0,0.1,1.2,2.3,1.2s2.3-1.2,2.3-1.2V75.3z
	"/>
<path class="st1" d="M71.5,76.7c-1,0.1-2-0.4-2.5-1.3v-5.5h0.3c0,0,0.2,1.1,2.1,1.1s2.1-1,2.1-1.1h0.3v5.5
	C73.4,76.3,72.5,76.8,71.5,76.7 M69.4,75.3c0.8,1.2,2.4,1.5,3.6,0.6c0.3-0.2,0.5-0.4,0.6-0.6v-4.7c-0.6,0.5-1.3,0.8-2.1,0.7
	c-0.8,0.1-1.6-0.2-2.1-0.7L69.4,75.3z"/>
<path class="st0" d="M73.8,69.9c0,0.7-1,1.3-2.3,1.3s-2.3-0.6-2.3-1.3s1-1.3,2.3-1.3S73.8,69.2,73.8,69.9"/>
<path class="st1" d="M71.5,71.3c-1.4,0-2.5-0.6-2.5-1.5s1.1-1.5,2.5-1.5s2.4,0.6,2.4,1.5S72.8,71.3,71.5,71.3 M71.5,68.7
	c-1.2,0-2.1,0.5-2.1,1.1s1,1.1,2.1,1.1s2.1-0.5,2.1-1.1S72.6,68.7,71.5,68.7"/>
<path class="st0" d="M71.5,71.9c-1.3,0-2.3-0.6-2.3-1.3"/>
<path class="st1" d="M71.5,72.1c-1.4,0-2.5-0.6-2.5-1.5h0.3c0,0.6,1,1.1,2.1,1.1V72.1z"/>
<path class="st0" d="M73.8,70.6c0,0.7-1,1.3-2.3,1.3"/>
<path class="st1" d="M71.5,72.1v-0.3c1.2,0,2.1-0.5,2.1-1.1h0.3C73.9,71.4,72.9,72.1,71.5,72.1"/>
<path class="st0" d="M71.5,72.7c-1.3,0-2.3-0.6-2.3-1.3"/>
<path class="st1" d="M71.5,72.8c-1.4,0-2.5-0.6-2.5-1.5h0.3c0,0.6,1,1.1,2.1,1.1V72.8z"/>
<path class="st0" d="M73.8,71.4c0,0.7-1,1.3-2.3,1.3"/>
<path class="st1" d="M71.5,72.8v-0.3c1.2,0,2.1-0.5,2.1-1.1h0.3C73.9,72.2,72.9,72.8,71.5,72.8"/>
<path class="st0" d="M71.5,73.4c-1.3,0-2.3-0.6-2.3-1.3"/>
<path class="st1" d="M71.5,73.6c-1.4,0-2.5-0.6-2.5-1.5h0.3c0,0.6,1,1.1,2.1,1.1V73.6z"/>
<path class="st0" d="M73.8,72.1c0,0.7-1,1.3-2.3,1.3"/>
<path class="st1" d="M71.5,73.6v-0.3c1.2,0,2.1-0.5,2.1-1.1h0.3C73.9,72.9,72.9,73.6,71.5,73.6"/>
<path class="st0" d="M71.5,74.1c-1.3,0-2.3-0.6-2.3-1.3"/>
<path class="st1" d="M71.5,74.3c-1.4,0-2.5-0.6-2.5-1.5h0.3c0,0.6,1,1.1,2.1,1.1V74.3z"/>
<path class="st0" d="M73.8,72.8c0,0.7-1,1.3-2.3,1.3"/>
<path class="st1" d="M71.5,74.3V74c1.2,0,2.1-0.5,2.1-1.1h0.3C73.9,73.7,72.9,74.3,71.5,74.3"/>
<path class="st0" d="M71.5,74.9c-1.3,0-2.3-0.6-2.3-1.3"/>
<path class="st1" d="M71.5,75.1c-1.4,0-2.5-0.6-2.5-1.5h0.3c0,0.6,1,1.1,2.1,1.1V75.1z"/>
<path class="st0" d="M73.8,73.6c0,0.7-1,1.3-2.3,1.3"/>
<path class="st1" d="M71.5,75.1v-0.3c1.2,0,2.1-0.5,2.1-1.1h0.3C73.9,74.4,72.9,75.1,71.5,75.1"/>
<path class="st0" d="M71.5,75.6c-1.3,0-2.3-0.6-2.3-1.3"/>
<path class="st1" d="M71.5,75.8c-1.4,0-2.5-0.6-2.5-1.5h0.3c0,0.6,1,1.1,2.1,1.1V75.8z"/>
<path class="st0" d="M73.8,74.3c0,0.7-1,1.3-2.3,1.3"/>
<path class="st1" d="M71.5,75.8v-0.3c1.2,0,2.1-0.5,2.1-1.1h0.3C73.9,75.2,72.9,75.8,71.5,75.8"/>
<rect x="52" y="66.8" class="st0" width="4.3" height="3.1"/>
<path class="st1" d="M56.3,70H52c-0.1,0-0.2-0.1-0.2-0.1c0,0,0,0,0,0v-3.1c0-0.1,0.1-0.2,0.2-0.2h4.3c0.1,0,0.2,0.1,0.2,0.2v3.1
	C56.4,69.9,56.4,70,56.3,70C56.3,70,56.3,70,56.3,70 M52.2,69.7h3.9v-2.8h-3.9V69.7z"/>
<polygon class="st0" points="56.3,69.9 57.5,67.3 57.5,64.2 56.3,66.8 "/>
<path class="st1" d="M56.3,70L56.3,70c-0.1,0-0.1-0.1-0.1-0.2v-3.1c0,0,0-0.1,0-0.1l1.3-2.5c0-0.1,0.1-0.1,0.2-0.1
	c0.1,0,0.1,0.1,0.1,0.2v3.1c0,0,0,0,0,0.1l-1.3,2.5C56.4,70,56.4,70,56.3,70 M56.5,66.8v2.4l1-1.9v-2.4L56.5,66.8z"/>
<polygon class="st0" points="52,69.9 49.8,67.9 49.8,64.8 52,66.8 "/>
<path class="st1" d="M52,70c0,0-0.1,0-0.1-0.1l-2.2-2c0,0,0-0.1,0-0.1v-3.1c0-0.1,0-0.1,0.1-0.2c0.1,0,0.1,0,0.2,0l2.2,2
	c0,0,0.1,0.1,0.1,0.1v3.1c0,0.1,0,0.1-0.1,0.2H52 M50,67.8l1.8,1.7v-2.6L50,65.1V67.8z"/>
<polygon class="st0" points="49.8,64.8 52,66.8 56.3,66.8 57.5,64.2 55.6,63 52,63 "/>
<path class="st1" d="M56.3,66.9H52c0,0-0.1,0-0.1-0.1l-2.2-2c0,0-0.1-0.1-0.1-0.1c0,0,0-0.1,0.1-0.1l2.2-1.7c0,0,0.1,0,0.1,0h3.6
	c0,0,0.1,0,0.1,0l2,1.2c0.1,0,0.1,0.1,0.1,0.2l-1.3,2.5C56.4,66.9,56.3,66.9,56.3,66.9 M52.1,66.6h4.1l1.2-2.3l-1.8-1.1h-3.5l-2,1.6
	L52.1,66.6z"/>
<path class="st0" d="M56.2,64.7c-0.8,1.3-2.5,1.6-3.8,0.8c-0.3-0.2-0.6-0.5-0.8-0.8v-5.4c0,0,0.1,1.2,2.3,1.2s2.3-1.2,2.3-1.2
	L56.2,64.7z"/>
<path class="st1" d="M53.9,66.1c-1,0.1-2-0.5-2.5-1.3v-5.5h0.3c0,0,0.2,1.1,2.1,1.1s2.1-1,2.1-1.1h0.3v5.5
	C55.9,65.7,54.9,66.2,53.9,66.1 M51.8,64.7c0.4,0.7,1.3,1.2,2.1,1.1c0.8,0,1.6-0.4,2.1-1.1V60c-0.6,0.5-1.3,0.8-2.1,0.7
	c-0.8,0.1-1.5-0.2-2.1-0.7L51.8,64.7z"/>
<path class="st0" d="M56.2,59.3c0,0.7-1,1.3-2.3,1.3s-2.3-0.6-2.3-1.3s1-1.3,2.3-1.3S56.2,58.6,56.2,59.3"/>
<path class="st1" d="M53.9,60.7c-1.4,0-2.5-0.6-2.5-1.5s1.1-1.5,2.5-1.5s2.5,0.6,2.5,1.5S55.3,60.7,53.9,60.7 M53.9,58.2
	c-1.2,0-2.1,0.5-2.1,1.1s1,1.1,2.1,1.1s2.1-0.5,2.1-1.1S55,58.1,53.9,58.2"/>
<path class="st0" d="M53.9,61.3c-1.3,0-2.3-0.6-2.3-1.3"/>
<path class="st1" d="M53.9,61.5c-1.4,0-2.5-0.6-2.5-1.5h0.3c0,0.6,1,1.1,2.1,1.1V61.5z"/>
<path class="st0" d="M56.2,60c0,0.7-1,1.3-2.3,1.3"/>
<path class="st1" d="M53.9,61.5v-0.3c1.1,0,2.1-0.5,2.1-1.1h0.3C56.3,60.8,55.3,61.5,53.9,61.5"/>
<path class="st0" d="M53.9,62c-1.3,0-2.3-0.6-2.3-1.3"/>
<path class="st1" d="M53.9,62.2c-1.4,0-2.5-0.6-2.5-1.5h0.3c0,0.6,1,1.1,2.1,1.1V62.2z"/>
<path class="st0" d="M56.2,60.8c0,0.7-1,1.3-2.3,1.3"/>
<path class="st1" d="M53.9,62.2v-0.3c1.1,0,2.1-0.5,2.1-1.1h0.3C56.3,61.6,55.3,62.2,53.9,62.2"/>
<path class="st0" d="M53.9,62.8c-1.3,0-2.3-0.6-2.3-1.3"/>
<path class="st1" d="M53.9,63c-1.4,0-2.5-0.6-2.5-1.5h0.3c0,0.6,1,1.1,2.1,1.1V63z"/>
<path class="st0" d="M56.2,61.5c0,0.7-1,1.3-2.3,1.3"/>
<path class="st1" d="M53.9,63v-0.3c1.1,0,2.1-0.5,2.1-1.1h0.3C56.3,62.4,55.3,63,53.9,63"/>
<path class="st0" d="M53.9,63.5c-1.3,0-2.3-0.6-2.3-1.3"/>
<path class="st1" d="M53.9,63.7c-1.4,0-2.5-0.6-2.5-1.5h0.3c0,0.6,1,1.1,2.1,1.1V63.7z"/>
<path class="st0" d="M56.2,62.3c0,0.7-1,1.3-2.3,1.3"/>
<path class="st1" d="M53.9,63.7v-0.3c1.1,0,2.1-0.5,2.1-1.1h0.3C56.3,63.1,55.3,63.7,53.9,63.7"/>
<path class="st0" d="M53.9,64.3c-1.3,0-2.3-0.6-2.3-1.3"/>
<path class="st1" d="M53.9,64.5c-1.4,0-2.5-0.7-2.5-1.5h0.3c0,0.6,1,1.1,2.1,1.1V64.5z"/>
<path class="st0" d="M56.2,63c0,0.7-1,1.3-2.3,1.3"/>
<path class="st1" d="M53.9,64.5v-0.3c1.1,0,2.1-0.5,2.1-1.1h0.3C56.3,63.8,55.3,64.5,53.9,64.5"/>
<path class="st0" d="M53.9,65c-1.3,0-2.3-0.6-2.3-1.3"/>
<path class="st1" d="M53.9,65.2c-1.4,0-2.5-0.6-2.5-1.5h0.3c0,0.6,1,1.1,2.1,1.1V65.2z"/>
<path class="st0" d="M56.2,63.8c0,0.7-1,1.3-2.3,1.3"/>
<path class="st1" d="M53.9,65.2v-0.3c1.1,0,2.1-0.5,2.1-1.1h0.3C56.3,64.6,55.3,65.2,53.9,65.2"/>
<rect x="129.3" y="44.2" class="st0" width="4.3" height="3.1"/>
<path class="st1" d="M133.6,47.5h-4.3c-0.1,0-0.2-0.1-0.2-0.2v-3.1c0-0.1,0.1-0.2,0.2-0.2h4.3c0.1,0,0.2,0.1,0.2,0.2v0v3.1
	C133.7,47.4,133.7,47.5,133.6,47.5C133.6,47.5,133.6,47.5,133.6,47.5 M129.5,47.1h3.9v-2.8h-3.9V47.1z"/>
<polygon class="st0" points="133.6,47.3 134.9,44.8 134.9,41.7 133.6,44.2 "/>
<path class="st1" d="M133.6,47.5L133.6,47.5c-0.1,0-0.2-0.1-0.2-0.2v-3.1c0,0,0,0,0-0.1l1.3-2.5c0-0.1,0.1-0.1,0.2-0.1
	c0.1,0,0.1,0.1,0.1,0.2v3.1c0,0,0,0.1,0,0.1l-1.3,2.5C133.7,47.4,133.6,47.5,133.6,47.5 M133.8,44.2v2.4l0.9-1.9v-2.4L133.8,44.2z"
	/>
<polygon class="st0" points="129.3,47.3 127.1,45.3 127.1,42.2 129.3,44.2 "/>
<path class="st1" d="M129.3,47.5c0,0-0.1,0-0.1,0l-2.2-2c0,0-0.1-0.1-0.1-0.1v-3.2c0-0.1,0-0.1,0.1-0.2c0.1,0,0.1,0,0.2,0l2.2,2
	c0,0,0,0.1,0.1,0.1v3.1C129.5,47.3,129.4,47.4,129.3,47.5C129.4,47.4,129.3,47.4,129.3,47.5 M127.3,45.2l1.9,1.7v-2.6l-1.8-1.7
	L127.3,45.2z"/>
<polygon class="st0" points="127.1,42.2 129.3,44.2 133.6,44.2 134.9,41.7 132.9,40.5 129.3,40.5 "/>
<path class="st1" d="M133.6,44.4h-4.3c0,0-0.1,0-0.1,0l-2.2-2c0,0,0-0.1-0.1-0.1c0,0,0-0.1,0.1-0.1l2.2-1.7c0,0,0.1,0,0.1,0h3.6
	c0,0,0.1,0,0.1,0l2,1.2c0.1,0,0.1,0.1,0.1,0.2l-1.3,2.5C133.7,44.4,133.7,44.4,133.6,44.4 M129.4,44h4.1l1.2-2.3l-1.8-1.1h-3.5
	l-2,1.5L129.4,44z"/>
<path class="st0" d="M133.5,42.2c-0.8,1.3-2.6,1.6-3.8,0.8c-0.3-0.2-0.6-0.5-0.8-0.8v-5.4c0,0,0.1,1.2,2.3,1.2s2.3-1.2,2.3-1.2V42.2
	z"/>
<path class="st1" d="M131.2,43.5c-1,0.1-1.9-0.5-2.4-1.3v-0.1v-5.4h0.3c0,0,0.2,1.1,2.1,1.1s2.1-1,2.1-1.1h0.3v5.5
	C133.2,43.1,132.2,43.6,131.2,43.5 M129.1,42.1c0.8,1.2,2.4,1.5,3.6,0.6c0.2-0.2,0.5-0.4,0.6-0.6v-4.7c-1.3,0.9-3,0.9-4.2,0V42.1z"
	/>
<path class="st0" d="M133.5,36.7c0,0.7-1,1.3-2.3,1.3s-2.3-0.6-2.3-1.3s1-1.3,2.3-1.3S133.5,36,133.5,36.7"/>
<path class="st1" d="M131.2,38.2c-1.4,0-2.5-0.6-2.5-1.5s1.1-1.5,2.5-1.5s2.5,0.6,2.5,1.5S132.6,38.2,131.2,38.2 M131.2,35.6
	c-1.1,0-2.1,0.5-2.1,1.1s1,1.1,2.1,1.1s2.1-0.5,2.1-1.1S132.3,35.6,131.2,35.6"/>
<path class="st0" d="M131.2,38.8c-1.3,0-2.3-0.6-2.3-1.3"/>
<path class="st1" d="M131.2,38.9c-1.4,0-2.5-0.6-2.5-1.5h0.3c0,0.6,1,1.1,2.1,1.1L131.2,38.9z"/>
<path class="st0" d="M133.5,37.5c0,0.7-1,1.3-2.3,1.3"/>
<path class="st1" d="M131.2,38.9v-0.3c1.1,0,2.1-0.5,2.1-1.1h0.3C133.7,38.3,132.6,38.9,131.2,38.9"/>
<path class="st0" d="M131.2,39.5c-1.3,0-2.3-0.6-2.3-1.3"/>
<path class="st1" d="M131.2,39.7c-1.4,0-2.5-0.6-2.5-1.5h0.3c0,0.6,1,1.1,2.1,1.1L131.2,39.7z"/>
<path class="st0" d="M133.5,38.2c0,0.7-1,1.3-2.3,1.3"/>
<path class="st1" d="M131.2,39.7v-0.3c1.1,0,2.1-0.5,2.1-1.1h0.3C133.7,39,132.6,39.7,131.2,39.7"/>
<path class="st0" d="M131.2,40.2c-1.3,0-2.3-0.6-2.3-1.3"/>
<path class="st1" d="M131.2,40.4c-1.4,0-2.5-0.6-2.5-1.5h0.3c0,0.6,1,1.1,2.1,1.1L131.2,40.4z"/>
<path class="st0" d="M133.5,39c0,0.7-1,1.3-2.3,1.3"/>
<path class="st1" d="M131.2,40.4v-0.3c1.1,0,2.1-0.5,2.1-1.1h0.3C133.7,39.8,132.6,40.4,131.2,40.4"/>
<path class="st0" d="M131.2,41c-1.3,0-2.3-0.6-2.3-1.3"/>
<path class="st1" d="M131.2,41.2c-1.4,0-2.5-0.6-2.5-1.5h0.3c0,0.6,1,1.1,2.1,1.1L131.2,41.2z"/>
<path class="st0" d="M133.5,39.7c0,0.7-1,1.3-2.3,1.3"/>
<path class="st1" d="M131.2,41.2v-0.3c1.1,0,2.1-0.5,2.1-1.1h0.3C133.7,40.5,132.6,41.2,131.2,41.2"/>
<path class="st0" d="M131.2,41.7c-1.3,0-2.3-0.6-2.3-1.3"/>
<path class="st1" d="M131.2,41.9c-1.4,0-2.5-0.6-2.5-1.5h0.3c0,0.6,1,1.1,2.1,1.1L131.2,41.9z"/>
<path class="st0" d="M133.5,40.4c0,0.7-1,1.3-2.3,1.3"/>
<path class="st1" d="M131.2,41.9v-0.3c1.1,0,2.1-0.5,2.1-1.1h0.3C133.7,41.3,132.6,41.9,131.2,41.9"/>
<path class="st0" d="M131.2,42.5c-1.3,0-2.3-0.6-2.3-1.3"/>
<path class="st1" d="M131.2,42.7c-1.4,0-2.5-0.6-2.5-1.5h0.3c0,0.6,1,1.1,2.1,1.1L131.2,42.7z"/>
<path class="st0" d="M133.5,41.2c0,0.7-1,1.3-2.3,1.3"/>
<path class="st1" d="M131.2,42.7v-0.3c1.1,0,2.1-0.5,2.1-1.1h0.3C133.7,42,132.6,42.6,131.2,42.7"/>
<rect x="146.9" y="54" class="st0" width="4.3" height="3.1"/>
<path class="st1" d="M151.2,57.2h-4.3c-0.1,0-0.2-0.1-0.2-0.2V54c0-0.1,0.1-0.2,0.2-0.2h4.3c0.1,0,0.2,0.1,0.2,0.1c0,0,0,0,0,0v3.1
	C151.3,57.2,151.3,57.3,151.2,57.2C151.2,57.3,151.2,57.3,151.2,57.2 M147.1,56.9h3.9v-2.8h-3.9V56.9z"/>
<polygon class="st0" points="151.2,57.1 152.5,54.5 152.5,51.4 151.2,54 "/>
<path class="st1" d="M151.2,57.2L151.2,57.2c-0.1,0-0.2-0.1-0.2-0.2V54c0,0,0-0.1,0-0.1l1.3-2.5c0-0.1,0.1-0.1,0.2-0.1
	c0.1,0,0.1,0.1,0.1,0.2v3.1c0,0,0,0.1,0,0.1l-1.3,2.5C151.3,57.2,151.3,57.3,151.2,57.2 M151.4,54v2.4l1-1.8v-2.4L151.4,54z"/>
<polygon class="st0" points="146.9,57.1 144.7,55.1 144.7,52 146.9,54 "/>
<path class="st1" d="M146.9,57.2c0,0-0.1,0-0.1,0l-2.2-2c0,0-0.1-0.1-0.1-0.1V52c0-0.1,0-0.1,0.1-0.2c0.1,0,0.1,0,0.2,0l2.2,2
	c0,0,0,0.1,0.1,0.1v3.1C147.1,57.1,147.1,57.2,146.9,57.2L146.9,57.2 M144.9,55l1.9,1.7V54l-1.9-1.7V55z"/>
<polygon class="st0" points="144.7,52 146.9,54 151.2,54 152.5,51.4 150.5,50.2 146.9,50.2 "/>
<path class="st1" d="M151.2,54.1h-4.3c0,0-0.1,0-0.1,0l-2.2-2c0,0-0.1-0.1-0.1-0.1c0-0.1,0-0.1,0.1-0.1l2.2-1.7c0,0,0.1,0,0.1,0h3.6
	c0,0,0.1,0,0.1,0l2,1.2c0.1,0,0.1,0.1,0.1,0.2l-1.3,2.4C151.3,54.1,151.2,54.1,151.2,54.1 M147,53.8h4.1l1.2-2.3l-1.8-1.1H147
	l-2,1.6L147,53.8z"/>
<path class="st0" d="M151.1,51.9c-0.8,1.3-2.5,1.6-3.8,0.8c-0.3-0.2-0.6-0.5-0.8-0.8v-5.4c0,0,0.1,1.2,2.3,1.2s2.3-1.2,2.3-1.2
	L151.1,51.9z"/>
<path class="st1" d="M148.8,53.3c-1,0.1-1.9-0.4-2.4-1.3v-0.1v-5.4h0.3c0,0,0.2,1.1,2.1,1.1s2.1-1,2.1-1.1h0.4V52
	C150.8,52.9,149.9,53.4,148.8,53.3 M146.7,51.9c0.8,1.2,2.4,1.5,3.6,0.6c0.3-0.2,0.5-0.4,0.6-0.6v-4.6c-1.3,1-3,1-4.2,0V51.9z"/>
<path class="st0" d="M151.1,46.5c0,0.7-1,1.3-2.3,1.3s-2.3-0.6-2.3-1.3s1-1.3,2.3-1.3S151.1,45.8,151.1,46.5"/>
<path class="st1" d="M148.8,47.9c-1.4,0-2.5-0.7-2.5-1.5s1.1-1.5,2.5-1.5s2.5,0.7,2.5,1.5S150.2,47.9,148.8,47.9 M148.8,45.3
	c-1.1,0-2.1,0.5-2.1,1.1s1,1.1,2.1,1.1s2.1-0.5,2.1-1.1S149.9,45.3,148.8,45.3"/>
<path class="st0" d="M148.8,48.5c-1.3,0-2.3-0.6-2.3-1.3"/>
<path class="st1" d="M148.8,48.7c-1.4,0-2.5-0.6-2.5-1.5h0.3c0,0.6,1,1.1,2.1,1.1L148.8,48.7z"/>
<path class="st0" d="M151.1,47.2c0,0.7-1,1.3-2.3,1.3"/>
<path class="st1" d="M148.8,48.7v-0.3c1.1,0,2.1-0.5,2.1-1.1h0.3C151.3,48,150.2,48.7,148.8,48.7"/>
<path class="st0" d="M148.8,49.3c-1.3,0-2.3-0.6-2.3-1.3"/>
<path class="st1" d="M148.8,49.4c-1.4,0-2.5-0.6-2.5-1.5h0.3c0,0.6,1,1.1,2.1,1.1L148.8,49.4z"/>
<path class="st0" d="M151.1,48c0,0.7-1,1.3-2.3,1.3"/>
<path class="st1" d="M148.8,49.4v-0.3c1.1,0,2.1-0.5,2.1-1.1h0.3C151.3,48.8,150.2,49.4,148.8,49.4"/>
<path class="st0" d="M148.8,50c-1.3,0-2.3-0.6-2.3-1.3"/>
<path class="st1" d="M148.8,50.2c-1.4,0-2.5-0.6-2.5-1.5h0.3c0,0.6,1,1.1,2.1,1.1L148.8,50.2z"/>
<path class="st0" d="M151.1,48.7c0,0.7-1,1.3-2.3,1.3"/>
<path class="st1" d="M148.8,50.2v-0.3c1.1,0,2.1-0.5,2.1-1.1h0.3C151.3,49.5,150.2,50.2,148.8,50.2"/>
<path class="st0" d="M148.8,50.8c-1.3,0-2.3-0.6-2.3-1.3"/>
<path class="st1" d="M148.8,50.9c-1.4,0-2.5-0.6-2.5-1.5h0.3c0,0.6,1,1.1,2.1,1.1L148.8,50.9z"/>
<path class="st0" d="M151.1,49.5c0,0.7-1,1.3-2.3,1.3"/>
<path class="st1" d="M148.8,50.9v-0.3c1.1,0,2.1-0.5,2.1-1.1h0.3C151.3,50.3,150.2,50.9,148.8,50.9"/>
<path class="st0" d="M148.8,51.5c-1.3,0-2.3-0.6-2.3-1.3"/>
<path class="st1" d="M148.8,51.7c-1.4,0-2.5-0.6-2.5-1.5h0.3c0,0.6,1,1.1,2.1,1.1L148.8,51.7z"/>
<path class="st0" d="M151.1,50.2c0,0.7-1,1.3-2.3,1.3"/>
<path class="st1" d="M148.8,51.7v-0.3c1.1,0,2.1-0.5,2.1-1.1h0.3C151.3,51,150.2,51.7,148.8,51.7"/>
<path class="st0" d="M148.8,52.3c-1.3,0-2.3-0.6-2.3-1.3"/>
<path class="st1" d="M148.8,52.4c-1.4,0-2.5-0.6-2.5-1.5h0.3c0,0.6,1,1.1,2.1,1.1L148.8,52.4z"/>
<path class="st0" d="M151.1,51c0,0.7-1,1.3-2.3,1.3"/>
<path class="st1" d="M148.8,52.4v-0.3c1.1,0,2.1-0.5,2.1-1.1h0.3C151.3,51.8,150.2,52.4,148.8,52.4"/>
<rect x="112.5" y="34.6" class="st0" width="4.3" height="3.1"/>
<path class="st1" d="M116.8,37.9h-4.3c-0.1,0-0.2-0.1-0.2-0.1c0,0,0,0,0,0v-3.1c0-0.1,0.1-0.2,0.2-0.2h4.3c0.1,0,0.2,0.1,0.2,0.2
	v3.1C117,37.8,116.9,37.9,116.8,37.9 M112.7,37.6h3.9v-2.8h-3.9V37.6z"/>
<polygon class="st0" points="116.8,37.7 118.1,35.2 118.1,32.1 116.8,34.6 "/>
<path class="st1" d="M116.8,37.9L116.8,37.9c-0.1,0-0.1-0.1-0.1-0.2v-3.1c0,0,0-0.1,0-0.1l1.3-2.5c0-0.1,0.1-0.1,0.2-0.1
	c0.1,0,0.1,0.1,0.1,0.2v3.1c0,0,0,0,0,0.1l-1.3,2.5C116.9,37.8,116.9,37.9,116.8,37.9 M117,34.6V37l1-1.9v-2.3L117,34.6z"/>
<polygon class="st0" points="112.5,37.7 110.3,35.7 110.3,32.6 112.5,34.6 "/>
<path class="st1" d="M112.5,37.9c0,0-0.1,0-0.1,0l-2.2-2c0,0-0.1-0.1-0.1-0.1v-3.2c0-0.1,0-0.1,0.1-0.2c0.1,0,0.1,0,0.2,0l2.2,2
	c0,0,0,0.1,0,0.1v3.1C112.7,37.8,112.6,37.8,112.5,37.9L112.5,37.9 M110.5,35.6l1.8,1.7v-2.6l-1.8-1.7L110.5,35.6z"/>
<polygon class="st0" points="110.3,32.6 112.5,34.6 116.8,34.6 118.1,32.1 116.1,30.9 112.5,30.9 "/>
<path class="st1" d="M116.8,34.8h-4.2c0,0-0.1,0-0.1,0l-2.2-2c0,0-0.1-0.1-0.1-0.1c0,0,0-0.1,0.1-0.1l2.2-1.7c0,0,0.1,0,0.1,0h3.6
	c0,0,0.1,0,0.1,0l2,1.2c0.1,0,0.1,0.1,0.1,0.2l-1.3,2.5C116.9,34.8,116.9,34.9,116.8,34.8 M112.6,34.5h4.1l1.2-2.3l-1.8-1.1h-3.5
	l-2,1.6L112.6,34.5z"/>
<path class="st0" d="M116.7,32.6c-0.8,1.3-2.5,1.6-3.8,0.8c-0.3-0.2-0.6-0.5-0.8-0.8v-5.4c0,0,0.1,1.2,2.3,1.2s2.3-1.2,2.3-1.2V32.6
	z"/>
<path class="st1" d="M114.4,34c-1,0-1.9-0.5-2.4-1.3v-0.1v-5.4h0.3c0,0,0.2,1.1,2.1,1.1s2.1-1,2.1-1.1h0.3v5.5
	C116.4,33.6,115.4,34.1,114.4,34 M112.3,32.5c0.5,0.7,1.3,1.1,2.1,1.1c0.9,0.1,1.7-0.4,2.1-1.1v-4.7c-1.3,1-3,1-4.2,0V32.5z"/>
<path class="st0" d="M116.7,27.1c0,0.7-1,1.3-2.3,1.3s-2.3-0.6-2.3-1.3s1-1.3,2.3-1.3S116.7,26.4,116.7,27.1"/>
<path class="st1" d="M114.4,28.6c-1.4,0-2.4-0.6-2.4-1.5s1.1-1.5,2.5-1.5s2.5,0.6,2.5,1.5S115.8,28.6,114.4,28.6 M114.5,26
	c-1.1,0-2.1,0.5-2.1,1.1s1,1.1,2.1,1.1s2.1-0.5,2.1-1.1S115.6,26,114.5,26"/>
<path class="st0" d="M114.4,29.2c-1.3,0-2.3-0.6-2.3-1.3"/>
<path class="st1" d="M114.4,29.4c-1.4,0-2.5-0.6-2.5-1.5h0.3c0,0.6,1,1.1,2.1,1.1V29.4z"/>
<path class="st0" d="M116.7,27.9c0,0.7-1,1.3-2.3,1.3"/>
<path class="st1" d="M114.4,29.4V29c1.2,0,2.1-0.5,2.1-1.1h0.3C116.9,28.7,115.8,29.3,114.4,29.4"/>
<path class="st0" d="M114.4,29.9c-1.3,0-2.3-0.6-2.3-1.3"/>
<path class="st1" d="M114.4,30.1c-1.4,0-2.5-0.6-2.5-1.5h0.3c0,0.6,1,1.1,2.1,1.1V30.1z"/>
<path class="st0" d="M116.7,28.6c0,0.7-1,1.3-2.3,1.3"/>
<path class="st1" d="M114.4,30.1v-0.3c1.2,0,2.1-0.5,2.1-1.1h0.3C116.9,29.5,115.8,30.1,114.4,30.1"/>
<path class="st0" d="M114.4,30.7c-1.3,0-2.3-0.6-2.3-1.3"/>
<path class="st1" d="M114.4,30.8c-1.4,0-2.5-0.6-2.5-1.5h0.3c0,0.6,1,1.1,2.1,1.1V30.8z"/>
<path class="st0" d="M116.7,29.4c0,0.7-1,1.3-2.3,1.3"/>
<path class="st1" d="M114.4,30.8v-0.3c1.2,0,2.1-0.5,2.1-1.1h0.3C116.9,30.2,115.8,30.8,114.4,30.8"/>
<path class="st0" d="M114.4,31.4c-1.3,0-2.3-0.6-2.3-1.3"/>
<path class="st1" d="M114.4,31.6c-1.4,0-2.4-0.6-2.4-1.5h0.3c0,0.6,1,1.1,2.1,1.1L114.4,31.6z"/>
<path class="st0" d="M116.7,30.1c0,0.7-1,1.3-2.3,1.3"/>
<path class="st1" d="M114.4,31.6v-0.4c1.2,0,2.1-0.5,2.1-1.1h0.3C116.9,30.9,115.8,31.6,114.4,31.6"/>
<path class="st0" d="M114.4,32.2c-1.3,0-2.3-0.6-2.3-1.3"/>
<path class="st1" d="M114.4,32.3c-1.4,0-2.5-0.6-2.5-1.5h0.3c0,0.6,1,1.1,2.1,1.1V32.3z"/>
<path class="st0" d="M116.7,30.9c0,0.7-1,1.3-2.3,1.3"/>
<path class="st1" d="M114.4,32.3V32c1.2,0,2.1-0.5,2.1-1.1h0.3C116.9,31.7,115.8,32.3,114.4,32.3"/>
<path class="st0" d="M114.4,32.9c-1.3,0-2.3-0.6-2.3-1.3"/>
<path class="st1" d="M114.4,33.1c-1.4,0-2.5-0.6-2.5-1.5h0.3c0,0.6,1,1.1,2.1,1.1V33.1z"/>
<path class="st0" d="M116.7,31.6c0,0.7-1,1.3-2.3,1.3"/>
<path class="st1" d="M114.4,33.1v-0.3c1.2,0,2.1-0.5,2.1-1.1h0.3C116.9,32.5,115.8,33.1,114.4,33.1"/>
</svg>
