<svg id="Capa_1" data-name="Capa 1" xmlns="http://www.w3.org/2000/svg" viewBox="0 0 200 200"><defs><style>.cls-1{fill:#ffde00;}</style></defs><path class="cls-1" d="M100,193.71A93.72,93.72,0,1,1,193.72,100,93.83,93.83,0,0,1,100,193.71"/><path d="M100,8.41A91.59,91.59,0,1,1,8.41,100,91.59,91.59,0,0,1,100,8.41m0-4.24A95.83,95.83,0,1,0,195.83,100,95.93,95.93,0,0,0,100,4.17"/><path class="cls-1" d="M86.86,99.19v72.57a2.32,2.32,0,0,0,3.49,2l12.3-7.17a2.33,2.33,0,0,0-2.31-4l-8,4.44c-.69.57-.4-3.29-.4-3.73v-64a2.34,2.34,0,0,0-1.64-2.23L89.88,97a2.33,2.33,0,0,0-3,2.23"/><path d="M89.18,174.32a2.63,2.63,0,0,1-1.27-.34,2.52,2.52,0,0,1-1.28-2.22V99.19a2.54,2.54,0,0,1,3.31-2.44l.43.13a2.55,2.55,0,0,1,1.8,2.44v64c0,.06,0,.2,0,.38a9.79,9.79,0,0,0,.09,3.14l8-4.43a2.53,2.53,0,0,1,2-.22,2.55,2.55,0,0,1,.57,4.66L90.47,174a2.58,2.58,0,0,1-1.29.35m0-77.23a2.07,2.07,0,0,0-1.24.41,2,2,0,0,0-.86,1.69v72.57a2.1,2.1,0,0,0,1,1.82,2.07,2.07,0,0,0,2.11,0l12.29-7.16a2.1,2.1,0,0,0-2.08-3.65l-8,4.44a.34.34,0,0,1-.4,0c-.38-.18-.47-1.13-.35-3.61,0-.18,0-.3,0-.36v-64a2.09,2.09,0,0,0-1.47-2l-.44-.13a2.21,2.21,0,0,0-.62-.09"/><path class="cls-1" d="M146.42,62.75l-.14,70.49a2.32,2.32,0,0,1-1.19,2l-6,3.3a2.3,2.3,0,0,0,1.12,4.32h.36a2.26,2.26,0,0,0,1.15-.31l8.26-4.77a2.29,2.29,0,0,0,1.15-2l.36-73a2.28,2.28,0,0,0-.68-1.65l-.21-.21a2.3,2.3,0,0,0-3.09-.14l-.26.21a2.29,2.29,0,0,0-.84,1.77"/><path d="M140.57,143.1h-.35a2.54,2.54,0,0,1-2.45-3.19,2.58,2.58,0,0,1,1.22-1.56l6-3.3a2.07,2.07,0,0,0,1.07-1.81l.15-70.49a2.49,2.49,0,0,1,.92-1.94l.25-.22a2.52,2.52,0,0,1,3.39.16L151,61a2.52,2.52,0,0,1,.75,1.82l-.36,73a2.54,2.54,0,0,1-1.26,2.18l-8.27,4.77a2.57,2.57,0,0,1-1.27.34m6.08-80.35-.14,70.49a2.53,2.53,0,0,1-1.31,2.21l-6,3.3a2.07,2.07,0,0,0-.64,3.08,2,2,0,0,0,1.65.81h.35a2,2,0,0,0,1-.28l8.27-4.77a2.08,2.08,0,0,0,1-1.78l.36-73a2.1,2.1,0,0,0-.62-1.49l-.21-.21a2.06,2.06,0,0,0-2.78-.12l-.26.21a2.06,2.06,0,0,0-.76,1.59"/><path class="cls-1" d="M128.73,57.23l-.15,66.38a2.27,2.27,0,0,1-1.19,2l-6,3.3a2.3,2.3,0,0,0,1.12,4.32h.36a2.22,2.22,0,0,0,1.14-.31l8.27-4.77a2.27,2.27,0,0,0,1.15-2l.36-68.93a2.27,2.27,0,0,0-.68-1.65l-.22-.21a2.29,2.29,0,0,0-3.08-.14l-.26.21a2.29,2.29,0,0,0-.84,1.77"/><path d="M122.88,133.47h-.35a2.55,2.55,0,0,1-2.45-3.19,2.51,2.51,0,0,1,1.22-1.55l6-3.31a2.07,2.07,0,0,0,1.07-1.81l.15-66.38a2.52,2.52,0,0,1,.91-1.95l.26-.21a2.52,2.52,0,0,1,3.39.15l.22.22a2.52,2.52,0,0,1,.75,1.81l-.36,68.93a2.52,2.52,0,0,1-1.26,2.18l-8.27,4.77a2.6,2.6,0,0,1-1.27.34M129,57.23l-.15,66.38a2.52,2.52,0,0,1-1.3,2.21l-6,3.3a2.09,2.09,0,0,0-1,1.27,2.09,2.09,0,0,0,2,2.63h.35a2,2,0,0,0,1-.29l8.26-4.76a2.1,2.1,0,0,0,1-1.8l.36-68.92a2.08,2.08,0,0,0-.62-1.49l-.22-.21a2.07,2.07,0,0,0-2.77-.13l-.26.22a2,2,0,0,0-.76,1.59"/><path class="cls-1" d="M113.36,47.69l-.15,66.38a2.31,2.31,0,0,1-1.19,2l-6,3.3a2.33,2.33,0,0,0-1.11,1.42,2.31,2.31,0,0,0,2.22,2.91h.36a2.34,2.34,0,0,0,1.16-.31l8.26-4.77a2.31,2.31,0,0,0,1.16-2l.36-68.93a2.31,2.31,0,0,0-.69-1.65l-.22-.21a2.29,2.29,0,0,0-3.08-.14l-.26.21a2.28,2.28,0,0,0-.83,1.77"/><path d="M107.5,123.93h-.35a2.54,2.54,0,0,1-2.45-3.19,2.58,2.58,0,0,1,1.22-1.56l6-3.3a2.07,2.07,0,0,0,1.07-1.82l.15-66.37a2.53,2.53,0,0,1,.91-1.95l.26-.21a2.53,2.53,0,0,1,3.4.16l.21.2a2.52,2.52,0,0,1,.75,1.82l-.36,68.93a2.53,2.53,0,0,1-1.26,2.18l-8.27,4.77a2.57,2.57,0,0,1-1.27.34m6.08-76.24-.15,66.37a2.53,2.53,0,0,1-1.3,2.22l-6,3.3a2.08,2.08,0,0,0-1,1.28,2.07,2.07,0,0,0,2,2.61h.35a2,2,0,0,0,1-.28l8.27-4.76a2.1,2.1,0,0,0,1-1.79l.37-68.93a2.14,2.14,0,0,0-.62-1.49l-.22-.21a2,2,0,0,0-2.77-.12l-.26.2a2.1,2.1,0,0,0-.76,1.6"/><path class="cls-1" d="M68.56,88.42V161a2.32,2.32,0,0,0,3.5,2l12.29-7.16a2.33,2.33,0,0,0-2.3-4.05l-8,4.44c-.69.57-.4-3.29-.4-3.73V88.55A2.33,2.33,0,0,0,72,86.33l-.42-.13a2.33,2.33,0,0,0-3,2.22"/><path d="M70.89,163.55A2.55,2.55,0,0,1,68.33,161V88.42a2.53,2.53,0,0,1,1-2A2.5,2.5,0,0,1,71.64,86l.43.14a2.52,2.52,0,0,1,1.8,2.44V152.5c0,.07,0,.2,0,.38a9.65,9.65,0,0,0,.08,3.14l8-4.43a2.53,2.53,0,0,1,2-.21,2.55,2.55,0,0,1,.57,4.66L72.17,163.2a2.47,2.47,0,0,1-1.28.35m0-77.23a2.11,2.11,0,0,0-2.1,2.1V161a2.07,2.07,0,0,0,1.06,1.82,2,2,0,0,0,2.1,0l12.29-7.17a2.1,2.1,0,0,0-.46-3.83,2.14,2.14,0,0,0-1.61.18l-8,4.44a.34.34,0,0,1-.4,0c-.37-.19-.47-1.13-.35-3.62,0-.17,0-.3,0-.37V88.56a2.09,2.09,0,0,0-1.48-2l-.44-.13a1.91,1.91,0,0,0-.62-.1"/><path class="cls-1" d="M50.46,78.81v72.58a2.33,2.33,0,0,0,3.51,2l12.28-7.17a2.32,2.32,0,0,0-2.3-4l-8,4.44c-.69.57-.4-3.29-.39-3.73V78.94a2.34,2.34,0,0,0-1.64-2.23l-.43-.13a2.33,2.33,0,0,0-3,2.23"/><path d="M52.79,153.94a2.6,2.6,0,0,1-1.27-.34,2.53,2.53,0,0,1-1.29-2.22V78.81a2.55,2.55,0,0,1,3.32-2.44l.42.13a2.55,2.55,0,0,1,1.8,2.44v63.95c0,.06,0,.19,0,.38a9.79,9.79,0,0,0,.09,3.14l8-4.44a2.57,2.57,0,0,1,2-.21A2.52,2.52,0,0,1,67.33,143a2.55,2.55,0,0,1-1,3.42l-12.29,7.17a2.63,2.63,0,0,1-1.29.35m0-77.23a2.11,2.11,0,0,0-2.09,2.1v72.57a2.1,2.1,0,0,0,3.16,1.81L66.14,146a2.09,2.09,0,0,0-.47-3.82,2.06,2.06,0,0,0-1.61.18l-8,4.44a.32.32,0,0,1-.39,0c-.38-.18-.47-1.13-.36-3.61,0-.17,0-.31,0-.36V78.94a2.1,2.1,0,0,0-1.48-2l-.43-.13a2.28,2.28,0,0,0-.63-.09"/><path class="cls-1" d="M124.91,130.93a2.31,2.31,0,1,1-2.31-2.32,2.31,2.31,0,0,1,2.31,2.32"/><path d="M122.6,133.47a2.54,2.54,0,1,1,2.54-2.54,2.55,2.55,0,0,1-2.54,2.54m0-4.63a2.09,2.09,0,1,0,2.09,2.09,2.09,2.09,0,0,0-2.09-2.09"/><path class="cls-1" d="M142.54,140.56a2.32,2.32,0,1,1-2.31-2.32,2.31,2.31,0,0,1,2.31,2.32"/><path d="M140.23,143.1a2.54,2.54,0,1,1,2.54-2.54,2.55,2.55,0,0,1-2.54,2.54m0-4.63a2.09,2.09,0,1,0,2.08,2.09,2.1,2.1,0,0,0-2.08-2.09"/><path class="cls-1" d="M109.47,121.39a2.32,2.32,0,1,1-2.32-2.31,2.31,2.31,0,0,1,2.32,2.31"/><path d="M107.15,123.93a2.54,2.54,0,1,1,2.55-2.54,2.54,2.54,0,0,1-2.55,2.54m0-4.63a2.09,2.09,0,1,0,2.09,2.09,2.09,2.09,0,0,0-2.09-2.09"/><polygon class="cls-1" points="40.67 71.93 113.65 30.71 161.46 58.27 89.95 100.38 40.67 71.93"/><path d="M90,100.64l-.12-.06L40.21,71.93l73.45-41.49.11.07,48.14,27.76-.33.2ZM41.13,71.93,90,100.12,161,58.27,113.65,31Z"/><polygon class="cls-1" points="40.67 71.93 40.94 68.98 45.47 66.47 89.98 97.6 89.95 100.38 161.46 58.27 161.23 56.12 89.98 97.6 89.95 100.38 40.67 71.93"/><path d="M89.72,100.78v-.27L40.43,72.06l.29-3.22,4.77-2.64L90,97.33l71.42-41.59.29,2.65-.14.07L90.18,100.51v.27l-.22-.14Zm-48.81-29L89.73,100l0-2.27-44.3-31-4.31,2.38Zm49.3,25.92,0,2.25,71-41.83L161,56.49Z"/><polygon class="cls-1" points="40.67 69.12 114.64 28.32 161.23 56.12 89.98 97.6 40.67 69.12"/><path d="M90,97.87,40.21,69.12l74.43-41.06.11.06,46.92,28-.33.19ZM41.13,69.13,90,97.34l70.79-41.23L114.64,28.59Z"/><rect class="cls-1" x="88.13" y="87.9" width="4.26" height="3.11"/><path d="M92.39,91.17H88.14A.18.18,0,0,1,88,91V87.89a.18.18,0,0,1,.18-.17h4.25a.18.18,0,0,1,.17.17V91a.18.18,0,0,1-.17.17m-4.08-.34h3.91V88.06H88.31Z"/><polygon class="cls-1" points="92.39 91 93.68 88.47 93.68 85.36 92.39 87.89 92.39 91"/><path d="M92.39,91.18h0a.17.17,0,0,1-.13-.17V87.89a.31.31,0,0,1,0-.08l1.29-2.52a.17.17,0,0,1,.2-.09.17.17,0,0,1,.12.17v3.11a.15.15,0,0,1,0,.07l-1.3,2.53a.16.16,0,0,1-.15.1m.17-3.25v2.36l1-1.86V86.07Z"/><polygon class="cls-1" points="88.14 91 85.95 89 85.95 85.89 88.14 87.89 88.14 91"/><path d="M88.14,91.17a.17.17,0,0,1-.12,0l-2.19-2a.14.14,0,0,1-.06-.12V85.89a.18.18,0,0,1,.1-.16.17.17,0,0,1,.19,0l2.2,2a.29.29,0,0,1,0,.13V91a.19.19,0,0,1-.11.16h-.06m-2-2.25L88,90.61V88l-1.84-1.69Z"/><polygon class="cls-1" points="85.94 85.89 88.13 87.89 92.39 87.89 93.68 85.36 91.72 84.17 88.13 84.17 85.94 85.89"/><path d="M92.39,88.06H88.14A.16.16,0,0,1,88,88l-2.19-2a.2.2,0,0,1-.06-.14.21.21,0,0,1,.07-.13L88,84a.21.21,0,0,1,.11,0h3.58l.09,0,2,1.2a.17.17,0,0,1,.07.22L92.54,88a.16.16,0,0,1-.15.09m-4.19-.34h4.09l1.17-2.29-1.78-1.09H88.19l-2,1.56Z"/><path class="cls-1" d="M92.3,85.84a2.73,2.73,0,0,1-4.58,0V80.46S87.86,81.7,90,81.7s2.29-1.24,2.29-1.24Z"/><path d="M90,87.25a2.63,2.63,0,0,1-2.44-1.33l0-.08V80.46l.35,0s.17,1.08,2.11,1.08,2.12-1,2.13-1.08l.34,0,0,5.46A2.65,2.65,0,0,1,90,87.25M87.9,85.8A2.29,2.29,0,0,0,90,86.9a2.35,2.35,0,0,0,2.13-1.1V81.16a2.75,2.75,0,0,1-2.13.71,2.68,2.68,0,0,1-2.11-.71Z"/><path class="cls-1" d="M92.3,80.4c0,.72-1,1.3-2.29,1.3s-2.29-.58-2.29-1.3,1-1.29,2.29-1.29,2.29.58,2.29,1.29"/><path d="M90,81.87c-1.37,0-2.46-.65-2.46-1.47S88.64,79,90,79s2.47.63,2.47,1.45S91.4,81.87,90,81.87m0-2.59c-1.14,0-2.11.52-2.11,1.12s1,1.13,2.11,1.13,2.13-.52,2.13-1.13-1-1.12-2.13-1.12"/><path class="cls-1" d="M90,82.45c-1.26,0-2.29-.59-2.29-1.3"/><path d="M90,82.61c-1.37,0-2.46-.64-2.46-1.46h.35c0,.61,1,1.13,2.11,1.13Z"/><path class="cls-1" d="M92.3,81.15c0,.72-1,1.3-2.29,1.3"/><path d="M90,82.61v-.33c1.15,0,2.13-.52,2.13-1.13h.34c0,.82-1.08,1.46-2.47,1.46"/><path class="cls-1" d="M90,83.19c-1.26,0-2.29-.58-2.29-1.29"/><path d="M90,83.36c-1.37,0-2.46-.64-2.46-1.46h.35c0,.61,1,1.12,2.11,1.12Z"/><path class="cls-1" d="M92.3,81.9c0,.71-1,1.29-2.29,1.29"/><path d="M90,83.36V83c1.15,0,2.13-.51,2.13-1.12h.34c0,.82-1.08,1.46-2.47,1.46"/><path class="cls-1" d="M90,83.94c-1.26,0-2.29-.58-2.29-1.3"/><path d="M90,84.11c-1.37,0-2.46-.65-2.46-1.46h.35c0,.6,1,1.12,2.11,1.12Z"/><path class="cls-1" d="M92.3,82.65c0,.71-1,1.29-2.29,1.29"/><path d="M90,84.11v-.34c1.15,0,2.13-.52,2.13-1.12h.34c0,.81-1.08,1.46-2.47,1.46"/><path class="cls-1" d="M90,84.69c-1.26,0-2.29-.59-2.29-1.3"/><path d="M90,84.86c-1.37,0-2.46-.65-2.46-1.47h.35c0,.61,1,1.12,2.11,1.12Z"/><path class="cls-1" d="M92.3,83.39c0,.72-1,1.3-2.29,1.3"/><path d="M90,84.86v-.35c1.15,0,2.13-.51,2.13-1.12h.34c0,.82-1.08,1.47-2.47,1.47"/><path class="cls-1" d="M90,85.43c-1.26,0-2.29-.58-2.29-1.29"/><path d="M90,85.6c-1.37,0-2.46-.64-2.46-1.46h.35c0,.6,1,1.12,2.11,1.12Z"/><path class="cls-1" d="M92.3,84.14c0,.71-1,1.29-2.29,1.29"/><path d="M90,85.6v-.34c1.15,0,2.13-.52,2.13-1.12h.34c0,.82-1.08,1.46-2.47,1.46"/><path class="cls-1" d="M90,86.18c-1.26,0-2.29-.58-2.29-1.3"/><path d="M90,86.35c-1.37,0-2.46-.64-2.46-1.46h.35c0,.6,1,1.11,2.11,1.11Z"/><path class="cls-1" d="M92.3,84.89c0,.71-1,1.29-2.29,1.29"/><path d="M90,86.35V86c1.15,0,2.13-.51,2.13-1.11h.34c0,.82-1.08,1.46-2.47,1.46"/><rect class="cls-1" x="69.6" y="77.35" width="4.25" height="3.11"/><path d="M73.85,80.63H69.6a.17.17,0,0,1-.17-.17V77.35a.18.18,0,0,1,.17-.17h4.25a.18.18,0,0,1,.18.17v3.11a.17.17,0,0,1-.18.17m-4.08-.34h3.91V77.52H69.77Z"/><polygon class="cls-1" points="73.85 80.46 75.14 77.94 75.14 74.82 73.85 77.35 73.85 80.46"/><path d="M73.86,80.63h0a.18.18,0,0,1-.12-.17V77.35a.25.25,0,0,1,0-.08L75,74.75a.18.18,0,0,1,.2-.09.17.17,0,0,1,.13.17v3.11a.24.24,0,0,1,0,.08L74,80.54a.19.19,0,0,1-.15.09M74,77.39v2.36l1-1.86V75.53Z"/><polygon class="cls-1" points="69.6 80.46 67.41 78.46 67.41 75.35 69.6 77.35 69.6 80.46"/><path d="M69.6,80.63a.19.19,0,0,1-.12,0l-2.19-2a.21.21,0,0,1-.05-.13V75.35a.19.19,0,0,1,.09-.16.21.21,0,0,1,.2,0l2.19,2a.21.21,0,0,1,0,.13v3.11a.18.18,0,0,1-.1.16H69.6m-2-2.25,1.85,1.69V77.43l-1.85-1.69Z"/><polygon class="cls-1" points="67.41 75.35 69.6 77.35 73.85 77.35 75.15 74.83 73.19 73.63 69.6 73.63 67.41 75.35"/><path d="M73.85,77.52H69.6a.25.25,0,0,1-.12,0l-2.19-2a.2.2,0,0,1-.06-.13.24.24,0,0,1,.07-.13l2.2-1.71a.18.18,0,0,1,.1,0h3.59l.09,0,2,1.2a.17.17,0,0,1,.06.22L74,77.43a.16.16,0,0,1-.15.09m-4.18-.34h4.08l1.17-2.29-1.78-1.08H69.66l-2,1.55Z"/><path class="cls-1" d="M73.77,75.3a2.73,2.73,0,0,1-4.58,0V69.92s.14,1.24,2.29,1.24,2.29-1.24,2.29-1.24Z"/><path d="M71.48,76.71A2.65,2.65,0,0,1,69,75.38V69.92l.34,0S69.53,71,71.48,71s2.11-1,2.12-1.08l.34,0,0,5.46a2.61,2.61,0,0,1-2.44,1.33m-2.12-1.45a2.58,2.58,0,0,0,4.24,0V70.61a2.69,2.69,0,0,1-2.12.72,2.65,2.65,0,0,1-2.12-.72Z"/><path class="cls-1" d="M73.77,69.86c0,.72-1,1.3-2.29,1.3s-2.29-.58-2.29-1.3,1-1.29,2.29-1.29,2.29.58,2.29,1.29"/><path d="M71.48,71.33c-1.38,0-2.46-.64-2.46-1.46s1.08-1.47,2.46-1.47,2.45.64,2.45,1.47-1.08,1.46-2.45,1.46m0-2.59c-1.15,0-2.13.52-2.13,1.13s1,1.11,2.13,1.11,2.12-.51,2.12-1.11-1-1.13-2.12-1.13"/><path class="cls-1" d="M71.48,71.9c-1.27,0-2.29-.58-2.29-1.29"/><path d="M71.48,72.08c-1.38,0-2.46-.64-2.46-1.47h.33c0,.61,1,1.12,2.13,1.12Z"/><path class="cls-1" d="M73.77,70.61c0,.71-1,1.3-2.29,1.3"/><path d="M71.48,72.08v-.35c1.15,0,2.12-.51,2.12-1.12h.33c0,.83-1.08,1.47-2.45,1.47"/><path class="cls-1" d="M71.48,72.65c-1.27,0-2.29-.58-2.29-1.29"/><path d="M71.48,72.82c-1.38,0-2.46-.64-2.46-1.46h.33c0,.6,1,1.12,2.13,1.12Z"/><path class="cls-1" d="M73.77,71.36c0,.71-1,1.29-2.29,1.29"/><path d="M71.48,72.82v-.34c1.15,0,2.12-.52,2.12-1.12h.33c0,.82-1.08,1.46-2.45,1.46"/><path class="cls-1" d="M71.48,73.4c-1.27,0-2.29-.58-2.29-1.3"/><path d="M71.48,73.57c-1.38,0-2.46-.64-2.46-1.46h.33c0,.6,1,1.12,2.13,1.12Z"/><path class="cls-1" d="M73.77,72.1c0,.72-1,1.3-2.29,1.3"/><path d="M71.48,73.57v-.34c1.15,0,2.12-.52,2.12-1.12h.33c0,.82-1.08,1.46-2.45,1.46"/><path class="cls-1" d="M71.48,74.14c-1.27,0-2.29-.58-2.29-1.29"/><path d="M71.48,74.32c-1.38,0-2.46-.64-2.46-1.47h.33c0,.61,1,1.13,2.13,1.13Z"/><path class="cls-1" d="M73.77,72.85c0,.71-1,1.3-2.29,1.3"/><path d="M71.48,74.32V74c1.15,0,2.12-.52,2.12-1.13h.33c0,.83-1.08,1.47-2.45,1.47"/><path class="cls-1" d="M71.48,74.89c-1.27,0-2.29-.58-2.29-1.29"/><path d="M71.48,75.06c-1.38,0-2.46-.64-2.46-1.46h.33c0,.61,1,1.12,2.13,1.12Z"/><path class="cls-1" d="M73.77,73.6c0,.71-1,1.29-2.29,1.29"/><path d="M71.48,75.06v-.34c1.15,0,2.12-.51,2.12-1.12h.33c0,.82-1.08,1.46-2.45,1.46"/><path class="cls-1" d="M71.48,75.64c-1.27,0-2.29-.58-2.29-1.3"/><path d="M71.48,75.81c-1.38,0-2.46-.64-2.46-1.46h.33c0,.61,1,1.12,2.13,1.12Z"/><path class="cls-1" d="M73.77,74.34c0,.72-1,1.3-2.29,1.3"/><path d="M71.48,75.81v-.34c1.15,0,2.12-.51,2.12-1.12h.33c0,.82-1.08,1.46-2.45,1.46"/><rect class="cls-1" x="52" y="66.75" width="4.25" height="3.11"/><path d="M56.25,70H52a.16.16,0,0,1-.17-.17V66.75a.17.17,0,0,1,.17-.17h4.25a.17.17,0,0,1,.17.17v3.11a.16.16,0,0,1-.17.17m-4.08-.34h3.91V66.93H52.17Z"/><polygon class="cls-1" points="56.25 69.86 57.54 67.34 57.54 64.23 56.25 66.76 56.25 69.86"/><path d="M56.25,70h0a.17.17,0,0,1-.13-.17V66.75a.24.24,0,0,1,0-.08l1.29-2.52a.17.17,0,0,1,.33.08v3.11a.14.14,0,0,1,0,.07l-1.29,2.53a.19.19,0,0,1-.16.09m.17-3.23v2.36l1-1.86V64.94Z"/><polygon class="cls-1" points="52 69.86 49.81 67.87 49.81 64.75 52 66.76 52 69.86"/><path d="M52,70a.21.21,0,0,1-.12-.05l-2.19-2a.15.15,0,0,1,0-.12V64.75a.15.15,0,0,1,.09-.15.15.15,0,0,1,.19,0l2.19,2a.19.19,0,0,1,.06.13v3.12a.18.18,0,0,1-.1.15L52,70m-2-2.25,1.85,1.69V66.83L50,65.14Z"/><polygon class="cls-1" points="49.81 64.75 52 66.75 56.25 66.75 57.55 64.23 55.58 63.04 52 63.04 49.81 64.75"/><path d="M56.25,66.93H52a.22.22,0,0,1-.12-.05l-2.19-2a.18.18,0,0,1-.06-.14.19.19,0,0,1,.07-.12l2.2-1.72a.18.18,0,0,1,.1,0h3.59a.13.13,0,0,1,.08,0l2,1.19a.18.18,0,0,1,.06.22l-1.3,2.53a.18.18,0,0,1-.15.1m-4.18-.35h4.07l1.18-2.29-1.78-1.08H52.06l-2,1.55Z"/><path class="cls-1" d="M56.17,64.7a2.73,2.73,0,0,1-4.58,0V59.32s.14,1.24,2.28,1.24,2.3-1.24,2.3-1.24Z"/><path d="M53.88,66.11a2.63,2.63,0,0,1-2.45-1.33V59.32h.34s.16,1.08,2.12,1.08,2.11-1,2.12-1.08h.34l0,5.46a2.63,2.63,0,0,1-2.44,1.33m-2.12-1.45a2.3,2.3,0,0,0,2.12,1.11A2.35,2.35,0,0,0,56,64.66V60a2.74,2.74,0,0,1-2.12.71A2.69,2.69,0,0,1,51.76,60Z"/><path class="cls-1" d="M56.17,59.27c0,.71-1,1.29-2.3,1.29s-2.28-.58-2.28-1.29,1-1.3,2.28-1.3,2.3.58,2.3,1.3"/><path d="M53.88,60.73c-1.39,0-2.47-.64-2.47-1.47s1.08-1.45,2.47-1.45,2.45.64,2.45,1.45-1.08,1.47-2.45,1.47m0-2.58c-1.15,0-2.13.51-2.13,1.11s1,1.13,2.13,1.13S56,59.87,56,59.26s-1-1.11-2.11-1.11"/><path class="cls-1" d="M53.88,61.31c-1.27,0-2.3-.58-2.3-1.3"/><path d="M53.88,61.48c-1.39,0-2.47-.64-2.47-1.47h.34c0,.61,1,1.13,2.13,1.13Z"/><path class="cls-1" d="M56.17,60c0,.72-1,1.3-2.3,1.3"/><path d="M53.88,61.48v-.34C55,61.14,56,60.62,56,60h.34c0,.83-1.08,1.47-2.45,1.47"/><path class="cls-1" d="M53.88,62.05c-1.27,0-2.3-.58-2.3-1.29"/><path d="M53.88,62.22c-1.39,0-2.47-.64-2.47-1.46h.34c0,.61,1,1.13,2.13,1.13Z"/><path class="cls-1" d="M56.17,60.76c0,.72-1,1.3-2.3,1.3"/><path d="M53.88,62.22v-.33c1.14,0,2.11-.52,2.11-1.13h.34c0,.82-1.08,1.46-2.45,1.46"/><path class="cls-1" d="M53.88,62.8c-1.27,0-2.3-.58-2.3-1.29"/><path d="M53.88,63c-1.39,0-2.47-.64-2.47-1.46h.34c0,.61,1,1.12,2.13,1.12Z"/><path class="cls-1" d="M56.17,61.51c0,.71-1,1.29-2.3,1.29"/><path d="M53.88,63v-.34c1.14,0,2.11-.51,2.11-1.12h.34c0,.82-1.08,1.46-2.45,1.46"/><path class="cls-1" d="M53.88,63.55c-1.27,0-2.3-.58-2.3-1.3"/><path d="M53.88,63.72c-1.39,0-2.47-.64-2.47-1.47h.34c0,.61,1,1.13,2.13,1.13Z"/><path class="cls-1" d="M56.17,62.26c0,.71-1,1.29-2.3,1.29"/><path d="M53.88,63.72v-.34c1.14,0,2.11-.52,2.11-1.13h.34c0,.83-1.08,1.47-2.45,1.47"/><path class="cls-1" d="M53.88,64.29c-1.27,0-2.3-.58-2.3-1.29"/><path d="M53.88,64.47c-1.39,0-2.47-.65-2.47-1.47h.34c0,.61,1,1.12,2.13,1.12Z"/><path class="cls-1" d="M56.17,63c0,.72-1,1.3-2.3,1.3"/><path d="M53.88,64.47v-.35C55,64.12,56,63.61,56,63h.34c0,.82-1.08,1.47-2.45,1.47"/><path class="cls-1" d="M53.88,65c-1.27,0-2.3-.58-2.3-1.29"/><path d="M53.88,65.21c-1.39,0-2.47-.64-2.47-1.46h.34c0,.6,1,1.12,2.13,1.12Z"/><path class="cls-1" d="M56.17,63.75c0,.71-1,1.29-2.3,1.29"/><path d="M53.88,65.21v-.34c1.14,0,2.11-.52,2.11-1.12h.34c0,.82-1.08,1.46-2.45,1.46"/><rect class="cls-1" x="129.32" y="44.19" width="4.26" height="3.11"/><path d="M133.58,47.48h-4.26a.18.18,0,0,1-.17-.18V44.19a.17.17,0,0,1,.17-.16h4.26a.16.16,0,0,1,.16.16V47.3a.17.17,0,0,1-.16.18m-4.08-.35h3.91V44.36H129.5Z"/><polygon class="cls-1" points="133.57 47.31 134.87 44.78 134.87 41.67 133.57 44.2 133.57 47.31"/><path d="M133.58,47.48h-.05a.17.17,0,0,1-.12-.17V44.19a.17.17,0,0,1,0-.07l1.3-2.53a.17.17,0,0,1,.19-.09.17.17,0,0,1,.13.17v3.11s0,.06,0,.08l-1.3,2.52a.19.19,0,0,1-.15.1m.17-3.24V46.6l.95-1.86V42.38Z"/><polygon class="cls-1" points="129.32 47.31 127.13 45.31 127.13 42.2 129.32 44.2 129.32 47.31"/><path d="M129.32,47.48a.21.21,0,0,1-.12,0l-2.19-2a.19.19,0,0,1-.05-.13V42.19a.18.18,0,0,1,.1-.15.17.17,0,0,1,.19,0l2.19,2a.18.18,0,0,1,.05.12v3.12a.18.18,0,0,1-.1.15.1.1,0,0,1-.07,0m-2-2.25,1.85,1.69V44.27l-1.85-1.69Z"/><polygon class="cls-1" points="127.13 42.2 129.32 44.19 133.57 44.19 134.87 41.67 132.91 40.48 129.32 40.48 127.13 42.2"/><path d="M133.57,44.36h-4.25a.18.18,0,0,1-.11,0l-2.2-2a.21.21,0,0,1-.05-.13.2.2,0,0,1,.06-.13l2.2-1.72a.19.19,0,0,1,.1,0h3.59a.15.15,0,0,1,.09,0l2,1.2a.19.19,0,0,1,.07.22l-1.3,2.53a.18.18,0,0,1-.16.08M129.39,44h4.08l1.17-2.3-1.77-1.08h-3.49l-2,1.55Z"/><path class="cls-1" d="M133.49,42.15a2.76,2.76,0,0,1-4.59,0V36.77s.15,1.23,2.3,1.23,2.29-1.23,2.29-1.23Z"/><path d="M131.2,43.55a2.61,2.61,0,0,1-2.44-1.33l0-.07V36.77l.34,0s.17,1.08,2.12,1.08,2.11-1,2.12-1.08l.34,0v5.45a2.65,2.65,0,0,1-2.45,1.33m-2.12-1.44a2.59,2.59,0,0,0,4.24,0V37.46a3.52,3.52,0,0,1-4.24,0Z"/><path class="cls-1" d="M133.49,36.71c0,.71-1,1.29-2.29,1.29s-2.3-.58-2.3-1.29,1-1.29,2.3-1.29,2.29.58,2.29,1.29"/><path d="M131.2,38.17c-1.38,0-2.46-.64-2.46-1.46s1.08-1.46,2.46-1.46,2.46.64,2.46,1.46-1.08,1.46-2.46,1.46m0-2.58c-1.15,0-2.12.51-2.12,1.12s1,1.12,2.12,1.12,2.12-.52,2.12-1.12-1-1.12-2.12-1.12"/><path class="cls-1" d="M131.2,38.75c-1.26,0-2.29-.58-2.29-1.29"/><path d="M131.2,38.92c-1.38,0-2.46-.64-2.46-1.46h.34c0,.6,1,1.12,2.12,1.12Z"/><path class="cls-1" d="M133.49,37.46c0,.71-1,1.29-2.29,1.29"/><path d="M131.2,38.92v-.34c1.15,0,2.12-.52,2.12-1.12h.34c0,.82-1.08,1.46-2.46,1.46"/><path class="cls-1" d="M131.2,39.5c-1.26,0-2.29-.58-2.29-1.3"/><path d="M131.2,39.67c-1.38,0-2.46-.64-2.46-1.46h.34c0,.6,1,1.11,2.12,1.11Z"/><path class="cls-1" d="M133.49,38.2c0,.72-1,1.3-2.29,1.3"/><path d="M131.2,39.67v-.35c1.15,0,2.12-.51,2.12-1.11h.34c0,.82-1.08,1.46-2.46,1.46"/><path class="cls-1" d="M131.2,40.24c-1.26,0-2.29-.58-2.29-1.29"/><path d="M131.2,40.41c-1.38,0-2.46-.63-2.46-1.46h.34c0,.6,1,1.13,2.12,1.13Z"/><path class="cls-1" d="M133.49,39c0,.71-1,1.29-2.29,1.29"/><path d="M131.2,40.41v-.33c1.15,0,2.12-.53,2.12-1.13h.34c0,.83-1.08,1.46-2.46,1.46"/><path class="cls-1" d="M131.2,41c-1.26,0-2.29-.58-2.29-1.3"/><path d="M131.2,41.16c-1.38,0-2.46-.64-2.46-1.46h.34c0,.61,1,1.12,2.12,1.12Z"/><path class="cls-1" d="M133.49,39.7c0,.71-1,1.29-2.29,1.29"/><path d="M131.2,41.16v-.34c1.15,0,2.12-.51,2.12-1.12h.34c0,.82-1.08,1.46-2.46,1.46"/><path class="cls-1" d="M131.2,41.74c-1.26,0-2.29-.59-2.29-1.3"/><path d="M131.2,41.91c-1.38,0-2.46-.64-2.46-1.47h.34c0,.61,1,1.13,2.12,1.13Z"/><path class="cls-1" d="M133.49,40.44c0,.72-1,1.3-2.29,1.3"/><path d="M131.2,41.91v-.34c1.15,0,2.12-.52,2.12-1.13h.34c0,.83-1.08,1.47-2.46,1.47"/><path class="cls-1" d="M131.2,42.48c-1.26,0-2.29-.58-2.29-1.29"/><path d="M131.2,42.65c-1.38,0-2.46-.64-2.46-1.46h.34c0,.61,1,1.13,2.12,1.13Z"/><path class="cls-1" d="M133.49,41.19c0,.71-1,1.29-2.29,1.29"/><path d="M131.2,42.65v-.33c1.15,0,2.12-.52,2.12-1.13h.34c0,.82-1.08,1.46-2.46,1.46"/><rect class="cls-1" x="146.92" y="53.96" width="4.26" height="3.11"/><path d="M151.17,57.24h-4.25a.17.17,0,0,1-.17-.17V54a.17.17,0,0,1,.17-.17h4.25a.16.16,0,0,1,.17.17v3.11a.16.16,0,0,1-.17.17m-4.08-.34H151V54.13h-3.91Z"/><polygon class="cls-1" points="151.18 57.07 152.47 54.54 152.47 51.43 151.18 53.96 151.18 57.07"/><path d="M151.18,57.24h-.05a.15.15,0,0,1-.12-.16V54a.22.22,0,0,1,0-.08l1.29-2.53a.19.19,0,0,1,.2-.08.16.16,0,0,1,.13.17v3.1a.15.15,0,0,1,0,.09l-1.29,2.52a.18.18,0,0,1-.15.09m.16-3.24v2.36l1-1.85V52.14Z"/><polygon class="cls-1" points="146.92 57.07 144.73 55.07 144.73 51.96 146.92 53.96 146.92 57.07"/><path d="M146.92,57.24a.15.15,0,0,1-.11,0l-2.19-2a.14.14,0,0,1-.06-.12V52a.16.16,0,0,1,.1-.16.15.15,0,0,1,.18,0l2.2,2a.21.21,0,0,1,.05.13v3.11a.18.18,0,0,1-.1.16h-.07m-2-2.25,1.85,1.7V54l-1.85-1.69Z"/><polygon class="cls-1" points="144.73 51.96 146.92 53.96 151.18 53.96 152.47 51.44 150.51 50.24 146.92 50.24 144.73 51.96"/><path d="M151.18,54.13h-4.26a.21.21,0,0,1-.11,0l-2.2-2a.2.2,0,0,1-.06-.13.18.18,0,0,1,.08-.13l2.19-1.71a.13.13,0,0,1,.1,0h3.59a.16.16,0,0,1,.09,0l2,1.19a.17.17,0,0,1,.06.22L151.32,54a.15.15,0,0,1-.14.09M147,53.79h4.08l1.17-2.3-1.78-1.08H147L145,52Z"/><path class="cls-1" d="M151.09,51.91a2.73,2.73,0,0,1-4.58,0V46.53s.14,1.24,2.29,1.24,2.29-1.24,2.29-1.24Z"/><path d="M148.8,53.32A2.61,2.61,0,0,1,146.36,52l0-.08V46.53l.34,0s.17,1.09,2.12,1.09,2.11-1.05,2.12-1.09l.35,0,0,5.46a2.61,2.61,0,0,1-2.44,1.33m-2.12-1.45a2.58,2.58,0,0,0,4.24,0V47.22a3.48,3.48,0,0,1-4.24,0Z"/><path class="cls-1" d="M151.09,46.47c0,.72-1,1.3-2.29,1.3s-2.29-.58-2.29-1.3,1-1.29,2.29-1.29,2.29.58,2.29,1.29"/><path d="M148.8,47.94c-1.38,0-2.46-.65-2.46-1.47S147.42,45,148.8,45s2.46.65,2.46,1.46-1.08,1.47-2.46,1.47m0-2.59c-1.15,0-2.12.52-2.12,1.12s1,1.13,2.12,1.13,2.12-.52,2.12-1.13-1-1.12-2.12-1.12"/><path class="cls-1" d="M148.8,48.51c-1.26,0-2.29-.58-2.29-1.29"/><path d="M148.8,48.68c-1.38,0-2.46-.64-2.46-1.46h.34c0,.61,1,1.13,2.12,1.13Z"/><path class="cls-1" d="M151.09,47.22c0,.71-1,1.29-2.29,1.29"/><path d="M148.8,48.68v-.33c1.15,0,2.12-.52,2.12-1.13h.34c0,.82-1.08,1.46-2.46,1.46"/><path class="cls-1" d="M148.8,49.26c-1.26,0-2.29-.58-2.29-1.3"/><path d="M148.8,49.43c-1.38,0-2.46-.64-2.46-1.46h.34c0,.61,1,1.12,2.12,1.12Z"/><path class="cls-1" d="M151.09,48c0,.71-1,1.29-2.29,1.29"/><path d="M148.8,49.43v-.34c1.15,0,2.12-.51,2.12-1.12h.34c0,.82-1.08,1.46-2.46,1.46"/><path class="cls-1" d="M148.8,50c-1.26,0-2.29-.58-2.29-1.29"/><path d="M148.8,50.18c-1.38,0-2.46-.64-2.46-1.47h.34c0,.61,1,1.13,2.12,1.13Z"/><path class="cls-1" d="M151.09,48.71c0,.72-1,1.3-2.29,1.3"/><path d="M148.8,50.18v-.34c1.15,0,2.12-.52,2.12-1.13h.34c0,.83-1.08,1.47-2.46,1.47"/><path class="cls-1" d="M148.8,50.75c-1.26,0-2.29-.58-2.29-1.29"/><path d="M148.8,50.92c-1.38,0-2.46-.64-2.46-1.46h.34c0,.61,1,1.13,2.12,1.13Z"/><path class="cls-1" d="M151.09,49.46c0,.71-1,1.29-2.29,1.29"/><path d="M148.8,50.92v-.33c1.15,0,2.12-.52,2.12-1.13h.34c0,.82-1.08,1.46-2.46,1.46"/><path class="cls-1" d="M148.8,51.5c-1.26,0-2.29-.58-2.29-1.29"/><path d="M148.8,51.67c-1.38,0-2.46-.64-2.46-1.46h.34c0,.61,1,1.12,2.12,1.12Z"/><path class="cls-1" d="M151.09,50.21c0,.71-1,1.29-2.29,1.29"/><path d="M148.8,51.67v-.34c1.15,0,2.12-.51,2.12-1.12h.34c0,.82-1.08,1.46-2.46,1.46"/><path class="cls-1" d="M148.8,52.25c-1.26,0-2.29-.58-2.29-1.3"/><path d="M148.8,52.42c-1.38,0-2.46-.64-2.46-1.47h.34c0,.61,1,1.13,2.12,1.13Z"/><path class="cls-1" d="M151.09,51c0,.71-1,1.29-2.29,1.29"/><path d="M148.8,52.42v-.34c1.15,0,2.12-.52,2.12-1.13h.34c0,.83-1.08,1.47-2.46,1.47"/><rect class="cls-1" x="112.54" y="34.63" width="4.25" height="3.11"/><path d="M116.79,37.91h-4.25a.16.16,0,0,1-.17-.17V34.63a.18.18,0,0,1,.17-.18h4.25a.18.18,0,0,1,.17.18v3.11a.17.17,0,0,1-.17.17m-4.08-.34h3.91V34.81h-3.91Z"/><polygon class="cls-1" points="116.79 37.74 118.08 35.21 118.08 32.1 116.79 34.63 116.79 37.74"/><path d="M116.79,37.91h0a.18.18,0,0,1-.13-.17V34.63a.24.24,0,0,1,0-.08L117.93,32a.17.17,0,0,1,.2-.09.17.17,0,0,1,.12.17v3.11a.15.15,0,0,1,0,.07l-1.3,2.53a.16.16,0,0,1-.15.09m.17-3.24V37l1-1.86V32.81Z"/><polygon class="cls-1" points="112.54 37.74 110.35 35.74 110.35 32.62 112.54 34.63 112.54 37.74"/><path d="M112.53,37.91a.17.17,0,0,1-.11,0l-2.19-2a.17.17,0,0,1-.06-.12V32.63a.16.16,0,0,1,.11-.16.15.15,0,0,1,.18,0l2.19,2a.17.17,0,0,1,0,.13v3.11a.17.17,0,0,1-.09.16h-.08m-2-2.25,1.85,1.69V34.71L110.51,33Z"/><polygon class="cls-1" points="110.34 32.63 112.53 34.63 116.78 34.63 118.08 32.1 116.12 30.91 112.53 30.91 110.34 32.63"/><path d="M116.78,34.8h-4.24a.16.16,0,0,1-.11,0l-2.2-2a.16.16,0,0,1-.06-.13.26.26,0,0,1,.06-.13l2.2-1.72a.2.2,0,0,1,.11,0h3.58a.11.11,0,0,1,.09,0l2,1.19a.17.17,0,0,1,.07.22l-1.3,2.53a.17.17,0,0,1-.16.09m-4.18-.34h4.08l1.18-2.3-1.78-1.08h-3.49l-2,1.55Z"/><path class="cls-1" d="M116.7,32.58a2.75,2.75,0,0,1-4.58,0V27.2s.14,1.24,2.29,1.24,2.29-1.24,2.29-1.24Z"/><path d="M114.42,34A2.63,2.63,0,0,1,112,32.66l0-.08V27.2l.34,0s.17,1.08,2.13,1.08,2.11-1,2.11-1.08l.35,0,0,5.46A2.63,2.63,0,0,1,114.42,34m-2.13-1.45a2.36,2.36,0,0,0,2.13,1.1,2.31,2.31,0,0,0,2.11-1.1V27.89a3.48,3.48,0,0,1-4.24,0Z"/><path class="cls-1" d="M116.7,27.14c0,.71-1,1.29-2.29,1.29s-2.29-.58-2.29-1.29,1-1.29,2.29-1.29,2.29.58,2.29,1.29"/><path d="M114.41,28.61C113,28.61,112,28,112,27.14s1.08-1.46,2.46-1.46,2.47.64,2.47,1.46-1.09,1.47-2.47,1.47m0-2.59c-1.14,0-2.12.52-2.12,1.12s1,1.12,2.12,1.12,2.12-.51,2.12-1.12-1-1.12-2.12-1.12"/><path class="cls-1" d="M114.41,29.18c-1.26,0-2.29-.58-2.29-1.29"/><path d="M114.41,29.35c-1.38,0-2.46-.64-2.46-1.46h.34c0,.61,1,1.12,2.12,1.12Z"/><path class="cls-1" d="M116.7,27.89c0,.71-1,1.3-2.29,1.3"/><path d="M114.41,29.35V29c1.15,0,2.12-.51,2.12-1.12h.35c0,.82-1.09,1.46-2.47,1.46"/><path class="cls-1" d="M114.41,29.93c-1.26,0-2.29-.58-2.29-1.29"/><path d="M114.41,30.1c-1.38,0-2.46-.64-2.46-1.46h.34c0,.61,1,1.12,2.12,1.12Z"/><path class="cls-1" d="M116.7,28.64c0,.71-1,1.29-2.29,1.29"/><path d="M114.41,30.1v-.34c1.15,0,2.12-.51,2.12-1.12h.35c0,.82-1.09,1.46-2.47,1.46"/><path class="cls-1" d="M114.41,30.68c-1.26,0-2.29-.58-2.29-1.3"/><path d="M114.41,30.84c-1.38,0-2.46-.63-2.46-1.46h.34c0,.61,1,1.13,2.12,1.13Z"/><path class="cls-1" d="M116.7,29.38c0,.72-1,1.3-2.29,1.3"/><path d="M114.41,30.84v-.33c1.15,0,2.12-.52,2.12-1.13h.35c0,.83-1.09,1.46-2.47,1.46"/><path class="cls-1" d="M114.41,31.42c-1.26,0-2.29-.58-2.29-1.29"/><path d="M114.41,31.6C113,31.6,112,31,112,30.13h.34c0,.61,1,1.12,2.12,1.12Z"/><path class="cls-1" d="M116.7,30.13c0,.71-1,1.3-2.29,1.3"/><path d="M114.41,31.6v-.35c1.15,0,2.12-.51,2.12-1.12h.35c0,.82-1.09,1.47-2.47,1.47"/><path class="cls-1" d="M114.41,32.17c-1.26,0-2.29-.58-2.29-1.29"/><path d="M114.41,32.34c-1.38,0-2.46-.64-2.46-1.46h.34c0,.6,1,1.12,2.12,1.12Z"/><path class="cls-1" d="M116.7,30.88c0,.71-1,1.29-2.29,1.29"/><path d="M114.41,32.34V32c1.15,0,2.12-.52,2.12-1.12h.35c0,.82-1.09,1.46-2.47,1.46"/><path class="cls-1" d="M114.41,32.92c-1.26,0-2.29-.58-2.29-1.3"/><path d="M114.41,33.09c-1.38,0-2.46-.64-2.46-1.46h.34c0,.6,1,1.11,2.12,1.11Z"/><path class="cls-1" d="M116.7,31.62c0,.72-1,1.3-2.29,1.3"/><path d="M114.41,33.09v-.35c1.15,0,2.12-.51,2.12-1.11h.35c0,.82-1.09,1.46-2.47,1.46"/></svg>