<svg id="Capa_1" data-name="Capa 1" xmlns="http://www.w3.org/2000/svg" xmlns:xlink="http://www.w3.org/1999/xlink" viewBox="0 0 200 200"><defs><style>.cls-1{fill:none;}.cls-2{fill:#ffde00;}.cls-3{clip-path:url(#clip-path);}.cls-4{clip-path:url(#clip-path-2);}.cls-5{clip-path:url(#clip-path-3);}.cls-6{clip-path:url(#clip-path-4);}.cls-7{clip-path:url(#clip-path-5);}.cls-8{clip-path:url(#clip-path-6);}.cls-9{clip-path:url(#clip-path-7);}.cls-10{clip-path:url(#clip-path-8);}.cls-11{clip-path:url(#clip-path-9);}.cls-12{clip-path:url(#clip-path-10);}.cls-13{clip-path:url(#clip-path-11);}.cls-14{clip-path:url(#clip-path-12);}</style><clipPath id="clip-path"><path class="cls-1" d="M99.63,133a3,3,0,0,0,1.41,1.67l-.86-2.8a3,3,0,0,1-1.41-1.68Z"/></clipPath><clipPath id="clip-path-2"><path class="cls-1" d="M107.05,130.78a6.23,6.23,0,0,1-6.87,1.1l.86,2.8a6.23,6.23,0,0,0,6.87-1.09,3.48,3.48,0,0,0,1.22-3.51l-.86-2.8a3.45,3.45,0,0,1-1.22,3.5"/></clipPath><clipPath id="clip-path-3"><path class="cls-1" d="M122.7,111.51a2.9,2.9,0,0,0,1.41,1.67l-.86-2.8a2.85,2.85,0,0,1-1.4-1.67Z"/></clipPath><clipPath id="clip-path-4"><path class="cls-1" d="M130.12,109.29a6.23,6.23,0,0,1-6.87,1.09l.86,2.8A6.24,6.24,0,0,0,131,112.1a3.48,3.48,0,0,0,1.22-3.52l-.85-2.8a3.48,3.48,0,0,1-1.23,3.51"/></clipPath><clipPath id="clip-path-5"><path class="cls-1" d="M145.78,90a2.86,2.86,0,0,0,1.4,1.67l-.86-2.8a2.92,2.92,0,0,1-1.4-1.67Z"/></clipPath><clipPath id="clip-path-6"><path class="cls-1" d="M153.19,87.79c-1.84,1.72-4.94,2.22-6.87,1.09l.86,2.8c1.93,1.12,5,.63,6.87-1.08a3.51,3.51,0,0,0,1.23-3.51l-.87-2.81a3.47,3.47,0,0,1-1.22,3.51"/></clipPath><clipPath id="clip-path-7"><path class="cls-1" d="M45,101.47a2.89,2.89,0,0,0,1.4,1.65l-.86-2.79a3,3,0,0,1-1.4-1.67Z"/></clipPath><clipPath id="clip-path-8"><path class="cls-1" d="M52.41,99.24a6.24,6.24,0,0,1-6.88,1.09l.86,2.79a6.24,6.24,0,0,0,6.88-1.07,3.48,3.48,0,0,0,1.22-3.51l-.85-2.8a3.49,3.49,0,0,1-1.23,3.5"/></clipPath><clipPath id="clip-path-9"><path class="cls-1" d="M68.06,80a2.92,2.92,0,0,0,1.39,1.66l-.86-2.8a2.9,2.9,0,0,1-1.39-1.67Z"/></clipPath><clipPath id="clip-path-10"><path class="cls-1" d="M75.47,77.75a6.25,6.25,0,0,1-6.88,1.08l.86,2.8a6.23,6.23,0,0,0,6.88-1.08A3.44,3.44,0,0,0,77.56,77l-.85-2.8a3.48,3.48,0,0,1-1.24,3.51"/></clipPath><clipPath id="clip-path-11"><path class="cls-1" d="M91.14,58.46a2.87,2.87,0,0,0,1.39,1.67l-.86-2.8a2.94,2.94,0,0,1-1.4-1.66Z"/></clipPath><clipPath id="clip-path-12"><path class="cls-1" d="M98.56,56.25c-1.86,1.71-4.94,2.21-6.89,1.08l.86,2.8a6.23,6.23,0,0,0,6.88-1.08,3.49,3.49,0,0,0,1.23-3.5l-.86-2.81a3.52,3.52,0,0,1-1.22,3.51"/></clipPath></defs><path class="cls-2" d="M100,193.71A93.72,93.72,0,1,1,193.72,100,93.82,93.82,0,0,1,100,193.71"/><path d="M100,8.41A91.59,91.59,0,1,1,8.41,100,91.59,91.59,0,0,1,100,8.41m0-4.24A95.83,95.83,0,1,0,195.83,100,95.94,95.94,0,0,0,100,4.17"/><path class="cls-2" d="M99.63,133l-.86-2.8a3,3,0,0,0,1.41,1.67l.86,2.81A2.92,2.92,0,0,1,99.63,133"/><g class="cls-3"><path class="cls-2" d="M99.63,133l-.86-2.8,0,.08.86,2.8,0-.08"/><path d="M99.66,133.87a.81.81,0,0,1-.76-.54s0-.09,0-.09L98,130.43a.8.8,0,0,1,.52-1,.79.79,0,0,1,1,.47,0,0,0,0,1,0,0h0v0l.89,2.87a.81.81,0,0,1-.52,1,.66.66,0,0,1-.24,0"/><path class="cls-2" d="M99.66,133.08l-.86-2.8a1.34,1.34,0,0,0,.07.18l.85,2.8-.06-.18"/><path d="M99.73,134.06a.81.81,0,0,1-.73-.47l-.1-.25v0l-.86-2.8a.79.79,0,0,1,1.51-.48,1.59,1.59,0,0,1,.07.2l.87,2.8a.8.8,0,0,1-.48,1,.92.92,0,0,1-.28.05"/><path class="cls-2" d="M99.73,133.26l-.86-2.8.08.18.86,2.8a1.42,1.42,0,0,1-.08-.18"/><path d="M99.81,134.24a.81.81,0,0,1-.71-.44,2.4,2.4,0,0,0-.11-.23.31.31,0,0,0,0-.08l-.86-2.8a.78.78,0,0,1,.49-1,.81.81,0,0,1,1,.43s.11.23.11.26l.86,2.8a.8.8,0,0,1-.46,1,1,1,0,0,1-.3.06"/><path class="cls-2" d="M99.81,133.44l-.86-2.8a1.4,1.4,0,0,0,.1.16l.85,2.8-.09-.16"/><path d="M99.9,134.4a.78.78,0,0,1-.67-.38s-.11-.2-.12-.21a.42.42,0,0,1-.06-.14l-.86-2.8a.8.8,0,0,1,1.47-.6l.15.3.86,2.8a.81.81,0,0,1-.44,1,.78.78,0,0,1-.33.07"/><path class="cls-2" d="M99.9,133.6,99,130.8a1,1,0,0,1,.11.17l.86,2.79a.91.91,0,0,1-.11-.16"/><path d="M100,134.56a.82.82,0,0,1-.65-.34l-.13-.19a1.07,1.07,0,0,1-.09-.19l-.85-2.8a.79.79,0,0,1,1.44-.64,3.47,3.47,0,0,1,.18.33l.86,2.8a.81.81,0,0,1-.41.95.77.77,0,0,1-.35.08"/><path class="cls-2" d="M100,133.76l-.86-2.8s.08.1.11.16l.86,2.8c0-.06-.08-.11-.11-.16"/><path d="M100.12,134.71a.81.81,0,0,1-.61-.29l-.15-.19a1,1,0,0,1-.11-.23l-.86-2.81a.78.78,0,0,1,.41-.94.81.81,0,0,1,1,.26,3.47,3.47,0,0,1,.21.37l.87,2.8a.79.79,0,0,1-.38.93.78.78,0,0,1-.39.1"/><path class="cls-2" d="M100.12,133.92l-.86-2.8.14.14.86,2.81-.14-.15"/><path d="M100.26,134.86a.79.79,0,0,1-.58-.25s-.16-.18-.18-.2a.91.91,0,0,1-.13-.26l-.86-2.8a.79.79,0,0,1,.37-.93.81.81,0,0,1,1,.18,2.44,2.44,0,0,1,.28.43l.86,2.8a.78.78,0,0,1-.37.92.77.77,0,0,1-.39.11"/><path class="cls-2" d="M100.25,134.07l-.86-2.8a1,1,0,0,1,.15.14l.87,2.8a2,2,0,0,0-.16-.14"/><path d="M100.4,135a.79.79,0,0,1-.53-.22l-.19-.18a.94.94,0,0,1-.19-.32l-.86-2.8a.8.8,0,0,1,1.35-.77,1.59,1.59,0,0,1,.32.46l.86,2.8a.78.78,0,0,1-.33.9.75.75,0,0,1-.43.13"/><path class="cls-2" d="M100.4,134.21l-.86-2.8.17.15.86,2.8-.17-.15"/><path d="M100.57,135.15a.81.81,0,0,1-.51-.18l-.2-.18a.77.77,0,0,1-.22-.34l-.86-2.81a.81.81,0,0,1,.34-.91.82.82,0,0,1,1,.1,1.41,1.41,0,0,1,.38.49l.86,2.8a.79.79,0,0,1-.76,1"/><path class="cls-2" d="M100.57,134.36l-.86-2.8.19.14.85,2.8a1.24,1.24,0,0,0-.18-.14"/><path d="M100.76,135.29a.78.78,0,0,1-.46-.14l-.23-.17a.79.79,0,0,1-.26-.39l-.86-2.8a.81.81,0,0,1,.31-.9.8.8,0,0,1,.95.05,1.46,1.46,0,0,1,.44.52l.87,2.81a.79.79,0,0,1-.29.87.82.82,0,0,1-.47.15"/><path class="cls-2" d="M100.76,134.5l-.86-2.8a1.64,1.64,0,0,0,.22.14l.86,2.81-.22-.15"/><path d="M101,135.44a.71.71,0,0,1-.42-.12l-.28-.17a.89.89,0,0,1-.29-.42l-.86-2.8a.81.81,0,0,1,.29-.88.78.78,0,0,1,.92,0l.18.11a.75.75,0,0,1,.35.45l.87,2.8a.81.81,0,0,1-.76,1"/><path class="cls-2" d="M101,134.65l-.86-2.8.05,0,.86,2.8-.05,0"/><path d="M101,135.47a.73.73,0,0,1-.39-.1.94.94,0,0,1-.42-.5l-.86-2.79a.79.79,0,0,1,1.16-.92.9.9,0,0,1,.4.48l.87,2.8a.79.79,0,0,1-.26.85.81.81,0,0,1-.5.18"/></g><path class="cls-2" d="M108.27,127.28l.86,2.8a3.44,3.44,0,0,1-1.23,3.51,6.21,6.21,0,0,1-6.86,1.09l-.86-2.81a6.19,6.19,0,0,0,6.86-1.08,3.46,3.46,0,0,0,1.23-3.51"/><g class="cls-4"><path class="cls-2" d="M101,134.68l-.86-2.8a1.51,1.51,0,0,0,.22.11l.86,2.8-.22-.11"/><path d="M101.26,135.59a.85.85,0,0,1-.35-.08l-.27-.15a.8.8,0,0,1-.37-.45l-.85-2.8a.77.77,0,0,1,.26-.85.8.8,0,0,1,.9-.08l.18.1a.82.82,0,0,1,.4.48l.86,2.8a.79.79,0,0,1-.25.84.75.75,0,0,1-.51.19"/><path class="cls-2" d="M101.26,134.8,100.4,132l.35.16.86,2.8c-.12,0-.23-.1-.35-.15"/><path d="M101.61,135.75a1,1,0,0,1-.29-.05l-.41-.19a.78.78,0,0,1-.41-.48l-.86-2.8a.79.79,0,0,1,1.11-.95l.29.13a.77.77,0,0,1,.47.51l.87,2.8a.81.81,0,0,1-.22.81.83.83,0,0,1-.55.22"/><path class="cls-2" d="M101.61,135l-.86-2.8a4.69,4.69,0,0,0,.61.18l.86,2.8a3.92,3.92,0,0,1-.61-.18"/><path d="M102.22,135.93a.55.55,0,0,1-.18,0,6,6,0,0,1-.72-.22.8.8,0,0,1-.47-.51l-.86-2.8a.77.77,0,0,1,.22-.81.76.76,0,0,1,.82-.16,4.91,4.91,0,0,0,.51.15.79.79,0,0,1,.58.54l.86,2.8a.79.79,0,0,1-.76,1"/><path d="M102.22,135.14l-.86-2.8a6.77,6.77,0,0,0,1,.14l.86,2.8a5.7,5.7,0,0,1-1-.14"/><path d="M103.24,136.07h0a5.5,5.5,0,0,1-1.16-.16.78.78,0,0,1-.58-.54l-.86-2.81a.79.79,0,0,1,.18-.77.82.82,0,0,1,.76-.23,4.24,4.24,0,0,0,.88.12.8.8,0,0,1,.72.56L104,135a.8.8,0,0,1-.13.72.82.82,0,0,1-.63.31"/><path d="M103.24,135.27l-.86-2.8h.69l.86,2.8h-.69"/><path d="M103.5,136.08h-.3a.79.79,0,0,1-.72-.57l-.86-2.79a.77.77,0,0,1,.13-.72.75.75,0,0,1,.66-.31c.2,0,.4,0,.61,0a.8.8,0,0,1,.81.56l.86,2.8a.8.8,0,0,1-.7,1l-.49,0"/><path class="cls-2" d="M103.93,135.27l-.86-2.8c.15,0,.3,0,.44-.06l.87,2.81-.45.05"/><path d="M103.93,136.06a.81.81,0,0,1-.76-.56l-.85-2.81a.73.73,0,0,1,.1-.67.79.79,0,0,1,.59-.35l.4,0a.8.8,0,0,1,.87.56l.86,2.8a.77.77,0,0,1-.09.66.8.8,0,0,1-.56.36l-.5.05Z"/><path class="cls-2" d="M104.38,135.22l-.86-2.8.36-.07.86,2.81-.36.06"/><path d="M104.38,136a.8.8,0,0,1-.77-.56l-.85-2.8a.81.81,0,0,1,.65-1l.32-.05a.81.81,0,0,1,.91.55l.86,2.8a.76.76,0,0,1-.08.64.77.77,0,0,1-.53.38l-.4.07h-.11"/><path class="cls-2" d="M104.74,135.16l-.86-2.8.32-.08.86,2.81-.32.07"/><path d="M104.74,136a.81.81,0,0,1-.76-.57l-.86-2.8a.8.8,0,0,1,.08-.64.83.83,0,0,1,.53-.38l.28,0a.78.78,0,0,1,.94.53l.86,2.81a.75.75,0,0,1-.06.62.77.77,0,0,1-.5.38l-.35.08-.16,0"/><path class="cls-2" d="M105.06,135.09l-.86-2.8.29-.08.86,2.8-.29.08"/><path d="M105.06,135.88a.79.79,0,0,1-.76-.56l-.86-2.8a.75.75,0,0,1,.07-.62.8.8,0,0,1,.5-.38l.26-.08a.81.81,0,0,1,1,.53l.86,2.81a.86.86,0,0,1-.06.61.8.8,0,0,1-.48.38l-.32.09a.65.65,0,0,1-.19,0"/><path class="cls-2" d="M105.35,135l-.86-2.8.27-.09.86,2.8a1.43,1.43,0,0,1-.27.09"/><path d="M105.35,135.81a.81.81,0,0,1-.77-.57l-.85-2.8a.76.76,0,0,1,.06-.61.85.85,0,0,1,.48-.39l.24-.07a.79.79,0,0,1,.62,0,.74.74,0,0,1,.39.47l.86,2.81a.79.79,0,0,1-.51,1l-.29.1-.23,0"/><path class="cls-2" d="M105.62,134.92l-.86-2.8L105,132l.86,2.8-.25.08"/><path d="M105.62,135.72a.77.77,0,0,1-.36-.09.75.75,0,0,1-.4-.47l-.86-2.81a.78.78,0,0,1,.51-1l.21-.08a.84.84,0,0,1,.64,0,.78.78,0,0,1,.41.48l.86,2.8a.78.78,0,0,1-.47,1l-.28.11a.78.78,0,0,1-.26,0"/><path class="cls-2" d="M105.87,134.83,105,132l.24-.09.86,2.8-.24.09"/><path d="M105.87,135.63a.85.85,0,0,1-.35-.08.75.75,0,0,1-.41-.48l-.86-2.8a.81.81,0,0,1,.48-1l.21-.08a.82.82,0,0,1,.65,0,.81.81,0,0,1,.42.5l.86,2.8a.78.78,0,0,1-.45,1l-.27.11a.66.66,0,0,1-.28,0"/><path class="cls-2" d="M106.11,134.74l-.86-2.8.24-.11.86,2.81-.24.1"/><path d="M106.11,135.53a.72.72,0,0,1-.33-.07.81.81,0,0,1-.43-.49l-.86-2.8a.79.79,0,0,1,.45-1l.21-.1a.8.8,0,0,1,.66,0,.85.85,0,0,1,.44.49l.85,2.81a.79.79,0,0,1-.41.95l-.26.12a.87.87,0,0,1-.32.06"/><path class="cls-2" d="M106.35,134.63l-.86-2.8.22-.11.86,2.8-.22.11"/><path d="M106.35,135.43a.72.72,0,0,1-.33-.07.79.79,0,0,1-.44-.49l-.85-2.81a.8.8,0,0,1,.41-.95l.21-.1a.79.79,0,0,1,.67,0,.8.8,0,0,1,.45.5l.86,2.8a.8.8,0,0,1-.38.94l-.27.12a.67.67,0,0,1-.33.08"/><path class="cls-2" d="M106.57,134.52l-.86-2.8.23-.12.85,2.8-.22.12"/><path d="M106.57,135.32a1.21,1.21,0,0,1-.31-.06.85.85,0,0,1-.45-.5L105,132a.8.8,0,0,1,.39-.93l.2-.11a.8.8,0,0,1,.69,0,.82.82,0,0,1,.47.51l.86,2.8a.81.81,0,0,1-.37.92l-.26.14a.74.74,0,0,1-.36.09"/><path class="cls-2" d="M106.79,134.4l-.86-2.8.22-.13.86,2.8-.22.13"/><path d="M106.79,135.19a.77.77,0,0,1-.29-.05.79.79,0,0,1-.46-.5l-.86-2.81a.79.79,0,0,1,.36-.92l.19-.12a.81.81,0,0,1,1.19.44l.85,2.81a.77.77,0,0,1-.34.9l-.24.15a.79.79,0,0,1-.4.1"/><path class="cls-2" d="M107,134.27l-.86-2.8a1.7,1.7,0,0,0,.22-.15l.86,2.8a.86.86,0,0,1-.22.15"/><path d="M107,135.07a.67.67,0,0,1-.28-.06.81.81,0,0,1-.49-.5l-.86-2.81a.82.82,0,0,1,.34-.91l.2-.12a.78.78,0,0,1,1.2.42l.86,2.81a.76.76,0,0,1-.31.88l-.24.16a.74.74,0,0,1-.42.13"/><path class="cls-2" d="M107.24,134.12l-.86-2.8.22-.16.86,2.81-.22.15"/><path d="M107.24,134.92a.84.84,0,0,1-.27,0,.81.81,0,0,1-.5-.52l-.85-2.81a.8.8,0,0,1,.3-.88l.21-.14a.77.77,0,0,1,.72-.12.8.8,0,0,1,.51.52l.85,2.8a.77.77,0,0,1-.27.87l-.26.18a.72.72,0,0,1-.44.14"/><path class="cls-2" d="M107.46,134l-.86-2.8.23-.19.86,2.81-.23.18"/><path d="M107.46,134.76a.67.67,0,0,1-.24,0,.81.81,0,0,1-.53-.52l-.85-2.81a.78.78,0,0,1,.28-.86l.2-.16a.77.77,0,0,1,.73-.15.82.82,0,0,1,.53.53l.86,2.8a.8.8,0,0,1-.24.84l-.26.21a.77.77,0,0,1-.48.16"/><path class="cls-2" d="M107.68,133.79l-.86-2.8.23-.2v0l.86,2.81h0l-.23.2"/><path d="M107.68,134.58a.78.78,0,0,1-.22,0,.82.82,0,0,1-.54-.53l-.86-2.81a.79.79,0,0,1,.25-.83l.19-.17a.86.86,0,0,1,.77-.16.8.8,0,0,1,.55.49l.86,2.8a.79.79,0,0,1-.2.8l-.29.26a.81.81,0,0,1-.51.18"/><path class="cls-2" d="M107.92,133.58l-.86-2.8.25-.26.86,2.81-.25.25"/><path d="M107.92,134.37l-.21,0a.84.84,0,0,1-.56-.54l-.85-2.8a.78.78,0,0,1,.21-.81l.22-.22a.82.82,0,0,1,.76-.23.81.81,0,0,1,.58.54l.86,2.8a.79.79,0,0,1-.18.78l-.29.29a.78.78,0,0,1-.54.21"/><path class="cls-2" d="M108.17,133.33l-.86-2.8.29-.34.86,2.8-.29.34"/><path d="M108.17,134.12H108a.84.84,0,0,1-.59-.55l-.85-2.81a.76.76,0,0,1,.18-.77,3.22,3.22,0,0,0,.24-.28.79.79,0,0,1,.77-.3.81.81,0,0,1,.62.55l.86,2.8a.83.83,0,0,1-.13.72q-.16.21-.33.39a.8.8,0,0,1-.59.26"/><path d="M108.46,133l-.86-2.8a3.22,3.22,0,0,0,.67-2.91l.86,2.8a3.22,3.22,0,0,1-.67,2.91"/><path d="M108.46,133.78h-.15a.81.81,0,0,1-.62-.55l-.86-2.8a.81.81,0,0,1,.14-.72,2.47,2.47,0,0,0,.55-2.19h0a.79.79,0,0,1,.52-1,.78.78,0,0,1,1,.52h0l.85,2.79a4,4,0,0,1-.81,3.64.79.79,0,0,1-.62.3"/></g><path class="cls-2" d="M122.7,111.51l-.86-2.8a3,3,0,0,0,1.41,1.67l.86,2.8a3,3,0,0,1-1.41-1.67"/><g class="cls-5"><path class="cls-2" d="M122.7,111.51l-.86-2.8,0,.07.86,2.8a.19.19,0,0,0,0-.07"/><path d="M122.73,112.38a.8.8,0,0,1-.75-.54l0,0a.35.35,0,0,0,0-.07l-.87-2.8h0a.84.84,0,0,1,.53-1,.76.76,0,0,1,1,.49l.89,2.88a.79.79,0,0,1-.51,1,1.18,1.18,0,0,1-.25,0"/><path class="cls-2" d="M122.73,111.58l-.86-2.8a1.34,1.34,0,0,0,.07.18l.86,2.8a.75.75,0,0,1-.07-.18"/><path d="M122.8,112.56a.81.81,0,0,1-.74-.48s-.08-.23-.09-.26h0l-.86-2.79a.79.79,0,0,1,1.49-.55s0,0,0,0,.08.2.08.21l.86,2.8a.81.81,0,0,1-.49,1,.84.84,0,0,1-.27,0"/><path class="cls-2" d="M122.8,111.77l-.86-2.8.08.17.86,2.8a1.3,1.3,0,0,1-.08-.17"/><path d="M122.88,112.74a.8.8,0,0,1-.7-.43s-.1-.21-.11-.22a.32.32,0,0,1,0-.09l-.86-2.8a.78.78,0,0,1,.49-1,.8.8,0,0,1,1,.44,2.6,2.6,0,0,0,.1.25l.86,2.8a.79.79,0,0,1-.46,1,.77.77,0,0,1-.3.06"/><path class="cls-2" d="M122.88,111.94l-.86-2.8a1.4,1.4,0,0,0,.1.16l.86,2.8a1.4,1.4,0,0,1-.1-.16"/><path d="M123,112.9a.8.8,0,0,1-.67-.37,2.14,2.14,0,0,0-.13-.22s0-.09,0-.14l-.86-2.8a.79.79,0,0,1,1.46-.6,2.1,2.1,0,0,1,.15.3l.86,2.8a.79.79,0,0,1-.76,1"/><path class="cls-2" d="M123,112.11l-.86-2.8.11.15.86,2.8a.83.83,0,0,1-.11-.15"/><path d="M123.08,113.06a.81.81,0,0,1-.66-.34,2,2,0,0,0-.12-.19.66.66,0,0,1-.09-.19l-.86-2.8a.79.79,0,0,1,.44-1,.76.76,0,0,1,1,.3,3.79,3.79,0,0,1,.2.34l.86,2.8a.8.8,0,0,1-.42,1,.81.81,0,0,1-.34.08"/><path class="cls-2" d="M123.08,112.27l-.86-2.8a1.58,1.58,0,0,0,.12.15l.86,2.8a1.58,1.58,0,0,1-.12-.15"/><path d="M123.19,113.22a.79.79,0,0,1-.61-.3,1.49,1.49,0,0,1-.15-.2.65.65,0,0,1-.11-.22l-.86-2.8a.79.79,0,0,1,1.41-.69c0,.07.2.3.23.38l.86,2.8a.79.79,0,0,1-.39.93.72.72,0,0,1-.38.1"/><path class="cls-2" d="M123.19,112.42l-.86-2.8s.09.1.14.15l.86,2.8-.14-.15"/><path d="M123.33,113.36a.76.76,0,0,1-.58-.25,1.54,1.54,0,0,1-.17-.19.87.87,0,0,1-.14-.27l-.86-2.8a.79.79,0,0,1,.38-.93.77.77,0,0,1,1,.2,1.82,1.82,0,0,1,.27.41l.86,2.8a.77.77,0,0,1-.36.92.68.68,0,0,1-.39.11"/><path class="cls-2" d="M123.33,112.57l-.86-2.8.14.14.86,2.8a.93.93,0,0,1-.14-.14"/><path d="M123.47,113.51a.8.8,0,0,1-.54-.21l-.18-.18a.8.8,0,0,1-.19-.32l-.85-2.8a.79.79,0,0,1,1.34-.77,1.42,1.42,0,0,1,.32.45l.87,2.8a.8.8,0,0,1-.35.91.76.76,0,0,1-.42.12"/><path class="cls-2" d="M123.47,112.71l-.86-2.8.17.15.86,2.8a.8.8,0,0,1-.17-.15"/><path d="M123.64,113.65a.78.78,0,0,1-.5-.17l-.21-.18a.91.91,0,0,1-.22-.35l-.86-2.8a.81.81,0,0,1,.34-.91.8.8,0,0,1,1,.09,1.55,1.55,0,0,1,.38.5l.86,2.8a.81.81,0,0,1-.31.89.84.84,0,0,1-.45.13"/><path class="cls-2" d="M123.64,112.86l-.86-2.8a1.33,1.33,0,0,0,.19.14l.86,2.8a1.33,1.33,0,0,1-.19-.14"/><path d="M123.83,113.8a.79.79,0,0,1-.46-.15l-.22-.17a.77.77,0,0,1-.27-.39l-.86-2.8a.8.8,0,0,1,1.26-.85,1.54,1.54,0,0,1,.45.53l.86,2.8a.78.78,0,0,1-.3.87.74.74,0,0,1-.46.16"/><path class="cls-2" d="M123.83,113l-.86-2.8.23.15.86,2.81-.23-.16"/><path d="M124.06,114a.87.87,0,0,1-.41-.11l-.28-.19a.69.69,0,0,1-.3-.42l-.86-2.8a.8.8,0,0,1,1.22-.88l.18.12a.74.74,0,0,1,.34.45l.87,2.8a.81.81,0,0,1-.27.86.83.83,0,0,1-.49.17"/><path class="cls-2" d="M124.06,113.15l-.86-2.8,0,0,.86,2.8,0,0"/><path d="M124.11,114a.77.77,0,0,1-.42-.13.86.86,0,0,1-.39-.47l-.86-2.8a.79.79,0,0,1,.26-.86.8.8,0,0,1,.9-.06,1,1,0,0,1,.41.49l.86,2.8a.8.8,0,0,1-.28.87.86.86,0,0,1-.48.16"/></g><path class="cls-2" d="M131.35,105.78l.85,2.8a3.47,3.47,0,0,1-1.22,3.51,6.23,6.23,0,0,1-6.87,1.09l-.87-2.81a6.23,6.23,0,0,0,6.88-1.08,3.5,3.5,0,0,0,1.23-3.51"/><g class="cls-6"><path class="cls-2" d="M124.11,113.18l-.86-2.8.22.12.86,2.8-.22-.12"/><path d="M124.33,114.1A.94.94,0,0,1,124,114l-.25-.15a.77.77,0,0,1-.37-.46l-.86-2.8a.79.79,0,0,1,.26-.85.8.8,0,0,1,.9-.07,1.25,1.25,0,0,1,.58.58l.86,2.8a.81.81,0,0,1-.25.84.8.8,0,0,1-.51.19"/><path class="cls-2" d="M124.33,113.3l-.86-2.8.35.15.86,2.8a2.17,2.17,0,0,1-.35-.15"/><path d="M124.68,114.25a.87.87,0,0,1-.28,0A2.68,2.68,0,0,1,124,114a.76.76,0,0,1-.41-.48l-.86-2.8a.75.75,0,0,1,.25-.83.78.78,0,0,1,.86-.12l.29.13a.82.82,0,0,1,.47.51l.86,2.8a.79.79,0,0,1-.22.81.77.77,0,0,1-.54.22"/><path class="cls-2" d="M124.68,113.45l-.86-2.8a4.31,4.31,0,0,0,.61.19l.86,2.8a4.31,4.31,0,0,1-.61-.19"/><path d="M125.29,114.44l-.18,0a5.5,5.5,0,0,1-.72-.23.78.78,0,0,1-.47-.5l-.86-2.8a.8.8,0,0,1,.22-.82.79.79,0,0,1,.83-.16,2.88,2.88,0,0,0,.5.15.81.81,0,0,1,.58.55l.86,2.8a.8.8,0,0,1-.76,1"/><path d="M125.29,113.64l-.86-2.8a6.82,6.82,0,0,0,1,.14l.87,2.8a4.82,4.82,0,0,1-1-.14"/><path d="M126.31,114.57h0a6.57,6.57,0,0,1-1.18-.15.82.82,0,0,1-.57-.54l-.86-2.81a.78.78,0,0,1,.18-.77.76.76,0,0,1,.76-.23,5,5,0,0,0,.88.11.79.79,0,0,1,.72.56l.86,2.8a.8.8,0,0,1-.76,1"/><path d="M126.31,113.78l-.86-2.8h.7l.85,2.8h-.69"/><path d="M126.56,114.58h-.28a.82.82,0,0,1-.73-.57l-.86-2.8a.81.81,0,0,1,.13-.72.7.7,0,0,1,.66-.31,4.14,4.14,0,0,0,.61,0,.79.79,0,0,1,.81.56l.86,2.8a.8.8,0,0,1-.1.69.78.78,0,0,1-.6.34,4.18,4.18,0,0,1-.5,0"/><path class="cls-2" d="M127,113.77l-.86-2.8.45,0,.86,2.81-.45,0"/><path d="M127,114.56a.8.8,0,0,1-.76-.56l-.86-2.8a.81.81,0,0,1,.7-1l.4,0a.81.81,0,0,1,.87.56l.86,2.8a.85.85,0,0,1-.09.66.81.81,0,0,1-.57.36l-.49,0H127"/><path class="cls-2" d="M127.45,113.72l-.86-2.8c.11,0,.24,0,.36-.06l.86,2.8a2.25,2.25,0,0,1-.36.06"/><path d="M127.45,114.52a.78.78,0,0,1-.76-.56l-.86-2.81a.75.75,0,0,1,.09-.65.74.74,0,0,1,.56-.36l.32-.06a.79.79,0,0,1,.91.55l.86,2.8a.76.76,0,0,1-.08.64.78.78,0,0,1-.53.37l-.4.07h-.11"/><path class="cls-2" d="M127.81,113.66l-.86-2.8.32-.07.86,2.81-.32.06"/><path d="M127.81,114.46a.8.8,0,0,1-.76-.56l-.86-2.81a.8.8,0,0,1,.08-.64.82.82,0,0,1,.53-.37l.27-.06a.8.8,0,0,1,1,.54l.86,2.8a.79.79,0,0,1-.07.62.81.81,0,0,1-.5.39l-.36.08h-.15"/><path class="cls-2" d="M128.13,113.59l-.86-2.8.29-.08.86,2.8-.29.08"/><path d="M128.13,114.39a.81.81,0,0,1-.77-.57l-.86-2.8a.84.84,0,0,1,.08-.62.77.77,0,0,1,.5-.38l.26-.07a.79.79,0,0,1,1,.53l.86,2.8a.8.8,0,0,1-.54,1l-.32.09-.19,0"/><path class="cls-2" d="M128.42,113.51l-.86-2.8.26-.08.87,2.8-.27.08"/><path d="M128.42,114.31a.8.8,0,0,1-.76-.56l-.86-2.81a.8.8,0,0,1,.53-1l.24-.08a.79.79,0,0,1,.62,0,.8.8,0,0,1,.4.48l.86,2.8a.8.8,0,0,1-.5,1l-.32.1a.71.71,0,0,1-.21,0"/><path class="cls-2" d="M128.69,113.43l-.86-2.8.25-.09.86,2.8-.25.09"/><path d="M128.69,114.23a.81.81,0,0,1-.37-.09.83.83,0,0,1-.4-.48l-.85-2.8a.8.8,0,0,1,.5-1l.22-.08a.85.85,0,0,1,.63,0,.79.79,0,0,1,.42.49l.86,2.8a.81.81,0,0,1-.48,1l-.28.09a.74.74,0,0,1-.25,0"/><path class="cls-2" d="M128.94,113.34l-.86-2.8.24-.1.86,2.8-.24.1"/><path d="M128.94,114.14a.73.73,0,0,1-.35-.09.78.78,0,0,1-.41-.48l-.86-2.8a.8.8,0,0,1,.47-1l.22-.08a.75.75,0,0,1,.64,0,.78.78,0,0,1,.43.49l.86,2.8a.79.79,0,0,1-.44,1l-.27.11a.75.75,0,0,1-.29.06"/><path class="cls-2" d="M129.18,113.24l-.86-2.8.24-.11.86,2.81-.24.1"/><path d="M129.18,114a.72.72,0,0,1-.33-.07.82.82,0,0,1-.43-.5l-.86-2.8a.81.81,0,0,1,.44-1l.21-.09a.76.76,0,0,1,.66,0,.78.78,0,0,1,.45.49l.85,2.81a.79.79,0,0,1-.42,1l-.26.11a.67.67,0,0,1-.31.07"/><path class="cls-2" d="M129.42,113.14l-.86-2.8a1.23,1.23,0,0,1,.23-.11l.86,2.8-.23.11"/><path d="M129.42,113.93a1,1,0,0,1-.33-.06.84.84,0,0,1-.44-.5l-.86-2.81a.8.8,0,0,1,.43-.94l.19-.1a.81.81,0,0,1,.68,0,.77.77,0,0,1,.45.5l.86,2.8a.81.81,0,0,1-.39.94l-.25.13a.8.8,0,0,1-.34.07"/><path class="cls-2" d="M129.64,113l-.86-2.8.22-.13.86,2.8-.22.13"/><path d="M129.64,113.82a.71.71,0,0,1-.31-.06.8.8,0,0,1-.45-.5l-.86-2.81a.81.81,0,0,1,.4-.94l.19-.1a.76.76,0,0,1,.69,0,.81.81,0,0,1,.47.49l.86,2.81a.81.81,0,0,1-.38.93l-.24.13a.78.78,0,0,1-.37.09"/><path class="cls-2" d="M129.87,112.9l-.86-2.8.22-.13.86,2.8-.22.13"/><path d="M129.87,113.7a1,1,0,0,1-.3,0,.85.85,0,0,1-.47-.51l-.86-2.81a.81.81,0,0,1,.37-.92l.2-.12a.78.78,0,0,1,.7-.06.8.8,0,0,1,.47.51l.86,2.8a.78.78,0,0,1-.33.9l-.25.15a.77.77,0,0,1-.39.11"/><path class="cls-2" d="M130.08,112.77l-.86-2.8.23-.14.86,2.8-.23.14"/><path d="M130.08,113.57a.92.92,0,0,1-.28,0,.78.78,0,0,1-.48-.52l-.85-2.8a.78.78,0,0,1,.34-.9l.18-.13a.81.81,0,0,1,.71-.09.77.77,0,0,1,.5.51l.86,2.8a.77.77,0,0,1-.31.89l-.25.17a.79.79,0,0,1-.42.12"/><path class="cls-2" d="M130.3,112.63l-.86-2.8.23-.16.85,2.8a1.25,1.25,0,0,1-.22.16"/><path d="M130.3,113.42a.82.82,0,0,1-.26,0,.81.81,0,0,1-.5-.52l-.85-2.8a.78.78,0,0,1,.31-.89l.19-.14a.77.77,0,0,1,.72-.12.79.79,0,0,1,.52.52l.86,2.8a.82.82,0,0,1-.28.87l-.26.19a.79.79,0,0,1-.45.13"/><path class="cls-2" d="M130.53,112.47l-.86-2.8.22-.18.86,2.8-.22.18"/><path d="M130.53,113.26a.72.72,0,0,1-.25,0,.81.81,0,0,1-.52-.53l-.85-2.8a.79.79,0,0,1,.28-.87l.2-.16a.8.8,0,0,1,.73-.14.76.76,0,0,1,.53.53l.86,2.8a.79.79,0,0,1-.25.84l-.26.2a.74.74,0,0,1-.47.16"/><path class="cls-2" d="M130.75,112.29l-.86-2.8.23-.2h0l.86,2.8h0a2.19,2.19,0,0,1-.22.2"/><path d="M130.75,113.08a.56.56,0,0,1-.22,0,.82.82,0,0,1-.54-.52l-.85-2.81a.78.78,0,0,1,.25-.84l.19-.17a.67.67,0,0,1,.72-.26.8.8,0,0,1,.59.6l.86,2.8a.81.81,0,0,1-.28.87,1.6,1.6,0,0,1-.21.18.78.78,0,0,1-.51.18"/><path class="cls-2" d="M131,112.08l-.86-2.8.25-.26.86,2.81c-.09.08-.17.17-.25.25"/><path d="M131,112.88a.64.64,0,0,1-.2,0,.81.81,0,0,1-.56-.53l-.86-2.81a.79.79,0,0,1,.22-.82,1.39,1.39,0,0,0,.21-.21.82.82,0,0,1,.76-.23.81.81,0,0,1,.58.55l.86,2.8a.78.78,0,0,1-.18.77,2.65,2.65,0,0,1-.29.29.81.81,0,0,1-.54.22"/><path class="cls-2" d="M131.24,111.83l-.86-2.8a4.19,4.19,0,0,0,.28-.34l.87,2.8-.29.34"/><path d="M131.24,112.62a.55.55,0,0,1-.18,0,.78.78,0,0,1-.58-.54l-.86-2.8a.8.8,0,0,1,.18-.77c.08-.1.17-.19.24-.29a.77.77,0,0,1,.77-.29.79.79,0,0,1,.62.55l.86,2.8a.84.84,0,0,1-.13.72l-.34.39a.77.77,0,0,1-.58.25"/><path d="M131.53,111.49l-.86-2.8a3.22,3.22,0,0,0,.67-2.91l.86,2.8a3.22,3.22,0,0,1-.67,2.91"/><path d="M131.53,112.29a.39.39,0,0,1-.15,0,.79.79,0,0,1-.62-.55l-.85-2.8a.81.81,0,0,1,.13-.72,2.47,2.47,0,0,0,.55-2.18h0a.78.78,0,0,1,.52-1,.79.79,0,0,1,1,.53h0l.85,2.8a4,4,0,0,1-.81,3.63.77.77,0,0,1-.62.31"/></g><path class="cls-2" d="M145.78,90l-.86-2.81a2.94,2.94,0,0,0,1.39,1.67l.86,2.8A2.92,2.92,0,0,1,145.78,90"/><g class="cls-7"><path class="cls-2" d="M145.78,90l-.86-2.81,0,.08.86,2.8a.19.19,0,0,1,0-.07"/><path d="M145.8,90.88a.79.79,0,0,1-.75-.54.94.94,0,0,0,0-.09l-.86-2.81a.79.79,0,0,1,1.5-.52h0s0,0,0,0l.89,2.88a.81.81,0,0,1-.52,1,.74.74,0,0,1-.25,0"/><path class="cls-2" d="M145.8,90.09l-.86-2.8a1.42,1.42,0,0,0,.08.18l.86,2.8a1,1,0,0,1-.08-.18"/><path d="M145.87,91.07a.79.79,0,0,1-.73-.48l-.09-.24v0l-.86-2.8A.8.8,0,0,1,145.7,87l.07.2.86,2.8a.79.79,0,0,1-.48,1,.72.72,0,0,1-.28,0"/><path class="cls-2" d="M145.87,90.27l-.86-2.8.09.18.86,2.8-.09-.18"/><path d="M146,91.24a.79.79,0,0,1-.71-.42l-.11-.24,0-.07-.86-2.8a.79.79,0,0,1,1.49-.55,1.74,1.74,0,0,1,.11.25l.87,2.8a.79.79,0,0,1-.46,1,.65.65,0,0,1-.3.06"/><path class="cls-2" d="M146,90.45l-.86-2.8.09.16.86,2.8-.09-.16"/><path d="M146.05,91.41a.8.8,0,0,1-.68-.38l-.12-.21a.78.78,0,0,1-.05-.14l-.86-2.8a.79.79,0,0,1,.45-1,.81.81,0,0,1,1,.37l.15.3.86,2.8a.8.8,0,0,1-.44,1,.71.71,0,0,1-.32.07"/><path class="cls-2" d="M146.05,90.61l-.86-2.8.1.17.86,2.79a1.12,1.12,0,0,1-.1-.16"/><path d="M146.16,91.57a.78.78,0,0,1-.65-.34,1.53,1.53,0,0,1-.14-.21.53.53,0,0,1-.08-.17l-.86-2.8a.79.79,0,0,1,.43-1,.81.81,0,0,1,1,.3,3.84,3.84,0,0,1,.18.35l.87,2.8a.81.81,0,0,1-.42.95.71.71,0,0,1-.34.08"/><path class="cls-2" d="M146.16,90.77l-.87-2.8.12.16.86,2.8-.11-.16"/><path d="M146.27,91.72a.78.78,0,0,1-.61-.29,1.56,1.56,0,0,1-.16-.2.7.7,0,0,1-.11-.23l-.86-2.8a.8.8,0,0,1,1.41-.69,3,3,0,0,1,.23.38L147,90.7a.79.79,0,0,1-.39.93.78.78,0,0,1-.37.09"/><path class="cls-2" d="M146.27,90.93l-.86-2.8.13.14.86,2.8-.13-.14"/><path d="M146.4,91.87a.83.83,0,0,1-.58-.25l-.17-.19a.87.87,0,0,1-.14-.27l-.86-2.8a.8.8,0,0,1,.39-.94.82.82,0,0,1,1,.2,2.31,2.31,0,0,1,.27.42l.86,2.8a.79.79,0,0,1-.36.92.83.83,0,0,1-.4.11"/><path class="cls-2" d="M146.4,91.07l-.86-2.8.15.15.86,2.8a1.06,1.06,0,0,1-.15-.15"/><path d="M146.55,92a.78.78,0,0,1-.54-.21l-.19-.19a1,1,0,0,1-.18-.31l-.86-2.81a.78.78,0,0,1,.36-.91.76.76,0,0,1,1,.14,1.53,1.53,0,0,1,.34.46l.86,2.8a.8.8,0,0,1-.34.9.83.83,0,0,1-.42.13"/><path class="cls-2" d="M146.55,91.22l-.86-2.8.16.14.86,2.81-.16-.15"/><path d="M146.71,92.16a.86.86,0,0,1-.5-.17L146,91.8a.75.75,0,0,1-.21-.34l-.86-2.81a.79.79,0,0,1,1.3-.81,1.48,1.48,0,0,1,.38.49l.86,2.8a.79.79,0,0,1-.31.89.75.75,0,0,1-.45.14"/><path class="cls-2" d="M146.71,91.36l-.86-2.8a1.33,1.33,0,0,0,.19.14l.86,2.81c-.06-.05-.13-.09-.19-.15"/><path d="M146.9,92.3a.73.73,0,0,1-.45-.14l-.24-.17a.93.93,0,0,1-.26-.39l-.86-2.8a.78.78,0,0,1,.32-.89.8.8,0,0,1,1,0,1.49,1.49,0,0,1,.44.53l.87,2.8a.81.81,0,0,1-.31.88.77.77,0,0,1-.46.15"/><path class="cls-2" d="M146.9,91.51l-.86-2.8.23.15.86,2.8-.23-.15"/><path d="M147.13,92.45a.87.87,0,0,1-.41-.11l-.28-.18a.84.84,0,0,1-.3-.42l-.86-2.8a.79.79,0,0,1,.3-.88.77.77,0,0,1,.91,0l.18.12a.75.75,0,0,1,.35.45l.86,2.8a.79.79,0,0,1-.26.86.83.83,0,0,1-.49.17"/><path class="cls-2" d="M147.13,91.66l-.86-2.8,0,0,.86,2.81-.05,0"/><path d="M147.18,92.48a.78.78,0,0,1-.39-.1.94.94,0,0,1-.42-.5l-.87-2.79a.82.82,0,0,1,.27-.86.78.78,0,0,1,.9-.06.9.9,0,0,1,.4.48l.87,2.8a.8.8,0,0,1-.76,1"/></g><path class="cls-2" d="M154.41,84.28l.86,2.8a3.49,3.49,0,0,1-1.22,3.52,6.28,6.28,0,0,1-6.87,1.09l-.87-2.81a6.27,6.27,0,0,0,6.88-1.08,3.49,3.49,0,0,0,1.22-3.52"/><g class="cls-8"><path class="cls-2" d="M147.18,91.68l-.86-2.8a1.55,1.55,0,0,0,.22.12l.86,2.8a1.55,1.55,0,0,1-.22-.12"/><path d="M147.4,92.6a.82.82,0,0,1-.35-.08l-.27-.15a.82.82,0,0,1-.37-.45l-.86-2.81a.79.79,0,0,1,.27-.85.8.8,0,0,1,.89-.07l.18.1a.78.78,0,0,1,.41.48l.86,2.8a.79.79,0,0,1-.25.84.75.75,0,0,1-.51.19"/><path class="cls-2" d="M147.4,91.8l-.86-2.8.35.16.86,2.8-.35-.16"/><path d="M147.75,92.75a.74.74,0,0,1-.29,0l-.41-.18a.78.78,0,0,1-.41-.48l-.86-2.81a.78.78,0,0,1,.25-.84.79.79,0,0,1,.86-.1l.28.12a.79.79,0,0,1,.48.51l.86,2.8a.84.84,0,0,1-.22.82.78.78,0,0,1-.54.21"/><path class="cls-2" d="M147.75,92l-.86-2.8a4.18,4.18,0,0,0,.6.19l.87,2.8a3.94,3.94,0,0,1-.61-.19"/><path d="M148.35,92.94l-.18,0a5.88,5.88,0,0,1-.71-.23.76.76,0,0,1-.47-.5l-.86-2.8a.79.79,0,0,1,.22-.82.77.77,0,0,1,.82-.16,2.88,2.88,0,0,0,.5.15.81.81,0,0,1,.58.55l.86,2.8a.78.78,0,0,1-.17.77.8.8,0,0,1-.59.26"/><path d="M148.35,92.14l-.86-2.8a6.77,6.77,0,0,0,1,.14l.86,2.8a4.92,4.92,0,0,1-1-.14"/><path d="M149.37,93.07h0a6.46,6.46,0,0,1-1.16-.15.83.83,0,0,1-.58-.54l-.86-2.81a.78.78,0,0,1,.19-.77.77.77,0,0,1,.76-.23,6.08,6.08,0,0,0,.87.12.77.77,0,0,1,.72.55l.87,2.8a.83.83,0,0,1-.14.73.81.81,0,0,1-.63.3"/><path d="M149.37,92.28l-.86-2.8h.7l.86,2.8h-.7"/><path d="M149.63,93.08h-.29a.79.79,0,0,1-.73-.56l-.86-2.8a.8.8,0,0,1,.13-.72.82.82,0,0,1,.66-.31c.2,0,.41,0,.61,0a.82.82,0,0,1,.82.57l.86,2.8a.8.8,0,0,1-.11.68.81.81,0,0,1-.6.35h-.49"/><path class="cls-2" d="M150.07,92.27l-.86-2.8.45,0,.86,2.81-.45,0"/><path d="M150.07,93.06a.78.78,0,0,1-.76-.56l-.86-2.8a.79.79,0,0,1,.71-1l.38,0a.79.79,0,0,1,.87.56l.87,2.8a.78.78,0,0,1-.1.66.8.8,0,0,1-.55.36l-.5,0Z"/><path class="cls-2" d="M150.52,92.22l-.86-2.8c.11,0,.24,0,.36-.06l.86,2.8a2.25,2.25,0,0,1-.36.06"/><path d="M150.52,93a.8.8,0,0,1-.77-.56l-.85-2.81A.77.77,0,0,1,149,89a.83.83,0,0,1,.56-.36l.32,0a.79.79,0,0,1,.91.55l.86,2.8a.8.8,0,0,1-.07.64.83.83,0,0,1-.54.37l-.4.07h-.11"/><path class="cls-2" d="M150.88,92.16l-.86-2.8.32-.07.86,2.8-.32.07"/><path d="M150.88,93a.79.79,0,0,1-.76-.56l-.86-2.81a.76.76,0,0,1,.08-.64.82.82,0,0,1,.53-.37l.28-.06a.8.8,0,0,1,.95.54l.86,2.8a.87.87,0,0,1-.07.63.83.83,0,0,1-.51.38l-.35.07a.39.39,0,0,1-.15,0"/><path class="cls-2" d="M151.2,92.09l-.86-2.8.29-.08L151.5,92l-.3.07"/><path d="M151.2,92.89a.79.79,0,0,1-.76-.57l-.86-2.8a.75.75,0,0,1,.07-.62.81.81,0,0,1,.5-.39l.26-.06a.8.8,0,0,1,1,.53l.87,2.8a.86.86,0,0,1-.07.61.75.75,0,0,1-.47.38l-.33.1-.19,0"/><path class="cls-2" d="M151.49,92l-.86-2.8.27-.08.86,2.8-.27.08"/><path d="M151.49,92.81a.8.8,0,0,1-.76-.57l-.86-2.8a.81.81,0,0,1,.06-.61.8.8,0,0,1,.48-.38l.24-.07a.76.76,0,0,1,.61,0,.82.82,0,0,1,.4.48l.86,2.81a.79.79,0,0,1-.51,1l-.31.1a.71.71,0,0,1-.21,0"/><path class="cls-2" d="M151.77,91.93l-.86-2.8.24-.1.87,2.81-.25.09"/><path d="M151.77,92.72a.75.75,0,0,1-.37-.09.78.78,0,0,1-.4-.47l-.85-2.8a.79.79,0,0,1,.51-1l.21-.08a.81.81,0,0,1,.63,0,.8.8,0,0,1,.42.48l.86,2.8a.8.8,0,0,1-.49,1l-.27.11-.25,0"/><path class="cls-2" d="M152,91.84l-.86-2.8.24-.1.86,2.8-.24.1"/><path d="M152,92.63a.69.69,0,0,1-.35-.08.8.8,0,0,1-.42-.48l-.85-2.8a.78.78,0,0,1,.48-1l.21-.09a.77.77,0,0,1,1.07.5l.86,2.8a.79.79,0,0,1-.45,1l-.27.11a.69.69,0,0,1-.28,0"/><path class="cls-2" d="M152.26,91.74l-.86-2.8.23-.11.86,2.81-.23.1"/><path d="M152.26,92.54a.81.81,0,0,1-.34-.08.79.79,0,0,1-.42-.49l-.87-2.8a.81.81,0,0,1,.45-1l.22-.1a.8.8,0,0,1,.66,0,.82.82,0,0,1,.43.5l.86,2.8a.8.8,0,0,1-.42,1l-.26.12a1.13,1.13,0,0,1-.31.06"/><path class="cls-2" d="M152.49,91.63l-.86-2.8.23-.11.86,2.8-.23.11"/><path d="M152.49,92.43a.81.81,0,0,1-.31-.06.78.78,0,0,1-.44-.5l-.86-2.81a.78.78,0,0,1,.41-.94l.21-.11a.79.79,0,0,1,.67,0,.85.85,0,0,1,.46.49l.85,2.81a.8.8,0,0,1-.39.94l-.25.12a.85.85,0,0,1-.35.08"/><path class="cls-2" d="M152.72,91.52l-.86-2.8.23-.12.85,2.8-.22.12"/><path d="M152.72,92.32a1.13,1.13,0,0,1-.31-.06.87.87,0,0,1-.46-.5L151.1,89a.79.79,0,0,1,.39-.93l.2-.11a.8.8,0,0,1,.69,0,.78.78,0,0,1,.46.51l.86,2.8a.8.8,0,0,1-.36.92l-.26.14a.77.77,0,0,1-.36.09"/><path class="cls-2" d="M152.94,91.4l-.86-2.8.22-.13.86,2.8-.22.13"/><path d="M152.94,92.2a.8.8,0,0,1-.3-.06.78.78,0,0,1-.46-.51l-.86-2.8a.81.81,0,0,1,.36-.92l.2-.12a.81.81,0,0,1,1.18.45l.86,2.8a.8.8,0,0,1-.33.9l-.26.15a.79.79,0,0,1-.39.11"/><path class="cls-2" d="M153.16,91.27l-.86-2.8c.07,0,.15-.09.22-.15l.86,2.8a1.43,1.43,0,0,1-.22.15"/><path d="M153.16,92.07a.71.71,0,0,1-.28-.06.77.77,0,0,1-.48-.5l-.86-2.81a.82.82,0,0,1,.33-.91l.2-.12a.79.79,0,0,1,1.21.42l.86,2.81a.8.8,0,0,1-.31.89l-.26.16a.73.73,0,0,1-.41.12"/><path class="cls-2" d="M153.38,91.13l-.86-2.8.22-.16.86,2.8-.22.16"/><path d="M153.38,91.92a.75.75,0,0,1-.26,0,.79.79,0,0,1-.5-.52l-.86-2.81a.77.77,0,0,1,.32-.88l.18-.14a.78.78,0,0,1,.72-.12.79.79,0,0,1,.52.53l.86,2.8a.79.79,0,0,1-.27.86l-.25.18a.78.78,0,0,1-.46.14"/><path class="cls-2" d="M153.6,91l-.86-2.8L153,88l.85,2.8a2.13,2.13,0,0,1-.22.18"/><path d="M153.6,91.76a1,1,0,0,1-.24,0,.81.81,0,0,1-.52-.53L152,88.4a.79.79,0,0,1,.27-.87l.2-.15a.8.8,0,0,1,.73-.16.81.81,0,0,1,.54.54l.86,2.8a.81.81,0,0,1-.25.84l-.26.2a.77.77,0,0,1-.48.16"/><path class="cls-2" d="M153.82,90.79,153,88l.23-.2h0l.86,2.8v0l-.23.19"/><path d="M153.82,91.58a.56.56,0,0,1-.22,0,.79.79,0,0,1-.53-.52l-.86-2.81a.79.79,0,0,1,.25-.85l.18-.15a.89.89,0,0,1,.77-.16.82.82,0,0,1,.55.49l.86,2.81a.81.81,0,0,1-.28.86l-.2.18a.82.82,0,0,1-.52.18"/><path class="cls-2" d="M154.06,90.59l-.86-2.8.25-.26.86,2.81c-.08.08-.16.17-.25.25"/><path d="M154.06,91.38l-.21,0a.86.86,0,0,1-.56-.54L152.43,88a.82.82,0,0,1,.22-.81l.22-.22a.78.78,0,0,1,.75-.22.81.81,0,0,1,.59.54l.86,2.8a.78.78,0,0,1-.18.77,2.72,2.72,0,0,1-.29.3.76.76,0,0,1-.54.21"/><path class="cls-2" d="M154.31,90.34l-.86-2.81c.1-.11.2-.22.29-.34L154.6,90l-.29.34"/><path d="M154.31,91.13l-.18,0a.82.82,0,0,1-.59-.55l-.85-2.8a.76.76,0,0,1,.18-.77,3.07,3.07,0,0,0,.24-.29.79.79,0,0,1,1.38.26l.87,2.8a.83.83,0,0,1-.13.72c-.11.13-.22.27-.34.39a.77.77,0,0,1-.58.26"/><path d="M154.6,90l-.86-2.8a3.21,3.21,0,0,0,.67-2.91l.86,2.8A3.21,3.21,0,0,1,154.6,90"/><path d="M154.6,90.79h-.15a.84.84,0,0,1-.62-.56l-.85-2.8a.84.84,0,0,1,.12-.72,2.44,2.44,0,0,0,.56-2.18h0a.78.78,0,0,1,.52-1,.82.82,0,0,1,1,.53l.85,2.8a4,4,0,0,1-.81,3.63.8.8,0,0,1-.62.31"/></g><path class="cls-2" d="M45,101.46l-.86-2.8a2.9,2.9,0,0,0,1.4,1.66l.86,2.8a2.9,2.9,0,0,1-1.4-1.66"/><g class="cls-9"><path class="cls-2" d="M45,101.46l-.86-2.8s0,0,0,.08l.86,2.8s0-.06,0-.08"/><path d="M45,102.33a.81.81,0,0,1-.76-.54s0-.09,0-.1l-.87-2.8a.81.81,0,0,1,.53-1,.78.78,0,0,1,1,.46s0,0,0,0a0,0,0,0,1,0,0l.89,2.87a.8.8,0,0,1-.53,1,.67.67,0,0,1-.24,0"/><path class="cls-2" d="M45,101.53l-.86-2.8.07.19.86,2.8-.07-.19"/><path d="M45.08,102.51a.8.8,0,0,1-.73-.47l-.09-.24v0L43.39,99a.8.8,0,0,1,1.52-.48l.07.2.87,2.8a.8.8,0,0,1-.49,1,.69.69,0,0,1-.28.05"/><path class="cls-2" d="M45.08,101.72l-.86-2.8s.05.11.08.17l.86,2.8a1.3,1.3,0,0,0-.08-.17"/><path d="M45.17,102.69a.8.8,0,0,1-.72-.44s-.09-.2-.1-.23l0-.07-.86-2.8a.8.8,0,0,1,.49-1,.79.79,0,0,1,1,.43,2,2,0,0,1,.11.26l.86,2.8a.8.8,0,0,1-.45,1,.89.89,0,0,1-.3.06"/><path class="cls-2" d="M45.17,101.89l-.86-2.8a1.29,1.29,0,0,0,.09.16l.85,2.8s0-.11-.08-.16"/><path d="M45.26,102.85a.79.79,0,0,1-.68-.38,2.12,2.12,0,0,1-.11-.21.35.35,0,0,1-.06-.14l-.86-2.8a.79.79,0,0,1,.46-1,.82.82,0,0,1,1,.38l.14.29.86,2.8a.8.8,0,0,1-.44,1,.71.71,0,0,1-.32.07"/><path class="cls-2" d="M45.26,102.06l-.86-2.8.1.15.86,2.8a.65.65,0,0,1-.1-.15"/><path d="M45.36,103a.8.8,0,0,1-.65-.34l-.13-.2a.48.48,0,0,1-.08-.18l-.86-2.8a.81.81,0,0,1,.43-1,.8.8,0,0,1,1,.33,3.47,3.47,0,0,1,.18.33l.86,2.8a.79.79,0,0,1-.41,1,.72.72,0,0,1-.35.08"/><path class="cls-2" d="M45.36,102.21l-.86-2.8.12.16.86,2.8-.12-.16"/><path d="M45.48,103.16a.8.8,0,0,1-.62-.29l-.15-.2a.91.91,0,0,1-.11-.22l-.86-2.8a.8.8,0,0,1,1.41-.7,3,3,0,0,1,.23.38l.86,2.8a.78.78,0,0,1-.39.93.71.71,0,0,1-.37.1"/><path class="cls-2" d="M45.48,102.37l-.86-2.8.12.14.87,2.8a.86.86,0,0,1-.13-.14"/><path d="M45.61,103.31a.81.81,0,0,1-.58-.25l-.17-.19a.87.87,0,0,1-.14-.27l-.86-2.8a.79.79,0,0,1,1.36-.75,1.67,1.67,0,0,1,.28.43l.87,2.8a.8.8,0,0,1-.76,1"/><path class="cls-2" d="M45.61,102.51l-.86-2.8.14.15.86,2.8a1,1,0,0,1-.14-.15"/><path d="M45.76,103.46a.82.82,0,0,1-.55-.22l-.18-.18a.94.94,0,0,1-.19-.32L44,99.94a.78.78,0,0,1,.36-.91.79.79,0,0,1,1,.14,1.47,1.47,0,0,1,.32.46l.86,2.8a.77.77,0,0,1-.34.9.69.69,0,0,1-.41.13"/><path class="cls-2" d="M45.76,102.66l-.87-2.8.17.14.86,2.81-.16-.15"/><path d="M45.92,103.6a.81.81,0,0,1-.51-.18l-.2-.17a1,1,0,0,1-.22-.35l-.86-2.81a.82.82,0,0,1,.34-.91.8.8,0,0,1,1,.1,1.38,1.38,0,0,1,.38.49l.86,2.8a.81.81,0,0,1-.32.9.78.78,0,0,1-.44.13"/><path class="cls-2" d="M45.92,102.8l-.86-2.8a1.33,1.33,0,0,0,.19.14L46.1,103c-.06,0-.12-.09-.18-.15"/><path d="M46.11,103.74a.72.72,0,0,1-.46-.15l-.23-.16a.79.79,0,0,1-.26-.39l-.86-2.81a.8.8,0,0,1,1.26-.85,1.54,1.54,0,0,1,.45.53l.86,2.8a.8.8,0,0,1-.29.88.82.82,0,0,1-.47.15"/><path class="cls-2" d="M46.11,103l-.86-2.8.22.14.86,2.8-.22-.14"/><path d="M46.34,103.89a.79.79,0,0,1-.42-.12,1.59,1.59,0,0,1-.27-.18.74.74,0,0,1-.3-.41l-.86-2.81a.78.78,0,0,1,.3-.87.75.75,0,0,1,.92,0l.18.11a.77.77,0,0,1,.34.45l.87,2.8a.79.79,0,0,1-.28.87.77.77,0,0,1-.48.16"/><path class="cls-2" d="M46.34,103.09l-.86-2.8.05,0,.86,2.8,0,0"/><path d="M46.39,103.92a.87.87,0,0,1-.41-.11.9.9,0,0,1-.4-.48l-.87-2.8a.83.83,0,0,1,.27-.87.82.82,0,0,1,.9,0,.9.9,0,0,1,.4.48l.87,2.8a.78.78,0,0,1-.27.86.83.83,0,0,1-.49.17"/></g><path class="cls-2" d="M53.64,95.74l.86,2.8a3.48,3.48,0,0,1-1.23,3.5,6.22,6.22,0,0,1-6.88,1.08l-.86-2.8a6.22,6.22,0,0,0,6.88-1.08,3.49,3.49,0,0,0,1.23-3.5"/><g class="cls-10"><path class="cls-2" d="M46.39,103.12l-.86-2.8a1.55,1.55,0,0,0,.22.12l.86,2.81-.22-.13"/><path d="M46.61,104a.72.72,0,0,1-.35-.08l-.27-.15a.77.77,0,0,1-.36-.45l-.86-2.81A.8.8,0,0,1,45,99.7a.79.79,0,0,1,.89-.06l.19.09a.8.8,0,0,1,.4.48l.87,2.8a.82.82,0,0,1-.25.85.88.88,0,0,1-.52.18"/><path class="cls-2" d="M46.61,103.25l-.86-2.8.36.15.86,2.8a2.75,2.75,0,0,1-.36-.15"/><path d="M47,104.2a.92.92,0,0,1-.28,0,4,4,0,0,1-.42-.2.74.74,0,0,1-.41-.47l-.86-2.8a.8.8,0,0,1,1.11-1l.3.13a.77.77,0,0,1,.47.51l.86,2.8a.8.8,0,0,1-.22.81.82.82,0,0,1-.55.22"/><path class="cls-2" d="M47,103.4l-.86-2.8a6.17,6.17,0,0,0,.61.19l.86,2.8a6.17,6.17,0,0,1-.61-.19"/><path d="M47.58,104.38a.55.55,0,0,1-.18,0,5.48,5.48,0,0,1-.72-.22.77.77,0,0,1-.47-.51l-.86-2.8a.77.77,0,0,1,.22-.81.76.76,0,0,1,.82-.16,4.28,4.28,0,0,0,.51.15.79.79,0,0,1,.58.54l.86,2.8a.79.79,0,0,1-.18.78.77.77,0,0,1-.58.25"/><path d="M47.58,103.59l-.86-2.8a7,7,0,0,0,1,.14l.86,2.8a5.7,5.7,0,0,1-1-.14"/><path d="M48.6,104.52h0a6.34,6.34,0,0,1-1.18-.15.83.83,0,0,1-.58-.54L46,101a.78.78,0,0,1,.18-.77.79.79,0,0,1,.77-.24,4.15,4.15,0,0,0,.87.12.79.79,0,0,1,.73.56l.86,2.8a.86.86,0,0,1-.13.73.83.83,0,0,1-.64.3"/><path d="M48.6,103.73l-.86-2.8h.7l.86,2.8h-.7"/><path d="M48.87,104.53h-.3a.78.78,0,0,1-.72-.56l-.86-2.8a.78.78,0,0,1,.13-.72.81.81,0,0,1,.66-.31,4,4,0,0,0,.6,0,.81.81,0,0,1,.82.56l.86,2.8a.77.77,0,0,1-.11.69.75.75,0,0,1-.59.34,4.1,4.1,0,0,1-.49,0"/><path class="cls-2" d="M49.3,103.72l-.86-2.8.45,0,.86,2.81-.45,0"/><path d="M49.3,104.51a.8.8,0,0,1-.76-.56l-.86-2.8a.8.8,0,0,1,.7-1l.4,0a.81.81,0,0,1,.87.56l.86,2.8a.85.85,0,0,1-.09.66.82.82,0,0,1-.56.36l-.51.05Z"/><path class="cls-2" d="M49.75,103.67l-.86-2.8c.11,0,.24,0,.36-.06l.86,2.8a2.25,2.25,0,0,1-.36.06"/><path d="M49.75,104.47a.78.78,0,0,1-.76-.56l-.86-2.81a.75.75,0,0,1,.09-.65.78.78,0,0,1,.56-.37l.31,0a.79.79,0,0,1,.92.55l.86,2.8a.76.76,0,0,1-.08.64.78.78,0,0,1-.53.37l-.4.07h-.11"/><path class="cls-2" d="M50.11,103.61l-.86-2.8.31-.07.86,2.81-.31.06"/><path d="M50.11,104.41a.82.82,0,0,1-.77-.56L48.48,101a.79.79,0,0,1,.61-1l.28-.06a.79.79,0,0,1,1,.54l.86,2.8a.72.72,0,0,1-.07.62.76.76,0,0,1-.5.39l-.35.07a.39.39,0,0,1-.15,0"/><path class="cls-2" d="M50.42,103.54l-.86-2.8.29-.08.87,2.8-.3.08"/><path d="M50.42,104.34a.81.81,0,0,1-.76-.57l-.85-2.8a.75.75,0,0,1,.06-.62.82.82,0,0,1,.5-.38l.26-.07a.79.79,0,0,1,1,.53l.87,2.8a.92.92,0,0,1-.06.61.84.84,0,0,1-.48.39l-.33.08a.63.63,0,0,1-.19,0"/><path class="cls-2" d="M50.72,103.46l-.86-2.8.27-.08.86,2.8-.27.08"/><path d="M50.72,104.26a.81.81,0,0,1-.77-.56l-.85-2.81a.7.7,0,0,1,.06-.6.76.76,0,0,1,.47-.39l.24-.08a.79.79,0,0,1,.62.05.73.73,0,0,1,.39.48l.86,2.8a.78.78,0,0,1-.5,1l-.3.1-.22,0"/><path class="cls-2" d="M51,103.38l-.86-2.8.25-.09.86,2.8a1.84,1.84,0,0,1-.25.09"/><path d="M51,104.18a.77.77,0,0,1-.36-.09.83.83,0,0,1-.4-.48l-.85-2.8a.79.79,0,0,1,.5-1l.22-.08a.86.86,0,0,1,.63,0,.82.82,0,0,1,.42.49l.86,2.8a.81.81,0,0,1-.49,1l-.28.1a1,1,0,0,1-.25,0"/><path class="cls-2" d="M51.24,103.29l-.86-2.8.24-.1.86,2.8-.24.1"/><path d="M51.24,104.09a.73.73,0,0,1-.35-.09.8.8,0,0,1-.42-.48l-.85-2.8a.78.78,0,0,1,.48-1l.21-.09a.82.82,0,0,1,.65,0,.85.85,0,0,1,.42.49l.86,2.8a.81.81,0,0,1-.46,1l-.26.1a.71.71,0,0,1-.28.06"/><path class="cls-2" d="M51.48,103.19l-.86-2.8.23-.11.86,2.81-.23.1"/><path d="M51.48,104a.8.8,0,0,1-.34-.07.81.81,0,0,1-.42-.5l-.86-2.8a.78.78,0,0,1,.45-1l.2-.1a.84.84,0,0,1,.66,0,.81.81,0,0,1,.44.5l.86,2.8a.8.8,0,0,1-.42,1l-.26.11a.67.67,0,0,1-.31.07"/><path class="cls-2" d="M51.71,103.09l-.86-2.8.23-.11.86,2.8-.23.11"/><path d="M51.71,103.88a.91.91,0,0,1-.32-.06.81.81,0,0,1-.44-.5l-.86-2.8a.8.8,0,0,1,.42-1l.21-.1a.75.75,0,0,1,.67,0,.78.78,0,0,1,.45.49l.85,2.81a.8.8,0,0,1-.38.93l-.26.12a.68.68,0,0,1-.34.08"/><path class="cls-2" d="M51.94,103l-.86-2.8.22-.13.86,2.8-.22.13"/><path d="M51.94,103.77a.78.78,0,0,1-.31-.06.77.77,0,0,1-.45-.5l-.86-2.81a.79.79,0,0,1,.39-.93l.2-.11a.79.79,0,0,1,.69,0,.77.77,0,0,1,.46.5l.86,2.8a.79.79,0,0,1-.37.93l-.25.13a.77.77,0,0,1-.36.09"/><path class="cls-2" d="M52.16,102.85l-.86-2.8.22-.13.86,2.8-.22.13"/><path d="M52.16,103.65a.65.65,0,0,1-.3-.06.79.79,0,0,1-.46-.5l-.86-2.81a.78.78,0,0,1,.36-.91l.2-.12a.79.79,0,0,1,.7-.07.77.77,0,0,1,.48.51l.86,2.8a.78.78,0,0,1-.34.9l-.24.16a1,1,0,0,1-.4.1"/><path class="cls-2" d="M52.38,102.73l-.86-2.8a1.7,1.7,0,0,1,.22-.15l.86,2.8-.22.15"/><path d="M52.38,103.52a.87.87,0,0,1-.28,0,.83.83,0,0,1-.49-.51l-.85-2.81a.79.79,0,0,1,.34-.9l.19-.13a.8.8,0,0,1,1.21.42l.85,2.81a.76.76,0,0,1-.31.88l-.24.17a.84.84,0,0,1-.42.12"/><path class="cls-2" d="M52.6,102.58l-.86-2.8.22-.16.86,2.8-.22.16"/><path d="M52.6,103.37a.84.84,0,0,1-.27,0,.87.87,0,0,1-.5-.51L51,100a.82.82,0,0,1,.32-.89l.19-.13a.76.76,0,0,1,.72-.13.79.79,0,0,1,.52.52l.86,2.8a.84.84,0,0,1-.28.88l-.25.18a.81.81,0,0,1-.45.13"/><path class="cls-2" d="M52.82,102.42,52,99.62l.23-.18.86,2.8-.23.18"/><path d="M52.82,103.22a1.18,1.18,0,0,1-.25,0,.82.82,0,0,1-.51-.53l-.86-2.8a.83.83,0,0,1,.28-.87l.2-.15a.81.81,0,0,1,.73-.16.83.83,0,0,1,.54.54L53.8,102a.8.8,0,0,1-.24.85l-.26.21a.77.77,0,0,1-.48.16"/><path class="cls-2" d="M53,102.24l-.86-2.8.23-.2h0l.86,2.8h0l-.23.2"/><path d="M53.05,103a.59.59,0,0,1-.23,0,.78.78,0,0,1-.54-.53l-.86-2.8a.83.83,0,0,1,.25-.84l.19-.17a.87.87,0,0,1,.77-.15.78.78,0,0,1,.55.49l.86,2.8a.81.81,0,0,1-.12.71l-.36.34a.83.83,0,0,1-.51.19"/><path class="cls-2" d="M53.28,102l-.86-2.8.25-.26.86,2.81a3,3,0,0,1-.25.25"/><path d="M53.28,102.83a.64.64,0,0,1-.2,0,.78.78,0,0,1-.56-.54l-.86-2.8a.82.82,0,0,1,.22-.81l.21-.21a.81.81,0,0,1,1.35.3l.85,2.81a.78.78,0,0,1-.18.78l-.28.29a.82.82,0,0,1-.55.21"/><path class="cls-2" d="M53.53,101.78,52.67,99a4.38,4.38,0,0,0,.29-.34l.86,2.8a3.07,3.07,0,0,1-.29.34"/><path d="M53.53,102.58l-.17,0a.82.82,0,0,1-.59-.55l-.86-2.8a.78.78,0,0,1,.18-.77c.08-.1.17-.19.24-.29a.82.82,0,0,1,.78-.29.78.78,0,0,1,.61.55l.86,2.8a.76.76,0,0,1-.13.71,3.14,3.14,0,0,1-.34.4.75.75,0,0,1-.58.26"/><path d="M53.82,101.44,53,98.64a3.24,3.24,0,0,0,.68-2.9l.86,2.8a3.23,3.23,0,0,1-.68,2.9"/><path d="M53.82,102.24h-.15a.84.84,0,0,1-.62-.55l-.85-2.81a.79.79,0,0,1,.13-.71A2.46,2.46,0,0,0,52.88,96a.8.8,0,0,1,.52-1,.79.79,0,0,1,1,.53h0l.85,2.8a4,4,0,0,1-.81,3.63.76.76,0,0,1-.62.31"/></g><path class="cls-2" d="M68.06,80l-.86-2.8a2.92,2.92,0,0,0,1.39,1.66l.86,2.81A3,3,0,0,1,68.06,80"/><g class="cls-11"><path class="cls-2" d="M68.06,80l-.86-2.8s0,0,0,.08l.86,2.8s0-.06,0-.08"/><path d="M68.08,80.83a.78.78,0,0,1-.75-.53s0-.09,0-.11l-.86-2.8A.79.79,0,0,1,68,76.91l.89,2.89a.8.8,0,0,1-.51,1,1.07,1.07,0,0,1-.25,0"/><path class="cls-2" d="M68.08,80l-.86-2.8.08.18.85,2.8L68.08,80"/><path d="M68.15,81a.8.8,0,0,1-.73-.49l-.09-.24a0,0,0,0,0,0,0l-.86-2.8a.8.8,0,0,1,.52-1,.79.79,0,0,1,1,.44.17.17,0,0,1,0,0l.08.22.87,2.8a.8.8,0,0,1-.5,1,.86.86,0,0,1-.27,0"/><path class="cls-2" d="M68.15,80.22l-.86-2.8.08.18.86,2.8a1.42,1.42,0,0,1-.08-.18"/><path d="M68.23,81.19a.78.78,0,0,1-.7-.43,1.47,1.47,0,0,1-.1-.22.36.36,0,0,1,0-.09l-.85-2.8a.78.78,0,0,1,.48-1,.81.81,0,0,1,1,.44l.1.25.87,2.8a.79.79,0,0,1-.46,1,.66.66,0,0,1-.31.06"/><path class="cls-2" d="M68.23,80.4l-.86-2.8a1.4,1.4,0,0,0,.1.16l.86,2.8a1.4,1.4,0,0,1-.1-.16"/><path d="M68.33,81.35a.81.81,0,0,1-.69-.39l-.11-.2a.35.35,0,0,1,0-.13l-.86-2.8a.79.79,0,0,1,.45-1,.8.8,0,0,1,1,.36s.13.26.15.3l.86,2.81a.8.8,0,0,1-.45,1,.78.78,0,0,1-.31.06"/><path class="cls-2" d="M68.33,80.56l-.86-2.8.1.16.86,2.79a.78.78,0,0,1-.1-.15"/><path d="M68.43,81.51a.82.82,0,0,1-.65-.33,2.26,2.26,0,0,0-.13-.2l-.09-.19L66.71,78a.8.8,0,0,1,1.44-.65c0,.06.16.28.18.34l.87,2.8a.81.81,0,0,1-.42,1,.72.72,0,0,1-.35.08"/><path class="cls-2" d="M68.43,80.72l-.86-2.8a1.58,1.58,0,0,0,.12.15l.86,2.8a1.58,1.58,0,0,1-.12-.15"/><path d="M68.55,81.66a.78.78,0,0,1-.62-.29l-.15-.19a1,1,0,0,1-.11-.23l-.86-2.8a.8.8,0,0,1,1.41-.7,2.08,2.08,0,0,1,.22.38l.87,2.8a.8.8,0,0,1-.39.94.81.81,0,0,1-.37.09"/><path class="cls-2" d="M68.55,80.87l-.86-2.8.13.15.86,2.8-.13-.15"/><path d="M68.68,81.81a.78.78,0,0,1-.59-.25l-.16-.18a.92.92,0,0,1-.14-.28l-.86-2.8a.8.8,0,0,1,1.38-.73,2.57,2.57,0,0,1,.26.41l.87,2.8a.81.81,0,0,1-.37.93.76.76,0,0,1-.39.1"/><path class="cls-2" d="M68.68,81l-.86-2.8a1.85,1.85,0,0,1,.14.14l.86,2.8a.93.93,0,0,1-.14-.14"/><path d="M68.82,82a.79.79,0,0,1-.54-.22l-.18-.17a.8.8,0,0,1-.19-.32l-.85-2.81a.78.78,0,0,1,.36-.91.79.79,0,0,1,1,.14,1.59,1.59,0,0,1,.32.46l.87,2.8a.81.81,0,0,1-.35.91.76.76,0,0,1-.42.12"/><path class="cls-2" d="M68.82,81.16,68,78.36l.17.14L69,81.31s-.11-.09-.16-.15"/><path d="M69,82.1a.79.79,0,0,1-.5-.18l-.22-.18a1,1,0,0,1-.21-.34l-.86-2.81a.81.81,0,0,1,.34-.9.8.8,0,0,1,1,.09,1.44,1.44,0,0,1,.39.49l.86,2.8a.81.81,0,0,1-.31.9.84.84,0,0,1-.45.13"/><path class="cls-2" d="M69,81.31l-.86-2.8.19.14.86,2.81L69,81.31"/><path d="M69.18,82.24a.89.89,0,0,1-.47-.14l-.22-.17a.79.79,0,0,1-.26-.39l-.86-2.8a.78.78,0,0,1,.32-.89.77.77,0,0,1,.94,0,1.6,1.6,0,0,1,.45.52l.86,2.81a.78.78,0,0,1-.3.87.79.79,0,0,1-.46.15"/><path class="cls-2" d="M69.18,81.45l-.86-2.8.23.15.86,2.8-.23-.15"/><path d="M69.4,82.39a.7.7,0,0,1-.41-.12l-.27-.17a.73.73,0,0,1-.3-.41l-.86-2.81a.8.8,0,0,1,.29-.88.78.78,0,0,1,.92,0l.19.11a.84.84,0,0,1,.34.45l.87,2.8a.81.81,0,0,1-.77,1"/><path class="cls-2" d="M69.4,81.6l-.86-2.8.06,0,.86,2.8-.06,0"/><path d="M69.45,82.42a.81.81,0,0,1-.39-.1.9.9,0,0,1-.41-.49L67.79,79a.79.79,0,0,1,.25-.85.81.81,0,0,1,.88-.09,1,1,0,0,1,.44.5l.86,2.8a.81.81,0,0,1-.27.86.76.76,0,0,1-.5.17"/></g><path class="cls-2" d="M76.71,74.24l.85,2.8a3.48,3.48,0,0,1-1.22,3.51,6.23,6.23,0,0,1-6.88,1.08l-.86-2.8a6.25,6.25,0,0,0,6.88-1.08,3.5,3.5,0,0,0,1.23-3.51"/><g class="cls-12"><path class="cls-2" d="M69.45,81.63l-.86-2.8.23.11.86,2.81-.23-.12"/><path d="M69.68,82.54a.72.72,0,0,1-.35-.08l-.27-.15a.71.71,0,0,1-.36-.45l-.86-2.8a.77.77,0,0,1,.26-.85.79.79,0,0,1,.9-.07l.17.09a.81.81,0,0,1,.41.48l.86,2.8a.8.8,0,0,1-.25.85.79.79,0,0,1-.51.18"/><path class="cls-2" d="M69.68,81.75,68.82,79l.35.15L70,81.9l-.35-.15"/><path d="M70,82.7a.74.74,0,0,1-.29,0,4.08,4.08,0,0,1-.42-.19.76.76,0,0,1-.4-.48l-.87-2.8a.81.81,0,0,1,.25-.84.79.79,0,0,1,.87-.1l.28.12a.75.75,0,0,1,.47.51l.87,2.8a.84.84,0,0,1-.22.82.8.8,0,0,1-.54.21"/><path class="cls-2" d="M70,81.9l-.86-2.8a3.94,3.94,0,0,0,.61.19l.86,2.8A3.94,3.94,0,0,1,70,81.9"/><path d="M70.65,82.89a.52.52,0,0,1-.18,0,4.29,4.29,0,0,1-.72-.22.78.78,0,0,1-.47-.5l-.86-2.8a.8.8,0,0,1,.22-.82.79.79,0,0,1,.83-.16,2.91,2.91,0,0,0,.5.16.79.79,0,0,1,.58.54l.86,2.8a.8.8,0,0,1-.18.78.81.81,0,0,1-.58.25"/><path d="M70.65,82.09l-.86-2.8a5.82,5.82,0,0,0,1,.14l.87,2.8a5,5,0,0,1-1-.14"/><path d="M71.68,83h0a7.58,7.58,0,0,1-1.19-.16.81.81,0,0,1-.57-.55L69,79.52a.76.76,0,0,1,.18-.77.82.82,0,0,1,.76-.24,3.66,3.66,0,0,0,.88.12.79.79,0,0,1,.72.57l.86,2.8a.78.78,0,0,1-.13.72.8.8,0,0,1-.62.31"/><path d="M71.68,82.23l-.86-2.8a5.32,5.32,0,0,0,.69,0l.86,2.8a5.35,5.35,0,0,1-.69,0"/><path d="M71.93,83h-.29a.76.76,0,0,1-.72-.55l-.86-2.81a.78.78,0,0,1,.13-.72.75.75,0,0,1,.66-.3h.6a.8.8,0,0,1,.82.56l.86,2.8a.82.82,0,0,1-.1.68.85.85,0,0,1-.61.35h-.49"/><path class="cls-2" d="M72.37,82.22l-.86-2.8a3.64,3.64,0,0,0,.45,0l.86,2.81-.45,0"/><path d="M72.37,83a.8.8,0,0,1-.76-.57l-.86-2.8a.79.79,0,0,1,.11-.68.78.78,0,0,1,.59-.34c.14,0,.27,0,.4,0a.81.81,0,0,1,.87.56l.85,2.8a.8.8,0,0,1-.08.66.83.83,0,0,1-.56.37l-.5,0h-.06"/><path class="cls-2" d="M72.81,82.18,72,79.38l.37-.07.85,2.81-.36.06"/><path d="M72.81,83a.78.78,0,0,1-.75-.56L71.2,79.6a.75.75,0,0,1,.09-.65.81.81,0,0,1,.56-.37l.32,0a.79.79,0,0,1,.91.55l.86,2.8a.76.76,0,0,1-.08.64.82.82,0,0,1-.53.38,2.9,2.9,0,0,1-.41.06h-.11"/><path class="cls-2" d="M73.18,82.12l-.86-2.81.31-.07.86,2.8-.31.08"/><path d="M73.18,82.91a.79.79,0,0,1-.76-.56l-.86-2.81a.76.76,0,0,1,.08-.64.77.77,0,0,1,.52-.36l.28-.07a.81.81,0,0,1,1,.54l.85,2.8a.77.77,0,0,1-.07.63.74.74,0,0,1-.5.37l-.35.08a.39.39,0,0,1-.15,0"/><path class="cls-2" d="M73.5,82l-.86-2.8.28-.08L73.78,82,73.5,82"/><path d="M73.5,82.84a.8.8,0,0,1-.77-.57l-.86-2.8a.79.79,0,0,1,.07-.62.83.83,0,0,1,.51-.38l.25-.07a.8.8,0,0,1,1,.53l.87,2.81a.81.81,0,0,1-.07.61.77.77,0,0,1-.48.38l-.33.09-.17,0"/><path class="cls-2" d="M73.78,82l-.86-2.8.28-.09.86,2.8a1.52,1.52,0,0,1-.28.09"/><path d="M73.78,82.76A.79.79,0,0,1,73,82.2l-.86-2.81a.74.74,0,0,1,.06-.61.81.81,0,0,1,.47-.38l.25-.08a.87.87,0,0,1,.61.05.81.81,0,0,1,.39.48l.86,2.8a.79.79,0,0,1-.5,1l-.3.09a.85.85,0,0,1-.23,0"/><path class="cls-2" d="M74.05,81.88l-.86-2.8.25-.09.86,2.8-.25.09"/><path d="M74.05,82.68a.77.77,0,0,1-.36-.09.73.73,0,0,1-.39-.48l-.86-2.8a.78.78,0,0,1,.5-1l.22-.08a.79.79,0,0,1,.64,0,.85.85,0,0,1,.41.48l.86,2.8a.8.8,0,0,1-.48,1l-.29.11a1,1,0,0,1-.25,0"/><path class="cls-2" d="M74.3,81.79,73.44,79l.25-.1.86,2.81-.25.09"/><path d="M74.3,82.59a.84.84,0,0,1-.34-.08.77.77,0,0,1-.41-.49l-.86-2.8a.79.79,0,0,1,.47-1l.23-.09a.81.81,0,0,1,.63,0,.8.8,0,0,1,.43.49l.85,2.8a.79.79,0,0,1-.44,1l-.27.11a.93.93,0,0,1-.29,0"/><path class="cls-2" d="M74.55,81.7l-.86-2.8.23-.12.86,2.81-.23.11"/><path d="M74.55,82.49a.79.79,0,0,1-.77-.56l-.85-2.8a.79.79,0,0,1,.43-1l.23-.1a.78.78,0,0,1,.65,0,.84.84,0,0,1,.44.5l.86,2.8a.81.81,0,0,1-.42,1l-.26.11a.89.89,0,0,1-.31.06"/><path class="cls-2" d="M74.78,81.59l-.86-2.8.23-.11.86,2.8-.23.11"/><path d="M74.78,82.38a.79.79,0,0,1-.76-.55L73.16,79a.8.8,0,0,1,.42-1l.19-.1a.82.82,0,0,1,1.14.47l.86,2.81a.81.81,0,0,1-.4.94l-.24.12a.84.84,0,0,1-.35.07"/><path class="cls-2" d="M75,81.48l-.86-2.8.22-.13.86,2.81-.22.12"/><path d="M75,82.27a.64.64,0,0,1-.31-.06.81.81,0,0,1-.46-.5l-.85-2.8a.78.78,0,0,1,.39-.94l.19-.11a.83.83,0,0,1,.69,0,.8.8,0,0,1,.47.51l.86,2.8a.8.8,0,0,1-.36.92l-.25.14a1,1,0,0,1-.37.08"/><path class="cls-2" d="M75.23,81.36l-.86-2.8.22-.13.86,2.8-.22.13"/><path d="M75.23,82.15a.93.93,0,0,1-.29-.05.79.79,0,0,1-.47-.51l-.86-2.8a.79.79,0,0,1,.36-.92l.19-.12a.79.79,0,0,1,.7-.07.82.82,0,0,1,.49.51l.86,2.8a.83.83,0,0,1-.34.92l-.25.14a.78.78,0,0,1-.39.1"/><path class="cls-2" d="M75.45,81.23l-.86-2.8.22-.15.86,2.8-.22.15"/><path d="M75.45,82a.66.66,0,0,1-.28,0,.83.83,0,0,1-.49-.51l-.86-2.8a.81.81,0,0,1,.35-.91l.19-.12a.82.82,0,0,1,.71-.1.79.79,0,0,1,.5.52l.86,2.8a.81.81,0,0,1-.31.89l-.25.16a.71.71,0,0,1-.42.12"/><path class="cls-2" d="M75.67,81.09l-.86-2.81.22-.16.86,2.8-.22.17"/><path d="M75.67,81.88a.75.75,0,0,1-.26,0,.81.81,0,0,1-.51-.51l-.85-2.81a.8.8,0,0,1,.31-.89l.2-.14a.77.77,0,0,1,.72-.11.8.8,0,0,1,.51.52l.86,2.8a.79.79,0,0,1-.28.87l-.25.18a.82.82,0,0,1-.45.14"/><path class="cls-2" d="M75.89,80.92,75,78.12l.23-.18.86,2.81-.23.17"/><path d="M75.89,81.72a.73.73,0,0,1-.25,0,.8.8,0,0,1-.51-.52l-.86-2.81a.77.77,0,0,1,.28-.86l.19-.15a.8.8,0,0,1,1.28.37l.86,2.8a.81.81,0,0,1-.26.85l-.26.2a.74.74,0,0,1-.47.16"/><path class="cls-2" d="M76.12,80.74l-.86-2.8.22-.19v0l.86,2.81h0l-.22.19"/><path d="M76.12,81.54a.73.73,0,0,1-.22,0,.83.83,0,0,1-.55-.53l-.86-2.81a.81.81,0,0,1,.25-.84l.19-.17a.84.84,0,0,1,.76-.19.81.81,0,0,1,.56.53l.86,2.81a.81.81,0,0,1-.28.86l-.2.18a.77.77,0,0,1-.51.19"/><path class="cls-2" d="M76.35,80.54l-.86-2.8.25-.26.86,2.81-.25.25"/><path d="M76.35,81.33a.51.51,0,0,1-.21,0,.79.79,0,0,1-.55-.53L74.73,78a.8.8,0,0,1,.22-.82l.21-.21a.78.78,0,0,1,.76-.23.79.79,0,0,1,.58.54l.86,2.8a.77.77,0,0,1-.18.78,3.9,3.9,0,0,1-.29.28.73.73,0,0,1-.54.22"/><path class="cls-2" d="M76.6,80.28l-.86-2.8.29-.33.86,2.8-.29.33"/><path d="M76.6,81.08a.55.55,0,0,1-.18,0,.81.81,0,0,1-.58-.54L75,77.71a.76.76,0,0,1,.18-.76,3.5,3.5,0,0,0,.24-.3.81.81,0,0,1,.77-.29.83.83,0,0,1,.62.55l.86,2.8a.8.8,0,0,1-.13.72,4,4,0,0,1-.34.4.79.79,0,0,1-.58.25"/><path d="M76.89,80,76,77.15a3.22,3.22,0,0,0,.67-2.91l.86,2.8A3.21,3.21,0,0,1,76.89,80"/><path d="M76.89,80.74h-.14a.81.81,0,0,1-.62-.55l-.86-2.81a.81.81,0,0,1,.13-.72A2.46,2.46,0,0,0,76,74.47a.78.78,0,0,1,.52-1,.8.8,0,0,1,1,.53l.85,2.8a4,4,0,0,1-.81,3.62.76.76,0,0,1-.62.31"/></g><path class="cls-2" d="M91.13,58.47l-.86-2.8a3,3,0,0,0,1.39,1.66l.86,2.8a3,3,0,0,1-1.39-1.66"/><g class="cls-13"><path class="cls-2" d="M91.13,58.47l-.86-2.8,0,.07.86,2.8,0-.07"/><path d="M91.16,59.34a.81.81,0,0,1-.76-.54l0-.1-.87-2.8a.79.79,0,0,1,.53-1,.78.78,0,0,1,1,.47h0a.13.13,0,0,0,0,.06l.89,2.87a.79.79,0,0,1-.52,1,.67.67,0,0,1-.24,0"/><path class="cls-2" d="M91.16,58.54l-.86-2.8a1.46,1.46,0,0,0,.07.19l.86,2.8a.73.73,0,0,1-.07-.19"/><path d="M91.23,59.52a.79.79,0,0,1-.73-.47l-.1-.25v0L89.54,56a.79.79,0,0,1,1.51-.48s.07.2.07.2L92,58.5a.79.79,0,0,1-.49,1,.65.65,0,0,1-.27.05"/><path class="cls-2" d="M91.23,58.73l-.86-2.8.08.17.86,2.8a.89.89,0,0,1-.08-.17"/><path d="M91.31,59.7a.79.79,0,0,1-.71-.44L90.49,59a.21.21,0,0,0,0-.07l-.85-2.8a.79.79,0,0,1,.49-1,.8.8,0,0,1,1,.44l.11.25.86,2.8a.8.8,0,0,1-.76,1"/><path class="cls-2" d="M91.31,58.9l-.86-2.8a1.4,1.4,0,0,0,.1.16l.86,2.8a1.4,1.4,0,0,1-.1-.16"/><path d="M91.4,59.86a.8.8,0,0,1-.68-.38l-.12-.21s0-.09,0-.14l-.86-2.8a.79.79,0,0,1,1.46-.6,2.1,2.1,0,0,1,.15.3l.87,2.8a.83.83,0,0,1-.44,1,1,1,0,0,1-.33.06"/><path class="cls-2" d="M91.4,59.07l-.86-2.8.11.15.86,2.8-.11-.15"/><path d="M91.51,60a.81.81,0,0,1-.66-.34l-.12-.2a.61.61,0,0,1-.09-.18l-.86-2.8a.81.81,0,0,1,.43-1,.79.79,0,0,1,1,.3,2.37,2.37,0,0,1,.19.35l.86,2.8a.78.78,0,0,1-.41.95.68.68,0,0,1-.34.08"/><path class="cls-2" d="M91.51,59.23l-.86-2.8.11.14.87,2.81a.79.79,0,0,1-.12-.15"/><path d="M91.62,60.17a.81.81,0,0,1-.62-.29,2.2,2.2,0,0,0-.14-.18.74.74,0,0,1-.11-.24l-.86-2.81a.79.79,0,0,1,.41-.94.8.8,0,0,1,1,.26,2.77,2.77,0,0,1,.22.37l.87,2.81a.79.79,0,0,1-.39.93.85.85,0,0,1-.38.09"/><path class="cls-2" d="M91.62,59.38l-.86-2.8a.86.86,0,0,1,.13.14l.86,2.8a.86.86,0,0,1-.13-.14"/><path d="M91.75,60.32a.78.78,0,0,1-.58-.26S91,59.9,91,59.89a.76.76,0,0,1-.15-.28L90,56.81a.81.81,0,0,1,.38-.94.82.82,0,0,1,1,.2,2.31,2.31,0,0,1,.27.42l.87,2.8a.8.8,0,0,1-.37.92.83.83,0,0,1-.4.11"/><path class="cls-2" d="M91.75,59.52l-.86-2.8.15.15.86,2.8-.15-.15"/><path d="M91.9,60.46a.81.81,0,0,1-.55-.21l-.18-.18a.81.81,0,0,1-.18-.31L90.13,57a.78.78,0,0,1,.36-.91.8.8,0,0,1,1,.13,1.48,1.48,0,0,1,.34.46l.86,2.81a.79.79,0,0,1-.34.91.78.78,0,0,1-.42.11"/><path class="cls-2" d="M91.9,59.67,91,56.87s.1.1.16.14l.86,2.81-.16-.15"/><path d="M92.06,60.61a.79.79,0,0,1-.5-.18l-.2-.17a.75.75,0,0,1-.22-.36l-.86-2.8a.79.79,0,0,1,.34-.91.8.8,0,0,1,1,.1,1.38,1.38,0,0,1,.37.49l.86,2.8a.81.81,0,0,1-.31.9.9.9,0,0,1-.45.13"/><path class="cls-2" d="M92.06,59.82,91.2,57l.19.13L92.25,60l-.19-.14"/><path d="M92.25,60.75a.8.8,0,0,1-.45-.14l-.24-.17a.93.93,0,0,1-.26-.39l-.86-2.8a.8.8,0,0,1,1.26-.86,1.44,1.44,0,0,1,.45.53l.86,2.8a.8.8,0,0,1-.76,1"/><path class="cls-2" d="M92.25,60l-.86-2.81.23.15.86,2.8L92.25,60"/><path d="M92.48,60.9a.87.87,0,0,1-.41-.11l-.28-.19a.74.74,0,0,1-.3-.41l-.86-2.81a.79.79,0,0,1,.3-.87.78.78,0,0,1,.92,0l.17.11a.75.75,0,0,1,.35.45l.86,2.8a.79.79,0,0,1-.26.86.83.83,0,0,1-.49.17"/><path class="cls-2" d="M92.48,60.1l-.86-2.8,0,0,.86,2.8,0,0"/><path d="M92.53,60.93a.83.83,0,0,1-.43-.13.85.85,0,0,1-.38-.47l-.87-2.8a.83.83,0,0,1,.27-.86.82.82,0,0,1,.9-.06,1,1,0,0,1,.4.49l.86,2.8a.78.78,0,0,1-.27.87.84.84,0,0,1-.48.16"/></g><path class="cls-2" d="M99.77,52.74l.86,2.8a3.46,3.46,0,0,1-1.22,3.51c-1.84,1.71-4.94,2.21-6.88,1.08l-.86-2.8c1.94,1.13,5,.63,6.88-1.08a3.47,3.47,0,0,0,1.22-3.51"/><g class="cls-14"><path class="cls-2" d="M92.53,60.13l-.86-2.8.22.12.86,2.8-.22-.12"/><path d="M92.75,61.05A.85.85,0,0,1,92.4,61c-.09-.06-.18-.1-.27-.15a.81.81,0,0,1-.37-.46l-.85-2.8a.76.76,0,0,1,.27-.85.77.77,0,0,1,.89-.07l.18.1a.77.77,0,0,1,.4.48l.86,2.8a.79.79,0,0,1-.25.84.8.8,0,0,1-.51.19"/><path class="cls-2" d="M92.75,60.25l-.86-2.8a3.68,3.68,0,0,0,.35.15l.86,2.8a2.63,2.63,0,0,1-.35-.15"/><path d="M93.1,61.2a.77.77,0,0,1-.29-.05L92.4,61a.8.8,0,0,1-.41-.49l-.86-2.8a.81.81,0,0,1,.24-.84.79.79,0,0,1,.87-.1l.29.12a.77.77,0,0,1,.47.51l.87,2.8a.81.81,0,0,1-.23.82.78.78,0,0,1-.54.21"/><path class="cls-2" d="M93.1,60.4l-.86-2.8a4.76,4.76,0,0,0,.61.19l.86,2.8a4.76,4.76,0,0,1-.61-.19"/><path d="M93.71,61.39l-.18,0a5.36,5.36,0,0,1-.71-.23.77.77,0,0,1-.48-.5l-.86-2.8A.81.81,0,0,1,91.7,57a.78.78,0,0,1,.82-.16A2.38,2.38,0,0,0,93,57a.83.83,0,0,1,.57.55l.86,2.8a.8.8,0,0,1-.17.78.83.83,0,0,1-.59.25"/><path d="M93.71,60.59l-.86-2.8a5.94,5.94,0,0,0,1,.14l.86,2.8a4.92,4.92,0,0,1-1-.14"/><path d="M94.74,61.53h0a7.49,7.49,0,0,1-1.17-.16.83.83,0,0,1-.58-.54L92.09,58a.81.81,0,0,1,.18-.77A.83.83,0,0,1,93,57a3.73,3.73,0,0,0,.88.12.79.79,0,0,1,.72.57l.87,2.8a.78.78,0,0,1-.14.72.8.8,0,0,1-.62.31"/><path d="M94.74,60.73l-.86-2.8a5.48,5.48,0,0,0,.7,0l.86,2.8a5.5,5.5,0,0,1-.7,0"/><path d="M95,61.53h-.28A.78.78,0,0,1,94,61l-.86-2.8a.78.78,0,0,1,.13-.72.8.8,0,0,1,.66-.31h.61a.79.79,0,0,1,.82.56l.86,2.8a.82.82,0,0,1-.11.68.77.77,0,0,1-.6.35H95"/><path class="cls-2" d="M95.43,60.72l-.86-2.8.45-.05.86,2.81c-.14,0-.29,0-.45,0"/><path d="M95.44,61.52a.81.81,0,0,1-.77-.57l-.86-2.8a.82.82,0,0,1,.11-.68.78.78,0,0,1,.6-.34l.4-.05a.79.79,0,0,1,.86.56l.86,2.8a.8.8,0,0,1-.08.66.85.85,0,0,1-.56.37l-.51.05h0"/><path class="cls-2" d="M95.88,60.68,95,57.88l.37-.07.86,2.81-.37.06"/><path d="M95.88,61.47a.81.81,0,0,1-.76-.57l-.85-2.8a.81.81,0,0,1,.08-.66.82.82,0,0,1,.57-.36l.32,0a.8.8,0,0,1,.91.55l.86,2.8a.84.84,0,0,1-.08.64.82.82,0,0,1-.54.38c-.13,0-.26.05-.4.06h-.11"/><path class="cls-2" d="M96.25,60.62l-.86-2.81.31-.07.86,2.8-.31.08"/><path d="M96.25,61.41a.79.79,0,0,1-.76-.56L94.63,58a.76.76,0,0,1,.08-.64.84.84,0,0,1,.53-.37l.28-.06a.8.8,0,0,1,1,.54l.86,2.8a.86.86,0,0,1-.07.63.78.78,0,0,1-.51.37l-.35.08a.39.39,0,0,1-.15,0"/><path class="cls-2" d="M96.56,60.54l-.86-2.8.3-.08.86,2.8-.3.08"/><path d="M96.57,61.34a.8.8,0,0,1-.77-.57L94.94,58a.84.84,0,0,1,.08-.62.78.78,0,0,1,.5-.38l.25-.07a.81.81,0,0,1,1,.53l.86,2.81a.81.81,0,0,1-.06.61.83.83,0,0,1-.48.38l-.33.09-.18,0"/><path class="cls-2" d="M96.86,60.46,96,57.66l.27-.08.86,2.8-.27.08"/><path d="M96.86,61.26a.81.81,0,0,1-.77-.56l-.86-2.81a.87.87,0,0,1,.07-.61.8.8,0,0,1,.48-.38l.24-.08a.86.86,0,0,1,.61,0,.81.81,0,0,1,.4.47l.86,2.81a.81.81,0,0,1-.51,1l-.3.09a.83.83,0,0,1-.22,0"/><path class="cls-2" d="M97.13,60.38l-.86-2.8.25-.09.86,2.8-.25.09"/><path d="M97.13,61.18a.74.74,0,0,1-.36-.09.86.86,0,0,1-.41-.47l-.85-2.81a.81.81,0,0,1,.51-1l.22-.08a.86.86,0,0,1,.63,0,.8.8,0,0,1,.41.49l.86,2.8a.78.78,0,0,1-.48,1l-.28.11a1,1,0,0,1-.25,0"/><path class="cls-2" d="M97.38,60.29l-.86-2.8.24-.1.86,2.8-.24.1"/><path d="M97.38,61.09A.77.77,0,0,1,97,61a.81.81,0,0,1-.42-.49l-.86-2.8a.79.79,0,0,1,.48-1l.22-.1a.79.79,0,0,1,.64,0,.81.81,0,0,1,.42.49l.86,2.8a.78.78,0,0,1-.45,1l-.26.11a.75.75,0,0,1-.29.06"/><path class="cls-2" d="M97.62,60.19l-.86-2.8a2.56,2.56,0,0,0,.24-.11l.86,2.81-.24.1"/><path d="M97.62,61a.78.78,0,0,1-.33-.07.82.82,0,0,1-.43-.5L96,57.62a.77.77,0,0,1,.44-.95l.21-.11a.84.84,0,0,1,.66,0,.81.81,0,0,1,.44.5l.86,2.8a.79.79,0,0,1-.42.94l-.27.13a.78.78,0,0,1-.31.06"/><path class="cls-2" d="M97.86,60.09,97,57.29l.22-.11.86,2.8-.22.11"/><path d="M97.86,60.88a.87.87,0,0,1-.32-.06.81.81,0,0,1-.44-.5l-.86-2.8a.79.79,0,0,1,.41-1l.21-.1a.75.75,0,0,1,.67,0,.73.73,0,0,1,.45.49l.86,2.81a.79.79,0,0,1-.39.94l-.25.11a.71.71,0,0,1-.34.08"/><path class="cls-2" d="M98.08,60l-.86-2.8a1.27,1.27,0,0,1,.23-.12l.85,2.79a1.16,1.16,0,0,1-.22.13"/><path d="M98.08,60.77a.89.89,0,0,1-.31-.06.76.76,0,0,1-.44-.5l-.86-2.8a.79.79,0,0,1,.39-.94l.19-.11a.77.77,0,0,1,.69,0,.8.8,0,0,1,.47.5l.86,2.8a.8.8,0,0,1-.38.93l-.23.13a.85.85,0,0,1-.38.09"/><path class="cls-2" d="M98.31,59.85l-.86-2.8.22-.13.86,2.8a1.79,1.79,0,0,1-.22.13"/><path d="M98.31,60.65a.79.79,0,0,1-.3,0,.8.8,0,0,1-.46-.51l-.86-2.81a.77.77,0,0,1,.37-.91l.18-.12a.81.81,0,0,1,.71-.07.77.77,0,0,1,.47.51l.86,2.8a.78.78,0,0,1-.34.91l-.24.14a.77.77,0,0,1-.39.11"/><path class="cls-2" d="M98.52,59.73l-.86-2.81.22-.14.86,2.8-.22.15"/><path d="M98.52,60.52a.65.65,0,0,1-.27-.05.8.8,0,0,1-.49-.51l-.85-2.8a.8.8,0,0,1,.34-.92l.18-.11a.78.78,0,0,1,.71-.1.77.77,0,0,1,.5.52l.86,2.8a.8.8,0,0,1-.31.89l-.25.16a.76.76,0,0,1-.42.12"/><path class="cls-2" d="M98.74,59.58l-.86-2.8.22-.16L99,59.43l-.22.15"/><path d="M98.74,60.38a.85.85,0,0,1-.26-.05.79.79,0,0,1-.5-.52L97.13,57a.79.79,0,0,1,.3-.89l.2-.14a.81.81,0,0,1,1.24.41l.85,2.8a.79.79,0,0,1-.28.87l-.25.18a.8.8,0,0,1-.45.14"/><path class="cls-2" d="M99,59.42l-.86-2.8.22-.18.86,2.81-.22.17"/><path d="M99,60.22a.69.69,0,0,1-.25,0,.79.79,0,0,1-.52-.52l-.86-2.81a.81.81,0,0,1,.29-.87l.18-.14a.8.8,0,0,1,.74-.16.78.78,0,0,1,.54.53L100,59a.82.82,0,0,1-.25.85l-.26.2a.76.76,0,0,1-.47.16"/><path class="cls-2" d="M99.19,59.24l-.86-2.8.22-.19h0l.86,2.8h0a1.86,1.86,0,0,1-.22.19"/><path d="M99.19,60A.62.62,0,0,1,99,60a.8.8,0,0,1-.54-.52l-.86-2.81a.82.82,0,0,1,.26-.84l.19-.16a.8.8,0,0,1,1.31.34l.86,2.8a.76.76,0,0,1-.29.86l-.19.19a.79.79,0,0,1-.51.18"/><path class="cls-2" d="M99.42,59l-.86-2.8.25-.26.86,2.81a3,3,0,0,1-.25.25"/><path d="M99.42,59.84a.64.64,0,0,1-.2,0,.8.8,0,0,1-.56-.54l-.86-2.8a.79.79,0,0,1,.22-.81l.21-.22a.81.81,0,0,1,1.35.31l.85,2.81a.81.81,0,0,1-.18.77l-.28.29a.82.82,0,0,1-.55.22"/><path class="cls-2" d="M99.67,58.79,98.81,56l.29-.34.86,2.8-.29.34"/><path d="M99.67,59.59l-.18,0a.78.78,0,0,1-.58-.54l-.86-2.8a.8.8,0,0,1,.18-.77,1.94,1.94,0,0,0,.23-.29.8.8,0,0,1,.78-.29.79.79,0,0,1,.62.55l.86,2.8a.84.84,0,0,1-.13.72l-.33.39a.84.84,0,0,1-.59.26"/><path d="M100,58.45l-.86-2.8a3.21,3.21,0,0,0,.68-2.9l.86,2.79a3.19,3.19,0,0,1-.68,2.91"/><path d="M100,59.24h-.15a.81.81,0,0,1-.61-.55l-.86-2.81a.78.78,0,0,1,.13-.72A2.43,2.43,0,0,0,99,53a.81.81,0,0,1,.53-1,.79.79,0,0,1,1,.53h0l.86,2.79a4,4,0,0,1-.81,3.63.78.78,0,0,1-.62.3"/></g><path class="cls-2" d="M98.37,32.74l84.32,48.68-80.23,74.75L18.15,107.49Zm-52,70.38A6.2,6.2,0,0,0,53.27,102c1.85-1.73,1.78-4-.17-5.17A6.22,6.22,0,0,0,46.22,98c-1.86,1.73-1.79,4,.17,5.15M101,134.68a6.25,6.25,0,0,0,6.87-1.09c1.85-1.73,1.77-4.05-.16-5.17a6.29,6.29,0,0,0-6.9,1.09c-1.85,1.74-1.76,4,.19,5.17M69.46,81.63a6.24,6.24,0,0,0,6.88-1.08c1.86-1.73,1.78-4-.17-5.18a6.24,6.24,0,0,0-6.88,1.11c-1.86,1.72-1.78,4,.17,5.15m23.06-21.5a6.23,6.23,0,0,0,6.88-1.08c1.86-1.73,1.79-4-.16-5.17A6.26,6.26,0,0,0,92.35,55c-1.83,1.72-1.77,4,.17,5.16m31.59,53.05a6.23,6.23,0,0,0,6.87-1.09c1.85-1.73,1.77-4-.17-5.16a6.24,6.24,0,0,0-6.89,1.09c-1.85,1.73-1.77,4,.19,5.16m23.07-21.5a6.26,6.26,0,0,0,6.87-1.08c1.85-1.73,1.77-4-.16-5.17s-5-.63-6.9,1.09-1.76,4,.19,5.16"/><path d="M102.47,157a.79.79,0,0,1-.4-.1L17.76,108.18a.81.81,0,0,1-.4-.6.8.8,0,0,1,.25-.67L97.83,32.16a.8.8,0,0,1,1-.11l84.31,48.67a.87.87,0,0,1,.39.61.77.77,0,0,1-.25.66L103,156.75a.8.8,0,0,1-.54.21m-83-49.62,82.88,47.84,79-73.61L98.49,33.72Zm84,28.74a5.76,5.76,0,0,1-2.87-.71,3.61,3.61,0,0,1-1.89-2.75,4.41,4.41,0,0,1,1.56-3.68,7,7,0,0,1,7.84-1.2,3.56,3.56,0,0,1,1.87,2.73,4.44,4.44,0,0,1-1.57,3.7,7.41,7.41,0,0,1-4.94,1.91M101.44,134a5.45,5.45,0,0,0,5.92-1,2.93,2.93,0,0,0,1.08-2.36,2,2,0,0,0-1.09-1.54,5.52,5.52,0,0,0-6,1,2.87,2.87,0,0,0-1.06,2.34,2,2,0,0,0,1.11,1.55m25.14-19.41a5.79,5.79,0,0,1-2.87-.71,3.63,3.63,0,0,1-1.9-2.74,4.47,4.47,0,0,1,1.57-3.69,7,7,0,0,1,7.83-1.2,3.58,3.58,0,0,1,1.88,2.73,4.49,4.49,0,0,1-1.57,3.71,7.38,7.38,0,0,1-4.94,1.9m-2.08-2.09a5.48,5.48,0,0,0,5.94-1,2.94,2.94,0,0,0,1.08-2.36,2,2,0,0,0-1.1-1.53,5.48,5.48,0,0,0-5.95,1,2.92,2.92,0,0,0-1.08,2.34,2.07,2.07,0,0,0,1.11,1.55m-75.63-8a5.7,5.7,0,0,1-2.88-.72,3.6,3.6,0,0,1-1.89-2.73,4.48,4.48,0,0,1,1.57-3.69c2.13-2,5.57-2.52,7.82-1.21a3.6,3.6,0,0,1,1.89,2.74,4.42,4.42,0,0,1-1.57,3.7,7.37,7.37,0,0,1-4.94,1.91m1.79-7.46a5.83,5.83,0,0,0-3.9,1.49,2.85,2.85,0,0,0-1.08,2.34,2.07,2.07,0,0,0,1.1,1.54,5.46,5.46,0,0,0,5.94-1A2.89,2.89,0,0,0,53.8,99.1a2,2,0,0,0-1.1-1.54,4.13,4.13,0,0,0-2-.49m99-4a5.72,5.72,0,0,1-2.84-.7,3.62,3.62,0,0,1-1.89-2.74,4.43,4.43,0,0,1,1.56-3.69,7,7,0,0,1,7.83-1.2,3.63,3.63,0,0,1,1.88,2.73,4.45,4.45,0,0,1-1.57,3.71,7.49,7.49,0,0,1-5,1.89m1.81-7.44a5.93,5.93,0,0,0-3.9,1.47,2.91,2.91,0,0,0-1.06,2.35A2,2,0,0,0,147.58,91a5.47,5.47,0,0,0,5.92-1,2.91,2.91,0,0,0,1.08-2.36,2,2,0,0,0-1.09-1.53,4.08,4.08,0,0,0-2.06-.49M71.94,83a5.83,5.83,0,0,1-2.88-.72,3.62,3.62,0,0,1-1.89-2.74,4.46,4.46,0,0,1,1.58-3.69,7,7,0,0,1,7.82-1.2,3.57,3.57,0,0,1,1.88,2.74,4.46,4.46,0,0,1-1.57,3.7A7.39,7.39,0,0,1,71.94,83m1.78-7.47a5.93,5.93,0,0,0-3.89,1.48,2.93,2.93,0,0,0-1.08,2.35,2,2,0,0,0,1.1,1.54,5.51,5.51,0,0,0,6-1,2.94,2.94,0,0,0,1.08-2.36,2.08,2.08,0,0,0-1.11-1.55,4.14,4.14,0,0,0-2-.49M95,61.54a5.83,5.83,0,0,1-2.88-.72,3.62,3.62,0,0,1-1.89-2.73,4.5,4.5,0,0,1,1.57-3.7,7,7,0,0,1,7.83-1.2,3.63,3.63,0,0,1,1.88,2.74,4.46,4.46,0,0,1-1.57,3.7A7.33,7.33,0,0,1,95,61.54m1.79-7.46a5.94,5.94,0,0,0-3.91,1.48,3,3,0,0,0-1.07,2.35,2,2,0,0,0,1.1,1.53,5.48,5.48,0,0,0,5.94-1,2.89,2.89,0,0,0,1.08-2.36,2,2,0,0,0-1.1-1.54,4,4,0,0,0-2-.49"/><polygon class="cls-2" points="18.2 104.93 97.13 31.38 97.47 32.49 18.55 106.04 18.2 104.93"/><polygon points="97.52 29.93 17.3 104.69 18.16 107.49 98.38 32.73 97.52 29.93"/><polygon class="cls-2" points="99.05 32.21 98.87 31.63 181.16 79.14 181.34 79.72 99.05 32.21"/><polygon points="97.52 29.93 98.38 32.73 182.69 81.41 181.83 78.61 97.52 29.93"/></svg>