<?xml version="1.0" encoding="utf-8"?>
<!-- Generator: Adobe Illustrator 24.3.0, SVG Export Plug-In . SVG Version: 6.00 Build 0)  -->
<svg version="1.1" id="Capa_1" xmlns="http://www.w3.org/2000/svg" xmlns:xlink="http://www.w3.org/1999/xlink" x="0px" y="0px"
	 viewBox="0 0 200 200" style="enable-background:new 0 0 200 200;" xml:space="preserve">
<style type="text/css">
	.st0{fill:#0056A3;}
	.st1{fill:#FFDE00;}
	.st2{clip-path:url(#SVGID_2_);}
	.st3{clip-path:url(#SVGID_4_);}
	.st4{clip-path:url(#SVGID_6_);}
	.st5{clip-path:url(#SVGID_8_);}
	.st6{clip-path:url(#SVGID_10_);}
	.st7{clip-path:url(#SVGID_12_);}
	.st8{clip-path:url(#SVGID_14_);}
	.st9{clip-path:url(#SVGID_16_);}
	.st10{clip-path:url(#SVGID_18_);}
	.st11{clip-path:url(#SVGID_20_);}
	.st12{clip-path:url(#SVGID_22_);}
	.st13{clip-path:url(#SVGID_24_);}
</style>
<path class="st0" d="M100,193.7c-51.8,0-93.7-42-93.7-93.7S48.2,6.3,100,6.3s93.7,42,93.7,93.7c0,0,0,0,0,0
	C193.7,151.7,151.7,193.7,100,193.7"/>
<path class="st1" d="M100,8.4c50.6,0,91.6,41,91.6,91.6s-41,91.6-91.6,91.6S8.4,150.6,8.4,100C8.4,49.4,49.4,8.4,100,8.4
	C100,8.4,100,8.4,100,8.4 M100,4.2C47.1,4.2,4.2,47.1,4.2,100s42.9,95.8,95.8,95.8s95.8-42.9,95.8-95.8c0,0,0,0,0,0
	C195.8,47.1,152.9,4.2,100,4.2"/>
<path class="st1" d="M99.6,133l-0.9-2.8c0.2,0.7,0.7,1.3,1.4,1.7l0.9,2.8C100.4,134.3,99.9,133.7,99.6,133"/>
<g>
	<defs>
		<path id="SVGID_1_" d="M99.6,133c0.2,0.7,0.7,1.3,1.4,1.7l-0.9-2.8c-0.7-0.4-1.2-1-1.4-1.7L99.6,133z"/>
	</defs>
	<clipPath id="SVGID_2_">
		<use xlink:href="#SVGID_1_"  style="overflow:visible;"/>
	</clipPath>
	<g class="st2">
		<path class="st1" d="M99.6,133l-0.9-2.8v0.1L99.6,133L99.6,133"/>
		<path class="st1" d="M99.7,133.9c-0.3,0-0.6-0.2-0.8-0.5v-0.1l-0.9-2.8c-0.1-0.4,0.1-0.9,0.5-1c0.4-0.1,0.8,0.1,1,0.5l0,0l0,0l0,0
			l0.9,2.9c0.1,0.4-0.1,0.9-0.5,1c-0.1,0-0.2,0-0.2,0"/>
		<path class="st1" d="M99.7,133.1l-0.9-2.8c0,0.1,0,0.1,0.1,0.2l0.8,2.8L99.7,133.1"/>
		<path class="st1" d="M99.7,134.1c-0.3,0-0.6-0.2-0.7-0.5l-0.1-0.3l0,0l-0.9-2.8c-0.1-0.4,0.1-0.9,0.5-1c0.4-0.1,0.9,0.1,1,0.5
			c0,0.1,0.1,0.1,0.1,0.2l0.9,2.8c0.1,0.4-0.1,0.8-0.5,1C99.9,134.1,99.8,134.1,99.7,134.1"/>
		<path class="st1" d="M99.7,133.3l-0.9-2.8l0.1,0.2l0.9,2.8C99.8,133.4,99.8,133.3,99.7,133.3"/>
		<path class="st1" d="M99.8,134.2c-0.3,0-0.6-0.2-0.7-0.4c0-0.1-0.1-0.2-0.1-0.2c0,0,0-0.1,0-0.1l-0.9-2.8c-0.1-0.4,0.1-0.9,0.5-1
			c0,0,0,0,0,0c0.4-0.1,0.8,0.1,1,0.4c0,0,0.1,0.2,0.1,0.3l0.9,2.8c0.1,0.4-0.1,0.8-0.5,1C100,134.2,99.9,134.2,99.8,134.2"/>
		<path class="st1" d="M99.8,133.4l-0.9-2.8c0,0.1,0.1,0.1,0.1,0.2l0.8,2.8L99.8,133.4"/>
		<path class="st1" d="M99.9,134.4c-0.3,0-0.5-0.1-0.7-0.4c0,0-0.1-0.2-0.1-0.2c0,0,0-0.1-0.1-0.1l-0.9-2.8c-0.1-0.4,0.1-0.9,0.6-1
			c0.4-0.1,0.7,0.1,0.9,0.4l0.2,0.3l0.9,2.8c0.1,0.4-0.1,0.8-0.4,1C100.1,134.4,100,134.4,99.9,134.4"/>
		<path class="st1" d="M99.9,133.6l-0.9-2.8c0,0.1,0.1,0.1,0.1,0.2l0.9,2.8C99.9,133.7,99.9,133.7,99.9,133.6"/>
		<path class="st1" d="M100,134.6c-0.3,0-0.5-0.1-0.7-0.3l-0.1-0.2c0-0.1-0.1-0.1-0.1-0.2l-0.8-2.8c-0.1-0.4,0.1-0.9,0.5-1
			c0.4-0.1,0.8,0,1,0.4c0.1,0.1,0.1,0.2,0.2,0.3l0.9,2.8c0.1,0.4-0.1,0.8-0.4,0.9C100.2,134.5,100.1,134.6,100,134.6"/>
		<path class="st1" d="M100,133.8l-0.9-2.8c0,0,0.1,0.1,0.1,0.2l0.9,2.8C100.1,133.9,100,133.8,100,133.8"/>
		<path class="st1" d="M100.1,134.7c-0.2,0-0.5-0.1-0.6-0.3l-0.2-0.2c0-0.1-0.1-0.1-0.1-0.2l-0.9-2.8c-0.1-0.4,0.1-0.8,0.4-0.9
			c0.4-0.2,0.8-0.1,1,0.3c0.1,0.1,0.1,0.2,0.2,0.4l0.9,2.8c0.1,0.4,0,0.8-0.4,0.9C100.4,134.7,100.2,134.7,100.1,134.7"/>
		<path class="st1" d="M100.1,133.9l-0.9-2.8l0.1,0.1l0.9,2.8L100.1,133.9"/>
		<path class="st1" d="M100.3,134.9c-0.2,0-0.4-0.1-0.6-0.3c0,0-0.2-0.2-0.2-0.2c-0.1-0.1-0.1-0.2-0.1-0.3l-0.9-2.8
			c-0.1-0.4,0-0.7,0.4-0.9c0.3-0.2,0.8-0.1,1,0.2c0.1,0.1,0.2,0.3,0.3,0.4l0.9,2.8c0.1,0.4,0,0.7-0.4,0.9
			C100.5,134.8,100.4,134.9,100.3,134.9"/>
		<path class="st1" d="M100.3,134.1l-0.9-2.8c0.1,0,0.1,0.1,0.2,0.1l0.9,2.8C100.4,134.2,100.3,134.1,100.3,134.1"/>
		<path class="st1" d="M100.4,135c-0.2,0-0.4-0.1-0.5-0.2l-0.2-0.2c-0.1-0.1-0.1-0.2-0.2-0.3l-0.9-2.8c-0.1-0.4,0.1-0.9,0.5-1
			c0.3-0.1,0.6,0,0.8,0.2c0.1,0.1,0.2,0.3,0.3,0.5l0.9,2.8c0.1,0.3,0,0.7-0.3,0.9C100.7,135,100.6,135,100.4,135"/>
		<path class="st1" d="M100.4,134.2l-0.9-2.8l0.2,0.1l0.9,2.8L100.4,134.2"/>
		<path class="st1" d="M100.6,135.1c-0.2,0-0.4-0.1-0.5-0.2l-0.2-0.2c-0.1-0.1-0.2-0.2-0.2-0.3l-0.9-2.8c-0.1-0.3,0-0.7,0.3-0.9
			c0.3-0.2,0.7-0.2,1,0.1c0.2,0.1,0.3,0.3,0.4,0.5l0.9,2.8c0.1,0.4-0.1,0.9-0.6,1C100.7,135.1,100.7,135.1,100.6,135.1"/>
		<path class="st1" d="M100.6,134.4l-0.9-2.8l0.2,0.1l0.8,2.8C100.7,134.4,100.6,134.4,100.6,134.4"/>
		<path class="st1" d="M100.8,135.3c-0.2,0-0.3,0-0.5-0.1l-0.2-0.2c-0.1-0.1-0.2-0.2-0.3-0.4l-0.9-2.8c-0.1-0.3,0-0.7,0.3-0.9
			c0.3-0.2,0.7-0.2,0.9,0.1c0.2,0.1,0.3,0.3,0.4,0.5l0.9,2.8c0.1,0.3,0,0.7-0.3,0.9C101.1,135.2,100.9,135.3,100.8,135.3"/>
		<path class="st1" d="M100.8,134.5l-0.9-2.8c0.1,0.1,0.1,0.1,0.2,0.1l0.9,2.8L100.8,134.5"/>
		<path class="st1" d="M101,135.4c-0.1,0-0.3,0-0.4-0.1l-0.3-0.2c-0.1-0.1-0.2-0.3-0.3-0.4l-0.9-2.8c-0.1-0.3,0-0.7,0.3-0.9
			c0.3-0.2,0.6-0.2,0.9,0l0.2,0.1c0.2,0.1,0.3,0.3,0.3,0.4l0.9,2.8c0.1,0.4-0.2,0.9-0.6,1C101.1,135.4,101.1,135.4,101,135.4"/>
		<path class="st1" d="M101,134.6l-0.9-2.8h0.1L101,134.6L101,134.6"/>
		<path class="st1" d="M101,135.5c-0.1,0-0.3,0-0.4-0.1c-0.2-0.1-0.3-0.3-0.4-0.5l-0.9-2.8c-0.1-0.4,0.1-0.9,0.5-1
			c0.2-0.1,0.5,0,0.7,0.1c0.2,0.1,0.3,0.3,0.4,0.5l0.9,2.8c0.1,0.3,0,0.6-0.3,0.9C101.4,135.4,101.2,135.5,101,135.5"/>
	</g>
</g>
<path class="st1" d="M108.3,127.3l0.9,2.8c0.3,1.3-0.2,2.7-1.2,3.5c-1.9,1.7-4.6,2.2-6.9,1.1l-0.9-2.8c2.3,1.1,5,0.6,6.9-1.1
	C108.1,130,108.6,128.6,108.3,127.3"/>
<g>
	<defs>
		<path id="SVGID_3_" d="M107.1,130.8c-1.9,1.7-4.6,2.2-6.9,1.1l0.9,2.8c2.3,1.1,5,0.6,6.9-1.1c1-0.8,1.5-2.2,1.2-3.5l-0.9-2.8
			C108.6,128.6,108.1,129.9,107.1,130.8"/>
	</defs>
	<clipPath id="SVGID_4_">
		<use xlink:href="#SVGID_3_"  style="overflow:visible;"/>
	</clipPath>
	<g class="st3">
		<path class="st1" d="M101,134.7l-0.9-2.8c0.1,0,0.1,0.1,0.2,0.1l0.9,2.8L101,134.7"/>
		<path class="st1" d="M101.3,135.6c-0.1,0-0.2,0-0.3-0.1l-0.3-0.1c-0.2-0.1-0.3-0.3-0.4-0.4l-0.8-2.8c-0.1-0.3,0-0.7,0.3-0.9
			c0.3-0.2,0.6-0.2,0.9-0.1l0.2,0.1c0.2,0.1,0.3,0.3,0.4,0.5l0.9,2.8c0.1,0.3,0,0.6-0.3,0.8C101.6,135.5,101.4,135.6,101.3,135.6"/>
		<path class="st1" d="M101.3,134.8l-0.9-2.8l0.3,0.2l0.9,2.8C101.5,135,101.4,134.9,101.3,134.8"/>
		<path class="st1" d="M101.6,135.8c-0.1,0-0.2,0-0.3-0.1l-0.4-0.2c-0.2-0.1-0.3-0.3-0.4-0.5l-0.9-2.8c-0.1-0.4,0.1-0.9,0.5-1
			c0.2-0.1,0.4,0,0.6,0l0.3,0.1c0.2,0.1,0.4,0.3,0.5,0.5l0.9,2.8c0.1,0.3,0,0.6-0.2,0.8C102,135.7,101.8,135.7,101.6,135.8"/>
		<path class="st1" d="M101.6,135l-0.9-2.8c0.2,0.1,0.4,0.1,0.6,0.2l0.9,2.8C102,135.1,101.8,135.1,101.6,135"/>
		<path class="st1" d="M102.2,135.9c-0.1,0-0.1,0-0.2,0c-0.2-0.1-0.5-0.1-0.7-0.2c-0.2-0.1-0.4-0.3-0.5-0.5l-0.9-2.8
			c-0.1-0.3,0-0.6,0.2-0.8c0.2-0.2,0.5-0.3,0.8-0.2c0.2,0.1,0.3,0.1,0.5,0.1c0.3,0.1,0.5,0.3,0.6,0.5l0.9,2.8c0.1,0.4-0.1,0.9-0.6,1
			C102.4,135.9,102.3,135.9,102.2,135.9"/>
		<path class="st1" d="M102.2,135.1l-0.9-2.8c0.3,0.1,0.7,0.1,1,0.1l0.9,2.8C102.9,135.3,102.5,135.2,102.2,135.1"/>
		<path class="st1" d="M103.2,136.1L103.2,136.1c-0.4,0-0.8-0.1-1.2-0.2c-0.3-0.1-0.5-0.3-0.6-0.5l-0.9-2.8c-0.1-0.3,0-0.6,0.2-0.8
			c0.2-0.2,0.5-0.3,0.8-0.2c0.3,0.1,0.6,0.1,0.9,0.1c0.3,0,0.6,0.2,0.7,0.6l0.8,2.8c0.1,0.2,0,0.5-0.1,0.7
			C103.7,135.9,103.5,136,103.2,136.1"/>
		<path class="st1" d="M103.2,135.3l-0.9-2.8h0.7l0.9,2.8H103.2"/>
		<path class="st1" d="M103.5,136.1h-0.3c-0.3,0-0.6-0.2-0.7-0.6l-0.9-2.8c-0.1-0.2,0-0.5,0.1-0.7c0.2-0.2,0.4-0.3,0.7-0.3
			c0.2,0,0.4,0,0.6,0c0.4,0,0.7,0.2,0.8,0.6l0.9,2.8c0.1,0.4-0.1,0.9-0.6,1c0,0-0.1,0-0.1,0L103.5,136.1"/>
		<path class="st1" d="M103.9,135.3l-0.9-2.8c0.2,0,0.3,0,0.4-0.1l0.9,2.8L103.9,135.3"/>
		<path class="st1" d="M103.9,136.1c-0.3,0-0.7-0.2-0.8-0.6l-0.8-2.8c-0.1-0.2,0-0.5,0.1-0.7c0.1-0.2,0.4-0.3,0.6-0.4h0.4
			c0.4-0.1,0.8,0.2,0.9,0.6l0.9,2.8c0.1,0.2,0,0.5-0.1,0.7c-0.1,0.2-0.3,0.3-0.6,0.4L103.9,136.1L103.9,136.1z"/>
		<path class="st1" d="M104.4,135.2l-0.9-2.8l0.4-0.1l0.9,2.8L104.4,135.2"/>
		<path class="st1" d="M104.4,136c-0.4,0-0.7-0.2-0.8-0.6l-0.8-2.8c-0.1-0.4,0.2-0.9,0.6-1c0,0,0,0,0.1,0l0.3-0.1
			c0.4-0.1,0.8,0.2,0.9,0.6l0.9,2.8c0.1,0.2,0,0.4-0.1,0.6c-0.1,0.2-0.3,0.3-0.5,0.4l-0.4,0.1L104.4,136"/>
		<path class="st1" d="M104.7,135.2l-0.9-2.8l0.3-0.1l0.9,2.8L104.7,135.2"/>
		<path class="st1" d="M104.7,136c-0.3,0-0.7-0.2-0.8-0.6l-0.9-2.8c-0.1-0.2,0-0.4,0.1-0.6c0.1-0.2,0.3-0.3,0.5-0.4h0.3
			c0.4-0.1,0.8,0.1,0.9,0.5l0.9,2.8c0.1,0.2,0,0.4-0.1,0.6c-0.1,0.2-0.3,0.3-0.5,0.4l-0.3,0.1L104.7,136"/>
		<path class="st1" d="M105.1,135.1l-0.9-2.8l0.3-0.1l0.9,2.8L105.1,135.1"/>
		<path class="st1" d="M105.1,135.9c-0.3,0-0.7-0.2-0.8-0.6l-0.9-2.8c-0.1-0.2,0-0.4,0.1-0.6c0.1-0.2,0.3-0.3,0.5-0.4l0.3-0.1
			c0.4-0.1,0.9,0.1,1,0.5l0.9,2.8c0.1,0.2,0,0.4-0.1,0.6c-0.1,0.2-0.3,0.3-0.5,0.4l-0.3,0.1C105.2,135.9,105.1,135.9,105.1,135.9"/>
		<path class="st1" d="M105.3,135l-0.9-2.8l0.3-0.1l0.9,2.8C105.5,134.9,105.4,135,105.3,135"/>
		<path class="st1" d="M105.3,135.8c-0.4,0-0.7-0.2-0.8-0.6l-0.8-2.8c-0.1-0.2,0-0.4,0.1-0.6c0.1-0.2,0.3-0.3,0.5-0.4l0.2-0.1
			c0.2-0.1,0.4-0.1,0.6,0c0.2,0.1,0.3,0.3,0.4,0.5l0.9,2.8c0.1,0.4-0.1,0.9-0.5,1c0,0,0,0,0,0l-0.3,0.1L105.3,135.8"/>
		<path class="st1" d="M105.6,134.9l-0.9-2.8l0.2-0.1l0.9,2.8L105.6,134.9"/>
		<path class="st1" d="M105.6,135.7c-0.1,0-0.2,0-0.4-0.1c-0.2-0.1-0.3-0.3-0.4-0.5l-0.9-2.8c-0.1-0.4,0.1-0.9,0.5-1c0,0,0,0,0,0
			l0.2-0.1c0.2-0.1,0.4-0.1,0.6,0c0.2,0.1,0.3,0.3,0.4,0.5l0.9,2.8c0.1,0.4-0.1,0.9-0.5,1c0,0,0,0,0,0l-0.3,0.1
			C105.8,135.7,105.7,135.7,105.6,135.7"/>
		<path class="st1" d="M105.9,134.8L105,132l0.2-0.1l0.9,2.8L105.9,134.8"/>
		<path class="st1" d="M105.9,135.6c-0.1,0-0.2,0-0.3-0.1c-0.2-0.1-0.4-0.3-0.4-0.5l-0.9-2.8c-0.1-0.4,0.1-0.8,0.5-1l0.2-0.1
			c0.2-0.1,0.4-0.1,0.7,0c0.2,0.1,0.4,0.3,0.4,0.5l0.9,2.8c0.1,0.4-0.1,0.8-0.4,1l-0.3,0.1C106.1,135.6,106,135.6,105.9,135.6"/>
		<path class="st1" d="M106.1,134.7l-0.9-2.8l0.2-0.1l0.9,2.8L106.1,134.7"/>
		<path class="st1" d="M106.1,135.5c-0.1,0-0.2,0-0.3-0.1c-0.2-0.1-0.4-0.3-0.4-0.5l-0.9-2.8c-0.1-0.4,0.1-0.8,0.4-1l0.2-0.1
			c0.2-0.1,0.5-0.1,0.7,0c0.2,0.1,0.4,0.3,0.4,0.5l0.8,2.8c0.1,0.4-0.1,0.8-0.4,0.9l-0.3,0.1C106.3,135.5,106.2,135.5,106.1,135.5"
			/>
		<path class="st1" d="M106.3,134.6l-0.9-2.8l0.2-0.1l0.9,2.8L106.3,134.6"/>
		<path class="st1" d="M106.3,135.4c-0.1,0-0.2,0-0.3-0.1c-0.2-0.1-0.4-0.3-0.4-0.5l-0.8-2.8c-0.1-0.4,0.1-0.8,0.4-0.9l0.2-0.1
			c0.2-0.1,0.5-0.1,0.7,0c0.2,0.1,0.4,0.3,0.4,0.5l0.9,2.8c0.1,0.4,0,0.8-0.4,0.9l-0.3,0.1C106.6,135.4,106.5,135.5,106.3,135.4"/>
		<path class="st1" d="M106.6,134.5l-0.9-2.8l0.2-0.1l0.8,2.8L106.6,134.5"/>
		<path class="st1" d="M106.6,135.3c-0.1,0-0.2,0-0.3-0.1c-0.2-0.1-0.4-0.3-0.4-0.5L105,132c-0.1-0.4,0.1-0.8,0.4-0.9l0.2-0.1
			c0.2-0.1,0.5-0.1,0.7,0c0.2,0.1,0.4,0.3,0.5,0.5l0.9,2.8c0.1,0.4-0.1,0.7-0.4,0.9l-0.3,0.1C106.9,135.4,106.7,135.4,106.6,135.3"
			/>
		<path class="st1" d="M106.8,134.4l-0.9-2.8l0.2-0.1l0.9,2.8L106.8,134.4"/>
		<path class="st1" d="M106.8,135.2c-0.1,0-0.2,0-0.3-0.1c-0.2-0.1-0.4-0.3-0.5-0.5l-0.9-2.8c-0.1-0.4,0-0.7,0.4-0.9l0.2-0.1
			c0.4-0.2,0.9-0.1,1.1,0.3c0,0.1,0.1,0.1,0.1,0.2l0.8,2.8c0.1,0.3,0,0.7-0.3,0.9l-0.2,0.1C107.1,135.2,106.9,135.2,106.8,135.2"/>
		<path class="st1" d="M107,134.3l-0.9-2.8c0.1,0,0.2-0.1,0.2-0.1l0.9,2.8C107.2,134.2,107.1,134.2,107,134.3"/>
		<path class="st1" d="M107,135.1c-0.1,0-0.2,0-0.3-0.1c-0.2-0.1-0.4-0.3-0.5-0.5l-0.9-2.8c-0.1-0.3,0-0.7,0.3-0.9l0.2-0.1
			c0.4-0.2,0.8-0.2,1.1,0.2c0.1,0.1,0.1,0.2,0.1,0.2l0.9,2.8c0.1,0.3,0,0.7-0.3,0.9l-0.2,0.2C107.3,135,107.1,135.1,107,135.1"/>
		<path class="st1" d="M107.2,134.1l-0.9-2.8l0.2-0.2l0.9,2.8L107.2,134.1"/>
		<path class="st1" d="M107.2,134.9c-0.1,0-0.2,0-0.3,0c-0.2-0.1-0.4-0.3-0.5-0.5l-0.8-2.8c-0.1-0.3,0-0.7,0.3-0.9l0.2-0.1
			c0.2-0.2,0.5-0.2,0.7-0.1c0.2,0.1,0.4,0.3,0.5,0.5l0.8,2.8c0.1,0.3,0,0.7-0.3,0.9l-0.3,0.2C107.6,134.9,107.4,135,107.2,134.9"/>
		<path class="st1" d="M107.5,134l-0.9-2.8l0.2-0.2l0.9,2.8L107.5,134"/>
		<path class="st1" d="M107.5,134.8c-0.1,0-0.2,0-0.2,0c-0.3-0.1-0.4-0.3-0.5-0.5l-0.8-2.8c-0.1-0.3,0-0.7,0.3-0.9l0.2-0.2
			c0.2-0.2,0.5-0.2,0.7-0.1c0.3,0.1,0.4,0.3,0.5,0.5l0.9,2.8c0.1,0.3,0,0.6-0.2,0.8l-0.3,0.2C107.8,134.7,107.6,134.8,107.5,134.8"
			/>
		<path class="st1" d="M107.7,133.8l-0.9-2.8l0.2-0.2l0,0l0.9,2.8l0,0L107.7,133.8"/>
		<path class="st1" d="M107.7,134.6c-0.1,0-0.1,0-0.2,0c-0.3-0.1-0.5-0.3-0.5-0.5l-0.9-2.8c-0.1-0.3,0-0.6,0.3-0.8l0.2-0.2
			c0.2-0.2,0.5-0.2,0.8-0.2c0.3,0.1,0.5,0.2,0.6,0.5l0.9,2.8c0.1,0.3,0,0.6-0.2,0.8l-0.3,0.3C108,134.5,107.9,134.6,107.7,134.6"/>
		<path class="st1" d="M107.9,133.6l-0.9-2.8l0.3-0.3l0.9,2.8L107.9,133.6"/>
		<path class="st1" d="M107.9,134.4h-0.2c-0.3-0.1-0.5-0.3-0.6-0.5l-0.8-2.8c-0.1-0.3,0-0.6,0.2-0.8l0.2-0.2
			c0.2-0.2,0.5-0.3,0.8-0.2c0.3,0.1,0.5,0.3,0.6,0.5l0.9,2.8c0.1,0.3,0,0.6-0.2,0.8l-0.3,0.3C108.3,134.3,108.1,134.4,107.9,134.4"
			/>
		<path class="st1" d="M108.2,133.3l-0.9-2.8l0.3-0.3l0.9,2.8L108.2,133.3"/>
		<path class="st1" d="M108.2,134.1H108c-0.3-0.1-0.5-0.3-0.6-0.6l-0.8-2.8c-0.1-0.3,0-0.6,0.2-0.8c0.1-0.1,0.2-0.2,0.2-0.3
			c0.2-0.2,0.5-0.4,0.8-0.3c0.3,0.1,0.5,0.3,0.6,0.6l0.9,2.8c0.1,0.2,0,0.5-0.1,0.7c-0.1,0.1-0.2,0.3-0.3,0.4
			C108.6,134,108.4,134.1,108.2,134.1"/>
		<path class="st1" d="M108.5,133l-0.9-2.8c0.7-0.8,0.9-1.9,0.7-2.9l0.9,2.8C109.4,131.1,109.1,132.2,108.5,133"/>
		<path class="st1" d="M108.5,133.8h-0.2c-0.3-0.1-0.5-0.3-0.6-0.6l-0.9-2.8c-0.1-0.2,0-0.5,0.1-0.7c0.5-0.6,0.7-1.4,0.6-2.2l0,0
			c-0.1-0.4,0.1-0.9,0.5-1c0,0,0,0,0,0c0.4-0.1,0.9,0.1,1,0.5c0,0,0,0,0,0l0,0l0.8,2.8c0.3,1.3,0,2.6-0.8,3.6
			C108.9,133.7,108.7,133.8,108.5,133.8"/>
	</g>
</g>
<path class="st1" d="M122.7,111.5l-0.9-2.8c0.2,0.7,0.7,1.3,1.4,1.7l0.9,2.8C123.4,112.8,122.9,112.2,122.7,111.5"/>
<g>
	<defs>
		<path id="SVGID_5_" d="M122.7,111.5c0.2,0.7,0.7,1.3,1.4,1.7l-0.9-2.8c-0.7-0.3-1.2-0.9-1.4-1.7L122.7,111.5z"/>
	</defs>
	<clipPath id="SVGID_6_">
		<use xlink:href="#SVGID_5_"  style="overflow:visible;"/>
	</clipPath>
	<g class="st4">
		<path class="st1" d="M122.7,111.5l-0.9-2.8v0.1L122.7,111.5C122.7,111.6,122.7,111.5,122.7,111.5"/>
		<path class="st1" d="M122.7,112.4c-0.3,0-0.6-0.2-0.8-0.5l0,0c0,0,0,0,0-0.1l-0.9-2.8l0,0c-0.1-0.4,0.1-0.9,0.5-1
			c0.4-0.2,0.8,0,1,0.4c0,0,0,0,0,0.1l0.9,2.9c0.1,0.4-0.1,0.9-0.5,1c0,0,0,0,0,0C122.9,112.3,122.9,112.3,122.7,112.4"/>
		<path class="st1" d="M122.7,111.6l-0.9-2.8c0,0.1,0,0.1,0.1,0.2l0.9,2.8C122.8,111.7,122.7,111.6,122.7,111.6"/>
		<path class="st1" d="M122.8,112.6c-0.3,0-0.6-0.2-0.7-0.5c0,0-0.1-0.2-0.1-0.3l0,0l-0.9-2.8c-0.2-0.4,0.1-0.9,0.5-1
			c0.4-0.2,0.9,0.1,1,0.5l0,0c0,0,0.1,0.2,0.1,0.2l0.9,2.8c0.1,0.4-0.1,0.8-0.5,1C123,112.5,122.9,112.5,122.8,112.6"/>
		<path class="st1" d="M122.8,111.8l-0.9-2.8l0.1,0.2l0.9,2.8C122.8,111.9,122.8,111.8,122.8,111.8"/>
		<path class="st1" d="M122.9,112.7c-0.3,0-0.6-0.2-0.7-0.4c0,0-0.1-0.2-0.1-0.2c0,0,0-0.1,0-0.1l-0.9-2.8c-0.1-0.4,0.1-0.9,0.5-1
			c0,0,0,0,0,0c0.4-0.1,0.8,0.1,1,0.4c0,0.1,0.1,0.2,0.1,0.3l0.9,2.8c0.1,0.4-0.1,0.8-0.5,1C123.1,112.7,123,112.8,122.9,112.7"/>
		<path class="st1" d="M122.9,111.9l-0.9-2.8c0,0.1,0.1,0.1,0.1,0.2l0.9,2.8C122.9,112,122.9,112,122.9,111.9"/>
		<path class="st1" d="M123,112.9c-0.3,0-0.5-0.1-0.7-0.4c0-0.1-0.1-0.1-0.1-0.2c0,0,0-0.1,0-0.1l-0.9-2.8c-0.1-0.4,0.1-0.9,0.5-1
			c0.4-0.1,0.8,0,1,0.4c0.1,0.1,0.1,0.2,0.2,0.3l0.9,2.8c0.1,0.4-0.1,0.9-0.6,1C123.2,112.9,123.1,112.9,123,112.9"/>
		<path class="st1" d="M123,112.1l-0.9-2.8l0.1,0.2l0.9,2.8C123.1,112.2,123,112.2,123,112.1"/>
		<path class="st1" d="M123.1,113.1c-0.3,0-0.5-0.1-0.7-0.3c0-0.1-0.1-0.1-0.1-0.2c0-0.1-0.1-0.1-0.1-0.2l-0.9-2.8
			c-0.1-0.4,0-0.8,0.4-1c0.4-0.2,0.8,0,1,0.3c0.1,0.1,0.1,0.2,0.2,0.3l0.9,2.8c0.1,0.4,0,0.8-0.4,1
			C123.3,113,123.2,113.1,123.1,113.1"/>
		<path class="st1" d="M123.1,112.3l-0.9-2.8c0,0.1,0.1,0.1,0.1,0.2l0.9,2.8C123.2,112.4,123.1,112.3,123.1,112.3"/>
		<path class="st1" d="M123.2,113.2c-0.2,0-0.5-0.1-0.6-0.3c-0.1-0.1-0.1-0.1-0.2-0.2c-0.1-0.1-0.1-0.1-0.1-0.2l-0.9-2.8
			c-0.1-0.4,0.1-0.9,0.5-1c0.3-0.1,0.7,0,0.9,0.3c0,0.1,0.2,0.3,0.2,0.4l0.9,2.8c0.1,0.4-0.1,0.8-0.4,0.9
			C123.5,113.2,123.3,113.2,123.2,113.2"/>
		<path class="st1" d="M123.2,112.4l-0.9-2.8c0,0,0.1,0.1,0.1,0.2l0.9,2.8L123.2,112.4"/>
		<path class="st1" d="M123.3,113.4c-0.2,0-0.4-0.1-0.6-0.3c-0.1-0.1-0.1-0.1-0.2-0.2c-0.1-0.1-0.1-0.2-0.1-0.3l-0.9-2.8
			c-0.1-0.4,0-0.8,0.4-0.9c0.3-0.2,0.8-0.1,1,0.2c0.1,0.1,0.2,0.3,0.3,0.4l0.9,2.8c0.1,0.4,0,0.7-0.4,0.9
			C123.6,113.3,123.5,113.4,123.3,113.4"/>
		<path class="st1" d="M123.3,112.6l-0.9-2.8l0.1,0.1l0.9,2.8C123.4,112.7,123.4,112.6,123.3,112.6"/>
		<path class="st1" d="M123.5,113.5c-0.2,0-0.4-0.1-0.5-0.2l-0.2-0.2c-0.1-0.1-0.2-0.2-0.2-0.3l-0.8-2.8c-0.1-0.4,0.1-0.9,0.5-1
			c0.3-0.1,0.6,0,0.8,0.2c0.1,0.1,0.2,0.3,0.3,0.4l0.9,2.8c0.1,0.3,0,0.7-0.3,0.9C123.8,113.5,123.6,113.5,123.5,113.5"/>
		<path class="st1" d="M123.5,112.7l-0.9-2.8l0.2,0.2l0.9,2.8C123.6,112.8,123.5,112.8,123.5,112.7"/>
		<path class="st1" d="M123.6,113.7c-0.2,0-0.4-0.1-0.5-0.2l-0.2-0.2c-0.1-0.1-0.2-0.2-0.2-0.3l-0.9-2.8c-0.1-0.3,0-0.7,0.3-0.9
			c0.3-0.2,0.7-0.2,1,0.1c0.2,0.1,0.3,0.3,0.4,0.5l0.9,2.8c0.1,0.3,0,0.7-0.3,0.9C124,113.6,123.8,113.7,123.6,113.7"/>
		<path class="st1" d="M123.6,112.9l-0.9-2.8c0.1,0.1,0.1,0.1,0.2,0.1l0.9,2.8C123.8,113,123.7,112.9,123.6,112.9"/>
		<path class="st1" d="M123.8,113.8c-0.2,0-0.3-0.1-0.5-0.2l-0.2-0.2c-0.1-0.1-0.2-0.2-0.3-0.4l-0.9-2.8c-0.1-0.4,0.1-0.9,0.6-1
			c0.2-0.1,0.5,0,0.7,0.1c0.2,0.1,0.3,0.3,0.4,0.5l0.9,2.8c0.1,0.3,0,0.7-0.3,0.9C124.2,113.7,124,113.8,123.8,113.8"/>
		<path class="st1" d="M123.8,113l-0.9-2.8l0.2,0.2l0.9,2.8L123.8,113"/>
		<path class="st1" d="M124.1,114c-0.1,0-0.3,0-0.4-0.1l-0.3-0.2c-0.2-0.1-0.3-0.2-0.3-0.4l-0.9-2.8c-0.1-0.4,0.1-0.9,0.6-1
			c0.2-0.1,0.5,0,0.7,0.1l0.2,0.1c0.2,0.1,0.3,0.3,0.3,0.4l0.9,2.8c0.1,0.3,0,0.7-0.3,0.9C124.4,113.9,124.2,114,124.1,114"/>
		<path class="st1" d="M124.1,113.2l-0.9-2.8l0,0L124.1,113.2L124.1,113.2"/>
		<path class="st1" d="M124.1,114c-0.1,0-0.3,0-0.4-0.1c-0.2-0.1-0.3-0.3-0.4-0.5l-0.9-2.8c-0.1-0.3,0-0.7,0.3-0.9
			c0.3-0.2,0.6-0.2,0.9-0.1c0.2,0.1,0.3,0.3,0.4,0.5l0.9,2.8c0.1,0.3,0,0.7-0.3,0.9C124.4,113.9,124.3,114,124.1,114"/>
	</g>
</g>
<path class="st1" d="M131.4,105.8l0.9,2.8c0.3,1.3-0.2,2.7-1.2,3.5c-1.9,1.7-4.6,2.2-6.9,1.1l-0.9-2.8c2.3,1.1,5,0.6,6.9-1.1
	C131.2,108.5,131.6,107.1,131.4,105.8"/>
<g>
	<defs>
		<path id="SVGID_7_" d="M130.1,109.3c-1.9,1.7-4.6,2.2-6.9,1.1l0.9,2.8c2.3,1.1,5,0.6,6.9-1.1c1.1-0.8,1.5-2.2,1.2-3.5l-0.9-2.8
			C131.7,107.1,131.2,108.5,130.1,109.3"/>
	</defs>
	<clipPath id="SVGID_8_">
		<use xlink:href="#SVGID_7_"  style="overflow:visible;"/>
	</clipPath>
	<g class="st5">
		<path class="st1" d="M124.1,113.2l-0.9-2.8l0.2,0.1l0.9,2.8L124.1,113.2"/>
		<path class="st1" d="M124.3,114.1c-0.1,0-0.2,0-0.3-0.1l-0.3-0.2c-0.2-0.1-0.3-0.3-0.4-0.5l-0.9-2.8c-0.1-0.3,0-0.6,0.3-0.8
			c0.3-0.2,0.6-0.2,0.9-0.1c0.3,0.1,0.5,0.3,0.6,0.6l0.9,2.8c0.1,0.3,0,0.6-0.3,0.8C124.7,114,124.5,114.1,124.3,114.1"/>
		<path class="st1" d="M124.3,113.3l-0.9-2.8l0.3,0.2l0.9,2.8C124.6,113.4,124.4,113.4,124.3,113.3"/>
		<path class="st1" d="M124.7,114.3c-0.1,0-0.2,0-0.3,0c-0.1-0.1-0.3-0.2-0.4-0.3c-0.2-0.1-0.3-0.3-0.4-0.5l-0.9-2.8
			c-0.1-0.3,0-0.6,0.3-0.8c0.2-0.2,0.6-0.3,0.9-0.1l0.3,0.1c0.2,0.1,0.4,0.3,0.5,0.5l0.9,2.8c0.1,0.3,0,0.6-0.2,0.8
			C125.1,114.2,124.9,114.2,124.7,114.3"/>
		<path class="st1" d="M124.7,113.4l-0.9-2.8c0.2,0.1,0.4,0.1,0.6,0.2l0.9,2.8C125.1,113.6,124.9,113.5,124.7,113.4"/>
		<path class="st1" d="M125.3,114.4h-0.2c-0.2-0.1-0.5-0.1-0.7-0.2c-0.2-0.1-0.4-0.3-0.5-0.5l-0.9-2.8c-0.1-0.3,0-0.6,0.2-0.8
			c0.2-0.2,0.5-0.3,0.8-0.2c0.2,0.1,0.3,0.1,0.5,0.2c0.3,0.1,0.5,0.3,0.6,0.6l0.9,2.8c0.1,0.4-0.1,0.9-0.6,1
			C125.4,114.4,125.4,114.4,125.3,114.4"/>
		<path class="st1" d="M125.3,113.6l-0.9-2.8c0.3,0.1,0.7,0.1,1,0.1l0.9,2.8C126,113.8,125.6,113.7,125.3,113.6"/>
		<path class="st1" d="M126.3,114.6L126.3,114.6c-0.4,0-0.8-0.1-1.2-0.2c-0.3-0.1-0.5-0.3-0.6-0.5l-0.9-2.8c-0.1-0.3,0-0.6,0.2-0.8
			c0.2-0.2,0.5-0.3,0.8-0.2c0.3,0.1,0.6,0.1,0.9,0.1c0.3,0,0.6,0.2,0.7,0.6l0.9,2.8c0.1,0.4-0.1,0.9-0.6,1
			C126.5,114.5,126.4,114.5,126.3,114.6"/>
		<path class="st1" d="M126.3,113.8l-0.9-2.8h0.7l0.8,2.8H126.3"/>
		<path class="st1" d="M126.6,114.6h-0.3c-0.3,0-0.6-0.2-0.7-0.6l-0.9-2.8c-0.1-0.2,0-0.5,0.1-0.7c0.1-0.2,0.4-0.3,0.7-0.3
			c0.2,0,0.4,0,0.6,0c0.4,0,0.7,0.2,0.8,0.6l0.9,2.8c0.1,0.2,0,0.5-0.1,0.7c-0.1,0.2-0.4,0.3-0.6,0.3
			C126.9,114.6,126.7,114.6,126.6,114.6"/>
		<path class="st1" d="M127,113.8l-0.9-2.8h0.4l0.9,2.8L127,113.8"/>
		<path class="st1" d="M127,114.6c-0.3,0-0.7-0.2-0.8-0.6l-0.9-2.8c-0.1-0.4,0.2-0.9,0.6-1c0,0,0.1,0,0.1,0h0.4
			c0.4,0,0.8,0.2,0.9,0.6l0.9,2.8c0.1,0.2,0,0.5-0.1,0.7c-0.1,0.2-0.3,0.3-0.6,0.4L127,114.6L127,114.6"/>
		<path class="st1" d="M127.4,113.7l-0.9-2.8c0.1,0,0.2,0,0.4-0.1l0.9,2.8C127.7,113.7,127.6,113.7,127.4,113.7"/>
		<path class="st1" d="M127.4,114.5c-0.4,0-0.7-0.2-0.8-0.6l-0.9-2.8c-0.1-0.2,0-0.5,0.1-0.7c0.1-0.2,0.3-0.3,0.6-0.4l0.3-0.1
			c0.4-0.1,0.8,0.2,0.9,0.6l0.9,2.8c0.1,0.2,0,0.4-0.1,0.6c-0.1,0.2-0.3,0.3-0.5,0.4l-0.4,0.1L127.4,114.5"/>
		<path class="st1" d="M127.8,113.7l-0.9-2.8l0.3-0.1l0.9,2.8L127.8,113.7"/>
		<path class="st1" d="M127.8,114.5c-0.3,0-0.7-0.2-0.8-0.6l-0.9-2.8c-0.1-0.2,0-0.4,0.1-0.6c0.1-0.2,0.3-0.3,0.5-0.4l0.3-0.1
			c0.4-0.1,0.9,0.1,1,0.5c0,0,0,0,0,0l0.9,2.8c0.1,0.2,0,0.4-0.1,0.6c-0.1,0.2-0.3,0.3-0.5,0.4l-0.4,0.1L127.8,114.5"/>
		<path class="st1" d="M128.1,113.6l-0.9-2.8l0.3-0.1l0.9,2.8L128.1,113.6"/>
		<path class="st1" d="M128.1,114.4c-0.4,0-0.7-0.2-0.8-0.6l-0.9-2.8c-0.1-0.2,0-0.4,0.1-0.6c0.1-0.2,0.3-0.3,0.5-0.4l0.3-0.1
			c0.4-0.1,0.9,0.1,1,0.5c0,0,0,0,0,0l0.9,2.8c0.1,0.4-0.1,0.9-0.5,1c0,0,0,0,0,0l-0.3,0.1L128.1,114.4"/>
		<path class="st1" d="M128.4,113.5l-0.9-2.8l0.3-0.1l0.9,2.8L128.4,113.5"/>
		<path class="st1" d="M128.4,114.3c-0.3,0-0.7-0.2-0.8-0.6l-0.9-2.8c-0.1-0.4,0.1-0.9,0.5-1c0,0,0,0,0,0l0.2-0.1
			c0.2-0.1,0.4-0.1,0.6,0c0.2,0.1,0.3,0.3,0.4,0.5l0.9,2.8c0.1,0.4-0.1,0.9-0.5,1l-0.3,0.1C128.6,114.3,128.5,114.3,128.4,114.3"/>
		<path class="st1" d="M128.7,113.4l-0.9-2.8l0.3-0.1l0.9,2.8L128.7,113.4"/>
		<path class="st1" d="M128.7,114.2c-0.1,0-0.3,0-0.4-0.1c-0.2-0.1-0.3-0.3-0.4-0.5l-0.8-2.8c-0.1-0.4,0.1-0.9,0.5-1l0.2-0.1
			c0.2-0.1,0.4-0.1,0.6,0c0.2,0.1,0.4,0.3,0.4,0.5l0.9,2.8c0.1,0.4-0.1,0.8-0.5,1l-0.3,0.1C128.9,114.2,128.8,114.2,128.7,114.2"/>
		<path class="st1" d="M128.9,113.3l-0.9-2.8l0.2-0.1l0.9,2.8L128.9,113.3"/>
		<path class="st1" d="M128.9,114.1c-0.1,0-0.2,0-0.4-0.1c-0.2-0.1-0.3-0.3-0.4-0.5l-0.9-2.8c-0.1-0.4,0.1-0.8,0.5-1l0.2-0.1
			c0.2-0.1,0.4-0.1,0.6,0c0.2,0.1,0.4,0.3,0.4,0.5l0.9,2.8c0.1,0.4,0,0.8-0.4,1l-0.3,0.1C129.1,114.1,129,114.1,128.9,114.1"/>
		<path class="st1" d="M129.2,113.2l-0.9-2.8l0.2-0.1l0.9,2.8L129.2,113.2"/>
		<path class="st1" d="M129.2,114c-0.1,0-0.2,0-0.3-0.1c-0.2-0.1-0.4-0.3-0.4-0.5l-0.9-2.8c-0.1-0.4,0.1-0.8,0.4-1l0.2-0.1
			c0.2-0.1,0.5-0.1,0.7,0c0.2,0.1,0.4,0.3,0.4,0.5l0.9,2.8c0.1,0.4,0,0.8-0.4,1l-0.3,0.1C129.4,114,129.3,114,129.2,114"/>
		<path class="st1" d="M129.4,113.1l-0.9-2.8c0.1,0,0.1-0.1,0.2-0.1l0.9,2.8L129.4,113.1"/>
		<path class="st1" d="M129.4,113.9c-0.1,0-0.2,0-0.3-0.1c-0.2-0.1-0.4-0.3-0.4-0.5l-0.9-2.8c-0.1-0.4,0.1-0.8,0.4-0.9l0.2-0.1
			c0.2-0.1,0.5-0.1,0.7,0c0.2,0.1,0.4,0.3,0.4,0.5l0.9,2.8c0.1,0.4-0.1,0.8-0.4,0.9l-0.3,0.1C129.7,113.9,129.5,114,129.4,113.9"/>
		<path class="st1" d="M129.6,113l-0.9-2.8l0.2-0.1l0.9,2.8L129.6,113"/>
		<path class="st1" d="M129.6,113.8c-0.1,0-0.2,0-0.3-0.1c-0.2-0.1-0.4-0.3-0.4-0.5l-0.9-2.8c-0.1-0.4,0.1-0.8,0.4-0.9l0.2-0.1
			c0.2-0.1,0.5-0.1,0.7,0c0.2,0.1,0.4,0.3,0.5,0.5l0.9,2.8c0.1,0.4-0.1,0.7-0.4,0.9l-0.2,0.1C129.9,113.8,129.8,113.9,129.6,113.8"
			/>
		<path class="st1" d="M129.9,112.9l-0.9-2.8l0.2-0.1l0.9,2.8L129.9,112.9"/>
		<path class="st1" d="M129.9,113.7c-0.1,0-0.2,0-0.3,0c-0.2-0.1-0.4-0.3-0.5-0.5l-0.9-2.8c-0.1-0.4,0.1-0.7,0.4-0.9l0.2-0.1
			c0.2-0.1,0.5-0.2,0.7-0.1c0.2,0.1,0.4,0.3,0.5,0.5l0.9,2.8c0.1,0.3,0,0.7-0.3,0.9l-0.3,0.2C130.1,113.7,130,113.7,129.9,113.7"/>
		<path class="st1" d="M130.1,112.8l-0.9-2.8l0.2-0.1l0.9,2.8L130.1,112.8"/>
		<path class="st1" d="M130.1,113.6c-0.1,0-0.2,0-0.3,0c-0.2-0.1-0.4-0.3-0.5-0.5l-0.9-2.8c-0.1-0.3,0-0.7,0.3-0.9l0.2-0.1
			c0.2-0.1,0.5-0.2,0.7-0.1c0.2,0.1,0.4,0.3,0.5,0.5l0.9,2.8c0.1,0.3,0,0.7-0.3,0.9l-0.3,0.2C130.4,113.6,130.2,113.6,130.1,113.6"
			/>
		<path class="st1" d="M130.3,112.6l-0.9-2.8l0.2-0.2l0.9,2.8C130.5,112.5,130.4,112.6,130.3,112.6"/>
		<path class="st1" d="M130.3,113.4c-0.1,0-0.2,0-0.3,0c-0.2-0.1-0.4-0.3-0.5-0.5l-0.9-2.8c-0.1-0.3,0-0.7,0.3-0.9l0.2-0.1
			c0.2-0.2,0.5-0.2,0.7-0.1c0.2,0.1,0.4,0.3,0.5,0.5l0.9,2.8c0.1,0.3,0,0.7-0.3,0.9l-0.3,0.2C130.6,113.4,130.5,113.5,130.3,113.4"
			/>
		<path class="st1" d="M130.5,112.5l-0.9-2.8l0.2-0.2l0.9,2.8L130.5,112.5"/>
		<path class="st1" d="M130.5,113.3c-0.1,0-0.2,0-0.3,0c-0.2-0.1-0.4-0.3-0.5-0.5l-0.9-2.8c-0.1-0.3,0-0.7,0.3-0.9l0.2-0.2
			c0.2-0.2,0.5-0.2,0.7-0.1c0.3,0.1,0.5,0.3,0.5,0.5l0.9,2.8c0.1,0.3,0,0.6-0.3,0.8l-0.3,0.2C130.9,113.2,130.7,113.3,130.5,113.3"
			/>
		<path class="st1" d="M130.8,112.3l-0.9-2.8l0.2-0.2l0,0l0.9,2.8l0,0C130.9,112.2,130.8,112.2,130.8,112.3"/>
		<path class="st1" d="M130.8,113.1c-0.1,0-0.1,0-0.2,0c-0.3-0.1-0.5-0.3-0.5-0.5l-0.9-2.8c-0.1-0.3,0-0.6,0.3-0.8l0.2-0.2
			c0.2-0.2,0.4-0.3,0.7-0.3c0.3,0.1,0.5,0.3,0.6,0.6l0.9,2.8c0.1,0.3,0,0.7-0.3,0.9c-0.1,0.1-0.1,0.1-0.2,0.2
			C131.1,113,130.9,113.1,130.8,113.1"/>
		<path class="st1" d="M131,112.1l-0.9-2.8l0.3-0.3l0.9,2.8C131.2,111.9,131.1,112,131,112.1"/>
		<path class="st1" d="M131,112.9c-0.1,0-0.1,0-0.2,0c-0.3-0.1-0.5-0.3-0.6-0.5l-0.9-2.8c-0.1-0.3,0-0.6,0.2-0.8
			c0.1-0.1,0.1-0.1,0.2-0.2c0.2-0.2,0.5-0.3,0.8-0.2c0.3,0.1,0.5,0.3,0.6,0.6l0.9,2.8c0.1,0.3,0,0.6-0.2,0.8
			c-0.1,0.1-0.2,0.2-0.3,0.3C131.4,112.8,131.2,112.9,131,112.9"/>
		<path class="st1" d="M131.2,111.8l-0.9-2.8c0.1-0.1,0.2-0.2,0.3-0.3l0.9,2.8L131.2,111.8"/>
		<path class="st1" d="M131.2,112.6c-0.1,0-0.1,0-0.2,0c-0.3-0.1-0.5-0.3-0.6-0.5l-0.9-2.8c-0.1-0.3,0-0.6,0.2-0.8
			c0.1-0.1,0.2-0.2,0.2-0.3c0.2-0.2,0.5-0.4,0.8-0.3c0.3,0.1,0.5,0.3,0.6,0.6l0.9,2.8c0.1,0.2,0,0.5-0.1,0.7l-0.3,0.4
			C131.7,112.6,131.5,112.6,131.2,112.6"/>
		<path class="st1" d="M131.5,111.5l-0.9-2.8c0.7-0.8,0.9-1.9,0.7-2.9l0.9,2.8C132.5,109.6,132.2,110.7,131.5,111.5"/>
		<path class="st1" d="M131.5,112.3c0,0-0.1,0-0.1,0c-0.3-0.1-0.5-0.3-0.6-0.6l-0.9-2.8c-0.1-0.2,0-0.5,0.1-0.7
			c0.5-0.6,0.7-1.4,0.6-2.2l0,0c-0.1-0.4,0.1-0.9,0.5-1c0,0,0,0,0,0c0.4-0.1,0.9,0.1,1,0.5c0,0,0,0,0,0l0,0l0.9,2.8
			c0.3,1.3,0,2.6-0.8,3.6C132,112.2,131.8,112.3,131.5,112.3"/>
	</g>
</g>
<path class="st1" d="M145.8,90l-0.9-2.8c0.2,0.7,0.7,1.3,1.4,1.7l0.9,2.8C146.5,91.3,146,90.7,145.8,90"/>
<g>
	<defs>
		<path id="SVGID_9_" d="M145.8,90c0.2,0.7,0.7,1.3,1.4,1.7l-0.9-2.8c-0.7-0.4-1.2-1-1.4-1.7L145.8,90z"/>
	</defs>
	<clipPath id="SVGID_10_">
		<use xlink:href="#SVGID_9_"  style="overflow:visible;"/>
	</clipPath>
	<g class="st6">
		<path class="st1" d="M145.8,90l-0.9-2.8v0.1L145.8,90C145.8,90,145.8,90,145.8,90"/>
		<path class="st1" d="M145.8,90.9c-0.3,0-0.6-0.2-0.8-0.5c0,0,0-0.1,0-0.1l-0.9-2.8c-0.1-0.4,0.1-0.9,0.5-1c0.4-0.1,0.9,0.1,1,0.5
			l0,0l0,0l0.9,2.9c0.1,0.4-0.1,0.9-0.5,1C146,90.8,145.9,90.8,145.8,90.9"/>
		<path class="st1" d="M145.8,90.1l-0.9-2.8c0,0.1,0,0.1,0.1,0.2l0.9,2.8C145.8,90.2,145.8,90.2,145.8,90.1"/>
		<path class="st1" d="M145.9,91.1c-0.3,0-0.6-0.2-0.7-0.5l-0.1-0.2l0,0l-0.9-2.8c-0.2-0.4,0.1-0.9,0.5-1c0.4-0.2,0.9,0.1,1,0.5
			l0.1,0.2l0.9,2.8c0.1,0.4-0.1,0.9-0.5,1C146.1,91,146,91,145.9,91.1"/>
		<path class="st1" d="M145.9,90.3l-0.9-2.8l0.1,0.2l0.9,2.8L145.9,90.3"/>
		<path class="st1" d="M146,91.2c-0.3,0-0.6-0.2-0.7-0.4l-0.1-0.2v-0.1l-0.9-2.8c-0.2-0.4,0.1-0.9,0.5-1s0.9,0.1,1,0.5
			c0,0.1,0.1,0.2,0.1,0.3l0.9,2.8c0.1,0.4-0.1,0.8-0.5,1C146.2,91.3,146.1,91.3,146,91.2"/>
		<path class="st1" d="M146,90.4l-0.9-2.8l0.1,0.2l0.9,2.8L146,90.4"/>
		<path class="st1" d="M146.1,91.4c-0.3,0-0.5-0.1-0.7-0.4l-0.1-0.2c0,0,0-0.1-0.1-0.1l-0.9-2.8c-0.1-0.4,0.1-0.8,0.4-1
			c0.4-0.1,0.8,0,1,0.4l0.1,0.3l0.9,2.8c0.1,0.4-0.1,0.8-0.4,1C146.3,91.4,146.2,91.4,146.1,91.4"/>
		<path class="st1" d="M146.1,90.6l-0.9-2.8l0.1,0.2l0.9,2.8C146.1,90.7,146.1,90.7,146.1,90.6"/>
		<path class="st1" d="M146.2,91.6c-0.3,0-0.5-0.1-0.6-0.3c-0.1-0.1-0.1-0.1-0.1-0.2c0-0.1-0.1-0.1-0.1-0.2l-0.9-2.8
			c-0.1-0.4,0-0.8,0.4-1c0.4-0.2,0.8,0,1,0.3c0.1,0.1,0.1,0.2,0.2,0.3l0.9,2.8c0.1,0.4-0.1,0.8-0.4,0.9
			C146.4,91.5,146.3,91.5,146.2,91.6"/>
		<path class="st1" d="M146.2,90.8l-0.9-2.8l0.1,0.2l0.9,2.8L146.2,90.8"/>
		<path class="st1" d="M146.3,91.7c-0.2,0-0.5-0.1-0.6-0.3c-0.1-0.1-0.1-0.1-0.2-0.2c-0.1-0.1-0.1-0.1-0.1-0.2l-0.9-2.8
			c-0.1-0.4,0.1-0.9,0.6-1c0.3-0.1,0.6,0,0.8,0.3c0.1,0.1,0.2,0.2,0.2,0.4l0.8,2.8c0.1,0.4-0.1,0.8-0.4,0.9
			C146.5,91.7,146.4,91.7,146.3,91.7"/>
		<path class="st1" d="M146.3,90.9l-0.9-2.8l0.1,0.1l0.9,2.8L146.3,90.9"/>
		<path class="st1" d="M146.4,91.9c-0.2,0-0.4-0.1-0.6-0.3l-0.2-0.2c-0.1-0.1-0.1-0.2-0.1-0.3l-0.9-2.8c-0.1-0.4,0.1-0.8,0.4-0.9
			c0.3-0.2,0.8-0.1,1,0.2c0.1,0.1,0.2,0.3,0.3,0.4l0.9,2.8c0.1,0.4,0,0.7-0.4,0.9C146.7,91.8,146.6,91.9,146.4,91.9"/>
		<path class="st1" d="M146.4,91.1l-0.9-2.8l0.1,0.2l0.9,2.8C146.5,91.2,146.4,91.1,146.4,91.1"/>
		<path class="st1" d="M146.6,92c-0.2,0-0.4-0.1-0.5-0.2l-0.2-0.2c-0.1-0.1-0.1-0.2-0.2-0.3l-0.9-2.8c-0.1-0.4,0-0.7,0.4-0.9
			c0.3-0.2,0.8-0.2,1,0.1c0.1,0.1,0.3,0.3,0.3,0.5l0.9,2.8c0.1,0.3,0,0.7-0.3,0.9C146.9,92,146.7,92,146.6,92"/>
		<path class="st1" d="M146.6,91.2l-0.9-2.8l0.2,0.1l0.9,2.8L146.6,91.2"/>
		<path class="st1" d="M146.7,92.2c-0.2,0-0.4-0.1-0.5-0.2l-0.2-0.2c-0.1-0.1-0.2-0.2-0.2-0.3l-0.9-2.8c-0.1-0.4,0.1-0.9,0.5-1
			c0.3-0.1,0.6,0,0.8,0.2c0.2,0.1,0.3,0.3,0.4,0.5l0.9,2.8c0.1,0.3,0,0.7-0.3,0.9C147,92.1,146.9,92.2,146.7,92.2"/>
		<path class="st1" d="M146.7,91.4l-0.9-2.8c0.1,0.1,0.1,0.1,0.2,0.1l0.9,2.8C146.8,91.5,146.8,91.4,146.7,91.4"/>
		<path class="st1" d="M146.9,92.3c-0.2,0-0.3,0-0.4-0.1l-0.2-0.2c-0.1-0.1-0.2-0.2-0.3-0.4l-0.9-2.8c-0.1-0.3,0-0.7,0.3-0.9
			c0.3-0.2,0.7-0.2,1,0c0.2,0.1,0.3,0.3,0.4,0.5l0.9,2.8c0.1,0.3,0,0.7-0.3,0.9C147.3,92.2,147.1,92.3,146.9,92.3"/>
		<path class="st1" d="M146.9,91.5l-0.9-2.8l0.2,0.2l0.9,2.8L146.9,91.5"/>
		<path class="st1" d="M147.1,92.4c-0.1,0-0.3,0-0.4-0.1l-0.3-0.2c-0.1-0.1-0.2-0.3-0.3-0.4l-0.9-2.8c-0.1-0.3,0-0.7,0.3-0.9
			c0.3-0.2,0.6-0.2,0.9,0l0.2,0.1c0.2,0.1,0.3,0.3,0.4,0.4l0.9,2.8c0.1,0.3,0,0.7-0.3,0.9C147.5,92.4,147.3,92.5,147.1,92.4"/>
		<path class="st1" d="M147.1,91.7l-0.9-2.8l0,0L147.1,91.7L147.1,91.7"/>
		<path class="st1" d="M147.2,92.5c-0.1,0-0.3,0-0.4-0.1c-0.2-0.1-0.3-0.3-0.4-0.5l-0.9-2.8c-0.1-0.3,0-0.7,0.3-0.9
			c0.3-0.2,0.6-0.2,0.9-0.1c0.2,0.1,0.3,0.3,0.4,0.5l0.9,2.8c0.1,0.4-0.1,0.9-0.6,1C147.3,92.4,147.2,92.4,147.2,92.5"/>
	</g>
</g>
<path class="st1" d="M154.4,84.3l0.9,2.8c0.3,1.3-0.2,2.7-1.2,3.5c-1.9,1.7-4.6,2.1-6.9,1.1l-0.9-2.8c2.3,1.1,5,0.6,6.9-1.1
	C154.2,87,154.7,85.6,154.4,84.3"/>
<g>
	<defs>
		<path id="SVGID_11_" d="M153.2,87.8c-1.8,1.7-4.9,2.2-6.9,1.1l0.9,2.8c1.9,1.1,5,0.6,6.9-1.1c1-0.8,1.5-2.2,1.2-3.5l-0.9-2.8
			C154.7,85.6,154.2,87,153.2,87.8"/>
	</defs>
	<clipPath id="SVGID_12_">
		<use xlink:href="#SVGID_11_"  style="overflow:visible;"/>
	</clipPath>
	<g class="st7">
		<path class="st1" d="M147.2,91.7l-0.9-2.8c0.1,0,0.1,0.1,0.2,0.1l0.9,2.8C147.3,91.8,147.2,91.7,147.2,91.7"/>
		<path class="st1" d="M147.4,92.6c-0.1,0-0.2,0-0.4-0.1l-0.3-0.2c-0.2-0.1-0.3-0.3-0.4-0.4l-0.9-2.8c-0.1-0.3,0-0.6,0.3-0.8
			c0.3-0.2,0.6-0.2,0.9-0.1l0.2,0.1c0.2,0.1,0.3,0.3,0.4,0.5l0.9,2.8c0.1,0.3,0,0.6-0.3,0.8C147.8,92.5,147.6,92.6,147.4,92.6"/>
		<path class="st1" d="M147.4,91.8l-0.9-2.8l0.4,0.2l0.9,2.8L147.4,91.8"/>
		<path class="st1" d="M147.8,92.8c-0.1,0-0.2,0-0.3,0l-0.4-0.2c-0.2-0.1-0.3-0.3-0.4-0.5l-0.9-2.8c-0.1-0.3,0-0.6,0.3-0.8
			c0.2-0.2,0.6-0.2,0.9-0.1l0.3,0.1c0.2,0.1,0.4,0.3,0.5,0.5l0.9,2.8c0.1,0.3,0,0.6-0.2,0.8C148.1,92.7,148,92.8,147.8,92.8"/>
		<path class="st1" d="M147.8,92l-0.9-2.8c0.2,0.1,0.4,0.1,0.6,0.2l0.9,2.8C148.2,92.1,147.9,92.1,147.8,92"/>
		<path class="st1" d="M148.4,92.9h-0.2c-0.2-0.1-0.5-0.1-0.7-0.2c-0.2-0.1-0.4-0.3-0.5-0.5l-0.9-2.8c-0.1-0.3,0-0.6,0.2-0.8
			c0.2-0.2,0.5-0.3,0.8-0.2c0.2,0.1,0.3,0.1,0.5,0.2c0.3,0.1,0.5,0.3,0.6,0.6l0.9,2.8c0.1,0.3,0,0.6-0.2,0.8
			C148.8,92.9,148.6,93,148.4,92.9"/>
		<path class="st1" d="M148.4,92.1l-0.9-2.8c0.3,0.1,0.7,0.1,1,0.1l0.9,2.8C149,92.3,148.7,92.2,148.4,92.1"/>
		<path class="st1" d="M149.4,93.1L149.4,93.1c-0.4,0-0.8-0.1-1.2-0.2c-0.3-0.1-0.5-0.3-0.6-0.5l-0.9-2.8c-0.1-0.3,0-0.6,0.2-0.8
			c0.2-0.2,0.5-0.3,0.8-0.2c0.3,0.1,0.6,0.1,0.9,0.1c0.3,0,0.6,0.2,0.7,0.6l0.9,2.8c0.1,0.3,0,0.5-0.1,0.7
			C149.9,93,149.7,93.1,149.4,93.1"/>
		<path class="st1" d="M149.4,92.3l-0.9-2.8h0.7l0.9,2.8H149.4"/>
		<path class="st1" d="M149.6,93.1h-0.3c-0.3,0-0.6-0.2-0.7-0.6l-0.9-2.8c-0.1-0.2,0-0.5,0.1-0.7c0.2-0.2,0.4-0.3,0.7-0.3
			c0.2,0,0.4,0,0.6,0c0.4,0,0.7,0.2,0.8,0.6l0.9,2.8c0.1,0.2,0,0.5-0.1,0.7c-0.1,0.2-0.4,0.3-0.6,0.3L149.6,93.1"/>
		<path class="st1" d="M150.1,92.3l-0.9-2.8h0.4l0.9,2.8L150.1,92.3"/>
		<path class="st1" d="M150.1,93.1c-0.4,0-0.7-0.2-0.8-0.6l-0.9-2.8c-0.1-0.4,0.1-0.9,0.5-1c0.1,0,0.1,0,0.2,0h0.4
			c0.4-0.1,0.8,0.2,0.9,0.6l0.9,2.8c0.1,0.2,0,0.5-0.1,0.7c-0.1,0.2-0.3,0.3-0.6,0.4L150.1,93.1L150.1,93.1z"/>
		<path class="st1" d="M150.5,92.2l-0.9-2.8c0.1,0,0.2,0,0.4-0.1l0.9,2.8C150.8,92.2,150.6,92.2,150.5,92.2"/>
		<path class="st1" d="M150.5,93c-0.4,0-0.7-0.2-0.8-0.6l-0.9-2.8c-0.1-0.2,0-0.4,0.1-0.6c0.1-0.2,0.3-0.3,0.6-0.4h0.3
			c0.4-0.1,0.8,0.2,0.9,0.6l0.9,2.8c0.1,0.2,0,0.4-0.1,0.6c-0.1,0.2-0.3,0.3-0.5,0.4l-0.4,0.1L150.5,93"/>
		<path class="st1" d="M150.9,92.2l-0.9-2.8l0.3-0.1l0.9,2.8L150.9,92.2"/>
		<path class="st1" d="M150.9,93c-0.3,0-0.7-0.2-0.8-0.6l-0.9-2.8c-0.1-0.2,0-0.4,0.1-0.6c0.1-0.2,0.3-0.3,0.5-0.4l0.3-0.1
			c0.4-0.1,0.8,0.1,0.9,0.5l0.9,2.8c0.1,0.2,0,0.4-0.1,0.6c-0.1,0.2-0.3,0.3-0.5,0.4L151,93C151,93,150.9,93,150.9,93"/>
		<path class="st1" d="M151.2,92.1l-0.9-2.8l0.3-0.1l0.9,2.8L151.2,92.1"/>
		<path class="st1" d="M151.2,92.9c-0.4,0-0.7-0.2-0.8-0.6l-0.9-2.8c-0.1-0.2,0-0.4,0.1-0.6c0.1-0.2,0.3-0.3,0.5-0.4l0.3-0.1
			c0.4-0.1,0.9,0.1,1,0.5c0,0,0,0,0,0l0.9,2.8c0.1,0.2,0,0.4-0.1,0.6c-0.1,0.2-0.3,0.3-0.5,0.4l-0.3,0.1L151.2,92.9"/>
		<path class="st1" d="M151.5,92l-0.9-2.8l0.3-0.1l0.9,2.8L151.5,92"/>
		<path class="st1" d="M151.5,92.8c-0.4,0-0.7-0.2-0.8-0.6l-0.9-2.8c-0.1-0.2,0-0.4,0.1-0.6c0.1-0.2,0.3-0.3,0.5-0.4l0.2-0.1
			c0.2-0.1,0.4-0.1,0.6,0c0.2,0.1,0.3,0.3,0.4,0.5l0.9,2.8c0.1,0.4-0.1,0.9-0.5,1c0,0,0,0,0,0l-0.3,0.1
			C151.6,92.8,151.6,92.8,151.5,92.8"/>
		<path class="st1" d="M151.8,91.9l-0.9-2.8l0.2-0.1l0.9,2.8L151.8,91.9"/>
		<path class="st1" d="M151.8,92.7c-0.1,0-0.3,0-0.4-0.1c-0.2-0.1-0.3-0.3-0.4-0.5l-0.9-2.8c-0.1-0.4,0.1-0.9,0.5-1c0,0,0,0,0,0
			l0.2-0.1c0.2-0.1,0.4-0.1,0.6,0c0.2,0.1,0.4,0.3,0.4,0.5l0.9,2.8c0.1,0.4-0.1,0.9-0.5,1l-0.3,0.1L151.8,92.7"/>
		<path class="st1" d="M152,91.8l-0.9-2.8l0.2-0.1l0.9,2.8L152,91.8"/>
		<path class="st1" d="M152,92.6c-0.1,0-0.2,0-0.4-0.1c-0.2-0.1-0.4-0.3-0.4-0.5l-0.9-2.8c-0.1-0.4,0.1-0.9,0.5-1c0,0,0,0,0,0
			l0.2-0.1c0.4-0.2,0.8,0,1,0.4c0,0,0,0.1,0,0.1l0.9,2.8c0.1,0.4-0.1,0.8-0.4,1l-0.3,0.1C152.2,92.6,152.1,92.6,152,92.6"/>
		<path class="st1" d="M152.3,91.7l-0.9-2.8l0.2-0.1l0.9,2.8L152.3,91.7"/>
		<path class="st1" d="M152.3,92.5c-0.1,0-0.2,0-0.3-0.1c-0.2-0.1-0.4-0.3-0.4-0.5l-0.9-2.8c-0.1-0.4,0.1-0.8,0.4-1l0.2-0.1
			c0.2-0.1,0.5-0.1,0.7,0c0.2,0.1,0.4,0.3,0.4,0.5l0.9,2.8c0.1,0.4,0,0.8-0.4,1l-0.3,0.1C152.5,92.5,152.4,92.5,152.3,92.5"/>
		<path class="st1" d="M152.5,91.6l-0.9-2.8l0.2-0.1l0.9,2.8L152.5,91.6"/>
		<path class="st1" d="M152.5,92.4c-0.1,0-0.2,0-0.3-0.1c-0.2-0.1-0.4-0.3-0.4-0.5l-0.9-2.8c-0.1-0.4,0.1-0.8,0.4-0.9l0.2-0.1
			c0.2-0.1,0.5-0.1,0.7,0c0.2,0.1,0.4,0.3,0.5,0.5l0.9,2.8c0.1,0.4-0.1,0.8-0.4,0.9l-0.3,0.1C152.7,92.4,152.6,92.4,152.5,92.4"/>
		<path class="st1" d="M152.7,91.5l-0.9-2.8l0.2-0.1l0.9,2.8L152.7,91.5"/>
		<path class="st1" d="M152.7,92.3c-0.1,0-0.2,0-0.3-0.1c-0.2-0.1-0.4-0.3-0.5-0.5l-0.8-2.8c-0.1-0.4,0.1-0.8,0.4-0.9l0.2-0.1
			c0.2-0.1,0.5-0.1,0.7,0c0.2,0.1,0.4,0.3,0.5,0.5l0.9,2.8c0.1,0.4,0,0.7-0.4,0.9l-0.3,0.1C153,92.4,152.8,92.4,152.7,92.3"/>
		<path class="st1" d="M152.9,91.4l-0.9-2.8l0.2-0.1l0.9,2.8L152.9,91.4"/>
		<path class="st1" d="M152.9,92.2c-0.1,0-0.2,0-0.3-0.1c-0.2-0.1-0.4-0.3-0.5-0.5l-0.9-2.8c-0.1-0.4,0-0.7,0.4-0.9l0.2-0.1
			c0.4-0.2,0.9-0.1,1.1,0.3c0,0.1,0.1,0.1,0.1,0.2l0.9,2.8c0.1,0.3,0,0.7-0.3,0.9l-0.3,0.2C153.2,92.2,153.1,92.2,152.9,92.2"/>
		<path class="st1" d="M153.2,91.3l-0.9-2.8c0.1,0,0.1-0.1,0.2-0.2l0.9,2.8C153.3,91.2,153.2,91.2,153.2,91.3"/>
		<path class="st1" d="M153.2,92.1c-0.1,0-0.2,0-0.3-0.1c-0.2-0.1-0.4-0.3-0.5-0.5l-0.9-2.8c-0.1-0.3,0-0.7,0.3-0.9l0.2-0.1
			c0.4-0.3,0.8-0.2,1.1,0.2c0,0.1,0.1,0.1,0.1,0.2l0.9,2.8c0.1,0.3,0,0.7-0.3,0.9l-0.3,0.2C153.4,92,153.3,92.1,153.2,92.1"/>
		<path class="st1" d="M153.4,91.1l-0.9-2.8l0.2-0.2l0.9,2.8L153.4,91.1"/>
		<path class="st1" d="M153.4,91.9c-0.1,0-0.2,0-0.3,0c-0.2-0.1-0.4-0.3-0.5-0.5l-0.9-2.8c-0.1-0.3,0-0.7,0.3-0.9l0.2-0.1
			c0.2-0.2,0.5-0.2,0.7-0.1c0.3,0.1,0.4,0.3,0.5,0.5l0.9,2.8c0.1,0.3,0,0.7-0.3,0.9l-0.3,0.2C153.7,91.9,153.5,92,153.4,91.9"/>
		<path class="st1" d="M153.6,91l-0.9-2.8L153,88l0.9,2.8C153.8,90.9,153.7,90.9,153.6,91"/>
		<path class="st1" d="M153.6,91.8c-0.1,0-0.2,0-0.2,0c-0.2-0.1-0.4-0.3-0.5-0.5l-0.8-2.8c-0.1-0.3,0-0.7,0.3-0.9l0.2-0.2
			c0.2-0.2,0.5-0.2,0.7-0.2c0.3,0.1,0.5,0.3,0.5,0.5l0.9,2.8c0.1,0.3,0,0.6-0.3,0.8l-0.3,0.2C154,91.7,153.8,91.8,153.6,91.8"/>
		<path class="st1" d="M153.8,90.8L153,88l0.2-0.2l0,0l0.9,2.8l0,0L153.8,90.8"/>
		<path class="st1" d="M153.8,91.6c-0.1,0-0.1,0-0.2,0c-0.3-0.1-0.5-0.3-0.5-0.5l-0.9-2.8c-0.1-0.3,0-0.6,0.3-0.8l0.2-0.2
			c0.2-0.2,0.5-0.2,0.8-0.2c0.3,0.1,0.5,0.2,0.6,0.5l0.9,2.8c0.1,0.3,0,0.7-0.3,0.9l-0.2,0.2C154.2,91.5,154,91.6,153.8,91.6"/>
		<path class="st1" d="M154.1,90.6l-0.9-2.8l0.3-0.3l0.9,2.8C154.2,90.4,154.1,90.5,154.1,90.6"/>
		<path class="st1" d="M154.1,91.4h-0.2c-0.3-0.1-0.5-0.3-0.6-0.5l-0.9-2.8c-0.1-0.3,0-0.6,0.2-0.8l0.2-0.2c0.2-0.2,0.5-0.3,0.8-0.2
			c0.3,0.1,0.5,0.3,0.6,0.5l0.9,2.8c0.1,0.3,0,0.6-0.2,0.8c-0.1,0.1-0.2,0.2-0.3,0.3C154.5,91.3,154.3,91.4,154.1,91.4"/>
		<path class="st1" d="M154.3,90.3l-0.9-2.8c0.1-0.1,0.2-0.2,0.3-0.3l0.9,2.8L154.3,90.3"/>
		<path class="st1" d="M154.3,91.1h-0.2c-0.3-0.1-0.5-0.3-0.6-0.6l-0.9-2.8c-0.1-0.3,0-0.6,0.2-0.8c0.1-0.1,0.2-0.2,0.2-0.3
			c0.3-0.3,0.8-0.4,1.1-0.1c0.1,0.1,0.2,0.2,0.3,0.4l0.9,2.8c0.1,0.2,0,0.5-0.1,0.7c-0.1,0.1-0.2,0.3-0.3,0.4
			C154.7,91.1,154.5,91.2,154.3,91.1"/>
		<path class="st1" d="M154.6,90l-0.9-2.8c0.7-0.8,0.9-1.9,0.7-2.9l0.9,2.8C155.5,88.1,155.3,89.2,154.6,90"/>
		<path class="st1" d="M154.6,90.8h-0.1c-0.3-0.1-0.5-0.3-0.6-0.6l-0.9-2.8c-0.1-0.2,0-0.5,0.1-0.7c0.5-0.6,0.7-1.4,0.6-2.2l0,0
			c-0.1-0.4,0.1-0.9,0.5-1c0,0,0,0,0,0c0.4-0.1,0.9,0.1,1,0.5l0.9,2.8c0.3,1.3,0,2.6-0.8,3.6C155.1,90.7,154.8,90.8,154.6,90.8"/>
	</g>
</g>
<path class="st1" d="M45,101.5l-0.9-2.8c0.2,0.7,0.7,1.3,1.4,1.7l0.9,2.8C45.7,102.8,45.2,102.2,45,101.5"/>
<g>
	<defs>
		<path id="SVGID_13_" d="M45,101.5c0.2,0.7,0.7,1.3,1.4,1.7l-0.9-2.8c-0.7-0.4-1.2-1-1.4-1.7L45,101.5z"/>
	</defs>
	<clipPath id="SVGID_14_">
		<use xlink:href="#SVGID_13_"  style="overflow:visible;"/>
	</clipPath>
	<g class="st8">
		<path class="st1" d="M45,101.5l-0.9-2.8c0,0,0,0,0,0.1L45,101.5C45,101.5,45,101.5,45,101.5"/>
		<path class="st1" d="M45,102.3c-0.3,0-0.6-0.2-0.8-0.5c0,0,0-0.1,0-0.1l-0.9-2.8c-0.1-0.4,0.1-0.9,0.5-1c0.4-0.1,0.9,0.1,1,0.5
			l0,0l0,0l0.9,2.9c0.1,0.4-0.1,0.9-0.5,1c0,0,0,0,0,0c-0.1,0-0.2,0-0.2,0"/>
		<path class="st1" d="M45,101.5l-0.9-2.8l0.1,0.2l0.9,2.8L45,101.5"/>
		<path class="st1" d="M45.1,102.5c-0.3,0-0.6-0.2-0.7-0.5l-0.1-0.2l0,0L43.4,99c-0.1-0.4,0.2-0.9,0.6-1c0.4-0.1,0.8,0.1,0.9,0.5
			l0.1,0.2l0.9,2.8c0.1,0.4-0.1,0.9-0.5,1C45.3,102.6,45.2,102.6,45.1,102.5"/>
		<path class="st1" d="M45.1,101.7l-0.9-2.8c0,0,0,0.1,0.1,0.2l0.9,2.8C45.1,101.8,45.1,101.8,45.1,101.7"/>
		<path class="st1" d="M45.2,102.7c-0.3,0-0.6-0.2-0.7-0.4c0,0-0.1-0.2-0.1-0.2v-0.1l-0.9-2.8c-0.1-0.4,0.1-0.9,0.5-1
			c0.4-0.1,0.8,0,1,0.4c0,0.1,0.1,0.2,0.1,0.3l0.9,2.8c0.1,0.4-0.1,0.8-0.5,1C45.4,102.7,45.3,102.7,45.2,102.7"/>
		<path class="st1" d="M45.2,101.9l-0.9-2.8c0,0.1,0.1,0.1,0.1,0.2l0.8,2.8C45.2,102.1,45.2,101.9,45.2,101.9"/>
		<path class="st1" d="M45.3,102.8c-0.3,0-0.5-0.1-0.7-0.4c0-0.1-0.1-0.1-0.1-0.2c0,0-0.1-0.1-0.1-0.1l-0.9-2.8
			c-0.1-0.4,0.1-0.8,0.5-1c0.4-0.1,0.8,0,1,0.4l0.1,0.3l0.9,2.8c0.1,0.4-0.1,0.8-0.4,1C45.5,102.8,45.4,102.9,45.3,102.8"/>
		<path class="st1" d="M45.3,102.1l-0.9-2.8l0.1,0.2l0.9,2.8C45.3,102.2,45.3,102.1,45.3,102.1"/>
		<path class="st1" d="M45.4,103c-0.3,0-0.5-0.1-0.7-0.3l-0.1-0.2c0-0.1-0.1-0.1-0.1-0.2l-0.9-2.8c-0.1-0.4,0.1-0.8,0.4-1
			c0.4-0.2,0.8,0,1,0.3c0.1,0.1,0.1,0.2,0.2,0.3l0.9,2.8c0.1,0.4,0,0.8-0.4,1C45.6,103,45.5,103,45.4,103"/>
		<path class="st1" d="M45.4,102.2l-0.9-2.8l0.1,0.2l0.9,2.8L45.4,102.2"/>
		<path class="st1" d="M45.5,103.2c-0.2,0-0.5-0.1-0.6-0.3l-0.2-0.2c0-0.1-0.1-0.1-0.1-0.2l-0.9-2.8c-0.1-0.4,0.1-0.9,0.5-1
			c0.3-0.1,0.7,0,0.9,0.3c0.1,0.1,0.2,0.2,0.2,0.4l0.9,2.8c0.1,0.4-0.1,0.8-0.4,0.9C45.7,103.1,45.6,103.2,45.5,103.2"/>
		<path class="st1" d="M45.5,102.4l-0.9-2.8l0.1,0.1l0.9,2.8C45.6,102.5,45.5,102.4,45.5,102.4"/>
		<path class="st1" d="M45.6,103.3c-0.2,0-0.4-0.1-0.6-0.3l-0.2-0.2c-0.1-0.1-0.1-0.2-0.1-0.3l-0.9-2.8c-0.1-0.4,0.1-0.9,0.5-1
			c0.3-0.1,0.7,0,0.9,0.2c0.1,0.1,0.2,0.3,0.3,0.4l0.9,2.8c0.1,0.4-0.1,0.9-0.6,1C45.7,103.3,45.7,103.3,45.6,103.3"/>
		<path class="st1" d="M45.6,102.5l-0.9-2.8l0.1,0.2l0.9,2.8C45.7,102.6,45.7,102.6,45.6,102.5"/>
		<path class="st1" d="M45.8,103.5c-0.2,0-0.4-0.1-0.5-0.2l-0.2-0.2c-0.1-0.1-0.1-0.2-0.2-0.3L44,99.9c-0.1-0.4,0-0.7,0.4-0.9
			c0.3-0.2,0.7-0.1,1,0.1c0.1,0.1,0.2,0.3,0.3,0.5l0.9,2.8c0.1,0.3,0,0.7-0.3,0.9C46.1,103.4,45.9,103.5,45.8,103.5"/>
		<path class="st1" d="M45.8,102.7l-0.9-2.8l0.2,0.1l0.9,2.8L45.8,102.7"/>
		<path class="st1" d="M45.9,103.6c-0.2,0-0.4-0.1-0.5-0.2l-0.2-0.2c-0.1-0.1-0.2-0.2-0.2-0.3l-0.9-2.8c-0.1-0.3,0-0.7,0.3-0.9
			c0.3-0.2,0.7-0.2,1,0.1c0.2,0.1,0.3,0.3,0.4,0.5l0.9,2.8c0.1,0.3,0,0.7-0.3,0.9C46.3,103.6,46.1,103.6,45.9,103.6"/>
		<path class="st1" d="M45.9,102.8l-0.9-2.8c0.1,0.1,0.1,0.1,0.2,0.1l0.9,2.9C46,103,46,102.9,45.9,102.8"/>
		<path class="st1" d="M46.1,103.7c-0.2,0-0.3,0-0.5-0.2l-0.2-0.2c-0.1-0.1-0.2-0.2-0.3-0.4l-0.9-2.8c-0.1-0.4,0.1-0.9,0.6-1
			c0.2-0.1,0.5,0,0.7,0.1c0.2,0.1,0.3,0.3,0.5,0.5l0.9,2.8c0.1,0.3,0,0.7-0.3,0.9C46.4,103.7,46.3,103.7,46.1,103.7"/>
		<path class="st1" d="M46.1,103l-0.9-2.8l0.2,0.1l0.9,2.8L46.1,103"/>
		<path class="st1" d="M46.3,103.9c-0.1,0-0.3,0-0.4-0.1c-0.1-0.1-0.2-0.1-0.3-0.2c-0.1-0.1-0.3-0.2-0.3-0.4l-0.9-2.8
			c-0.1-0.3,0-0.7,0.3-0.9c0.3-0.2,0.6-0.2,0.9,0l0.2,0.1c0.2,0.1,0.3,0.3,0.3,0.4l0.9,2.8c0.1,0.3,0,0.7-0.3,0.9
			C46.7,103.8,46.5,103.9,46.3,103.9"/>
		<path class="st1" d="M46.3,103.1l-0.9-2.8h0L46.3,103.1L46.3,103.1"/>
		<path class="st1" d="M46.4,103.9c-0.1,0-0.3,0-0.4-0.1c-0.2-0.1-0.3-0.3-0.4-0.5l-0.9-2.8c-0.1-0.3,0-0.7,0.3-0.9
			c0.3-0.2,0.6-0.2,0.9,0c0.2,0.1,0.3,0.3,0.4,0.5l0.9,2.8c0.1,0.3,0,0.7-0.3,0.9C46.7,103.9,46.6,104,46.4,103.9"/>
	</g>
</g>
<path class="st1" d="M53.6,95.7l0.9,2.8c0.3,1.3-0.2,2.7-1.2,3.5c-1.9,1.7-4.6,2.2-6.9,1.1l-0.9-2.8c2.3,1.1,5,0.7,6.9-1.1
	C53.5,98.4,53.9,97,53.6,95.7"/>
<g>
	<defs>
		<path id="SVGID_15_" d="M52.4,99.2c-1.9,1.7-4.6,2.2-6.9,1.1l0.9,2.8c2.3,1.1,5,0.7,6.9-1.1c1-0.8,1.5-2.2,1.2-3.5l-0.8-2.8
			C53.9,97,53.5,98.4,52.4,99.2"/>
	</defs>
	<clipPath id="SVGID_16_">
		<use xlink:href="#SVGID_15_"  style="overflow:visible;"/>
	</clipPath>
	<g class="st9">
		<path class="st1" d="M46.4,103.1l-0.9-2.8c0.1,0,0.1,0.1,0.2,0.1l0.9,2.8L46.4,103.1"/>
		<path class="st1" d="M46.6,104c-0.1,0-0.2,0-0.3-0.1l-0.3-0.2c-0.2-0.1-0.3-0.3-0.4-0.4l-0.9-2.8c-0.1-0.3,0-0.6,0.2-0.8
			c0.3-0.2,0.6-0.2,0.9-0.1l0.2,0.1c0.2,0.1,0.3,0.3,0.4,0.5l0.9,2.8c0.1,0.3,0,0.6-0.3,0.8C47,104,46.8,104,46.6,104"/>
		<path class="st1" d="M46.6,103.3l-0.9-2.8l0.4,0.2l0.9,2.8C46.8,103.4,46.7,103.3,46.6,103.3"/>
		<path class="st1" d="M47,104.2c-0.1,0-0.2,0-0.3,0c-0.1-0.1-0.3-0.1-0.4-0.2c-0.2-0.1-0.3-0.3-0.4-0.5l-0.9-2.8
			c-0.2-0.4,0-0.9,0.5-1c0.2-0.1,0.4-0.1,0.7,0l0.3,0.1c0.2,0.1,0.4,0.3,0.5,0.5l0.9,2.8c0.1,0.3,0,0.6-0.2,0.8
			C47.4,104.1,47.2,104.2,47,104.2"/>
		<path class="st1" d="M47,103.4l-0.9-2.8c0.2,0.1,0.4,0.1,0.6,0.2l0.9,2.8C47.4,103.5,47.2,103.5,47,103.4"/>
		<path class="st1" d="M47.6,104.4c-0.1,0-0.1,0-0.2,0c-0.2-0.1-0.5-0.1-0.7-0.2c-0.2-0.1-0.4-0.3-0.5-0.5l-0.9-2.8
			c-0.1-0.3,0-0.6,0.2-0.8c0.2-0.2,0.5-0.3,0.8-0.2c0.2,0.1,0.3,0.1,0.5,0.2c0.3,0.1,0.5,0.3,0.6,0.5l0.9,2.8c0.1,0.3,0,0.6-0.2,0.8
			C48,104.3,47.8,104.4,47.6,104.4"/>
		<path class="st1" d="M47.6,103.6l-0.9-2.8c0.3,0.1,0.7,0.1,1,0.1l0.9,2.8C48.2,103.7,47.9,103.7,47.6,103.6"/>
		<path class="st1" d="M48.6,104.5L48.6,104.5c-0.4,0-0.8-0.1-1.2-0.2c-0.3-0.1-0.5-0.3-0.6-0.5L46,101c-0.1-0.3,0-0.6,0.2-0.8
			c0.2-0.2,0.5-0.3,0.8-0.2c0.3,0.1,0.6,0.1,0.9,0.1c0.3,0,0.6,0.2,0.7,0.6l0.9,2.8c0.1,0.3,0,0.5-0.1,0.7
			C49.1,104.4,48.9,104.5,48.6,104.5"/>
		<path class="st1" d="M48.6,103.7l-0.9-2.8h0.7l0.9,2.8H48.6"/>
		<path class="st1" d="M48.9,104.5h-0.3c-0.3,0-0.6-0.2-0.7-0.6l-0.9-2.8c-0.1-0.2,0-0.5,0.1-0.7c0.2-0.2,0.4-0.3,0.7-0.3
			c0.2,0,0.4,0,0.6,0c0.4,0,0.7,0.2,0.8,0.6l0.9,2.8c0.1,0.2,0,0.5-0.1,0.7c-0.1,0.2-0.4,0.3-0.6,0.3
			C49.2,104.5,49,104.5,48.9,104.5"/>
		<path class="st1" d="M49.3,103.7l-0.9-2.8h0.5l0.9,2.8L49.3,103.7"/>
		<path class="st1" d="M49.3,104.5c-0.3,0-0.7-0.2-0.8-0.6l-0.9-2.8c-0.1-0.4,0.1-0.9,0.6-1c0,0,0.1,0,0.1,0h0.4
			c0.4,0,0.8,0.2,0.9,0.6l0.9,2.8c0.1,0.2,0,0.5-0.1,0.7c-0.1,0.2-0.3,0.3-0.6,0.4L49.3,104.5L49.3,104.5z"/>
		<path class="st1" d="M49.8,103.7l-0.9-2.8c0.1,0,0.2,0,0.4-0.1l0.9,2.8C50,103.6,49.9,103.7,49.8,103.7"/>
		<path class="st1" d="M49.8,104.5c-0.4,0-0.7-0.2-0.8-0.6l-0.9-2.8c-0.1-0.2,0-0.5,0.1-0.7c0.1-0.2,0.3-0.3,0.6-0.4h0.3
			c0.4-0.1,0.8,0.2,0.9,0.6l0.9,2.8c0.1,0.2,0,0.4-0.1,0.6c-0.1,0.2-0.3,0.3-0.5,0.4l-0.4,0.1L49.8,104.5"/>
		<path class="st1" d="M50.1,103.6l-0.9-2.8l0.3-0.1l0.9,2.8L50.1,103.6"/>
		<path class="st1" d="M50.1,104.4c-0.3,0-0.7-0.2-0.8-0.6l-0.9-2.9c-0.1-0.4,0.1-0.9,0.5-1c0,0,0.1,0,0.1,0l0.3-0.1
			c0.4-0.1,0.9,0.1,1,0.5c0,0,0,0,0,0l0.9,2.8c0.1,0.2,0,0.4-0.1,0.6c-0.1,0.2-0.3,0.3-0.5,0.4l-0.3,0.1
			C50.3,104.4,50.2,104.4,50.1,104.4"/>
		<path class="st1" d="M50.4,103.5l-0.9-2.8l0.3-0.1l0.9,2.8L50.4,103.5"/>
		<path class="st1" d="M50.4,104.3c-0.3,0-0.7-0.2-0.8-0.6l-0.8-2.8c-0.1-0.2,0-0.4,0.1-0.6c0.1-0.2,0.3-0.3,0.5-0.4l0.3-0.1
			c0.4-0.1,0.9,0.1,1,0.5c0,0,0,0,0,0l0.9,2.8c0.1,0.2,0,0.4-0.1,0.6c-0.1,0.2-0.3,0.3-0.5,0.4l-0.3,0.1
			C50.6,104.3,50.5,104.3,50.4,104.3"/>
		<path class="st1" d="M50.7,103.5l-0.9-2.8l0.3-0.1l0.9,2.8L50.7,103.5"/>
		<path class="st1" d="M50.7,104.3c-0.4,0-0.7-0.2-0.8-0.6l-0.8-2.8c-0.1-0.2,0-0.4,0.1-0.6c0.1-0.2,0.3-0.3,0.5-0.4l0.2-0.1
			c0.2-0.1,0.4-0.1,0.6,0.1c0.2,0.1,0.3,0.3,0.4,0.5l0.9,2.8c0.1,0.4-0.1,0.9-0.5,1c0,0,0,0,0,0l-0.3,0.1L50.7,104.3"/>
		<path class="st1" d="M51,103.4l-0.9-2.8l0.3-0.1l0.9,2.8C51.2,103.3,51.1,103.4,51,103.4"/>
		<path class="st1" d="M51,104.2c-0.1,0-0.2,0-0.4-0.1c-0.2-0.1-0.3-0.3-0.4-0.5l-0.8-2.8c-0.1-0.4,0.1-0.9,0.5-1c0,0,0,0,0,0
			l0.2-0.1c0.2-0.1,0.4-0.1,0.6,0c0.2,0.1,0.4,0.3,0.4,0.5L52,103c0.1,0.4-0.1,0.8-0.5,1l-0.3,0.1C51.2,104.1,51.1,104.1,51,104.2"
			/>
		<path class="st1" d="M51.2,103.3l-0.9-2.8l0.2-0.1l0.9,2.8L51.2,103.3"/>
		<path class="st1" d="M51.2,104.1c-0.1,0-0.2,0-0.3-0.1c-0.2-0.1-0.4-0.3-0.4-0.5l-0.8-2.8c-0.1-0.4,0.1-0.9,0.5-1c0,0,0,0,0,0
			l0.2-0.1c0.2-0.1,0.4-0.1,0.7,0c0.2,0.1,0.3,0.3,0.4,0.5l0.9,2.8c0.1,0.4-0.1,0.8-0.5,1l-0.3,0.1
			C51.4,104.1,51.3,104.1,51.2,104.1"/>
		<path class="st1" d="M51.5,103.2l-0.9-2.8l0.2-0.1l0.9,2.8L51.5,103.2"/>
		<path class="st1" d="M51.5,104c-0.1,0-0.2,0-0.3-0.1c-0.2-0.1-0.4-0.3-0.4-0.5l-0.9-2.8c-0.1-0.4,0.1-0.8,0.5-1l0.2-0.1
			c0.2-0.1,0.4-0.1,0.7,0c0.2,0.1,0.4,0.3,0.4,0.5l0.9,2.8c0.1,0.4,0,0.8-0.4,1l-0.3,0.1C51.7,104,51.6,104,51.5,104"/>
		<path class="st1" d="M51.7,103.1l-0.9-2.8l0.2-0.1l0.9,2.8L51.7,103.1"/>
		<path class="st1" d="M51.7,103.9c-0.1,0-0.2,0-0.3-0.1c-0.2-0.1-0.4-0.3-0.4-0.5l-0.9-2.8c-0.1-0.4,0-0.8,0.4-1l0.2-0.1
			c0.2-0.1,0.5-0.1,0.7,0c0.2,0.1,0.4,0.3,0.5,0.5l0.8,2.8c0.1,0.4-0.1,0.7-0.4,0.9l-0.3,0.1C51.9,103.8,51.8,103.9,51.7,103.9"/>
		<path class="st1" d="M51.9,103l-0.9-2.8l0.2-0.1l0.9,2.8L51.9,103"/>
		<path class="st1" d="M51.9,103.8c-0.1,0-0.2,0-0.3-0.1c-0.2-0.1-0.4-0.3-0.5-0.5l-0.9-2.8c-0.1-0.4,0.1-0.8,0.4-0.9l0.2-0.1
			c0.2-0.1,0.5-0.1,0.7,0c0.2,0.1,0.4,0.3,0.5,0.5l0.9,2.8c0.1,0.4,0,0.7-0.4,0.9l-0.3,0.1C52.2,103.8,52.1,103.8,51.9,103.8"/>
		<path class="st1" d="M52.2,102.8l-0.9-2.8l0.2-0.1l0.9,2.8L52.2,102.8"/>
		<path class="st1" d="M52.2,103.7c-0.1,0-0.2,0-0.3-0.1c-0.2-0.1-0.4-0.3-0.5-0.5l-0.9-2.8c-0.1-0.4,0-0.7,0.4-0.9l0.2-0.1
			c0.2-0.1,0.5-0.2,0.7-0.1c0.2,0.1,0.4,0.3,0.5,0.5l0.9,2.8c0.1,0.3,0,0.7-0.3,0.9l-0.2,0.2C52.4,103.6,52.3,103.6,52.2,103.7"/>
		<path class="st1" d="M52.4,102.7l-0.9-2.8c0.1-0.1,0.1-0.1,0.2-0.2l0.9,2.8L52.4,102.7"/>
		<path class="st1" d="M52.4,103.5c-0.1,0-0.2,0-0.3,0c-0.2-0.1-0.4-0.3-0.5-0.5l-0.8-2.8c-0.1-0.3,0-0.7,0.3-0.9l0.2-0.1
			c0.4-0.2,0.9-0.2,1.1,0.2c0,0.1,0.1,0.1,0.1,0.2l0.8,2.8c0.1,0.3,0,0.7-0.3,0.9l-0.2,0.2C52.7,103.5,52.5,103.6,52.4,103.5"/>
		<path class="st1" d="M52.6,102.6l-0.9-2.8l0.2-0.2l0.9,2.8L52.6,102.6"/>
		<path class="st1" d="M52.6,103.4c-0.1,0-0.2,0-0.3,0c-0.2-0.1-0.4-0.3-0.5-0.5L51,100c-0.1-0.3,0-0.7,0.3-0.9l0.2-0.1
			c0.2-0.2,0.5-0.2,0.7-0.1c0.2,0.1,0.4,0.3,0.5,0.5l0.9,2.8c0.1,0.3,0,0.7-0.3,0.9l-0.3,0.2C52.9,103.3,52.8,103.4,52.6,103.4"/>
		<path class="st1" d="M52.8,102.4L52,99.6l0.2-0.2l0.9,2.8L52.8,102.4"/>
		<path class="st1" d="M52.8,103.2c-0.1,0-0.2,0-0.3,0c-0.2-0.1-0.4-0.3-0.5-0.5l-0.9-2.8c-0.1-0.3,0-0.7,0.3-0.9l0.2-0.2
			c0.2-0.2,0.5-0.2,0.7-0.2c0.3,0.1,0.5,0.3,0.5,0.5l0.8,2.8c0.1,0.3,0,0.6-0.2,0.8l-0.3,0.2C53.2,103.2,53,103.2,52.8,103.2"/>
		<path class="st1" d="M53,102.2l-0.9-2.8l0.2-0.2l0,0l0.9,2.8l0,0L53,102.2"/>
		<path class="st1" d="M53,103c-0.1,0-0.2,0-0.2,0c-0.3-0.1-0.5-0.3-0.5-0.5l-0.9-2.8c-0.1-0.3,0-0.6,0.3-0.8l0.2-0.2
			c0.2-0.2,0.5-0.2,0.8-0.2c0.3,0.1,0.5,0.2,0.5,0.5l0.9,2.8c0.1,0.2,0,0.5-0.1,0.7l-0.4,0.3C53.4,103,53.2,103,53,103"/>
		<path class="st1" d="M53.3,102l-0.9-2.8l0.3-0.3l0.9,2.8C53.5,101.8,53.4,101.9,53.3,102"/>
		<path class="st1" d="M53.3,102.8c-0.1,0-0.1,0-0.2,0c-0.3-0.1-0.5-0.3-0.6-0.5l-0.9-2.8c-0.1-0.3,0-0.6,0.2-0.8l0.2-0.2
			c0.3-0.3,0.8-0.3,1.1,0c0.1,0.1,0.2,0.2,0.2,0.3l0.8,2.8c0.1,0.3,0,0.6-0.2,0.8l-0.3,0.3C53.7,102.8,53.5,102.9,53.3,102.8"/>
		<path class="st1" d="M53.5,101.8L52.7,99c0.1-0.1,0.2-0.2,0.3-0.3l0.9,2.8C53.7,101.6,53.6,101.7,53.5,101.8"/>
		<path class="st1" d="M53.5,102.6h-0.2c-0.3-0.1-0.5-0.3-0.6-0.6l-0.9-2.8c-0.1-0.3,0-0.6,0.2-0.8c0.1-0.1,0.2-0.2,0.2-0.3
			c0.2-0.2,0.5-0.3,0.8-0.3c0.3,0.1,0.5,0.3,0.6,0.6l0.9,2.8c0.1,0.2,0,0.5-0.1,0.7c-0.1,0.1-0.2,0.3-0.3,0.4
			C54,102.5,53.8,102.6,53.5,102.6"/>
		<path class="st1" d="M53.8,101.4L53,98.6c0.7-0.8,0.9-1.9,0.7-2.9l0.9,2.8C54.8,99.6,54.5,100.6,53.8,101.4"/>
		<path class="st1" d="M53.8,102.2h-0.2c-0.3-0.1-0.5-0.3-0.6-0.6l-0.8-2.8c-0.1-0.2,0-0.5,0.1-0.7c0.5-0.6,0.7-1.4,0.5-2.2
			c-0.1-0.4,0.1-0.9,0.5-1c0.4-0.1,0.9,0.1,1,0.5c0,0,0,0,0,0l0,0l0.8,2.8c0.3,1.3,0,2.6-0.8,3.6C54.3,102.2,54.1,102.3,53.8,102.2"
			/>
	</g>
</g>
<path class="st1" d="M68.1,80l-0.9-2.8c0.2,0.7,0.7,1.3,1.4,1.7l0.9,2.8C68.8,81.3,68.3,80.7,68.1,80"/>
<g>
	<defs>
		<path id="SVGID_17_" d="M68.1,80c0.2,0.7,0.7,1.3,1.4,1.7l-0.9-2.8c-0.7-0.4-1.2-1-1.4-1.7L68.1,80z"/>
	</defs>
	<clipPath id="SVGID_18_">
		<use xlink:href="#SVGID_17_"  style="overflow:visible;"/>
	</clipPath>
	<g class="st10">
		<path class="st1" d="M68.1,80l-0.9-2.8c0,0,0,0,0,0.1L68.1,80C68.1,80.1,68.1,80,68.1,80"/>
		<path class="st1" d="M68.1,80.8c-0.3,0-0.6-0.2-0.8-0.5c0,0,0-0.1,0-0.1l-0.9-2.8c-0.1-0.4,0.1-0.9,0.5-1s0.9,0.1,1,0.5l0.9,2.9
			c0.1,0.4-0.1,0.9-0.5,1C68.3,80.8,68.2,80.8,68.1,80.8"/>
		<path class="st1" d="M68.1,80l-0.9-2.8l0.1,0.2l0.8,2.8L68.1,80"/>
		<path class="st1" d="M68.2,81c-0.3,0-0.6-0.2-0.7-0.5l-0.1-0.2l0,0l-0.9-2.8c-0.1-0.4,0.1-0.9,0.5-1c0.4-0.1,0.8,0,1,0.4l0,0
			l0.1,0.2l0.9,2.8c0.1,0.4-0.1,0.9-0.5,1C68.4,80.9,68.3,80.9,68.2,81"/>
		<path class="st1" d="M68.2,80.2l-0.9-2.8l0.1,0.2l0.9,2.8C68.2,80.3,68.2,80.3,68.2,80.2"/>
		<path class="st1" d="M68.2,81.2c-0.3,0-0.6-0.2-0.7-0.4c0-0.1-0.1-0.1-0.1-0.2c0,0,0-0.1,0-0.1l-0.8-2.8c-0.1-0.4,0.1-0.9,0.5-1
			c0,0,0,0,0,0c0.4-0.1,0.8,0.1,1,0.4l0.1,0.3l0.9,2.8c0.1,0.4-0.1,0.8-0.5,1C68.5,81.2,68.4,81.2,68.2,81.2"/>
		<path class="st1" d="M68.2,80.4l-0.9-2.8c0,0.1,0.1,0.1,0.1,0.2l0.9,2.8C68.3,80.5,68.3,80.5,68.2,80.4"/>
		<path class="st1" d="M68.3,81.3c-0.3,0-0.5-0.1-0.7-0.4l-0.1-0.2c0,0,0-0.1,0-0.1l-0.9-2.8c-0.1-0.4,0.1-0.8,0.4-1
			c0.4-0.2,0.8,0,1,0.4c0,0,0.1,0.3,0.2,0.3l0.9,2.8c0.1,0.4-0.1,0.8-0.4,1C68.6,81.3,68.5,81.4,68.3,81.3"/>
		<path class="st1" d="M68.3,80.6l-0.9-2.8l0.1,0.2l0.9,2.8C68.4,80.7,68.4,80.6,68.3,80.6"/>
		<path class="st1" d="M68.4,81.5c-0.3,0-0.5-0.1-0.7-0.3c0-0.1-0.1-0.1-0.1-0.2l-0.1-0.2L66.7,78c-0.1-0.4,0.1-0.9,0.6-1
			c0.3-0.1,0.7,0,0.9,0.3c0,0.1,0.2,0.3,0.2,0.3l0.9,2.8c0.1,0.4,0,0.8-0.4,1C68.7,81.5,68.6,81.6,68.4,81.5"/>
		<path class="st1" d="M68.4,80.7l-0.9-2.8c0,0.1,0.1,0.1,0.1,0.2l0.9,2.8C68.5,80.8,68.5,80.8,68.4,80.7"/>
		<path class="st1" d="M68.6,81.7c-0.2,0-0.5-0.1-0.6-0.3l-0.2-0.2c0-0.1-0.1-0.1-0.1-0.2l-0.9-2.8c-0.1-0.4,0.1-0.9,0.5-1
			c0.3-0.1,0.7,0,0.9,0.3c0.1,0.1,0.2,0.2,0.2,0.4l0.9,2.8c0.1,0.4-0.1,0.8-0.4,0.9C68.8,81.6,68.7,81.7,68.6,81.7"/>
		<path class="st1" d="M68.6,80.9l-0.9-2.8l0.1,0.2l0.9,2.8L68.6,80.9"/>
		<path class="st1" d="M68.7,81.8c-0.2,0-0.4-0.1-0.6-0.3l-0.2-0.2c-0.1-0.1-0.1-0.2-0.1-0.3l-0.9-2.8c-0.1-0.4,0.1-0.9,0.6-1
			c0.3-0.1,0.6,0,0.8,0.3c0.1,0.1,0.2,0.3,0.3,0.4l0.9,2.8c0.1,0.4,0,0.7-0.4,0.9C69,81.8,68.8,81.8,68.7,81.8"/>
		<path class="st1" d="M68.7,81l-0.9-2.8c0,0,0.1,0.1,0.1,0.1l0.9,2.8C68.8,81.1,68.7,81.1,68.7,81"/>
		<path class="st1" d="M68.8,82c-0.2,0-0.4-0.1-0.5-0.2l-0.2-0.2c-0.1-0.1-0.2-0.2-0.2-0.3l-0.8-2.8c-0.1-0.4,0-0.7,0.4-0.9
			c0.3-0.2,0.7-0.1,1,0.1c0.1,0.1,0.2,0.3,0.3,0.5l0.9,2.8c0.1,0.3,0,0.7-0.3,0.9C69.1,82,69,82,68.8,82"/>
		<path class="st1" d="M68.8,81.2L68,78.4l0.2,0.1l0.8,2.8C69,81.3,68.9,81.2,68.8,81.2"/>
		<path class="st1" d="M69,82.1c-0.2,0-0.4-0.1-0.5-0.2l-0.2-0.2c-0.1-0.1-0.2-0.2-0.2-0.3l-0.9-2.8c-0.1-0.3,0-0.7,0.3-0.9
			c0.3-0.2,0.7-0.2,1,0.1c0.2,0.1,0.3,0.3,0.4,0.5l0.9,2.8c0.1,0.3,0,0.7-0.3,0.9C69.4,82.1,69.2,82.1,69,82.1"/>
		<path class="st1" d="M69,81.3l-0.9-2.8l0.2,0.1l0.9,2.8L69,81.3"/>
		<path class="st1" d="M69.2,82.2c-0.2,0-0.3-0.1-0.5-0.1l-0.2-0.2c-0.1-0.1-0.2-0.2-0.3-0.4l-0.9-2.8c-0.1-0.3,0-0.7,0.3-0.9
			c0.3-0.2,0.7-0.2,0.9,0c0.2,0.1,0.3,0.3,0.4,0.5l0.9,2.8c0.1,0.3,0,0.7-0.3,0.9C69.5,82.1,69.3,82.2,69.2,82.2"/>
		<path class="st1" d="M69.2,81.4l-0.9-2.8l0.2,0.2l0.9,2.8L69.2,81.4"/>
		<path class="st1" d="M69.4,82.4c-0.1,0-0.3,0-0.4-0.1l-0.3-0.2c-0.1-0.1-0.3-0.2-0.3-0.4l-0.9-2.8c-0.1-0.3,0-0.7,0.3-0.9
			c0.3-0.2,0.6-0.2,0.9,0l0.2,0.1c0.2,0.1,0.3,0.3,0.3,0.4l0.9,2.8c0.1,0.4-0.2,0.9-0.6,1C69.5,82.4,69.5,82.4,69.4,82.4"/>
		<path class="st1" d="M69.4,81.6l-0.9-2.8h0.1L69.4,81.6L69.4,81.6"/>
		<path class="st1" d="M69.4,82.4c-0.1,0-0.3,0-0.4-0.1c-0.2-0.1-0.3-0.3-0.4-0.5L67.8,79c-0.1-0.3,0-0.6,0.3-0.8
			c0.2-0.2,0.6-0.2,0.9-0.1c0.2,0.1,0.4,0.3,0.4,0.5l0.9,2.8c0.1,0.3,0,0.7-0.3,0.9C69.8,82.3,69.6,82.4,69.4,82.4"/>
	</g>
</g>
<path class="st1" d="M76.7,74.2l0.8,2.8c0.3,1.3-0.2,2.7-1.2,3.5c-1.9,1.7-4.6,2.2-6.9,1.1l-0.9-2.8c2.3,1.1,5,0.6,6.9-1.1
	C76.5,76.9,77,75.5,76.7,74.2"/>
<g>
	<defs>
		<path id="SVGID_19_" d="M75.5,77.8c-1.9,1.7-4.6,2.1-6.9,1.1l0.9,2.8c2.3,1.1,5,0.6,6.9-1.1c1.1-0.8,1.6-2.2,1.2-3.6l-0.8-2.8
			C77,75.5,76.5,76.9,75.5,77.8"/>
	</defs>
	<clipPath id="SVGID_20_">
		<use xlink:href="#SVGID_19_"  style="overflow:visible;"/>
	</clipPath>
	<g class="st11">
		<path class="st1" d="M69.4,81.6l-0.9-2.8l0.2,0.1l0.9,2.8L69.4,81.6"/>
		<path class="st1" d="M69.7,82.5c-0.1,0-0.2,0-0.3-0.1l-0.3-0.2c-0.2-0.1-0.3-0.3-0.4-0.4l-0.9-2.8c-0.1-0.3,0-0.7,0.3-0.8
			c0.3-0.2,0.6-0.2,0.9-0.1l0.2,0.1c0.2,0.1,0.3,0.3,0.4,0.5l0.9,2.8c0.1,0.3,0,0.6-0.3,0.8C70,82.5,69.9,82.5,69.7,82.5"/>
		<path class="st1" d="M69.7,81.8L68.8,79l0.3,0.2l0.8,2.8L69.7,81.8"/>
		<path class="st1" d="M70,82.7c-0.1,0-0.2,0-0.3,0c-0.1-0.1-0.3-0.1-0.4-0.2c-0.2-0.1-0.3-0.3-0.4-0.5L68,79.2
			c-0.1-0.3,0-0.6,0.3-0.8c0.2-0.2,0.6-0.2,0.9-0.1l0.3,0.1c0.2,0.1,0.4,0.3,0.5,0.5l0.9,2.8c0.1,0.3,0,0.6-0.2,0.8
			C70.4,82.7,70.2,82.7,70,82.7"/>
		<path class="st1" d="M70,81.9l-0.9-2.8c0.2,0.1,0.4,0.1,0.6,0.2l0.9,2.8C70.4,82,70.2,82,70,81.9"/>
		<path class="st1" d="M70.7,82.9c-0.1,0-0.1,0-0.2,0c-0.2-0.1-0.5-0.1-0.7-0.2c-0.2-0.1-0.4-0.3-0.5-0.5l-0.9-2.8
			c-0.1-0.3,0-0.6,0.2-0.8c0.2-0.2,0.5-0.3,0.8-0.2c0.2,0.1,0.3,0.1,0.5,0.2c0.3,0.1,0.5,0.3,0.6,0.5l0.9,2.8c0.1,0.3,0,0.6-0.2,0.8
			C71.1,82.8,70.9,82.9,70.7,82.9"/>
		<path class="st1" d="M70.7,82.1l-0.9-2.8c0.3,0.1,0.7,0.1,1,0.1l0.9,2.8C71.3,82.2,71,82.2,70.7,82.1"/>
		<path class="st1" d="M71.7,83L71.7,83c-0.4,0-0.8-0.1-1.2-0.2c-0.3-0.1-0.5-0.3-0.6-0.6L69,79.5c-0.1-0.3,0-0.6,0.2-0.8
			c0.2-0.2,0.5-0.3,0.8-0.2c0.3,0.1,0.6,0.1,0.9,0.1c0.3,0,0.6,0.2,0.7,0.6l0.9,2.8c0.1,0.2,0,0.5-0.1,0.7
			C72.1,82.9,71.9,83,71.7,83"/>
		<path class="st1" d="M71.7,82.2l-0.9-2.8c0.2,0,0.5,0,0.7,0l0.9,2.8C72.1,82.2,71.9,82.2,71.7,82.2"/>
		<path class="st1" d="M71.9,83h-0.3c-0.3,0-0.6-0.2-0.7-0.6l-0.9-2.8c-0.1-0.2,0-0.5,0.1-0.7c0.2-0.2,0.4-0.3,0.7-0.3h0.6
			c0.4,0,0.7,0.2,0.8,0.6l0.9,2.8c0.1,0.2,0,0.5-0.1,0.7c-0.1,0.2-0.4,0.3-0.6,0.3L71.9,83"/>
		<path class="st1" d="M72.4,82.2l-0.9-2.8c0.1,0,0.3,0,0.4,0l0.9,2.8L72.4,82.2"/>
		<path class="st1" d="M72.4,83c-0.4,0-0.7-0.2-0.8-0.6l-0.9-2.8c-0.1-0.2,0-0.5,0.1-0.7c0.1-0.2,0.4-0.3,0.6-0.3c0.1,0,0.3,0,0.4,0
			c0.4,0,0.8,0.2,0.9,0.6l0.8,2.8c0.1,0.2,0,0.5-0.1,0.7c-0.1,0.2-0.3,0.3-0.6,0.4L72.4,83L72.4,83"/>
		<path class="st1" d="M72.8,82.2L72,79.4l0.4-0.1l0.8,2.8L72.8,82.2"/>
		<path class="st1" d="M72.8,83c-0.3,0-0.7-0.2-0.8-0.6l-0.9-2.8c-0.1-0.2,0-0.5,0.1-0.7c0.1-0.2,0.3-0.3,0.6-0.4h0.3
			c0.4-0.1,0.8,0.2,0.9,0.6l0.9,2.8c0.1,0.2,0,0.4-0.1,0.6c-0.1,0.2-0.3,0.3-0.5,0.4c-0.1,0-0.3,0-0.4,0.1L72.8,83"/>
		<path class="st1" d="M73.2,82.1l-0.9-2.8l0.3-0.1l0.9,2.8L73.2,82.1"/>
		<path class="st1" d="M73.2,82.9c-0.3,0-0.7-0.2-0.8-0.6l-0.9-2.8c-0.1-0.2,0-0.4,0.1-0.6c0.1-0.2,0.3-0.3,0.5-0.4l0.3-0.1
			c0.4-0.1,0.9,0.1,1,0.5l0.8,2.8c0.1,0.2,0,0.4-0.1,0.6c-0.1,0.2-0.3,0.3-0.5,0.4l-0.3,0.1C73.3,82.9,73.3,82.9,73.2,82.9"/>
		<path class="st1" d="M73.5,82l-0.9-2.8l0.3-0.1l0.9,2.9H73.5"/>
		<path class="st1" d="M73.5,82.8c-0.4,0-0.7-0.2-0.8-0.6l-0.9-2.8c-0.1-0.2,0-0.4,0.1-0.6c0.1-0.2,0.3-0.3,0.5-0.4l0.3-0.1
			c0.4-0.1,0.9,0.1,1,0.5c0,0,0,0,0,0l0.9,2.8c0.1,0.2,0,0.4-0.1,0.6c-0.1,0.2-0.3,0.3-0.5,0.4l-0.3,0.1L73.5,82.8"/>
		<path class="st1" d="M73.8,82l-0.9-2.8l0.3-0.1l0.9,2.8C74,81.9,73.9,82,73.8,82"/>
		<path class="st1" d="M73.8,82.8c-0.4,0-0.7-0.2-0.8-0.6l-0.9-2.8c-0.1-0.2,0-0.4,0.1-0.6c0.1-0.2,0.3-0.3,0.5-0.4l0.3-0.1
			c0.2-0.1,0.4,0,0.6,0.1c0.2,0.1,0.3,0.3,0.4,0.5l0.9,2.8c0.1,0.4-0.1,0.9-0.5,1c0,0,0,0,0,0L74,82.7
			C73.9,82.8,73.8,82.8,73.8,82.8"/>
		<path class="st1" d="M74.1,81.9l-0.9-2.8l0.3-0.1l0.9,2.8L74.1,81.9"/>
		<path class="st1" d="M74.1,82.7c-0.1,0-0.2,0-0.4-0.1c-0.2-0.1-0.3-0.3-0.4-0.5l-0.9-2.8c-0.1-0.4,0.1-0.9,0.5-1c0,0,0,0,0,0
			l0.2-0.1c0.2-0.1,0.4-0.1,0.6,0c0.2,0.1,0.3,0.3,0.4,0.5l0.9,2.8c0.1,0.4-0.1,0.8-0.5,1l-0.3,0.1C74.2,82.6,74.1,82.6,74.1,82.7"
			/>
		<path class="st1" d="M74.3,81.8L73.4,79l0.3-0.1l0.9,2.8L74.3,81.8"/>
		<path class="st1" d="M74.3,82.6c-0.1,0-0.2,0-0.3-0.1c-0.2-0.1-0.4-0.3-0.4-0.5l-0.9-2.8c-0.1-0.4,0.1-0.8,0.5-1l0.2-0.1
			c0.2-0.1,0.4-0.1,0.6,0c0.2,0.1,0.4,0.3,0.4,0.5l0.8,2.8c0.1,0.4,0,0.8-0.4,1l-0.3,0.1C74.5,82.5,74.4,82.5,74.3,82.6"/>
		<path class="st1" d="M74.6,81.7l-0.9-2.8l0.2-0.1l0.9,2.8L74.6,81.7"/>
		<path class="st1" d="M74.6,82.5c-0.4,0-0.7-0.2-0.8-0.6l-0.8-2.8c-0.1-0.4,0-0.8,0.4-1l0.2-0.1c0.2-0.1,0.4-0.1,0.7,0
			c0.2,0.1,0.4,0.3,0.4,0.5l0.9,2.8c0.1,0.4,0,0.8-0.4,1l-0.3,0.1C74.8,82.5,74.7,82.5,74.6,82.5"/>
		<path class="st1" d="M74.8,81.6l-0.9-2.8l0.2-0.1l0.9,2.8L74.8,81.6"/>
		<path class="st1" d="M74.8,82.4c-0.3,0-0.7-0.2-0.8-0.6L73.2,79c-0.1-0.4,0-0.8,0.4-1l0.2-0.1c0.4-0.2,0.9,0,1.1,0.4
			c0,0,0,0.1,0,0.1l0.9,2.8c0.1,0.4-0.1,0.8-0.4,0.9l-0.2,0.1C75,82.3,74.9,82.3,74.8,82.4"/>
		<path class="st1" d="M75,81.5l-0.9-2.8l0.2-0.1l0.9,2.8L75,81.5"/>
		<path class="st1" d="M75,82.3c-0.1,0-0.2,0-0.3-0.1c-0.2-0.1-0.4-0.3-0.5-0.5l-0.8-2.8c-0.1-0.4,0-0.8,0.4-0.9l0.2-0.1
			c0.2-0.1,0.5-0.1,0.7,0c0.2,0.1,0.4,0.3,0.5,0.5l0.9,2.8c0.1,0.4,0,0.7-0.4,0.9l-0.3,0.1C75.3,82.3,75.1,82.3,75,82.3"/>
		<path class="st1" d="M75.2,81.4l-0.9-2.8l0.2-0.1l0.9,2.8L75.2,81.4"/>
		<path class="st1" d="M75.2,82.2c-0.1,0-0.2,0-0.3-0.1c-0.2-0.1-0.4-0.3-0.5-0.5l-0.9-2.8c-0.1-0.4,0-0.7,0.4-0.9l0.2-0.1
			c0.2-0.1,0.5-0.2,0.7-0.1c0.2,0.1,0.4,0.3,0.5,0.5l0.9,2.8c0.1,0.3,0,0.7-0.3,0.9L75.6,82C75.5,82.1,75.4,82.2,75.2,82.2"/>
		<path class="st1" d="M75.4,81.2l-0.9-2.8l0.2-0.2l0.9,2.8L75.4,81.2"/>
		<path class="st1" d="M75.4,82c-0.1,0-0.2,0-0.3,0c-0.2-0.1-0.4-0.3-0.5-0.5l-0.9-2.8c-0.1-0.3,0-0.7,0.3-0.9l0.2-0.1
			c0.2-0.1,0.5-0.2,0.7-0.1c0.2,0.1,0.4,0.3,0.5,0.5l0.9,2.8c0.1,0.3,0,0.7-0.3,0.9l-0.3,0.2C75.7,82,75.6,82.1,75.4,82"/>
		<path class="st1" d="M75.7,81.1l-0.9-2.8l0.2-0.2l0.9,2.8L75.7,81.1"/>
		<path class="st1" d="M75.7,81.9c-0.1,0-0.2,0-0.3,0c-0.2-0.1-0.4-0.3-0.5-0.5L74,78.6c-0.1-0.3,0-0.7,0.3-0.9l0.2-0.1
			c0.2-0.2,0.5-0.2,0.7-0.1c0.2,0.1,0.4,0.3,0.5,0.5l0.9,2.8c0.1,0.3,0,0.7-0.3,0.9l-0.3,0.2C76,81.9,75.8,81.9,75.7,81.9"/>
		<path class="st1" d="M75.9,80.9L75,78.1l0.2-0.2l0.9,2.8L75.9,80.9"/>
		<path class="st1" d="M75.9,81.7c-0.1,0-0.2,0-0.3,0c-0.2-0.1-0.4-0.3-0.5-0.5l-0.9-2.8c-0.1-0.3,0-0.7,0.3-0.9l0.2-0.2
			c0.3-0.3,0.8-0.2,1.1,0.1c0.1,0.1,0.1,0.2,0.2,0.3l0.9,2.8c0.1,0.3,0,0.6-0.3,0.8l-0.3,0.2C76.2,81.7,76.1,81.8,75.9,81.7"/>
		<path class="st1" d="M76.1,80.7l-0.9-2.8l0.2-0.2l0,0l0.9,2.8l0,0L76.1,80.7"/>
		<path class="st1" d="M76.1,81.5c-0.1,0-0.1,0-0.2,0c-0.3-0.1-0.5-0.3-0.6-0.5l-0.9-2.8c-0.1-0.3,0-0.6,0.3-0.8l0.2-0.2
			c0.2-0.2,0.5-0.3,0.8-0.2c0.3,0.1,0.5,0.3,0.6,0.5l0.9,2.8c0.1,0.3,0,0.7-0.3,0.9l-0.2,0.2C76.5,81.5,76.3,81.6,76.1,81.5"/>
		<path class="st1" d="M76.3,80.5l-0.9-2.8l0.3-0.3l0.9,2.8L76.3,80.5"/>
		<path class="st1" d="M76.3,81.3c-0.1,0-0.1,0-0.2,0c-0.3-0.1-0.5-0.3-0.6-0.5L74.7,78c-0.1-0.3,0-0.6,0.2-0.8l0.2-0.2
			c0.2-0.2,0.5-0.3,0.8-0.2c0.3,0.1,0.5,0.3,0.6,0.5l0.9,2.8c0.1,0.3,0,0.6-0.2,0.8c-0.1,0.1-0.2,0.2-0.3,0.3
			C76.7,81.3,76.6,81.4,76.3,81.3"/>
		<path class="st1" d="M76.6,80.3l-0.9-2.8l0.3-0.3l0.9,2.8L76.6,80.3"/>
		<path class="st1" d="M76.6,81.1c-0.1,0-0.1,0-0.2,0c-0.3-0.1-0.5-0.3-0.6-0.5L75,77.7c-0.1-0.3,0-0.6,0.2-0.8
			c0.1-0.1,0.2-0.2,0.2-0.3c0.2-0.2,0.5-0.3,0.8-0.3c0.3,0.1,0.5,0.3,0.6,0.6l0.9,2.8c0.1,0.2,0,0.5-0.1,0.7
			c-0.1,0.1-0.2,0.3-0.3,0.4C77,81,76.8,81.1,76.6,81.1"/>
		<path class="st1" d="M76.9,80L76,77.2c0.7-0.8,0.9-1.9,0.7-2.9l0.9,2.8C77.8,78.1,77.6,79.2,76.9,80"/>
		<path class="st1" d="M76.9,80.7h-0.1c-0.3-0.1-0.5-0.3-0.6-0.6l-0.9-2.8c-0.1-0.2,0-0.5,0.1-0.7c0.5-0.6,0.8-1.4,0.6-2.2
			c-0.1-0.4,0.1-0.9,0.5-1c0,0,0,0,0,0c0.4-0.1,0.9,0.1,1,0.5c0,0,0,0,0,0l0.8,2.8c0.3,1.3,0,2.6-0.8,3.6
			C77.4,80.6,77.2,80.7,76.9,80.7"/>
	</g>
</g>
<path class="st1" d="M91.1,58.5l-0.9-2.8c0.2,0.7,0.7,1.3,1.4,1.7l0.9,2.8C91.9,59.8,91.4,59.2,91.1,58.5"/>
<g>
	<defs>
		<path id="SVGID_21_" d="M91.1,58.5c0.2,0.7,0.7,1.3,1.4,1.7l-0.9-2.8c-0.7-0.4-1.2-0.9-1.4-1.7L91.1,58.5z"/>
	</defs>
	<clipPath id="SVGID_22_">
		<use xlink:href="#SVGID_21_"  style="overflow:visible;"/>
	</clipPath>
	<g class="st12">
		<path class="st1" d="M91.1,58.5l-0.9-2.8v0.1L91.1,58.5L91.1,58.5"/>
		<path class="st1" d="M91.2,59.3c-0.3,0-0.6-0.2-0.8-0.5v-0.1l-0.9-2.8c-0.1-0.4,0.1-0.9,0.5-1c0,0,0,0,0,0c0.4-0.1,0.9,0.1,1,0.5
			c0,0,0,0,0,0l0,0c0,0,0,0,0,0.1l0.9,2.9c0.1,0.4-0.1,0.9-0.5,1c0,0,0,0,0,0C91.4,59.3,91.3,59.3,91.2,59.3"/>
		<path class="st1" d="M91.2,58.5l-0.9-2.8c0,0.1,0,0.1,0.1,0.2l0.9,2.8C91.2,58.7,91.2,58.6,91.2,58.5"/>
		<path class="st1" d="M91.2,59.5c-0.3,0-0.6-0.2-0.7-0.5l-0.1-0.3l0,0L89.5,56c-0.1-0.4,0.1-0.9,0.5-1c0.4-0.1,0.9,0.1,1,0.5
			l0.1,0.2l0.9,2.8c0.1,0.4-0.1,0.9-0.5,1C91.4,59.5,91.3,59.6,91.2,59.5"/>
		<path class="st1" d="M91.2,58.7l-0.9-2.8l0.1,0.2l0.9,2.8C91.3,58.8,91.3,58.8,91.2,58.7"/>
		<path class="st1" d="M91.3,59.7c-0.3,0-0.6-0.2-0.7-0.4L90.5,59c0,0,0,0,0-0.1l-0.8-2.8c-0.1-0.4,0.1-0.9,0.5-1
			c0.4-0.1,0.8,0.1,1,0.4l0.1,0.3l0.9,2.8c0.1,0.4-0.1,0.9-0.6,1C91.5,59.6,91.4,59.6,91.3,59.7"/>
		<path class="st1" d="M91.3,58.9l-0.9-2.8c0,0.1,0.1,0.1,0.1,0.2l0.9,2.8C91.4,59,91.3,59,91.3,58.9"/>
		<path class="st1" d="M91.4,59.9c-0.3,0-0.5-0.1-0.7-0.4l-0.1-0.2c0,0,0-0.1,0-0.1l-0.9-2.8c-0.1-0.4,0.1-0.9,0.5-1
			c0.4-0.1,0.8,0,1,0.4c0.1,0.1,0.1,0.2,0.2,0.3l0.9,2.8c0.1,0.4-0.1,0.8-0.4,1C91.7,59.9,91.6,59.9,91.4,59.9"/>
		<path class="st1" d="M91.4,59.1l-0.9-2.8l0.1,0.2l0.9,2.8L91.4,59.1"/>
		<path class="st1" d="M91.5,60c-0.3,0-0.5-0.1-0.7-0.3l-0.1-0.2c0-0.1-0.1-0.1-0.1-0.2l-0.9-2.8c-0.1-0.4,0.1-0.8,0.4-1
			c0.4-0.2,0.8,0,1,0.3c0.1,0.1,0.1,0.2,0.2,0.3l0.9,2.8c0.1,0.4-0.1,0.8-0.4,1C91.7,59.9,91.6,60,91.5,60"/>
		<path class="st1" d="M91.5,59.2l-0.9-2.8l0.1,0.1l0.9,2.8C91.6,59.3,91.5,59.3,91.5,59.2"/>
		<path class="st1" d="M91.6,60.2c-0.2,0-0.5-0.1-0.6-0.3c0-0.1-0.1-0.1-0.1-0.2c-0.1-0.1-0.1-0.2-0.1-0.2l-0.9-2.8
			c-0.1-0.4,0.1-0.8,0.4-0.9c0.4-0.2,0.8-0.1,1,0.3c0.1,0.1,0.2,0.2,0.2,0.4l0.9,2.8c0.1,0.4-0.1,0.8-0.4,0.9
			C91.9,60.1,91.8,60.2,91.6,60.2"/>
		<path class="st1" d="M91.6,59.4l-0.9-2.8c0,0,0.1,0.1,0.1,0.1l0.9,2.8C91.7,59.5,91.7,59.4,91.6,59.4"/>
		<path class="st1" d="M91.8,60.3c-0.2,0-0.4-0.1-0.6-0.3c0,0-0.2-0.2-0.2-0.2c-0.1-0.1-0.1-0.2-0.2-0.3L90,56.8
			c-0.1-0.4,0-0.8,0.4-0.9c0.3-0.2,0.8-0.1,1,0.2c0.1,0.1,0.2,0.3,0.3,0.4l0.9,2.8c0.1,0.4,0,0.7-0.4,0.9
			C92,60.3,91.9,60.3,91.8,60.3"/>
		<path class="st1" d="M91.8,59.5l-0.9-2.8l0.2,0.2l0.9,2.8L91.8,59.5"/>
		<path class="st1" d="M91.9,60.5c-0.2,0-0.4-0.1-0.6-0.2l-0.2-0.2C91.1,60,91,59.9,91,59.8L90.1,57c-0.1-0.4,0-0.7,0.4-0.9
			c0.3-0.2,0.7-0.1,1,0.1c0.1,0.1,0.3,0.3,0.3,0.5l0.9,2.8c0.1,0.3,0,0.7-0.3,0.9C92.2,60.5,92.1,60.5,91.9,60.5"/>
		<path class="st1" d="M91.9,59.7L91,56.9c0,0,0.1,0.1,0.2,0.1l0.9,2.8L91.9,59.7"/>
		<path class="st1" d="M92.1,60.6c-0.2,0-0.4-0.1-0.5-0.2l-0.2-0.2c-0.1-0.1-0.2-0.2-0.2-0.4l-0.9-2.8c-0.1-0.3,0-0.7,0.3-0.9
			c0.3-0.2,0.7-0.2,1,0.1c0.2,0.1,0.3,0.3,0.4,0.5l0.9,2.8c0.1,0.3,0,0.7-0.3,0.9C92.4,60.6,92.2,60.6,92.1,60.6"/>
		<path class="st1" d="M92.1,59.8L91.2,57l0.2,0.1l0.9,2.9L92.1,59.8"/>
		<path class="st1" d="M92.3,60.8c-0.2,0-0.3,0-0.4-0.1l-0.2-0.2c-0.1-0.1-0.2-0.2-0.3-0.4l-0.9-2.8c-0.1-0.4,0.1-0.9,0.5-1
			c0.2-0.1,0.5,0,0.7,0.1c0.2,0.1,0.3,0.3,0.4,0.5l0.9,2.8c0.1,0.4-0.1,0.9-0.6,1C92.4,60.7,92.3,60.7,92.3,60.8"/>
		<path class="st1" d="M92.3,60l-0.9-2.8l0.2,0.2l0.9,2.8L92.3,60"/>
		<path class="st1" d="M92.5,60.9c-0.1,0-0.3,0-0.4-0.1l-0.3-0.2c-0.1-0.1-0.3-0.2-0.3-0.4l-0.9-2.8c-0.1-0.3,0-0.7,0.3-0.9
			c0.3-0.2,0.6-0.2,0.9,0l0.2,0.1c0.2,0.1,0.3,0.3,0.3,0.5l0.9,2.8c0.1,0.3,0,0.7-0.3,0.9C92.8,60.8,92.7,60.9,92.5,60.9"/>
		<path class="st1" d="M92.5,60.1l-0.9-2.8l0,0L92.5,60.1L92.5,60.1"/>
		<path class="st1" d="M92.5,60.9c-0.2,0-0.3,0-0.4-0.1c-0.2-0.1-0.3-0.3-0.4-0.5l-0.9-2.8c-0.1-0.3,0-0.7,0.3-0.9
			c0.3-0.2,0.6-0.2,0.9-0.1c0.2,0.1,0.3,0.3,0.4,0.5l0.9,2.8c0.1,0.3,0,0.7-0.3,0.9C92.9,60.9,92.7,60.9,92.5,60.9"/>
	</g>
</g>
<path class="st1" d="M99.8,52.7l0.9,2.8c0.3,1.3-0.2,2.7-1.2,3.5c-1.8,1.7-4.9,2.2-6.9,1.1l-0.9-2.8c1.9,1.1,5,0.6,6.9-1.1
	C99.6,55.4,100.1,54,99.8,52.7"/>
<g>
	<defs>
		<path id="SVGID_23_" d="M98.6,56.3c-1.9,1.7-4.9,2.2-6.9,1.1l0.9,2.8c2.3,1.1,5,0.6,6.9-1.1c1-0.8,1.5-2.2,1.2-3.5l-0.9-2.8
			C100.1,54,99.6,55.4,98.6,56.3"/>
	</defs>
	<clipPath id="SVGID_24_">
		<use xlink:href="#SVGID_23_"  style="overflow:visible;"/>
	</clipPath>
	<g class="st13">
		<path class="st1" d="M92.5,60.1l-0.9-2.8l0.2,0.1l0.9,2.8L92.5,60.1"/>
		<path class="st1" d="M92.8,61c-0.1,0-0.2,0-0.3,0c-0.1-0.1-0.2-0.1-0.3-0.2c-0.2-0.1-0.3-0.3-0.4-0.5l-0.8-2.8
			c-0.1-0.3,0-0.7,0.3-0.8c0.3-0.2,0.6-0.2,0.9-0.1l0.2,0.1c0.2,0.1,0.3,0.3,0.4,0.5l0.9,2.8c0.1,0.3,0,0.6-0.3,0.8
			C93.1,61,92.9,61.1,92.8,61"/>
		<path class="st1" d="M92.8,60.3l-0.9-2.8c0.1,0.1,0.2,0.1,0.3,0.2l0.9,2.8C93,60.4,92.9,60.3,92.8,60.3"/>
		<path class="st1" d="M93.1,61.2c-0.1,0-0.2,0-0.3,0L92.4,61c-0.2-0.1-0.3-0.3-0.4-0.5l-0.9-2.8c-0.1-0.3,0-0.6,0.2-0.8
			c0.2-0.2,0.6-0.2,0.9-0.1l0.3,0.1c0.2,0.1,0.4,0.3,0.5,0.5l0.9,2.8c0.1,0.3,0,0.6-0.2,0.8C93.5,61.2,93.3,61.2,93.1,61.2"/>
		<path class="st1" d="M93.1,60.4l-0.9-2.8c0.2,0.1,0.4,0.1,0.6,0.2l0.9,2.8C93.5,60.5,93.3,60.5,93.1,60.4"/>
		<path class="st1" d="M93.7,61.4h-0.2c-0.2-0.1-0.5-0.1-0.7-0.2c-0.2-0.1-0.4-0.3-0.5-0.5l-0.9-2.8c-0.1-0.3,0-0.6,0.2-0.9
			c0.2-0.2,0.5-0.3,0.8-0.2c0.2,0.1,0.3,0.1,0.5,0.2c0.3,0.1,0.5,0.3,0.6,0.5l0.9,2.8c0.1,0.3,0,0.6-0.2,0.8
			C94.1,61.3,93.9,61.4,93.7,61.4"/>
		<path class="st1" d="M93.7,60.6l-0.9-2.8c0.3,0.1,0.7,0.1,1,0.1l0.9,2.8C94.4,60.7,94,60.7,93.7,60.6"/>
		<path class="st1" d="M94.7,61.5L94.7,61.5c-0.4,0-0.8-0.1-1.2-0.2c-0.3-0.1-0.5-0.3-0.6-0.5L92.1,58c-0.1-0.3,0-0.6,0.2-0.8
			C92.5,57,92.7,57,93,57c0.3,0.1,0.6,0.1,0.9,0.1c0.3,0,0.6,0.2,0.7,0.6l0.9,2.8c0.1,0.2,0,0.5-0.1,0.7
			C95.2,61.4,95,61.5,94.7,61.5"/>
		<path class="st1" d="M94.7,60.7l-0.9-2.8c0.2,0,0.5,0,0.7,0l0.9,2.8C95.2,60.7,95,60.7,94.7,60.7"/>
		<path class="st1" d="M95,61.5h-0.3c-0.3,0-0.6-0.2-0.7-0.5l-0.9-2.8c-0.1-0.2,0-0.5,0.1-0.7c0.2-0.2,0.4-0.3,0.7-0.3h0.6
			c0.4,0,0.7,0.2,0.8,0.6l0.9,2.8c0.1,0.2,0,0.5-0.1,0.7c-0.1,0.2-0.4,0.3-0.6,0.3L95,61.5"/>
		<path class="st1" d="M95.4,60.7l-0.9-2.8l0.4,0l0.9,2.8C95.7,60.7,95.6,60.7,95.4,60.7"/>
		<path class="st1" d="M95.4,61.5c-0.4,0-0.7-0.2-0.8-0.6l-0.9-2.8c-0.1-0.2,0-0.5,0.1-0.7c0.1-0.2,0.4-0.3,0.6-0.3l0.4,0
			c0.4-0.1,0.8,0.2,0.9,0.6l0.9,2.8c0.1,0.2,0,0.5-0.1,0.7c-0.1,0.2-0.3,0.3-0.6,0.4L95.4,61.5L95.4,61.5"/>
		<path class="st1" d="M95.9,60.7L95,57.9l0.4-0.1l0.9,2.8L95.9,60.7"/>
		<path class="st1" d="M95.9,61.5c-0.3,0-0.7-0.2-0.8-0.6l-0.8-2.8c-0.1-0.2,0-0.5,0.1-0.7c0.1-0.2,0.3-0.3,0.6-0.4h0.3
			c0.4-0.1,0.8,0.2,0.9,0.5l0.9,2.8c0.1,0.2,0,0.4-0.1,0.6c-0.1,0.2-0.3,0.3-0.5,0.4c-0.1,0-0.3,0-0.4,0.1L95.9,61.5"/>
		<path class="st1" d="M96.3,60.6l-0.9-2.8l0.3-0.1l0.9,2.8L96.3,60.6"/>
		<path class="st1" d="M96.3,61.4c-0.3,0-0.7-0.2-0.8-0.6L94.6,58c-0.1-0.2,0-0.4,0.1-0.6c0.1-0.2,0.3-0.3,0.5-0.4l0.3-0.1
			c0.4-0.1,0.9,0.1,1,0.5c0,0,0,0,0,0l0.9,2.8c0.1,0.2,0,0.4-0.1,0.6c-0.1,0.2-0.3,0.3-0.5,0.4l-0.3,0.1
			C96.4,61.4,96.3,61.4,96.3,61.4"/>
		<path class="st1" d="M96.6,60.5l-0.9-2.8l0.3-0.1l0.9,2.8L96.6,60.5"/>
		<path class="st1" d="M96.6,61.3c-0.4,0-0.7-0.2-0.8-0.6L94.9,58c-0.1-0.2,0-0.4,0.1-0.6c0.1-0.2,0.3-0.3,0.5-0.4l0.3-0.1
			c0.4-0.1,0.9,0.1,1,0.5l0.9,2.8c0.1,0.2,0,0.4-0.1,0.6c-0.1,0.2-0.3,0.3-0.5,0.4l-0.3,0.1L96.6,61.3"/>
		<path class="st1" d="M96.9,60.5L96,57.7l0.3-0.1l0.9,2.8L96.9,60.5"/>
		<path class="st1" d="M96.9,61.3c-0.4,0-0.7-0.2-0.8-0.6l-0.9-2.8c-0.1-0.2,0-0.4,0.1-0.6c0.1-0.2,0.3-0.3,0.5-0.4l0.2-0.1
			c0.2-0.1,0.4-0.1,0.6,0c0.2,0.1,0.3,0.3,0.4,0.5l0.9,2.8c0.1,0.4-0.1,0.9-0.5,1l-0.3,0.1C97,61.2,96.9,61.2,96.9,61.3"/>
		<path class="st1" d="M97.1,60.4l-0.9-2.8l0.3-0.1l0.9,2.8L97.1,60.4"/>
		<path class="st1" d="M97.1,61.2c-0.1,0-0.2,0-0.4-0.1c-0.2-0.1-0.3-0.3-0.4-0.5l-0.8-2.8c-0.1-0.4,0.1-0.9,0.5-1l0.2-0.1
			c0.2-0.1,0.4-0.1,0.6,0c0.2,0.1,0.3,0.3,0.4,0.5l0.9,2.8c0.1,0.4-0.1,0.9-0.5,1c0,0,0,0,0,0l-0.3,0.1
			C97.3,61.1,97.2,61.1,97.1,61.2"/>
		<path class="st1" d="M97.4,60.3l-0.9-2.8l0.2-0.1l0.9,2.8L97.4,60.3"/>
		<path class="st1" d="M97.4,61.1c-0.1,0-0.3,0-0.4-0.1c-0.2-0.1-0.4-0.3-0.4-0.5l-0.9-2.8c-0.1-0.4,0.1-0.9,0.5-1l0.2-0.1
			c0.2-0.1,0.4-0.1,0.6,0c0.2,0.1,0.4,0.3,0.4,0.5l0.9,2.8c0.1,0.4-0.1,0.8-0.4,1L97.6,61C97.5,61,97.4,61.1,97.4,61.1"/>
		<path class="st1" d="M97.6,60.2l-0.9-2.8c0.1,0,0.2-0.1,0.2-0.1l0.9,2.8L97.6,60.2"/>
		<path class="st1" d="M97.6,61c-0.1,0-0.2,0-0.3-0.1c-0.2-0.1-0.4-0.3-0.4-0.5L96,57.6c-0.1-0.4,0.1-0.8,0.4-1l0.2-0.1
			c0.2-0.1,0.4-0.1,0.7,0c0.2,0.1,0.4,0.3,0.4,0.5l0.9,2.8c0.1,0.4-0.1,0.8-0.4,0.9l-0.3,0.1C97.8,61,97.7,61,97.6,61"/>
		<path class="st1" d="M97.9,60.1L97,57.3l0.2-0.1l0.9,2.8L97.9,60.1"/>
		<path class="st1" d="M97.9,60.9c-0.1,0-0.2,0-0.3-0.1c-0.2-0.1-0.4-0.3-0.4-0.5l-0.9-2.8c-0.1-0.4,0-0.8,0.4-1l0.2-0.1
			c0.2-0.1,0.5-0.1,0.7,0c0.2,0.1,0.4,0.3,0.4,0.5l0.9,2.8c0.1,0.4,0,0.8-0.4,0.9l-0.3,0.1C98.1,60.8,98,60.9,97.9,60.9"/>
		<path class="st1" d="M98.1,60l-0.9-2.8c0.1,0,0.1-0.1,0.2-0.1l0.8,2.8C98.2,59.9,98.2,60,98.1,60"/>
		<path class="st1" d="M98.1,60.8c-0.1,0-0.2,0-0.3-0.1c-0.2-0.1-0.4-0.3-0.4-0.5l-0.9-2.8c-0.1-0.4,0-0.8,0.4-0.9l0.2-0.1
			c0.2-0.1,0.5-0.1,0.7,0c0.2,0.1,0.4,0.3,0.5,0.5l0.9,2.8c0.1,0.4-0.1,0.7-0.4,0.9l-0.2,0.1C98.3,60.8,98.2,60.8,98.1,60.8"/>
		<path class="st1" d="M98.3,59.8L97.4,57l0.2-0.1l0.9,2.8C98.5,59.8,98.4,59.8,98.3,59.8"/>
		<path class="st1" d="M98.3,60.7c-0.1,0-0.2,0-0.3,0c-0.2-0.1-0.4-0.3-0.5-0.5l-0.9-2.8c-0.1-0.4,0-0.7,0.4-0.9l0.2-0.1
			c0.2-0.1,0.5-0.2,0.7-0.1c0.2,0.1,0.4,0.3,0.5,0.5l0.9,2.8c0.1,0.3,0,0.7-0.3,0.9l-0.2,0.1C98.6,60.7,98.4,60.7,98.3,60.7"/>
		<path class="st1" d="M98.5,59.7l-0.9-2.8l0.2-0.1l0.9,2.8L98.5,59.7"/>
		<path class="st1" d="M98.5,60.5c-0.1,0-0.2,0-0.3,0c-0.2-0.1-0.4-0.3-0.5-0.5l-0.8-2.8c-0.1-0.3,0-0.7,0.3-0.9l0.2-0.1
			c0.2-0.1,0.5-0.2,0.7-0.1c0.2,0.1,0.4,0.3,0.5,0.5l0.9,2.8c0.1,0.3,0,0.7-0.3,0.9l-0.3,0.2C98.8,60.5,98.7,60.5,98.5,60.5"/>
		<path class="st1" d="M98.7,59.6l-0.9-2.8l0.2-0.2l0.9,2.8L98.7,59.6"/>
		<path class="st1" d="M98.7,60.4c-0.1,0-0.2,0-0.3,0c-0.2-0.1-0.4-0.3-0.5-0.5L97.1,57c-0.1-0.3,0-0.7,0.3-0.9l0.2-0.1
			c0.4-0.3,0.9-0.2,1.1,0.2c0,0.1,0.1,0.1,0.1,0.2l0.8,2.8c0.1,0.3,0,0.7-0.3,0.9l-0.3,0.2C99.1,60.3,98.9,60.4,98.7,60.4"/>
		<path class="st1" d="M99,59.4l-0.9-2.8l0.2-0.2l0.9,2.8L99,59.4"/>
		<path class="st1" d="M99,60.2c-0.1,0-0.2,0-0.3,0c-0.2-0.1-0.4-0.3-0.5-0.5l-0.9-2.8c-0.1-0.3,0-0.7,0.3-0.9l0.2-0.1
			c0.2-0.2,0.5-0.2,0.7-0.2c0.3,0.1,0.5,0.3,0.5,0.5L100,59c0.1,0.3,0,0.6-0.3,0.8L99.5,60C99.4,60.2,99.2,60.2,99,60.2"/>
		<path class="st1" d="M99.2,59.2l-0.9-2.8l0.2-0.2l0,0l0.9,2.8l0,0C99.3,59.1,99.3,59.2,99.2,59.2"/>
		<path class="st1" d="M99.2,60c-0.1,0-0.1,0-0.2,0c-0.3-0.1-0.5-0.3-0.5-0.5l-0.9-2.8c-0.1-0.3,0-0.6,0.3-0.8l0.2-0.2
			c0.3-0.3,0.8-0.3,1.1,0c0.1,0.1,0.1,0.2,0.2,0.3l0.9,2.8c0.1,0.3,0,0.7-0.3,0.9l-0.2,0.2C99.6,60,99.4,60,99.2,60"/>
		<path class="st1" d="M99.4,59l-0.9-2.8l0.3-0.3l0.9,2.8C99.6,58.8,99.5,58.9,99.4,59"/>
		<path class="st1" d="M99.4,59.8c-0.1,0-0.1,0-0.2,0c-0.3-0.1-0.5-0.3-0.6-0.5l-0.9-2.8c-0.1-0.3,0-0.6,0.2-0.8l0.2-0.2
			c0.3-0.3,0.8-0.3,1.1,0c0.1,0.1,0.2,0.2,0.2,0.3l0.8,2.8c0.1,0.3,0,0.6-0.2,0.8l-0.3,0.3C99.8,59.8,99.6,59.9,99.4,59.8"/>
		<path class="st1" d="M99.7,58.8L98.8,56l0.3-0.3l0.9,2.8L99.7,58.8"/>
		<path class="st1" d="M99.7,59.6h-0.2c-0.3-0.1-0.5-0.3-0.6-0.5L98,56.3c-0.1-0.3,0-0.6,0.2-0.8c0.1-0.1,0.2-0.2,0.2-0.3
			c0.2-0.2,0.5-0.3,0.8-0.3c0.3,0.1,0.5,0.3,0.6,0.5l0.9,2.8c0.1,0.2,0,0.5-0.1,0.7l-0.3,0.4C100.1,59.5,99.9,59.6,99.7,59.6"/>
		<path class="st1" d="M100,58.5l-0.9-2.8c0.7-0.8,0.9-1.9,0.7-2.9l0.9,2.8C100.9,56.6,100.7,57.7,100,58.5"/>
		<path class="st1" d="M100,59.2h-0.2c-0.3-0.1-0.5-0.3-0.6-0.5l-0.9-2.8c-0.1-0.2,0-0.5,0.1-0.7c0.5-0.6,0.7-1.4,0.5-2.2
			c-0.1-0.4,0.1-0.9,0.5-1c0.4-0.1,0.9,0.1,1,0.5c0,0,0,0,0,0l0,0l0.9,2.8c0.3,1.3,0,2.6-0.8,3.6C100.4,59.1,100.2,59.3,100,59.2"/>
	</g>
</g>
<path class="st0" d="M98.4,32.7l84.3,48.7l-80.2,74.8l-84.3-48.7L98.4,32.7z M46.4,103.1c2.3,1.1,5,0.6,6.9-1.1
	c1.8-1.7,1.8-4-0.2-5.2c-2.3-1.1-5-0.6-6.9,1.2C44.4,99.7,44.4,102,46.4,103.1 M101,134.7c2.3,1.1,5,0.6,6.9-1.1
	c1.8-1.7,1.8-4.1-0.2-5.2c-2.3-1.1-5-0.6-6.9,1.1C99,131.3,99,133.5,101,134.7 M69.5,81.6c2.3,1.1,5,0.6,6.9-1.1
	c1.9-1.7,1.8-4-0.2-5.2c-2.3-1.1-5-0.6-6.9,1.1C67.4,78.2,67.5,80.5,69.5,81.6 M92.5,60.1c2.3,1.1,5,0.6,6.9-1.1
	c1.9-1.7,1.8-4-0.2-5.2c-2.3-1.1-5-0.6-6.9,1.1C90.5,56.7,90.6,59,92.5,60.1 M124.1,113.2c2.3,1.1,5,0.6,6.9-1.1
	c1.9-1.7,1.8-4-0.2-5.2c-2.3-1.1-5-0.6-6.9,1.1C122.1,109.8,122.2,112.1,124.1,113.2 M147.2,91.7c2.3,1.1,5,0.6,6.9-1.1
	c1.9-1.7,1.8-4-0.2-5.2s-5-0.6-6.9,1.1S145.2,90.6,147.2,91.7"/>
<path class="st1" d="M102.5,157c-0.1,0-0.3,0-0.4-0.1l-84.3-48.7c-0.2-0.1-0.4-0.3-0.4-0.6c0-0.3,0.1-0.5,0.3-0.7l80.2-74.8
	c0.3-0.3,0.7-0.3,1-0.1l84.3,48.7c0.2,0.1,0.4,0.4,0.4,0.6c0,0.2-0.1,0.5-0.3,0.7L103,156.8C102.9,156.9,102.7,157,102.5,157
	 M19.5,107.3l82.9,47.8l79-73.6L98.5,33.7L19.5,107.3z M103.5,136.1c-1,0-2-0.2-2.9-0.7c-1-0.6-1.7-1.6-1.9-2.8
	c-0.1-1.4,0.5-2.8,1.6-3.7c2.1-2,5.2-2.5,7.8-1.2c1,0.5,1.7,1.6,1.9,2.7c0.1,1.4-0.5,2.8-1.6,3.7C107,135.4,105.3,136.1,103.5,136.1
	 M101.4,134c2,0.9,4.3,0.5,5.9-1c0.7-0.6,1.1-1.4,1.1-2.4c-0.1-0.7-0.5-1.2-1.1-1.5c-2-0.9-4.4-0.5-6,1c-0.7,0.6-1.1,1.4-1.1,2.3
	C100.4,133.1,100.8,133.7,101.4,134 M126.5,114.6c-1,0-2-0.2-2.9-0.7c-1-0.6-1.7-1.6-1.9-2.7c-0.1-1.4,0.5-2.8,1.6-3.7
	c2.1-2,5.2-2.5,7.8-1.2c1,0.5,1.7,1.6,1.9,2.7c0.1,1.4-0.5,2.8-1.6,3.7C130.1,113.9,128.4,114.6,126.5,114.6 M124.5,112.5
	c2,0.9,4.3,0.5,5.9-1c0.7-0.6,1.1-1.4,1.1-2.4c-0.1-0.7-0.5-1.2-1.1-1.5c-2-0.9-4.3-0.5-5.9,1c-0.7,0.6-1.1,1.4-1.1,2.3
	C123.4,111.6,123.9,112.2,124.5,112.5 M48.8,104.5c-1,0-2-0.2-2.9-0.7c-1-0.5-1.7-1.6-1.9-2.7c-0.1-1.4,0.5-2.8,1.6-3.7
	c2.1-2,5.6-2.5,7.8-1.2c1,0.5,1.7,1.6,1.9,2.7c0.1,1.4-0.5,2.8-1.6,3.7C52.4,103.8,50.7,104.5,48.8,104.5 M50.6,97
	c-1.4,0-2.8,0.5-3.9,1.5c-0.7,0.6-1.1,1.4-1.1,2.3c0.1,0.7,0.5,1.2,1.1,1.5c2,0.9,4.3,0.5,5.9-1c0.7-0.6,1.1-1.4,1.1-2.3
	c-0.1-0.7-0.5-1.2-1.1-1.5C52.1,97.2,51.4,97.1,50.6,97 M149.7,93.1c-1,0-2-0.2-2.8-0.7c-1-0.6-1.7-1.6-1.9-2.7
	c-0.1-1.4,0.5-2.8,1.6-3.7c2.1-2,5.2-2.5,7.8-1.2c1,0.6,1.7,1.6,1.9,2.7c0.1,1.4-0.5,2.8-1.6,3.7C153.3,92.4,151.5,93.1,149.7,93.1
	 M151.5,85.6c-1.4,0-2.8,0.5-3.9,1.5c-0.7,0.6-1.1,1.4-1.1,2.3c0.1,0.7,0.5,1.2,1.1,1.5c2,0.9,4.3,0.5,5.9-1
	c0.7-0.6,1.1-1.4,1.1-2.4c-0.1-0.7-0.5-1.2-1.1-1.5C152.9,85.8,152.1,85.6,151.5,85.6 M71.9,83c-1,0-2-0.2-2.9-0.7
	c-1-0.6-1.7-1.6-1.9-2.7c-0.1-1.4,0.5-2.8,1.6-3.7c2.1-2,5.2-2.5,7.8-1.2c1,0.5,1.7,1.6,1.9,2.7c0.1,1.4-0.5,2.8-1.6,3.7
	C75.5,82.3,73.8,83,71.9,83 M73.7,75.5c-1.4,0-2.8,0.5-3.9,1.5c-0.7,0.6-1.1,1.4-1.1,2.3c0.1,0.7,0.5,1.2,1.1,1.5c2,0.9,4.4,0.5,6-1
	c0.7-0.6,1.1-1.4,1.1-2.4c-0.1-0.7-0.5-1.2-1.1-1.6C75.2,75.7,74.5,75.5,73.7,75.5 M95,61.5c-1,0-2-0.2-2.9-0.7
	c-1-0.6-1.7-1.6-1.9-2.7c-0.1-1.4,0.5-2.8,1.6-3.7c2.1-2,5.2-2.5,7.8-1.2c1,0.6,1.7,1.6,1.9,2.7c0.1,1.4-0.5,2.8-1.6,3.7
	C98.6,60.9,96.8,61.5,95,61.5 M96.8,54.1c-1.4,0-2.8,0.5-3.9,1.5c-0.7,0.6-1.1,1.4-1.1,2.3c0.1,0.7,0.5,1.2,1.1,1.5
	c2,0.9,4.3,0.5,5.9-1c0.7-0.6,1.1-1.4,1.1-2.4c-0.1-0.7-0.5-1.2-1.1-1.5C98.2,54.2,97.5,54,96.8,54.1"/>
<polygon class="st1" points="18.2,104.9 97.1,31.4 97.5,32.5 18.5,106 "/>
<polygon class="st1" points="97.5,29.9 17.3,104.7 18.2,107.5 98.4,32.7 "/>
<polygon class="st1" points="99.1,32.2 98.9,31.6 181.2,79.1 181.3,79.7 "/>
<polygon class="st1" points="97.5,29.9 98.4,32.7 182.7,81.4 181.8,78.6 "/>
</svg>
