<svg id="Capa_1" data-name="Capa 1" xmlns="http://www.w3.org/2000/svg" viewBox="0 0 200 200"><defs><style>.cls-1{fill:#ffde00;}</style></defs><path class="cls-1" d="M100,193.71A93.71,93.71,0,1,1,193.72,100,93.83,93.83,0,0,1,100,193.71"/><path d="M100,8.41A91.59,91.59,0,1,1,8.41,100,91.59,91.59,0,0,1,100,8.41m0-4.24A95.83,95.83,0,1,0,195.83,100,95.94,95.94,0,0,0,100,4.17"/><path d="M123.2,110.1A23.2,23.2,0,1,1,100,86.9a23.2,23.2,0,0,1,23.2,23.2"/><path class="cls-1" d="M108.74,110.1a8.74,8.74,0,1,1-8.74-8.73,8.74,8.74,0,0,1,8.74,8.73"/><path d="M105.69,110.1a5.69,5.69,0,1,1-5.69-5.68,5.68,5.68,0,0,1,5.69,5.68"/><path d="M85.36,154.21a18.82,18.82,0,1,1-18.82-18.82,18.82,18.82,0,0,1,18.82,18.82"/><path class="cls-1" d="M81.28,154.21a14.74,14.74,0,1,1-14.74-14.74,14.74,14.74,0,0,1,14.74,14.74"/><path d="M72.71,154.21A6.17,6.17,0,1,1,66.54,148a6.17,6.17,0,0,1,6.17,6.17"/><path d="M152.26,154.21a18.82,18.82,0,1,1-18.82-18.82,18.82,18.82,0,0,1,18.82,18.82"/><path class="cls-1" d="M148.18,154.21a14.74,14.74,0,1,1-14.74-14.74,14.73,14.73,0,0,1,14.74,14.74"/><path d="M139.61,154.21a6.17,6.17,0,1,1-6.17-6.17,6.16,6.16,0,0,1,6.17,6.17"/><path d="M100,142.16A57.18,57.18,0,0,1,64.59,40.07l6.62,5.31a49,49,0,1,0,6.63-4.06l.28-9.18a57.19,57.19,0,1,1,21.88,110"/><path class="cls-1" d="M100,28.56A56.45,56.45,0,1,1,64.59,41.09l5.32,4.26A49.91,49.91,0,1,0,78.68,40l.22-7.35A56.14,56.14,0,0,1,100,28.56M100,27A57.82,57.82,0,0,0,77.34,31.6L77,42.66a48.26,48.26,0,1,1-4.47,2.76L64.6,39.06A58,58,0,1,0,100,27"/></svg>