<?xml version="1.0" encoding="utf-8"?>
<!-- Generator: Adobe Illustrator 24.3.0, SVG Export Plug-In . SVG Version: 6.00 Build 0)  -->
<svg version="1.1" id="Capa_1" xmlns="http://www.w3.org/2000/svg" xmlns:xlink="http://www.w3.org/1999/xlink" x="0px" y="0px"
	 viewBox="0 0 200 200" style="enable-background:new 0 0 200 200;" xml:space="preserve">
<style type="text/css">
	.st0{fill:#0056A3;}
	.st1{fill:#FFDE00;}
</style>
<path class="st0" d="M100,193.7c-51.8,0-93.7-42-93.7-93.7c0-51.8,42-93.7,93.7-93.7c51.8,0,93.7,42,93.7,93.7
	C193.7,151.7,151.7,193.6,100,193.7"/>
<path class="st1" d="M100,8.4c50.6,0,91.6,41,91.6,91.6s-41,91.6-91.6,91.6S8.4,150.6,8.4,100C8.4,49.4,49.4,8.4,100,8.4
	C100,8.4,100,8.4,100,8.4 M100,4.2C47.1,4.2,4.2,47.1,4.2,100s42.9,95.8,95.8,95.8s95.8-42.9,95.8-95.8c0,0,0,0,0,0
	C195.8,47.1,152.9,4.2,100,4.2"/>
<path class="st1" d="M123.2,110.1c0,12.8-10.4,23.2-23.2,23.2s-23.2-10.4-23.2-23.2S87.2,86.9,100,86.9h0
	C112.8,86.9,123.2,97.3,123.2,110.1"/>
<path class="st0" d="M108.7,110.1c0,4.8-3.9,8.7-8.7,8.7c-4.8,0-8.7-3.9-8.7-8.7c0-4.8,3.9-8.7,8.7-8.7c0,0,0,0,0,0
	C104.8,101.4,108.7,105.3,108.7,110.1"/>
<path class="st1" d="M105.7,110.1c0,3.1-2.5,5.7-5.7,5.7s-5.7-2.5-5.7-5.7c0-3.1,2.5-5.7,5.7-5.7c0,0,0,0,0,0
	C103.1,104.4,105.7,107,105.7,110.1C105.7,110.1,105.7,110.1,105.7,110.1"/>
<path class="st1" d="M85.4,154.2c0,10.4-8.4,18.8-18.8,18.8s-18.8-8.4-18.8-18.8s8.4-18.8,18.8-18.8h0
	C76.9,135.4,85.4,143.8,85.4,154.2C85.4,154.2,85.4,154.2,85.4,154.2"/>
<path class="st0" d="M81.3,154.2c0,8.1-6.6,14.7-14.7,14.7s-14.7-6.6-14.7-14.7c0-8.1,6.6-14.7,14.7-14.7S81.3,146.1,81.3,154.2
	L81.3,154.2"/>
<path class="st1" d="M72.7,154.2c0,3.4-2.8,6.2-6.2,6.1s-6.2-2.8-6.1-6.2c0-3.4,2.8-6.1,6.2-6.1C69.9,148,72.7,150.8,72.7,154.2"/>
<path class="st1" d="M152.3,154.2c0,10.4-8.4,18.8-18.8,18.8s-18.8-8.4-18.8-18.8s8.4-18.8,18.8-18.8h0
	C143.8,135.4,152.3,143.8,152.3,154.2L152.3,154.2"/>
<path class="st0" d="M148.2,154.2c0,8.1-6.6,14.7-14.7,14.7s-14.7-6.6-14.7-14.7c0-8.1,6.6-14.7,14.7-14.7
	C141.6,139.5,148.2,146.1,148.2,154.2C148.2,154.2,148.2,154.2,148.2,154.2"/>
<path class="st1" d="M139.6,154.2c0,3.4-2.8,6.2-6.2,6.2s-6.2-2.8-6.2-6.2c0-3.4,2.8-6.2,6.2-6.2l0,0
	C136.8,148,139.6,150.8,139.6,154.2C139.6,154.2,139.6,154.2,139.6,154.2"/>
<path class="st1" d="M100,142.2c-31.6,0-57.2-25.6-57.2-57.2c0-17.5,8-34.1,21.8-44.9l6.6,5.3c-21.9,15.9-26.7,46.6-10.8,68.4
	s46.6,26.7,68.4,10.8s26.7-46.6,10.8-68.4c-14.2-19.5-40.4-25.8-61.8-14.9l0.3-9.2c29.2-12.1,62.6,1.7,74.8,30.9
	c12.1,29.2-1.7,62.6-30.9,74.8C115,140.7,107.6,142.1,100,142.2"/>
<path class="st0" d="M100,28.6c31.2,0,56.5,25.2,56.5,56.4c0,31.2-25.2,56.5-56.4,56.5c-31.2,0-56.5-25.2-56.5-56.4
	c0-17.1,7.7-33.2,21-44l5.3,4.3c-21.9,16.7-26.2,48-9.5,69.9s48,26.2,69.9,9.5s26.2-48,9.5-69.9C125.5,36,100,29.8,78.7,40l0.2-7.3
	C85.6,29.9,92.8,28.6,100,28.6 M100,27c-7.8,0-15.5,1.6-22.7,4.6L77,42.7c23.4-12.7,52.7-4.1,65.5,19.3
	c12.7,23.4,4.1,52.7-19.3,65.5s-52.7,4.1-65.5-19.3c-11.8-21.6-5.4-48.6,14.8-62.7l-7.9-6.4c-25.4,19.6-30.1,56-10.5,81.3
	s56,30.1,81.3,10.5s30.1-56,10.5-81.3C135,35.3,118,27,100,27"/>
</svg>
