<?xml version="1.0" encoding="utf-8"?>
<!-- Generator: Adobe Illustrator 24.3.0, SVG Export Plug-In . SVG Version: 6.00 Build 0)  -->
<svg version="1.1" id="Capa_1" xmlns="http://www.w3.org/2000/svg" xmlns:xlink="http://www.w3.org/1999/xlink" x="0px" y="0px"
	 viewBox="0 0 200 200" style="enable-background:new 0 0 200 200;" xml:space="preserve">
<style type="text/css">
	.st0{fill:#0056A3;}
	.st1{fill:#FFDE00;}
	.st2{clip-path:url(#SVGID_2_);}
	.st3{clip-path:url(#SVGID_4_);}
</style>
<path class="st0" d="M100,193.7c-51.8,0-93.7-42-93.7-93.7c0-51.8,42-93.7,93.7-93.7c51.8,0,93.7,42,93.7,93.7
	C193.7,151.7,151.7,193.6,100,193.7"/>
<path class="st1" d="M100,8.4c50.6,0,91.6,41,91.6,91.6s-41,91.6-91.6,91.6S8.4,150.6,8.4,100C8.4,49.4,49.4,8.4,100,8.4
	C100,8.4,100,8.4,100,8.4 M100,4.2C47.1,4.2,4.2,47.1,4.2,100s42.9,95.8,95.8,95.8s95.8-42.9,95.8-95.8c0,0,0,0,0,0
	C195.8,47.1,152.9,4.2,100,4.2"/>
<path class="st1" d="M123.6,112c0,11.8-9.5,21.3-21.3,21.3S81,123.8,81,112c0-11.8,9.5-21.3,21.3-21.3c0,0,0,0,0,0
	C114.1,90.7,123.6,100.2,123.6,112"/>
<path class="st0" d="M110.4,112c0,4.4-3.6,8-8,8s-8-3.6-8-8s3.6-8,8-8S110.4,107.6,110.4,112"/>
<path class="st1" d="M107.6,112c0,2.9-2.3,5.2-5.2,5.2s-5.2-2.3-5.2-5.2c0-2.9,2.3-5.2,5.2-5.2c0,0,0,0,0,0
	C105.2,106.8,107.6,109.1,107.6,112"/>
<path class="st1" d="M88.9,152.5c0,9.5-7.7,17.3-17.3,17.3s-17.3-7.7-17.3-17.3c0-9.5,7.7-17.3,17.3-17.3l0,0
	C81.2,135.2,88.9,142.9,88.9,152.5"/>
<path class="st0" d="M85.1,152.5c0,7.5-6.1,13.5-13.5,13.5s-13.5-6.1-13.5-13.5c0-7.5,6.1-13.5,13.5-13.5l0,0
	C79.1,138.9,85.1,145,85.1,152.5C85.1,152.5,85.1,152.5,85.1,152.5"/>
<path class="st1" d="M77.3,152.5c0,3.1-2.5,5.7-5.7,5.7c-3.1,0-5.7-2.5-5.7-5.7s2.5-5.7,5.7-5.7c0,0,0,0,0,0
	C74.7,146.8,77.3,149.3,77.3,152.5L77.3,152.5"/>
<path class="st1" d="M150.3,152.5c0,9.5-7.7,17.3-17.3,17.3c-9.5,0-17.3-7.7-17.3-17.3c0-9.5,7.7-17.3,17.2-17.3
	C142.5,135.2,150.3,142.9,150.3,152.5"/>
<path class="st0" d="M146.6,152.5c0,7.5-6.1,13.5-13.5,13.5c-7.5,0-13.5-6.1-13.5-13.5c0-7.5,6-13.5,13.5-13.5
	C140.5,138.9,146.5,145,146.6,152.5C146.5,152.5,146.5,152.5,146.6,152.5"/>
<path class="st1" d="M138.7,152.5c0,3.1-2.5,5.7-5.7,5.7c-3.1,0-5.7-2.5-5.7-5.7s2.5-5.7,5.7-5.7S138.7,149.3,138.7,152.5
	L138.7,152.5"/>
<polygon class="st0" points="56.7,45.5 81.8,47.4 88.7,53.3 63.6,51.4 "/>
<path class="st1" d="M88.7,53.8L88.7,53.8l-25.1-1.9c-0.1,0-0.2,0-0.3-0.1l-7-5.9c-0.2-0.2-0.2-0.4-0.2-0.6c0.1-0.2,0.3-0.4,0.5-0.3
	l25.1,1.9c0.1,0,0.2,0.1,0.3,0.1l6.9,5.9c0.2,0.1,0.2,0.4,0.1,0.6C89.1,53.7,88.9,53.8,88.7,53.8 M63.8,50.9l23.3,1.8l-5.6-4.7
	l-23.3-1.8L63.8,50.9z"/>
<path class="st0" d="M109.2,134l-25.1-1.9c-22.3-1.7-39.7-21.1-39.4-44.6c0.1-14.4,7.2-27.8,18.9-36.1l25.1,1.9
	C77,61.6,70,75,69.8,89.4C69.5,112.9,86.8,132.3,109.2,134"/>
<path class="st1" d="M109.2,134.5L109.2,134.5L84,132.6c-22.7-1.7-40.2-21.5-39.8-45.1C44.3,73,51.4,59.4,63.3,51
	c0.1-0.1,0.2-0.1,0.3-0.1l25.1,1.9c0.2,0,0.4,0.2,0.5,0.4c0.1,0.2,0,0.4-0.2,0.6C77.5,62,70.5,75.2,70.3,89.4
	c-0.3,23,16.7,42.3,38.9,44l0,0c0.3,0,0.5,0.2,0.5,0.5C109.7,134.2,109.5,134.5,109.2,134.5 M63.7,51.9
	c-11.5,8.2-18.3,21.4-18.5,35.6c-0.3,23,16.7,42.3,38.9,44l15.8,1.2c-18-5.6-30.9-23.1-30.6-43.3c0.2-14,6.8-27.2,17.9-35.7
	L63.7,51.9z"/>
<g>
	<defs>
		<path id="SVGID_1_" d="M84.1,131.5c-22.1-1.7-39.2-21-38.9-44c0.2-14.1,7-27.3,18.5-35.6l23.5,1.8c-11.2,8.5-17.8,21.6-17.9,35.7
			c-0.3,20.3,12.6,37.7,30.6,43.3L84.1,131.5z M44.7,87.5c-0.3,23.5,17,42.9,39.4,44.5l25.1,1.9c-22.3-1.7-39.7-21.1-39.3-44.5
			C70,75.1,77,61.6,88.7,53.3l-25.1-1.9C51.9,59.7,44.8,73.1,44.7,87.5"/>
	</defs>
	<clipPath id="SVGID_2_">
		<use xlink:href="#SVGID_1_"  style="overflow:visible;"/>
	</clipPath>
	<g class="st2">
		<path class="st0" d="M81.2,131.7l25.1,1.9c1,0.1,1.9,0.3,2.9,0.3l-25.1-1.9C83.1,132,82.1,131.9,81.2,131.7"/>
		<path class="st1" d="M109.2,134.5L109.2,134.5L84,132.6c-1-0.1-2-0.2-2.9-0.3c-0.3-0.1-0.5-0.3-0.4-0.6c0-0.3,0.3-0.4,0.5-0.4
			l25.1,1.9c1,0.1,2,0.3,2.9,0.3c0.3,0,0.5,0.2,0.5,0.5C109.7,134.2,109.5,134.5,109.2,134.5"/>
	</g>
</g>
<path class="st0" d="M90.8,43.8l25.1,1.9c-0.9-0.1-1.8-0.1-2.8-0.1c-7.2-0.1-14.2,1.7-20.5,5.2l-25.1-1.9c6.3-3.5,13.3-5.3,20.5-5.2
	C89,43.7,89.9,43.8,90.8,43.8"/>
<path class="st1" d="M92.7,51.3L92.7,51.3l-25.1-1.9c-0.2,0-0.4-0.2-0.5-0.4c0-0.2,0.1-0.5,0.3-0.6c6.4-3.5,13.5-5.3,20.8-5.3
	c0.9,0,1.8,0,2.8,0.1l25.1,1.9l0,0c0.3,0,0.5,0.3,0.5,0.6c0,0,0,0,0,0c0,0.3-0.3,0.5-0.6,0.5c0,0,0,0,0,0c-0.9-0.1-1.8-0.1-2.7-0.1
	c-7.1-0.1-14,1.7-20.2,5.1C92.9,51.3,92.8,51.3,92.7,51.3 M69.5,48.5l23.1,1.8c4.4-2.4,9.1-4,14-4.7l-15.8-1.2
	c-0.9-0.1-1.8-0.1-2.7-0.1C81.6,44.2,75.3,45.7,69.5,48.5"/>
<g>
	<defs>
		<path id="SVGID_3_" d="M69.5,48.5c5.8-2.8,12.2-4.3,18.6-4.3c0.9,0,1.8,0,2.7,0.1l15.8,1.2c-4.9,0.7-9.6,2.3-14,4.7L69.5,48.5z
			 M87.7,43.7c-7,0-13.9,1.8-20.1,5.2l25.1,1.9c6.3-3.5,13.3-5.3,20.5-5.2c0.9,0,1.8,0,2.7,0.1l-25.1-1.9c-0.9-0.1-1.8-0.1-2.8-0.1
			H87.7"/>
	</defs>
	<clipPath id="SVGID_4_">
		<use xlink:href="#SVGID_3_"  style="overflow:visible;"/>
	</clipPath>
	<g class="st3">
		<path class="st0" d="M90.8,43.8l25.1,1.9c-0.9-0.1-1.8-0.1-2.8-0.1c-7.2-0.1-14.2,1.7-20.5,5.2l-25.1-1.9
			c6.3-3.5,13.3-5.3,20.5-5.2C89,43.7,89.9,43.8,90.8,43.8"/>
		<path class="st1" d="M92.7,51.3L92.7,51.3l-25.1-1.9c-0.2,0-0.4-0.2-0.5-0.4c0-0.2,0.1-0.5,0.3-0.6c6.4-3.5,13.5-5.3,20.8-5.3
			c0.9,0,1.8,0,2.8,0.1l25.1,1.9l0,0c0.3,0,0.5,0.3,0.5,0.6c0,0,0,0,0,0c0,0.3-0.3,0.5-0.6,0.5c0,0,0,0,0,0
			c-0.9-0.1-1.8-0.1-2.7-0.1c-7.1-0.1-14,1.7-20.2,5.1C92.9,51.3,92.8,51.3,92.7,51.3 M69.5,48.5l23.1,1.8c4.4-2.4,9.1-4,14-4.7
			l-15.8-1.2c-0.9-0.1-1.8-0.1-2.7-0.1C81.6,44.2,75.3,45.7,69.5,48.5"/>
	</g>
</g>
<path class="st0" d="M88.2,34.7c28.4,0.3,51.1,24.3,50.7,53.7s-23.8,53-52.2,52.7S35.6,116.8,36,87.4c0.2-16.4,7.8-31.8,20.6-41.9
	l6.9,5.9c-11.7,8.3-18.7,21.7-18.9,36.1c-0.3,24.4,18.5,44.4,42.1,44.7s43-19.4,43.4-43.8S111.7,44,88.1,43.7
	c-7.2-0.1-14.2,1.7-20.5,5.2l0.5-10.2C74.4,36,81.3,34.7,88.2,34.7"/>
<path class="st1" d="M87.2,141.7h-0.5c-13.6-0.1-26.5-5.7-35.9-15.5c-21-21.9-20.3-56.7,1.6-77.8c1.2-1.2,2.6-2.3,3.9-3.4
	c0.2-0.2,0.5-0.2,0.7,0l6.9,5.9c0.2,0.2,0.3,0.5,0.1,0.7c0,0-0.1,0.1-0.1,0.1c-11.6,8.2-18.5,21.5-18.7,35.7
	c-0.2,11.8,4.2,23.1,12.4,31.6c7.6,7.9,18.1,12.5,29.1,12.6c23.3,0.2,42.5-19.2,42.8-43.3c0.3-11.8-4.2-23.1-12.4-31.5
	c-12.9-13.4-33.1-16.4-49.4-7.4c-0.3,0.1-0.6,0.1-0.7-0.2c0-0.1-0.1-0.2-0.1-0.3l0.5-10.2c0-0.2,0.1-0.4,0.3-0.5
	c19.3-8.3,41.7-3.7,56.3,11.4C134.2,60,139.7,74,139.4,88.5C139,117.9,115.6,141.7,87.2,141.7 M56.6,46.2
	C33.4,64.9,29.8,98.8,48.5,122c1,1.2,2,2.4,3.1,3.5c9.2,9.6,21.9,15,35.2,15.1c28.1,0.3,51.2-23.1,51.7-52.2
	c0.3-14.2-5.1-27.8-15-38c-14.2-14.7-35.9-19.2-54.8-11.3L68.2,48c6.2-3.2,13-4.9,19.9-4.8c11.3,0.1,22.1,4.7,29.9,12.9
	c8.4,8.6,13,20.3,12.7,32.3c-0.4,24.5-19.8,44.3-43.5,44.3h-0.4c-11.3-0.1-22-4.8-29.9-12.9c-8.4-8.6-13-20.3-12.8-32.3
	c0.2-14.3,7-27.7,18.6-36.1L56.6,46.2z"/>
<path class="st0" d="M91.5,34.9l25.1,1.9c26.8,2,47.8,25.3,47.4,53.6c-0.4,29.4-23.8,53-52.2,52.7c-1.1,0-2.2-0.1-3.3-0.1L83.4,141
	c1.1,0.1,2.2,0.1,3.3,0.1c28.4,0.3,51.8-23.3,52.2-52.7C139.3,60.2,118.3,36.9,91.5,34.9"/>
<path class="st1" d="M112.3,143.6h-0.5c-1.1,0-2.2,0-3.3-0.1l-25.1-1.9c-0.3,0-0.5-0.3-0.5-0.6c0-0.3,0.3-0.5,0.6-0.5c0,0,0,0,0,0
	l0,0c1.1,0.1,2.2,0.1,3.2,0.1h0.5c27.8,0,50.8-23.3,51.2-52.2c0.4-27.7-20.2-51-46.9-53.1c-0.3,0-0.5-0.3-0.5-0.5c0,0,0,0,0,0
	c0-0.3,0.2-0.5,0.5-0.5c0,0,0,0,0,0l25.1,1.9c27.2,2.1,48.3,25.8,47.9,54.1C164.1,119.8,140.7,143.6,112.3,143.6 M93.7,141.3
	l14.8,1.1c1.1,0.1,2.2,0.1,3.3,0.1h0.5c27.8,0,50.8-23.3,51.2-52.2c0.4-27.7-20.2-51-46.9-53l-14.9-1.1
	c22.1,6.4,38.1,27.6,37.7,52.3C139,115.6,119.1,138,93.7,141.3"/>
<path class="st1" d="M150.3,152.5c0,9.5-7.7,17.3-17.3,17.3c-9.5,0-17.3-7.7-17.3-17.3c0-9.5,7.7-17.3,17.2-17.3
	C142.5,135.2,150.3,142.9,150.3,152.5"/>
<path class="st0" d="M146.6,152.5c0,7.5-6.1,13.5-13.5,13.5c-7.5,0-13.5-6.1-13.5-13.5c0-7.5,6-13.5,13.5-13.5
	C140.5,138.9,146.5,145,146.6,152.5C146.5,152.5,146.5,152.5,146.6,152.5"/>
<path class="st1" d="M138.7,152.5c0,3.1-2.5,5.7-5.7,5.7c-3.1,0-5.7-2.5-5.7-5.7s2.5-5.7,5.7-5.7S138.7,149.3,138.7,152.5
	L138.7,152.5"/>
</svg>
