<svg id="Capa_1" data-name="Capa 1" xmlns="http://www.w3.org/2000/svg" xmlns:xlink="http://www.w3.org/1999/xlink" viewBox="0 0 200 200"><defs><style>.cls-1{fill:none;}.cls-2{fill:#ffde00;}.cls-3{clip-path:url(#clip-path);}.cls-4{clip-path:url(#clip-path-2);}</style><clipPath id="clip-path"><path class="cls-1" d="M84.1,131.53c-22.13-1.68-39.2-21-38.87-44a44.44,44.44,0,0,1,18.5-35.58l23.51,1.78A45.52,45.52,0,0,0,69.29,89.39C69,109.64,81.88,127.1,99.9,132.72Zm-39.4-44c-.34,23.48,17,42.86,39.36,44.54l25.12,1.9c-22.3-1.69-39.69-21.07-39.35-44.54A44.84,44.84,0,0,1,88.71,53.29l-25.12-1.9A44.85,44.85,0,0,0,44.7,87.51"/></clipPath><clipPath id="clip-path-2"><path class="cls-1" d="M69.47,48.52a41.65,41.65,0,0,1,18.6-4.27c.91,0,1.81,0,2.7.12l15.78,1.19a42.39,42.39,0,0,0-14,4.71Zm18.19-4.8a41.43,41.43,0,0,0-20.07,5.19l25.12,1.9a41.38,41.38,0,0,1,20.49-5.19c.92,0,1.84,0,2.74.11L90.82,43.84c-.92-.07-1.83-.1-2.75-.12h-.41"/></clipPath></defs><path class="cls-2" d="M100,193.71A93.71,93.71,0,1,1,193.72,100,93.83,93.83,0,0,1,100,193.71"/><path d="M100,8.41A91.59,91.59,0,1,1,8.41,100,91.59,91.59,0,0,1,100,8.41m0-4.24A95.83,95.83,0,1,0,195.83,100,95.94,95.94,0,0,0,100,4.17"/><path d="M123.64,112a21.3,21.3,0,1,1-21.3-21.29A21.3,21.3,0,0,1,123.64,112"/><path class="cls-2" d="M110.36,112a8,8,0,1,1-8-8,8,8,0,0,1,8,8"/><path d="M107.56,112a5.22,5.22,0,1,1-5.22-5.21,5.22,5.22,0,0,1,5.22,5.21"/><path d="M88.89,152.47a17.28,17.28,0,1,1-17.28-17.28,17.28,17.28,0,0,1,17.28,17.28"/><path class="cls-2" d="M85.14,152.47a13.53,13.53,0,1,1-13.53-13.53,13.52,13.52,0,0,1,13.53,13.53"/><path d="M77.27,152.47a5.67,5.67,0,1,1-5.66-5.66,5.66,5.66,0,0,1,5.66,5.66"/><path d="M150.32,152.47A17.28,17.28,0,1,1,133,135.19a17.28,17.28,0,0,1,17.28,17.28"/><path class="cls-2" d="M146.57,152.47A13.54,13.54,0,1,1,133,138.94a13.52,13.52,0,0,1,13.53,13.53"/><path d="M138.7,152.47a5.66,5.66,0,1,1-5.66-5.66,5.66,5.66,0,0,1,5.66,5.66"/><polygon class="cls-2" points="56.65 45.49 81.77 47.39 88.71 53.3 63.58 51.39 56.65 45.49"/><path d="M88.71,53.82h0l-25.12-1.9a.5.5,0,0,1-.31-.12L56.3,45.9a.56.56,0,0,1-.15-.61.53.53,0,0,1,.54-.33l25.13,1.9a.56.56,0,0,1,.3.12l6.94,5.91a.52.52,0,0,1,.14.6.53.53,0,0,1-.49.33M63.8,50.88l23.32,1.76L81.56,47.9,58.23,46.14Z"/><path class="cls-2" d="M109.18,134l-25.12-1.9C61.75,130.37,44.36,111,44.7,87.5A44.82,44.82,0,0,1,63.59,51.4l25.12,1.89A44.85,44.85,0,0,0,69.83,89.4c-.34,23.49,17,42.86,39.35,44.55"/><path d="M109.19,134.48h0L84,132.58c-22.69-1.72-40.19-21.52-39.85-45.08A45.5,45.5,0,0,1,63.28,51a.6.6,0,0,1,.35-.1l25.12,1.91a.52.52,0,0,1,.47.39.53.53,0,0,1-.2.57A44.42,44.42,0,0,0,70.35,89.41c-.33,23,16.74,42.33,38.87,44h0a.53.53,0,0,1,0,1.06M63.74,51.94A44.42,44.42,0,0,0,45.23,87.51c-.33,23,16.74,42.34,38.88,44l15.79,1.19c-18-5.6-30.9-23.07-30.61-43.31A45.56,45.56,0,0,1,87.23,53.71Z"/><g class="cls-3"><path class="cls-2" d="M81.16,131.73l25.12,1.9c1,.14,1.93.25,2.91.32l-25.13-1.9c-1-.07-2-.18-2.9-.32"/><path d="M109.19,134.48h0L84,132.58c-1-.08-2-.19-2.93-.33a.53.53,0,0,1,.11-1.05l25.12,1.9c1,.14,2,.25,2.91.32a.53.53,0,0,1,0,1.06"/></g><path class="cls-2" d="M90.81,43.84l25.13,1.89c-.91-.06-1.82-.1-2.75-.11a41.4,41.4,0,0,0-20.48,5.19l-25.13-1.9a41.54,41.54,0,0,1,20.49-5.19c.93,0,1.84.05,2.74.12"/><path d="M92.71,51.34h0l-25.12-1.9a.52.52,0,0,1-.48-.42.53.53,0,0,1,.27-.57,42.23,42.23,0,0,1,20.75-5.26c.92,0,1.85.05,2.77.12L116,45.21h0a.53.53,0,0,1,.5.56.54.54,0,0,1-.58.5c-.89-.07-1.8-.11-2.69-.12A41.07,41.07,0,0,0,93,51.28a.58.58,0,0,1-.26.06M69.47,48.52l23.12,1.75a42.39,42.39,0,0,1,14-4.71L90.77,44.37c-.89-.07-1.8-.11-2.7-.12a41.65,41.65,0,0,0-18.6,4.27"/><g class="cls-4"><path class="cls-2" d="M90.81,43.84l25.13,1.89c-.91-.06-1.82-.1-2.75-.11a41.4,41.4,0,0,0-20.48,5.19l-25.13-1.9a41.54,41.54,0,0,1,20.49-5.19c.93,0,1.84.05,2.74.12"/><path d="M92.71,51.34h0l-25.12-1.9a.52.52,0,0,1-.48-.42.53.53,0,0,1,.27-.57,42.23,42.23,0,0,1,20.75-5.26c.92,0,1.85.05,2.77.12L116,45.21h0a.53.53,0,0,1,.5.56.54.54,0,0,1-.58.5c-.89-.07-1.8-.11-2.69-.12A41.07,41.07,0,0,0,93,51.28a.58.58,0,0,1-.26.06M69.47,48.52l23.12,1.75a42.39,42.39,0,0,1,14-4.71L90.77,44.37c-.89-.07-1.8-.11-2.7-.12a41.65,41.65,0,0,0-18.6,4.27"/></g><path class="cls-2" d="M88.2,34.72c28.41.28,51.1,24.34,50.68,53.73s-23.8,53-52.21,52.72S35.58,116.83,36,87.42A54.06,54.06,0,0,1,56.64,45.49l6.94,5.91A44.81,44.81,0,0,0,44.7,87.5c-.35,24.45,18.49,44.43,42.11,44.67s43-19.37,43.35-43.8S111.67,44,88.07,43.72a41.54,41.54,0,0,0-20.49,5.19l.47-10.16a49.75,49.75,0,0,1,20.15-4"/><path d="M87.18,141.71h-.52a50.56,50.56,0,0,1-35.89-15.46,55,55,0,0,1,5.55-81.17.54.54,0,0,1,.67,0L63.93,51a.53.53,0,0,1,0,.84A44.47,44.47,0,0,0,45.22,87.52a44,44,0,0,0,12.44,31.56A41,41,0,0,0,86.8,131.64c23.32.22,42.48-19.18,42.83-43.29A43.89,43.89,0,0,0,117.2,56.8a41,41,0,0,0-49.36-7.42.53.53,0,0,1-.79-.49l.47-10.16a.53.53,0,0,1,.32-.46,50.52,50.52,0,0,1,56.27,11.38A53.93,53.93,0,0,1,139.4,88.46c-.41,29.47-23.8,53.25-52.22,53.25M56.63,46.18a53.93,53.93,0,0,0-5.11,79.32,49.51,49.51,0,0,0,35.16,15.14c28.14.3,51.25-23.13,51.67-52.2a53,53,0,0,0-15-38A49.43,49.43,0,0,0,68.56,39.11L68.15,48a42.49,42.49,0,0,1,19.93-4.82A42.06,42.06,0,0,1,118,56.06a45,45,0,0,1,12.74,32.31c-.36,24.54-19.81,44.33-43.47,44.33h-.43a42.14,42.14,0,0,1-29.88-12.88A44.93,44.93,0,0,1,44.17,87.5,45.52,45.52,0,0,1,62.73,51.36Z"/><path class="cls-2" d="M91.5,34.86l25.12,1.9c26.85,2,47.78,25.34,47.38,53.59-.42,29.41-23.8,53-52.2,52.72-1.11,0-2.21-.06-3.3-.14L83.37,141c1.09.09,2.19.13,3.3.14,28.41.28,51.78-23.3,52.2-52.72.41-28.25-20.53-51.56-47.37-53.59"/><path d="M112.31,143.6h-.52c-1.09,0-2.22,0-3.33-.14l-25.12-1.9a.54.54,0,0,1-.5-.57.53.53,0,0,1,.58-.49h0c1.07.07,2.15.12,3.21.13h.51c27.85,0,50.75-23.31,51.16-52.2.41-27.73-20.19-51-46.88-53.06a.52.52,0,0,1-.49-.56.51.51,0,0,1,.57-.49l25.12,1.89c27.25,2.07,48.28,25.84,47.87,54.13-.42,29.47-23.8,53.25-52.22,53.25m-18.6-2.32,14.83,1.12c1.09.09,2.18.13,3.26.14h.51c27.84,0,50.75-23.31,51.16-52.2.4-27.74-20.2-51-46.89-53l-14.89-1.13c22.14,6.41,38.07,27.64,37.72,52.3C139,115.63,119.1,138,93.71,141.28"/><path d="M150.32,152.47A17.28,17.28,0,1,1,133,135.19a17.28,17.28,0,0,1,17.28,17.28"/><path class="cls-2" d="M146.57,152.47A13.54,13.54,0,1,1,133,138.94a13.52,13.52,0,0,1,13.53,13.53"/><path d="M138.7,152.47a5.66,5.66,0,1,1-5.66-5.66,5.66,5.66,0,0,1,5.66,5.66"/></svg>