<?xml version="1.0" encoding="utf-8"?>
<!-- Generator: Adobe Illustrator 24.3.0, SVG Export Plug-In . SVG Version: 6.00 Build 0)  -->
<svg version="1.1" id="Capa_1" xmlns="http://www.w3.org/2000/svg" xmlns:xlink="http://www.w3.org/1999/xlink" x="0px" y="0px"
	 viewBox="0 0 200 200" style="enable-background:new 0 0 200 200;" xml:space="preserve">
<style type="text/css">
	.st0{fill:#0056A3;}
	.st1{fill:#FFDE00;}
</style>
<path class="st0" d="M100,193.7c-51.8,0-93.7-42-93.7-93.7S48.2,6.3,100,6.3s93.7,42,93.7,93.7c0,0,0,0,0,0
	C193.7,151.7,151.7,193.6,100,193.7"/>
<path class="st1" d="M100,8.4c50.6,0,91.6,41,91.6,91.6s-41,91.6-91.6,91.6S8.4,150.6,8.4,100C8.4,49.4,49.4,8.4,100,8.4
	C100,8.4,100,8.4,100,8.4 M100,4.2C47.1,4.2,4.2,47.1,4.2,100s42.9,95.8,95.8,95.8s95.8-42.9,95.8-95.8c0,0,0,0,0,0
	C195.8,47.1,152.9,4.2,100,4.2"/>
<path class="st1" d="M125.3,75.9c0,15.6-12.6,28.2-28.2,28.2S69,91.4,69,75.9s12.6-28.2,28.2-28.2c0,0,0,0,0,0
	C112.7,47.7,125.3,60.3,125.3,75.9L125.3,75.9"/>
<path class="st0" d="M107.8,75.9c0,5.9-4.7,10.6-10.6,10.6c-5.9,0-10.6-4.7-10.6-10.6c0-5.9,4.7-10.6,10.6-10.6c0,0,0,0,0,0
	C103,65.3,107.8,70,107.8,75.9"/>
<path class="st1" d="M104.1,75.9c0,3.8-3.1,6.9-6.9,6.9s-6.9-3.1-6.9-6.9c0-3.8,3.1-6.9,6.9-6.9C101,69,104.1,72.1,104.1,75.9
	C104.1,75.9,104.1,75.9,104.1,75.9"/>
<path class="st1" d="M79.4,129.4c0,12.6-10.2,22.9-22.8,22.9s-22.9-10.2-22.9-22.8s10.2-22.9,22.8-22.9c0,0,0,0,0,0
	C69.2,106.6,79.4,116.8,79.4,129.4"/>
<path class="st0" d="M74.4,129.4c0,9.9-8,17.9-17.9,17.9s-17.9-8-17.9-17.9s8-17.9,17.9-17.9S74.4,119.5,74.4,129.4L74.4,129.4"/>
<path class="st1" d="M64,129.4c0,4.1-3.4,7.5-7.5,7.5s-7.5-3.4-7.5-7.5s3.4-7.5,7.5-7.5h0C60.6,121.9,64,125.3,64,129.4"/>
<path class="st1" d="M160.6,129.4c0,12.6-10.2,22.8-22.8,22.8c-12.6,0-22.8-10.2-22.8-22.8c0-12.6,10.2-22.8,22.8-22.8l0,0
	C150.4,106.6,160.6,116.8,160.6,129.4"/>
<path class="st0" d="M155.6,129.4c0,9.9-8,17.9-17.9,17.9s-17.9-8-17.9-17.9c0-9.9,8-17.9,17.9-17.9
	C147.6,111.5,155.6,119.5,155.6,129.4C155.6,129.4,155.6,129.4,155.6,129.4"/>
<path class="st1" d="M145.2,129.4c0,4.1-3.4,7.5-7.5,7.5c-4.1,0-7.5-3.4-7.5-7.5c0-4.1,3.4-7.5,7.5-7.5S145.2,125.3,145.2,129.4
	L145.2,129.4"/>
<path class="st1" d="M97.2,115c-28.3-0.8-52.7-16.7-63.7-41.5l11.4-0.2C58.7,99.2,89.4,111,117,101.2l58.4-26.3l4.2,9.3l-46,20.5
	c-0.9,0.5-18.4,10.3-35.2,10.3L97.2,115"/>
<path class="st1" d="M44.4,74.1c14.1,25.9,45,37.8,72.9,27.9h0.2h0.1l57.6-26l3.5,7.9L133.3,104l-0.1,0.1h-0.1
	c-0.7,0.4-18.1,10.1-34.7,10.1h-1.1c-27.6-0.8-51.5-16.1-62.6-40.1L44.4,74.1 M44.8,72.5H33.6c-0.5,0-0.9,0.4-0.9,0.9
	c0,0.1,0,0.2,0.1,0.3c10.9,24.7,35.7,41.2,64.4,42h1.2c17.1,0,34.8-9.9,35.5-10.3h0.1l46-20.4c0.5-0.2,0.7-0.7,0.5-1.2l-4.1-9.2
	c-0.1-0.3-0.5-0.5-0.8-0.5c-0.1,0-0.3,0-0.4,0.1l-58.2,26.2h-0.1c-27.3,9.7-57.5-2-71.2-27.5C45.5,72.7,45.2,72.5,44.8,72.5"/>
</svg>
