<svg id="Capa_1" data-name="Capa 1" xmlns="http://www.w3.org/2000/svg" viewBox="0 0 200 200"><defs><style>.cls-1{fill:#ffde00;}</style></defs><path class="cls-1" d="M100,193.71A93.72,93.72,0,1,1,193.72,100,93.83,93.83,0,0,1,100,193.71"/><path d="M100,8.41A91.59,91.59,0,1,1,8.41,100,91.59,91.59,0,0,1,100,8.41m0-4.24A95.83,95.83,0,1,0,195.83,100,95.93,95.93,0,0,0,100,4.17"/><path d="M125.32,75.89A28.16,28.16,0,1,1,97.16,47.73a28.16,28.16,0,0,1,28.16,28.16"/><path class="cls-1" d="M107.77,75.89a10.61,10.61,0,1,1-10.61-10.6,10.61,10.61,0,0,1,10.61,10.6"/><path d="M104.06,75.89a6.9,6.9,0,1,1-6.9-6.9,6.89,6.89,0,0,1,6.9,6.9"/><path d="M79.39,129.43a22.85,22.85,0,1,1-22.84-22.84,22.85,22.85,0,0,1,22.84,22.84"/><path class="cls-1" d="M74.44,129.43a17.9,17.9,0,1,1-17.9-17.9,17.9,17.9,0,0,1,17.9,17.9"/><path d="M64,129.43a7.49,7.49,0,1,1-7.49-7.49A7.49,7.49,0,0,1,64,129.43"/><path d="M160.59,129.43a22.84,22.84,0,1,1-22.84-22.84,22.85,22.85,0,0,1,22.84,22.84"/><path class="cls-1" d="M155.64,129.43a17.89,17.89,0,1,1-17.89-17.9,17.89,17.89,0,0,1,17.89,17.9"/><path d="M145.24,129.43a7.49,7.49,0,1,1-7.49-7.49,7.49,7.49,0,0,1,7.49,7.49"/><path d="M97.18,115c-28.31-.78-52.71-16.68-63.7-41.48l11.36-.17A59.36,59.36,0,0,0,117,101.23l58.36-26.29,4.21,9.25-46,20.52c-.87.48-18.37,10.28-35.24,10.28l-1.16,0"/><path class="cls-1" d="M44.42,74.12A60.06,60.06,0,0,0,117.28,102l.15,0,.07,0,57.58-26,3.51,7.93L133.25,104l-.13.06-.06,0c-.74.41-18.09,10.11-34.71,10.11H97.21c-27.64-.76-51.52-16.08-62.57-40.06h9.78m.42-1.59H33.6a.93.93,0,0,0-.85,1.28c10.94,24.69,35.67,41.17,64.41,42l1.19,0c17.06,0,34.81-9.94,35.49-10.33l.06,0,46-20.37a.91.91,0,0,0,.46-1.2l-4.06-9.19a.92.92,0,0,0-.83-.54.88.88,0,0,0-.38.09l-58.21,26.22-.09,0A58.51,58.51,0,0,1,45.62,73a.89.89,0,0,0-.78-.47"/></svg>