<?xml version="1.0" encoding="utf-8"?>
<!-- Generator: Adobe Illustrator 24.3.0, SVG Export Plug-In . SVG Version: 6.00 Build 0)  -->
<svg version="1.1" id="Capa_1" xmlns="http://www.w3.org/2000/svg" xmlns:xlink="http://www.w3.org/1999/xlink" x="0px" y="0px"
	 viewBox="0 0 200 200" style="enable-background:new 0 0 200 200;" xml:space="preserve">
<style type="text/css">
	.st0{fill:#0056A3;}
	.st1{fill:#FFDE00;}
	.st2{fill:none;}
</style>
<path class="st0" d="M100,193.7c-51.8,0-93.7-42-93.7-93.7S48.2,6.3,100,6.3s93.7,42,93.7,93.7c0,0,0,0,0,0
	C193.7,151.7,151.7,193.6,100,193.7"/>
<path class="st1" d="M100,8.4c50.6,0,91.6,41,91.6,91.6s-41,91.6-91.6,91.6S8.4,150.6,8.4,100C8.4,49.4,49.4,8.4,100,8.4
	C100,8.4,100,8.4,100,8.4 M100,4.2C47.1,4.2,4.2,47.1,4.2,100s42.9,95.8,95.8,95.8s95.8-42.9,95.8-95.8c0,0,0,0,0,0
	C195.8,47.1,152.9,4.2,100,4.2"/>
<rect x="155.7" y="50" class="st1" width="5" height="103.9"/>
<path class="st1" d="M193.2,96.8c0,9-4.1,32.2-4.1,32.2h-28.4V70.8h28.3C189.1,70.8,193.2,87.8,193.2,96.8z"/>
<polygon class="st1" points="156.9,146.5 157.2,146.4 156.8,145.9 "/>
<path class="st1" d="M157.3,142c-0.4-0.4-0.6-1.2-1.3-1.2l0.6,0.7c-0.5,0.1-0.5,0.6-0.3,1v-0.5c0.1,0.1,0.4,0,0.5,0.2
	c-0.3,0.7,0.5,0.9-0.1,1.6l0,0l0.3,0.5c-0.1,0.2-0.3,0.1-0.4,0c0.3,0.4,0.5,0.9,0.5,1.5c1-0.5-0.8-1.4,0.2-1.9h0.1
	C157,143.3,157.6,142.6,157.3,142"/>
<path class="st1" d="M156.4,144.4L156.4,144.4L156.4,144.4"/>
<path class="st1" d="M157.8,118.4h-0.1C157.7,118.4,157.8,118.4,157.8,118.4"/>
<path class="st1" d="M155.9,126.3L155.9,126.3C155.7,126.3,155.7,126.3,155.9,126.3"/>
<path class="st1" d="M157.6,75.2l0.2-0.2C157.6,75,157.6,75.1,157.6,75.2"/>
<path class="st1" d="M157.8,64.5L157.8,64.5"/>
<path class="st1" d="M154.8,69.4h-0.2C154.7,69.4,154.8,69.4,154.8,69.4"/>
<path class="st1" d="M154.4,65.9c0.1-0.1,0.1-0.2,0.1-0.3C154.4,65.7,154.3,65.8,154.4,65.9"/>
<path class="st1" d="M157.9,64.6C157.8,64.6,157.8,64.6,157.9,64.6C157.8,64.6,157.8,64.6,157.9,64.6"/>
<path class="st1" d="M154.4,74.6l-0.5,0.1C154.1,74.7,154.3,74.6,154.4,74.6"/>
<path class="st1" d="M154,65.1c0.1,0,0.2-0.1,0.2-0.2C154.1,64.9,154,65,154,65.1"/>
<path class="st1" d="M157.2,141.3c0,0.1,0,0.2,0.1,0.3C157.3,141.5,157.3,141.4,157.2,141.3"/>
<path class="st1" d="M154,94c-0.1,0-0.1,0-0.2-0.1C153.8,94,153.9,94,154,94"/>
<path class="st1" d="M154,82.6L154,82.6C154,82.6,153.9,82.6,154,82.6L154,82.6z"/>
<path class="st1" d="M154.1,85.9H154C154,85.9,154.1,85.9,154.1,85.9"/>
<path class="st1" d="M153.5,80.1l-0.2-0.1L153.5,80.1z"/>
<path class="st1" d="M154,77.7c-0.2,0.1-0.4,0-0.5-0.1c-0.2,0.6,0.4,0.8,0,1.4l0.3-0.3c0.4,0.4,0.5,1,0.1,1.4c0,0-0.1,0.1-0.1,0.1
	l-0.2-0.1c0.4,0.4-0.3,1,0,1.2c0.2-0.2,0.4,0,0.6-0.2l0.4,1l-0.7,0.1l0.2,0.5c0.3-0.1-0.2,0.7,0.4,0.7c-0.3,0.3-0.5-0.1-0.8-0.2
	c0.2,0.3-0.1,0.3,0.3,0.6l-0.6,0.3l0.4,0.8c-0.1,0-0.1,0-0.2,0c0.5,0.3-0.3,0.9,0.6,1.3c0,0-0.1,0-0.1,0c0.5,0.3,0.1,0.8,0,1
	c0.1,0.4,0.6,0.2,0.8,0.2c-0.1,1.1-0.1,0.8,0.6,1.7c-0.8,0.6-1.2-0.7-1.7,0c0.4,0.1,0.7,0.6,0.8,1.2c-0.2,0.7-0.6,1.3-1,1.9l0.5-0.1
	l0.3,0.7l-0.7-0.4c0.2,0.1,0.5,0.5,0.7,0.7c0.4,0.8-1.1,0.4-0.3,1L154,94c0.4,0.2,0.2,0.7,0.4,1.3l-0.6-0.2l0.1-0.4
	c-0.6,0.2,0.1,0.6,0.1,1c0.2,0.4,0.7,0.2,0.9,0.4c0,0.1,0.2,0.3,0,0.4c-0.2,0.3-0.8,0-1-0.1c0.6,0.3,0.6,0.4,0.8,1
	c-0.3,0-0.4,0-0.5-0.1c0.1,0.2,0.3,0.3,0.5,0.3l-0.4,0.2c-0.5,0.7,1.2,0.7,1,1.6c-0.3-0.2,0.1,0.7-0.3,1c-0.1-0.3-0.9,0.2-1.3,0
	c-0.2,0.7,0.8,0.3,0.9,0.8l-0.8-0.2c0.4,0.5,0.4,0.1,0.7,0.7c-0.2-0.1-0.2,0.3-0.5-0.1c-0.1,0.7,0,0.5-0.1,1.2l0.8,0.1
	c0.1,0.2-0.3,0.3-0.4,0.3c0-0.1,0-0.2-0.1-0.2c-0.6,0.2,0.4,0.4-0.2,0.7c0.2-0.1,0.6-0.2,0.6,0.1c-0.5-0.1-0.4,0.4-0.6,0.4
	c0.3-0.2,0.1,0.6,0.6,0.6c-0.4,0.3-0.4-0.1-0.6-0.1c0.6,0.3,0.1,1.1,0.4,1.3h-0.1c0.4,0.3,0.4,0.8,1,1.5l-0.4-0.2
	c-0.2,0.6,0.9,0.4,0.9,0.9c-0.6-0.1,0,0.9-0.6,0.6c0.4,0.3,0.5,0.7,1.1,0.9c-0.3,0.3-0.9-0.6-1-0.2l0.3,0.4l-0.5,0
	c0.3,0,0.3,0.4,0.5,0.4c-0.3,0.1-0.7,0.2-1,0.2c0.1,0.3-0.3,0.7,0.1,0.9h-0.2c0.8,0.3,0.1,0.9,0.9,1l-0.4,0.2
	c0.1,0.4,0.9,0.4,1.1,0.6c0,0.2,0,0.4,0,0.6c-0.5-0.6-0.6,0.3-0.9,0.4c0,0.2,0.1,0.9,0.4,1.1c-0.4-0.3-0.7-0.1-0.8-0.6
	c-0.8,0.3,0.2,0.7,0.1,1.3h-0.4c0.2,0.8,0.9,0.8,1.5,1.1c-0.3,0.1-0.7,0-1-0.2c-0.3,0.5,0,1.3,0,1.9c-0.2,0.1-0.4,0.1-0.6,0
	c0,0,0-0.1-0.1-0.1c0.3,0.6-0.1,1.3,0.7,1.7c-0.3-0.1-0.2,0.3-0.4,0.5c0.2,0,0.4,0,0.3,0.1c0.4,0.4,0.5,1,0.3,1.6l-0.2-0.2
	c-0.1,1,1.2,1.4,0.6,2.5c-0.2,0.2-0.6-0.2-0.6,0.2c0.3,0.2,0.9,0.1,0.7,0.6h-0.5l0.5,0.3c0.4-0.2,0.3-0.7,0.7-0.3
	c-0.5,0.4,0.5,0.4-0.1,0.9c-0.1-0.1-0.4-0.3-0.6-0.4c-0.6,1.2,0.5,1.6-0.1,2.8c0.4,0.6,0.5,1.3,0.9,1.7c-0.5,0-0.9-0.1-1.4-0.3
	c-0.1,0.5,1.1,0.7,0.3,1.1c0.7,0.2,0.4,1.4,1.4,1.5c-0.2,0,0,0.5-0.5,0c0.3,0.7-0.9,0.9-0.8,1.2s0.6-0.2,0.6,0.2
	c0,0-0.1,0.1-0.2,0.1l0.2,0.2c-0.2,0.1-0.5-0.2-0.7-0.2c-0.2,0.6,0.6,0.9,0.6,1.6L156,136v0.7h-0.1l0.4,0.5H156
	c0.1,0.1,0.2,0.1,0.3,0.3l-0.3-0.1c0.4,0.2,0.7,0.6,0.7,1.1l-0.1,0.1l0.6,0.7c-0.3,0.4-0.7-0.5-0.5,0.3l-0.6-0.2
	c0.3,0.6-0.1,0.6,0.1,1c0.3-0.2,0.3-0.4,0.6-0.2c-0.7,0.4,0.2,0.7,0.5,1.1c0-0.2,0-0.3-0.4-0.5c0-0.2,0.3-0.1,0.4-0.2l-0.4-0.3
	l0.4-0.1l-0.3-0.5c0.5,0,0.1-0.5,0.6-0.3c-0.2-0.4,0.1-0.6-0.4-0.9c0.3-0.3,0.4,0.4,0.4,0.1c-0.3-1.5-0.4-3.1-0.2-4.6l0.2,0.1
	c-0.2-0.1-0.4-0.4-0.6-0.5c0.4-0.3,0.9-1.3,0.2-1.6c0,0,0.2,0,0.2,0.1c-0.1-0.5,0.4-1.5,0.4-2.2c-0.8-0.3,0.5-1.1-0.6-1.4l0.2,0.2
	c-0.3,0.3-0.8-0.4-1-0.5c0.7-0.2,0.5,0,1.2-0.3l-0.3,0.3l0.6-0.1c-1.5-0.9,0.7-1.8-0.4-2.3c0.1,0,0.2,0,0.2,0.1
	c0.3-0.4-0.4-0.7-0.6-1c0.3,0,0.5,0.2,0.7,0.3c0.2-0.7-0.6-1.8-0.1-2.6c-0.4-0.3-0.5,0.1-0.8-0.2c0.1-0.2,0.4-0.4,0.6-0.1
	c0.7-0.7-0.5-2.2,0.2-3.2c-0.4-0.5-0.6-0.2-0.9-1c0.3,0.2,1-0.2,1,0.3h0.3c0.1-0.8,0.2-1.9-0.7-2.3c0.6,0,0.1-0.2,0.5-0.4
	c-0.1-0.1-0.1,0-0.1,0.1c-0.6-0.3,0-0.4-0.1-0.7l0.1,0.1l-0.4-0.6c0.1-0.1,0.3-0.2,0.4-0.3h-0.5c0-0.3,0.6-0.2,0.5-0.5l-0.3,0.1
	c0.2-0.2-0.3-0.6,0.2-0.7c0.1,0,0.1,0,0.1,0.1c0.7-0.4-0.2-1,0.1-1.5l-0.7,0.1c-0.2-0.5,0.1-0.3,0.4-0.3c0-0.3,0.2-0.4,0.3-0.8
	c-0.2-0.2-0.3-0.1-0.5-0.2l0.2-0.4l0.4,0.3c-1.1-0.7,0.1-1.6-0.9-2c0.2-0.2,0.4,0.2,0.6,0.1c0.5-0.8-0.7-1.7-0.2-2.3
	c0.5-1,0-2.2,0.4-3.4h-0.2l0.2-0.8c-0.4-0.2-0.2-0.8-0.8-1.1c0.1,0,0.4,0,0.5,0c0-0.3-0.3-0.7,0-0.9l0.2,0.1
	c0.2-0.7,0.1-1.5-0.3-2.2c0-0.3,0.3-0.3,0.6-0.3c0-0.4-0.2-0.8-0.5-1.1c0.1-0.1,0.2-0.2,0.3-0.3l-0.5-0.2c0.1-0.2,0.4,0,0.5-0.2
	c-0.6-0.7-0.1-1.5-0.1-2l-0.2,0.1c-0.2-0.2,0.1-0.6,0.4-0.4c0.3-0.9-0.8-1.4-0.6-2.7c0.9-0.2-0.3-1.2,0.7-1.4
	c-0.2-0.6,0.1-0.9-0.4-1.3c0.1,0,0.1-0.1,0.1,0c0.4-0.2,0.1-0.9-0.2-1.5h0.3c-0.6-0.2-0.4-1.1-1.1-1.3c0.1-0.1,0.3,0.1,0.4,0.2
	c0.6-0.3-0.3-0.5-0.2-0.9c0.2,0,0.3-0.1,0.5,0c0.7-1.2-0.5-3,0-4.6c0-0.4-0.7,0.2-0.6-0.4c0.3-0.2,0.6,0.3,0.8-0.1
	c-0.4-0.3-0.3-0.4-0.3-0.7c0.2,0.1,0.4,0,0.5,0.3c0.3-0.2-0.5-0.9,0-1.3c-0.2,0-0.3,0-0.4-0.1c-0.6-0.6,0.6-1.4,0.3-1.4
	c0,0-0.1-0.2-0.2,0c0-0.2,0.1-0.6,0.4-0.5c-0.2-0.1-0.4-0.2-0.5-0.4l0.4,0.1c-0.1-0.1-0.3-0.2-0.4-0.3l-0.2,0.2
	c0.3-0.3-0.4-0.8,0.3-0.8v0.1l0.3-0.5c-0.3-0.2-0.6-0.4-0.5-0.7c0.7-0.1,0.1-0.8,0.2-1.2h0.3c-0.4-0.3-0.2-1.1-0.3-1
	c0-0.3,0.2-0.7,0.4-0.6c-0.1-0.3-0.1-0.8-0.6-0.9l0.6-0.5c-0.9-0.3,0.3-1-0.6-1c0.1-0.3,0.4-0.2,0.5-0.4c-0.4-0.3-0.5-0.8-0.3-1.2
	h0.1c0.1-0.4-0.4-0.9-0.4-1.4l0.7-0.1c-0.1-0.3-0.7-0.4-0.5-0.7c0.1-0.1,0.1,0,0.2,0.1c-0.1-0.3,0-0.6,0.2-0.9
	c-0.5-0.4-0.3-0.8-0.9-1.1c0.6-0.3,0.3,0.5,0.9,0.2c0.4-0.6,0-1.2-0.3-1.9c0.1-0.1,0.3,0,0.4,0c0,0-1.8-1.4-2.4-1.1
	c-0.5-0.2-0.8-0.4-1.2,0.2c0.3,0.2,0.6,0.7,0.1,0.8h0.5c0.2,0.8-1,0.1-1,1l0.2-0.2c0,0.2,0.4,0.3,0.2,0.5s-0.2-0.1-0.3-0.2l0.7,0.8
	c-0.2,0-0.5,0-0.7-0.2c0,0.7,0.9-0.2,0.7,0.7c-0.2,0.2-0.3,0-0.5-0.2c-0.4,0.4,0,0.7,0.2,1.1c-0.4,0-0.4-0.3-0.7,0.1
	c0.2-0.1,0.6-0.1,0.7,0.2c-0.5-0.1-0.2,0.2-0.4,0.4c0.2-0.1,0.3,0,0.4,0.1c0.1,0.1-0.1,0.2-0.1,0.4l0.4-0.3c0.4,0.4-0.2,0.7-0.4,1
	c-0.1,0-0.1-0.1-0.2-0.2c-0.2,0.3-0.6,0.7-0.2,1.2l0,0c0.4,0.8,0.8-0.3,1.2,0.7c-0.1,0.3-1.5-0.2-1,0.6c0.4-0.3,0.9,0.5,1.1,0.9
	l-0.9-0.4c0,0.2,0.2,0.5,0.1,0.6h0.2c0.7,0-0.1,0.6,0.4,0.9c-0.6-0.3-1.2-0.5-1.8-0.5c0.6,0.3,1.1,0.6,0.9,1.2l-0.8-0.4
	c-0.2,0.7,1,1.6,1.6,2.2c-0.6-0.2-0.8,0.1-1.3-0.2l0.1,0.7l-0.6-0.2c0.6,0.3,0.2,0.6,1,0.6c-0.1-0.1-0.2-0.1-0.2-0.2
	c0.3,0,0.8,0.1,0.7,0.5c-0.2,0.2-0.3-0.2-0.6-0.1c0.4,0.2-0.2,0.3,0,0.5l0.4-0.2c0.5,0.2,0,0.4,0.3,0.6c-0.2-0.3-0.5-0.2-0.8-0.1
	h0.1c0,0.2,0.4,0.4,0.1,0.5l-0.7-0.2l0.5,0.3c-0.1,0.1-0.3,0.1-0.4,0c-0.4,0.8,1.4,0,0.8,1c-0.3,0-0.4-0.1-0.3-0.4
	c-0.4,0-0.6,0-0.8,0.3h-0.1c0,0.5,0,1.3,0.4,1.6"/>
<path class="st1" d="M153.6,76.1c0-0.2,0-0.4-0.1-0.7C153.4,75.4,153.2,76.1,153.6,76.1"/>
<path class="st1" d="M154.4,118.8C154.3,118.7,154.3,118.7,154.4,118.8C154.3,118.7,154.3,118.7,154.4,118.8"/>
<path class="st1" d="M154.6,121.1c0.1,0,0.1-0.1,0.1-0.1C154.6,120.9,154.5,120.9,154.6,121.1"/>
<path class="st1" d="M153.9,110.4c0.1,0.2,0.4,0.3,0.6,0.3C154.5,110.5,154.3,110.4,153.9,110.4"/>
<path class="st1" d="M154.2,106c0,0-0.1-0.1-0.1-0.1C154.1,106,154.2,106,154.2,106"/>
<path class="st1" d="M153.8,96.6c0.2,0.2,0.2,0.5,0.3,0.7C154,97.1,154.2,96.8,153.8,96.6"/>
<polygon class="st1" points="155.3,123.8 154.9,123.6 155.2,123.9 "/>
<path class="st1" d="M155.1,121.7c0.1-0.1-0.1-0.5-0.3-0.4C154.9,121.4,155,121.6,155.1,121.7"/>
<polygon class="st1" points="155.4,113.5 155,113.4 155.3,113.6 "/>
<path class="st1" d="M77.3,99.1v1.6c1.4,0,2.7-0.1,4.1-0.2c0-0.6,0-1.1,0-1.7C80,99,78.6,99.1,77.3,99.1"/>
<path class="st1" d="M83.7,98.7v1.4c1.1-0.1,2.2-0.3,3.2-0.4l-0.1-1.6C85.8,98.4,84.8,98.6,83.7,98.7"/>
<path class="st1" d="M89.9,97.6c0,0.5,0,1,0.1,1.5c0.8-0.2,1.7-0.4,2.5-0.6c0-0.5-0.1-1.1-0.1-1.6C91.6,97.1,90.8,97.4,89.9,97.6"/>
<path class="st1" d="M96.8,95.5c0.1,0.6,0.1,1.1,0.2,1.6c0.7-0.2,1.3-0.4,2-0.6c-0.1-0.6-0.1-1.2-0.2-1.8L96.8,95.5"/>
<path class="st1" d="M103.9,92.8c0.1,0.6,0.2,1.2,0.3,1.8c0.5-0.2,1.1-0.4,1.6-0.6c-0.1-0.6-0.2-1.2-0.3-1.9
	C105,92.3,104.5,92.5,103.9,92.8"/>
<path class="st1" d="M111.7,89c0.1,0.6,0.2,1.3,0.3,1.9l1.3-0.6c-0.1-0.6-0.2-1.3-0.4-1.9L111.7,89"/>
<path class="st1" d="M120.9,84c0.2,0.7,0.3,1.3,0.5,2l1-0.5c-0.2-0.7-0.3-1.3-0.5-2L120.9,84"/>
<path class="st1" d="M130.3,78.6c0.2,0.7,0.4,1.3,0.5,1.9l0.8-0.5c-0.2-0.7-0.4-1.3-0.5-2L130.3,78.6"/>
<path class="st1" d="M139.4,73.4l0.6,1.8l0.7-0.4c-0.2-0.6-0.4-1.2-0.6-1.8L139.4,73.4"/>
<path class="st1" d="M148.8,68.2c0.2,0.5,0.4,1.1,0.6,1.6l0.5-0.3c-0.2-0.5-0.4-1-0.6-1.6L148.8,68.2"/>
<path class="st1" d="M77.3,101v1.6c1.4,0,2.7,0,4.1-0.1c0-0.6,0-1.1,0-1.7C80,100.9,78.6,101,77.3,101"/>
<path class="st1" d="M83.8,100.9c0,0.5,0,0.9,0,1.4c1.1,0,2.2-0.1,3.3-0.2c0-0.5,0-1,0-1.5C85.9,100.7,84.9,100.8,83.8,100.9"/>
<path class="st1" d="M90.1,100.3c0,0.5,0,0.9,0,1.4l2.6-0.3c0-0.5,0-1-0.1-1.5C91.7,100,90.9,100.2,90.1,100.3"/>
<path class="st1" d="M97.1,99.2c0,0.5,0.1,1,0.1,1.4c0.7-0.1,1.4-0.2,2.1-0.3c0-0.5-0.1-1-0.1-1.6L97.1,99.2"/>
<path class="st1" d="M104.6,97.6c0.1,0.5,0.1,1,0.2,1.5l1.7-0.3c-0.1-0.5-0.1-1.1-0.2-1.6L104.6,97.6"/>
<path class="st1" d="M112.8,95.5c0.1,0.6,0.2,1.1,0.2,1.6l1.3-0.3c-0.1-0.6-0.1-1.1-0.2-1.7L112.8,95.5"/>
<path class="st1" d="M122.7,92.5c0.1,0.6,0.2,1.2,0.3,1.7L124,94c-0.1-0.6-0.2-1.2-0.3-1.8L122.7,92.5"/>
<path class="st1" d="M132.8,89.3c0.1,0.6,0.2,1.2,0.3,1.8l0.9-0.3c-0.1-0.6-0.2-1.2-0.3-1.8L132.8,89.3"/>
<path class="st1" d="M142.7,86c0.1,0.6,0.2,1.2,0.3,1.7l0.7-0.2c-0.1-0.6-0.2-1.2-0.4-1.7L142.7,86z"/>
<path class="st1" d="M153.1,82.4c0.1,0.5,0.2,1.1,0.3,1.6l0.6-0.2c-0.1-0.5-0.2-1.1-0.4-1.6C153.5,82.3,153.3,82.3,153.1,82.4"/>
<path class="st1" d="M77.3,103v1.6h4.1c0-0.6,0-1.1,0-1.7C80,102.9,78.6,103,77.3,103"/>
<path class="st1" d="M83.8,103v1.4h3.3c0-0.5,0-1,0-1.5C86,102.9,84.9,103,83.8,103"/>
<path class="st1" d="M90.2,102.8c0,0.4,0,0.9,0,1.3h2.6c0-0.5,0-1,0-1.4L90.2,102.8"/>
<path class="st1" d="M97.3,102.5c0,0.5,0,0.9,0,1.3l2.1-0.1c0-0.5,0-1,0-1.5L97.3,102.5"/>
<path class="st1" d="M105,102c0,0.5,0,1,0,1.4l1.7-0.1c0-0.5,0-1,0-1.5L105,102"/>
<path class="st1" d="M113.4,101.3c0,0.5,0.1,1,0.1,1.5l1.4-0.1c0-0.5,0-1-0.1-1.6L113.4,101.3"/>
<path class="st1" d="M123.6,100.2l0.1,1.6l1.1-0.1c0-0.6-0.1-1.1-0.1-1.7L123.6,100.2"/>
<path class="st1" d="M134.1,99.2c0,0.6,0.1,1.1,0.1,1.7l0.9-0.1c0-0.6-0.1-1.2-0.1-1.7L134.1,99.2"/>
<path class="st1" d="M144.4,98.1c0,0.6,0.1,1.1,0.1,1.7l0.7-0.1c0-0.6-0.1-1.1-0.1-1.7L144.4,98.1z"/>
<path class="st1" d="M155.3,96.9c0,0.5,0.1,1.1,0.1,1.6l0.6-0.1c0-0.6-0.1-1.1-0.1-1.7L155.3,96.9"/>
<path class="st1" d="M77.3,104.9v1.6c1.4,0,2.7,0,4.1,0.1c0-0.6,0-1.1,0-1.7H77.3"/>
<path class="st1" d="M83.8,105.1v1.4c1.1,0,2.2,0.1,3.3,0.1c0-0.5,0-1,0-1.5L83.8,105.1"/>
<path class="st1" d="M90.2,105.3c0,0.4,0,0.9,0,1.3l2.6,0.2c0-0.5,0-1,0-1.4L90.2,105.3"/>
<path class="st1" d="M97.4,105.6c0,0.4,0,0.9,0,1.4l2.1,0.2c0-0.5,0-1,0-1.5L97.4,105.6"/>
<path class="st1" d="M105,106.1c0,0.5,0,0.9-0.1,1.4l1.7,0.2c0-0.5,0.1-1,0.1-1.5L105,106.1"/>
<path class="st1" d="M113.4,106.7c0,0.5,0,1-0.1,1.5l1.3,0.2c0-0.5,0.1-1.1,0.1-1.6L113.4,106.7z"/>
<path class="st1" d="M123.7,107.7c0,0.5-0.1,1.1-0.1,1.6l1.1,0.1c0-0.6,0.1-1.1,0.1-1.7L123.7,107.7"/>
<path class="st1" d="M134.2,108.9c0,0.6-0.1,1.1-0.1,1.7l0.9,0.1c0-0.6,0.1-1.2,0.1-1.7L134.2,108.9z"/>
<path class="st1" d="M144.5,110.2c0,0.6-0.1,1.1-0.1,1.7l0.7,0.1c0-0.6,0.1-1.1,0.1-1.7L144.5,110.2"/>
<path class="st1" d="M155.4,111.5c0,0.5-0.1,1.1-0.1,1.6l0.6,0.1c0-0.6,0.1-1.1,0.1-1.7L155.4,111.5"/>
<path class="st1" d="M77.3,106.8v1.6c1.4,0,2.7,0.1,4.1,0.2c0-0.6,0-1.1,0-1.7C80,106.9,78.6,106.8,77.3,106.8"/>
<path class="st1" d="M83.8,107.2c0,0.5,0,0.9,0,1.4c1.1,0.1,2.2,0.2,3.2,0.3c0-0.5,0-1,0.1-1.6C86,107.3,84.9,107.3,83.8,107.2"/>
<path class="st1" d="M90.1,107.8c0,0.4,0,0.9-0.1,1.4c0.9,0.1,1.7,0.3,2.6,0.4c0-0.5,0-1,0.1-1.5C91.9,108,91,107.9,90.1,107.8"/>
<path class="st1" d="M97.3,108.8c0,0.5-0.1,1-0.1,1.4c0.7,0.1,1.4,0.3,2,0.4c0-0.5,0.1-1,0.1-1.6L97.3,108.8"/>
<path class="st1" d="M104.8,110.3c0,0.5-0.1,1-0.2,1.5c0.6,0.1,1.1,0.3,1.6,0.4c0.1-0.6,0.1-1.1,0.2-1.6L104.8,110.3"/>
<path class="st1" d="M113,112.4c-0.1,0.5-0.1,1.1-0.2,1.6l1.3,0.4c0.1-0.6,0.2-1.1,0.2-1.7L113,112.4z"/>
<path class="st1" d="M122.9,115.3c-0.1,0.6-0.2,1.2-0.3,1.7l1.1,0.4c0.1-0.6,0.2-1.2,0.3-1.8L122.9,115.3"/>
<path class="st1" d="M133.1,118.7c-0.1,0.6-0.2,1.2-0.3,1.8l0.9,0.3c0.1-0.6,0.2-1.2,0.3-1.8L133.1,118.7"/>
<path class="st1" d="M143,122.3c-0.1,0.6-0.2,1.1-0.4,1.7l0.7,0.3c0.1-0.6,0.2-1.2,0.4-1.8L143,122.3"/>
<path class="st1" d="M153.4,126l-0.4,1.6l0.6,0.2l0.4-1.6L153.4,126"/>
<path class="st1" d="M77.3,108.7v1.6c1.4,0,2.7,0.1,4.1,0.3c0-0.6,0-1.1,0-1.7C80,108.8,78.6,108.7,77.3,108.7"/>
<path class="st1" d="M83.8,109.3c0,0.5,0,1,0,1.4c1.1,0.2,2.1,0.4,3.2,0.6c0-0.6,0-1.1,0.1-1.6C85.9,109.6,84.8,109.4,83.8,109.3"/>
<path class="st1" d="M90,110.4c0,0.5-0.1,1-0.1,1.5c0.8,0.2,1.7,0.5,2.5,0.7c0-0.6,0.1-1.1,0.1-1.7C91.7,110.8,90.8,110.6,90,110.4"
	/>
<path class="st1" d="M97,112.3c0,0.5-0.1,1.1-0.2,1.6c0.7,0.3,1.3,0.5,2,0.8c0.1-0.6,0.2-1.2,0.2-1.8L97,112.3"/>
<path class="st1" d="M104.2,115c-0.1,0.6-0.2,1.2-0.3,1.8l1.6,0.7c0.1-0.6,0.2-1.3,0.3-1.9L104.2,115"/>
<path class="st1" d="M112,118.6c-0.1,0.6-0.2,1.2-0.3,1.9l1.2,0.7c0.1-0.7,0.3-1.3,0.4-2L112,118.6"/>
<path class="st1" d="M121.3,123.6c-0.2,0.7-0.3,1.3-0.5,2l1,0.6c0.2-0.7,0.3-1.4,0.5-2L121.3,123.6"/>
<path class="st1" d="M130.7,129.3c-0.2,0.7-0.3,1.3-0.5,1.9l0.8,0.5c0.2-0.7,0.4-1.3,0.5-2L130.7,129.3"/>
<path class="st1" d="M139.8,134.8c-0.2,0.6-0.4,1.2-0.6,1.8l0.6,0.4c0.2-0.6,0.4-1.2,0.6-1.8L139.8,134.8"/>
<path class="st1" d="M149.2,140.2c-0.2,0.5-0.4,1-0.6,1.6l0.5,0.3c0.2-0.5,0.4-1.1,0.6-1.6L149.2,140.2"/>
<path class="st1" d="M77.3,92.8v0.7c1.4,0,2.7,0,4.1-0.1c0-0.3,0-0.5,0-0.8C80,92.7,78.6,92.8,77.3,92.8"/>
<path class="st1" d="M83.7,92.4v0.7c1.1-0.1,2.2-0.3,3.2-0.4l-0.1-0.9C85.8,92.1,84.8,92.3,83.7,92.4"/>
<path class="st1" d="M89.9,91.3c0,0.3,0,0.6,0.1,0.9c0.8-0.2,1.7-0.3,2.5-0.5c0-0.3-0.1-0.7-0.1-1C91.6,90.8,90.8,91.1,89.9,91.3"/>
<path class="st1" d="M96.8,89.2c0.1,0.4,0.1,0.8,0.2,1.1c0.7-0.2,1.3-0.4,2-0.6c-0.1-0.4-0.1-0.8-0.2-1.3
	C98.1,88.7,97.4,89,96.8,89.2"/>
<path class="st1" d="M103.9,86.5c0.1,0.5,0.2,0.9,0.3,1.3l1.6-0.6c-0.1-0.5-0.2-1-0.3-1.5C104.9,86,104.5,86.2,103.9,86.5"/>
<path class="st1" d="M111.7,82.8c0.1,0.5,0.2,1,0.3,1.5l1.3-0.6l-0.4-1.6L111.7,82.8"/>
<path class="st1" d="M120.9,77.8c0.2,0.6,0.3,1.1,0.4,1.7c0.3-0.2,0.7-0.4,1-0.5c-0.1-0.6-0.3-1.2-0.4-1.8L120.9,77.8"/>
<path class="st1" d="M130.2,72.5c0.2,0.6,0.3,1.2,0.5,1.7c0.3-0.2,0.5-0.3,0.8-0.4c-0.2-0.6-0.3-1.2-0.5-1.7L130.2,72.5"/>
<path class="st1" d="M139.3,67.3c0.2,0.5,0.4,1.1,0.5,1.6l0.7-0.4c-0.2-0.5-0.4-1.1-0.5-1.6L139.3,67.3"/>
<path class="st1" d="M148.6,62.2c0.2,0.5,0.4,0.9,0.5,1.4l0.5-0.3l-0.5-1.4L148.6,62.2z"/>
<path class="st1" d="M77.3,93.7v0.7c1.4,0,2.7,0,4.1-0.1v-0.8C80,93.6,78.6,93.7,77.3,93.7"/>
<path class="st1" d="M83.8,93.5c0,0.2,0,0.4,0,0.7c1.1,0,2.2-0.1,3.3-0.2c0-0.3,0-0.5,0-0.8C85.9,93.3,84.8,93.4,83.8,93.5"/>
<path class="st1" d="M90.1,92.8l0.1,0.8c0.9-0.1,1.7-0.2,2.6-0.3c0-0.3,0-0.6-0.1-0.9C91.8,92.6,90.9,92.7,90.1,92.8"/>
<path class="st1" d="M97.1,91.7c0,0.3,0.1,0.6,0.1,1l2.1-0.3c0-0.3-0.1-0.7-0.1-1.1C98.5,91.5,97.8,91.6,97.1,91.7"/>
<path class="st1" d="M104.6,90.2c0.1,0.4,0.1,0.8,0.2,1.1l1.6-0.3c0-0.4-0.1-0.8-0.2-1.2L104.6,90.2"/>
<path class="st1" d="M112.7,88c0.1,0.4,0.2,0.9,0.2,1.3l1.3-0.3c-0.1-0.4-0.1-0.9-0.2-1.4L112.7,88"/>
<path class="st1" d="M122.5,85.1c0.1,0.5,0.2,1,0.3,1.5l1.1-0.3l-0.3-1.5L122.5,85.1"/>
<path class="st1" d="M132.6,81.9c0.1,0.5,0.2,1,0.3,1.5c0.3-0.1,0.6-0.2,0.9-0.3c-0.1-0.5-0.2-1-0.3-1.6L132.6,81.9"/>
<path class="st1" d="M142.3,78.6c0.1,0.5,0.2,1,0.3,1.5c0.2-0.1,0.5-0.2,0.7-0.2c-0.1-0.5-0.2-1-0.3-1.5L142.3,78.6"/>
<path class="st1" d="M152.5,75.1c0.1,0.5,0.2,1,0.3,1.4l0.6-0.2l-0.3-1.5L152.5,75.1"/>
<path class="st1" d="M77.3,94.5v0.7h4.1c0-0.3,0-0.5,0-0.8C80,94.4,78.6,94.4,77.3,94.5"/>
<path class="st1" d="M83.8,94.5v0.7h3.3c0-0.3,0-0.5,0-0.8L83.8,94.5"/>
<path class="st1" d="M90.2,94.2c0,0.3,0,0.5,0,0.7h2.6c0-0.3,0-0.5,0-0.8C91.9,94.1,91,94.3,90.2,94.2"/>
<path class="st1" d="M97.3,93.8c0,0.3,0,0.6,0,0.8l2.1-0.1c0-0.3,0-0.6,0-1L97.3,93.8"/>
<path class="st1" d="M104.9,93.3c0,0.3,0,0.7,0,1l1.7-0.1c0-0.4,0-0.7,0-1.1L104.9,93.3"/>
<path class="st1" d="M113.3,92.6c0,0.4,0,0.8,0.1,1.2l1.4-0.1c0-0.4,0-0.8-0.1-1.2L113.3,92.6z"/>
<path class="st1" d="M123.4,91.5l0.1,1.3l1.1-0.1c0-0.5,0-0.9-0.1-1.4L123.4,91.5"/>
<path class="st1" d="M133.8,90.5c0,0.5,0.1,1,0.1,1.5l0.9-0.1c0-0.5-0.1-1-0.1-1.5L133.8,90.5"/>
<path class="st1" d="M143.9,89.4c0,0.5,0.1,1,0.1,1.5l0.7-0.1c0-0.5-0.1-1-0.1-1.5L143.9,89.4"/>
<path class="st1" d="M154.5,88.2c0,0.5,0.1,1,0.1,1.5l0.6-0.1c0-0.5-0.1-1-0.1-1.5L154.5,88.2"/>
<path class="st1" d="M77.3,95.3V96c1.4,0,2.7,0,4.1,0.1c0-0.3,0-0.5,0-0.8L77.3,95.3"/>
<path class="st1" d="M83.8,95.4v0.7l3.3,0.1c0-0.3,0-0.5,0-0.8L83.8,95.4"/>
<path class="st1" d="M90.2,95.6c0,0.2,0,0.5,0,0.7l2.6,0.2c0-0.3,0-0.6,0-0.8L90.2,95.6"/>
<path class="st1" d="M97.4,95.8c0,0.3,0,0.6,0,0.8l2.1,0.2c0-0.3,0-0.6,0-1C98.8,95.8,98.1,95.8,97.4,95.8"/>
<path class="st1" d="M105,96.2c0,0.3,0,0.7,0,1l1.7,0.2c0-0.4,0-0.7,0.1-1.1L105,96.2"/>
<path class="st1" d="M113.4,96.8c0,0.4,0,0.8-0.1,1.2l1.3,0.2c0-0.4,0.1-0.8,0.1-1.2L113.4,96.8"/>
<path class="st1" d="M123.5,97.7c0,0.4,0,0.9-0.1,1.3l1.1,0.1c0-0.5,0.1-0.9,0.1-1.4L123.5,97.7"/>
<path class="st1" d="M133.9,98.8c0,0.5-0.1,1-0.1,1.5l0.9,0.1c0-0.5,0.1-1,0.1-1.5L133.9,98.8"/>
<path class="st1" d="M144,100.1c0,0.5-0.1,1-0.1,1.5l0.7,0.1l0.1-1.5L144,100.1"/>
<path class="st1" d="M154.6,101.3c0,0.5-0.1,1-0.1,1.5l0.6,0.1c0-0.5,0.1-1,0.1-1.5L154.6,101.3"/>
<path class="st1" d="M77.3,96.2v0.7c1.4,0,2.7,0.1,4.1,0.1c0-0.3,0-0.5,0-0.8C80,96.2,78.6,96.2,77.3,96.2"/>
<path class="st1" d="M83.8,96.4c0,0.2,0,0.4,0,0.7c1.1,0.1,2.2,0.2,3.2,0.3c0-0.3,0-0.5,0.1-0.8C86,96.5,84.9,96.5,83.8,96.4"/>
<path class="st1" d="M90.1,96.9c0,0.3,0,0.5-0.1,0.8c0.9,0.1,1.7,0.3,2.6,0.4c0-0.3,0.1-0.6,0.1-0.9C91.8,97.1,91,97,90.1,96.9"/>
<path class="st1" d="M97.2,97.9c0,0.3-0.1,0.6-0.1,0.9c0.7,0.1,1.4,0.3,2,0.4c0-0.4,0.1-0.7,0.1-1.1L97.2,97.9"/>
<path class="st1" d="M104.7,99.3c0,0.4-0.1,0.7-0.2,1.1l1.6,0.4c0.1-0.4,0.1-0.8,0.2-1.2L104.7,99.3"/>
<path class="st1" d="M112.9,101.2c-0.1,0.4-0.1,0.8-0.2,1.3l1.3,0.4c0.1-0.5,0.2-0.9,0.2-1.4L112.9,101.2"/>
<path class="st1" d="M122.8,104c-0.1,0.5-0.2,1-0.3,1.5l1,0.4c0.1-0.5,0.2-1,0.3-1.5L122.8,104"/>
<path class="st1" d="M132.8,107.4c-0.1,0.5-0.2,1-0.3,1.6l0.9,0.3c0.1-0.5,0.2-1.1,0.3-1.6L132.8,107.4"/>
<path class="st1" d="M142.6,110.9c-0.1,0.5-0.2,1-0.3,1.5l0.7,0.3l0.3-1.6L142.6,110.9"/>
<path class="st1" d="M152.7,114.5c-0.1,0.5-0.2,1-0.3,1.5l0.6,0.2c0.1-0.5,0.2-1,0.3-1.5C153.1,114.6,152.9,114.5,152.7,114.5"/>
<path class="st1" d="M77.3,97v0.7c1.4,0,2.7,0.1,4.1,0.2c0-0.3,0-0.5,0-0.8C80,97,78.6,97,77.3,97"/>
<path class="st1" d="M83.8,97.4c0,0.2,0,0.5,0,0.7c1.1,0.2,2.1,0.3,3.2,0.6c0-0.3,0-0.6,0.1-0.9C85.9,97.7,84.8,97.5,83.8,97.4"/>
<path class="st1" d="M90,98.4c0,0.3-0.1,0.6-0.1,0.9c0.8,0.2,1.7,0.4,2.5,0.7c0-0.4,0.1-0.7,0.1-1C91.7,98.8,90.8,98.6,90,98.4"/>
<path class="st1" d="M97,100.2c-0.1,0.3-0.1,0.7-0.2,1.1c0.7,0.2,1.3,0.5,2,0.7c0.1-0.4,0.2-0.8,0.2-1.3
	C98.4,100.6,97.7,100.4,97,100.2"/>
<path class="st1" d="M104.2,102.8c-0.1,0.4-0.2,0.9-0.3,1.3l1.6,0.7c0.1-0.5,0.2-1,0.3-1.5L104.2,102.8"/>
<path class="st1" d="M112,106.3l-0.3,1.5l1.2,0.7c0.1-0.6,0.3-1.1,0.4-1.6L112,106.3"/>
<path class="st1" d="M121.3,111.1c-0.1,0.6-0.3,1.1-0.4,1.7l1,0.6c0.2-0.6,0.3-1.2,0.4-1.8L121.3,111.1"/>
<path class="st1" d="M130.6,116.7c-0.1,0.6-0.3,1.1-0.5,1.7l0.8,0.5c0.2-0.6,0.3-1.2,0.5-1.8L130.6,116.7"/>
<path class="st1" d="M139.6,122.1c-0.2,0.5-0.3,1.1-0.5,1.6l0.6,0.4c0.2-0.6,0.4-1.1,0.5-1.6L139.6,122.1"/>
<path class="st1" d="M149,127.3l-0.5,1.4l0.5,0.3l0.5-1.4C149.4,127.5,149.2,127.4,149,127.3"/>
<path class="st1" d="M77.3,111.8v0.7c1.4,0,2.7-0.1,4.1-0.1c0-0.3,0-0.5,0-0.8C80,111.7,78.6,111.8,77.3,111.8"/>
<path class="st1" d="M83.7,111.4v0.7c1.1-0.1,2.2-0.2,3.2-0.4l-0.1-0.9C85.8,111,84.8,111.2,83.7,111.4"/>
<path class="st1" d="M89.9,110.2c0,0.3,0.1,0.6,0.1,0.9c0.8-0.2,1.7-0.3,2.5-0.5c0-0.3-0.1-0.7-0.1-1
	C91.6,109.8,90.8,110,89.9,110.2"/>
<path class="st1" d="M96.8,108.2c0.1,0.4,0.1,0.8,0.2,1.1l2-0.6c-0.1-0.4-0.1-0.8-0.2-1.3L96.8,108.2"/>
<path class="st1" d="M103.9,105.4c0.1,0.5,0.2,0.9,0.3,1.3l1.6-0.6c-0.1-0.5-0.2-1-0.3-1.4L103.9,105.4"/>
<path class="st1" d="M111.7,101.7c0.1,0.5,0.2,1,0.3,1.5l1.3-0.6c-0.1-0.5-0.2-1.1-0.4-1.6L111.7,101.7"/>
<path class="st1" d="M120.9,96.7c0.2,0.6,0.3,1.1,0.4,1.7l1-0.5c-0.1-0.6-0.3-1.2-0.4-1.7L120.9,96.7z"/>
<path class="st1" d="M130.2,91.4c0.2,0.6,0.3,1.2,0.5,1.7l0.8-0.4c-0.2-0.6-0.3-1.2-0.5-1.7L130.2,91.4"/>
<path class="st1" d="M139.3,86.3c0.2,0.5,0.4,1.1,0.5,1.6l0.7-0.4c-0.2-0.5-0.4-1.1-0.5-1.6L139.3,86.3"/>
<path class="st1" d="M148.6,81.2c0.2,0.5,0.4,0.9,0.5,1.4l0.5-0.3l-0.5-1.4L148.6,81.2"/>
<path class="st1" d="M77.3,112.6v0.7c1.4,0,2.7,0,4.1-0.1c0-0.2,0-0.5,0-0.8C80,112.5,78.6,112.6,77.3,112.6"/>
<path class="st1" d="M83.8,112.4c0,0.2,0,0.4,0,0.7c1.1,0,2.2-0.1,3.3-0.2c0-0.3,0-0.5,0-0.8C85.9,112.2,84.8,112.3,83.8,112.4"/>
<path class="st1" d="M90.1,111.8c0,0.3,0,0.5,0.1,0.8c0.9-0.1,1.7-0.2,2.6-0.3c0-0.3,0-0.6-0.1-0.9
	C91.8,111.5,90.9,111.7,90.1,111.8"/>
<path class="st1" d="M97.1,110.6c0,0.3,0.1,0.6,0.1,0.9l2.1-0.3c0-0.3-0.1-0.7-0.1-1L97.1,110.6"/>
<path class="st1" d="M104.6,109.1c0.1,0.4,0.1,0.8,0.2,1.1l1.6-0.3c0-0.4-0.1-0.8-0.2-1.2L104.6,109.1"/>
<path class="st1" d="M112.7,107c0.1,0.4,0.2,0.9,0.2,1.3l1.3-0.3c-0.1-0.4-0.1-0.9-0.2-1.4L112.7,107"/>
<path class="st1" d="M122.5,104c0.1,0.5,0.2,1,0.3,1.5c0.3-0.1,0.7-0.2,1.1-0.3c-0.1-0.5-0.2-1-0.3-1.5
	C123.2,103.8,122.9,103.9,122.5,104"/>
<path class="st1" d="M132.6,100.8c0.1,0.5,0.2,1,0.3,1.6c0.3-0.1,0.6-0.2,0.9-0.3c-0.1-0.5-0.2-1-0.3-1.6L132.6,100.8"/>
<path class="st1" d="M142.3,97.5c0.1,0.5,0.2,1,0.3,1.5l0.7-0.2c-0.1-0.5-0.2-1-0.3-1.6L142.3,97.5"/>
<path class="st1" d="M152.5,94c0.1,0.5,0.2,1,0.3,1.4l0.6-0.2c-0.1-0.5-0.2-1-0.3-1.5L152.5,94"/>
<path class="st1" d="M77.3,113.4v0.7h4.1c0-0.3,0-0.5,0-0.7C80,113.4,78.6,113.4,77.3,113.4"/>
<path class="st1" d="M83.8,113.4v0.6h3.3c0-0.3,0-0.5,0-0.8C86,113.3,84.9,113.3,83.8,113.4"/>
<path class="st1" d="M90.2,113.2c0,0.2,0,0.5,0,0.7h2.6c0-0.3,0-0.5,0-0.8C91.9,113.1,91,113.2,90.2,113.2"/>
<path class="st1" d="M97.3,112.8c0,0.3,0,0.6,0,0.9l2.1-0.1c0-0.3,0-0.6,0-1L97.3,112.8"/>
<path class="st1" d="M104.9,112.2c0,0.3,0,0.7,0,1l1.7-0.1c0-0.4,0-0.7,0-1.1L104.9,112.2"/>
<path class="st1" d="M113.3,111.5c0,0.4,0,0.8,0.1,1.2l1.4-0.1c0-0.4,0-0.8-0.1-1.2C114.2,111.4,113.7,111.5,113.3,111.5"/>
<path class="st1" d="M123.4,110.5l0.1,1.4l1.1-0.1c0-0.5,0-0.9-0.1-1.4C124.1,110.4,123.7,110.4,123.4,110.5"/>
<path class="st1" d="M133.8,109.4c0,0.5,0.1,1,0.1,1.5l0.9-0.1c0-0.5-0.1-1-0.1-1.5L133.8,109.4"/>
<path class="st1" d="M143.9,108.3c0,0.5,0.1,1,0.1,1.5l0.7-0.1c0-0.5-0.1-1-0.1-1.5L143.9,108.3"/>
<path class="st1" d="M154.5,107.1c0,0.5,0.1,1,0.1,1.5l0.6-0.1c0-0.5-0.1-1-0.1-1.5L154.5,107.1"/>
<path class="st1" d="M77.3,114.3v0.7c1.4,0,2.7,0,4.1,0.1c0-0.3,0-0.5,0-0.7L77.3,114.3"/>
<path class="st1" d="M83.8,114.4v0.6c1.1,0,2.2,0.1,3.3,0.1c0-0.3,0-0.5,0-0.8L83.8,114.4"/>
<path class="st1" d="M90.2,114.5c0,0.2,0,0.5,0,0.7c0.9,0,1.7,0.1,2.6,0.2c0-0.3,0-0.6,0-0.8L90.2,114.5"/>
<path class="st1" d="M97.4,114.8c0,0.3,0,0.6,0,0.9l2.1,0.2c0-0.3,0-0.6,0-1L97.4,114.8"/>
<path class="st1" d="M105,115.2c0,0.3,0,0.7,0,1l1.7,0.2c0-0.4,0-0.7,0.1-1.1L105,115.2"/>
<path class="st1" d="M113.4,115.8c0,0.4,0,0.8-0.1,1.2l1.3,0.2c0-0.4,0.1-0.8,0.1-1.2L113.4,115.8"/>
<path class="st1" d="M123.5,116.6c0,0.4,0,0.9-0.1,1.3l1.1,0.1c0-0.5,0.1-0.9,0.1-1.4L123.5,116.6"/>
<path class="st1" d="M133.9,117.8c0,0.5-0.1,1-0.1,1.5l0.9,0.1c0-0.5,0.1-1,0.1-1.5L133.9,117.8"/>
<path class="st1" d="M144,119c0,0.5-0.1,1-0.1,1.5l0.7,0.1l0.1-1.5L144,119z"/>
<path class="st1" d="M154.6,120.3c0,0.5-0.1,1-0.1,1.5l0.6,0.1c0-0.5,0.1-1,0.1-1.5L154.6,120.3"/>
<path class="st1" d="M77.3,115.1v0.7c1.4,0,2.7,0,4.1,0.1c0-0.3,0-0.5,0-0.8C80,115.2,78.6,115.1,77.3,115.1"/>
<path class="st1" d="M83.8,115.3c0,0.2,0,0.4,0,0.7c1.1,0.1,2.2,0.2,3.2,0.3c0-0.3,0-0.5,0.1-0.8C86,115.5,84.9,115.4,83.8,115.3"/>
<path class="st1" d="M90.1,115.9c0,0.3,0,0.5-0.1,0.8c0.9,0.1,1.7,0.3,2.6,0.4c0-0.3,0.1-0.6,0.1-0.9C91.8,116,91,116,90.1,115.9"/>
<path class="st1" d="M97.2,116.8c0,0.3-0.1,0.6-0.1,0.9c0.7,0.1,1.4,0.3,2,0.4c0-0.4,0.1-0.7,0.1-1.1L97.2,116.8"/>
<path class="st1" d="M104.7,118.2c0,0.4-0.1,0.8-0.2,1.1l1.6,0.4c0.1-0.4,0.1-0.8,0.2-1.2L104.7,118.2"/>
<path class="st1" d="M112.9,120.2c-0.1,0.4-0.1,0.8-0.2,1.3l1.3,0.4c0.1-0.4,0.2-0.9,0.2-1.4L112.9,120.2"/>
<path class="st1" d="M122.8,123c-0.1,0.5-0.2,1-0.3,1.5c0.3,0.1,0.7,0.2,1,0.4c0.1-0.5,0.2-1,0.3-1.5L122.8,123"/>
<path class="st1" d="M132.8,126.3c-0.1,0.5-0.2,1-0.3,1.6l0.9,0.3c0.1-0.5,0.2-1.1,0.3-1.6L132.8,126.3"/>
<path class="st1" d="M142.6,129.8c-0.1,0.5-0.2,1-0.3,1.5l0.7,0.3l0.3-1.6L142.6,129.8"/>
<path class="st1" d="M152.7,133.4c-0.1,0.5-0.2,1-0.3,1.4l0.6,0.2l0.3-1.5L152.7,133.4"/>
<path class="st1" d="M77.3,115.9v0.7c1.4,0,2.7,0.1,4.1,0.2c0-0.3,0-0.5,0-0.8C80,116,78.6,115.9,77.3,115.9"/>
<path class="st1" d="M83.8,116.3c0,0.2,0,0.5,0,0.7c1.1,0.2,2.1,0.3,3.2,0.6c0-0.3,0-0.6,0.1-0.9C85.9,116.6,84.8,116.5,83.8,116.3"
	/>
<path class="st1" d="M90,117.3c0,0.3-0.1,0.6-0.1,0.9c0.8,0.2,1.7,0.4,2.5,0.7c0-0.4,0.1-0.7,0.1-1C91.7,117.7,90.8,117.5,90,117.3"
	/>
<path class="st1" d="M97,119.1c0,0.4-0.1,0.7-0.2,1.1c0.7,0.2,1.3,0.5,2,0.8c0.1-0.4,0.2-0.9,0.2-1.3
	C98.4,119.5,97.7,119.3,97,119.1"/>
<path class="st1" d="M104.2,121.7c-0.1,0.4-0.2,0.9-0.3,1.3l1.6,0.7c0.1-0.5,0.2-1,0.3-1.4L104.2,121.7"/>
<path class="st1" d="M112,125.2c-0.1,0.5-0.2,1-0.3,1.5l1.2,0.7c0.1-0.6,0.3-1.1,0.4-1.6L112,125.2"/>
<path class="st1" d="M121.3,130.1c-0.1,0.6-0.3,1.1-0.4,1.7l1,0.6c0.2-0.6,0.3-1.2,0.4-1.7L121.3,130.1"/>
<path class="st1" d="M130.6,135.6c-0.1,0.6-0.3,1.1-0.5,1.7l0.8,0.5c0.2-0.6,0.3-1.2,0.5-1.8L130.6,135.6"/>
<path class="st1" d="M139.6,141c-0.2,0.5-0.3,1.1-0.5,1.6l0.6,0.4c0.2-0.6,0.4-1.1,0.5-1.6L139.6,141"/>
<path class="st1" d="M149,146.3l-0.5,1.4l0.5,0.3l0.5-1.4C149.4,146.4,149.2,146.4,149,146.3"/>
<polygon class="st0" points="86.6,113.8 58.9,129.8 8.4,129.8 8.4,76.4 57.9,76.4 86.6,95 77.2,98.2 86.6,101.7 86.6,105.6 
	75.9,109.8 "/>
<path class="st1" d="M59.1,130.6H7.6v-55h50.5l0.2,0.1l30.1,19.4l-8.9,3.1l7.8,2.9v5l-9.3,3.7l10.4,3.8L59.1,130.6z M9.2,129h49.5
	l26.1-15.1l-11.1-4.1l12.2-4.8v-2.8l-11-4l10-3.5L57.7,77.2H9.2V129z"/>
<polygon class="st1" points="8.5,90.6 34.3,90.6 56.8,102.7 34.3,116.8 8.4,116.2 "/>
<path class="st1" d="M34.4,117.1L34.4,117.1l-26.3-0.6v-0.3l0.1-25.9h26.2l22.9,12.4L34.4,117.1z M8.7,116l25.6,0.6l22-13.8
	l-22-11.9H8.7L8.7,116z"/>
<polygon class="st1" points="7.6,123.3 7.7,83.3 44.1,83.3 65.2,95.8 64.4,97.1 43.6,84.9 9.3,84.9 9.2,121.7 43.6,121.5 
	64.8,107.9 65.7,109.3 44.1,123.1 "/>
<path class="st2" d="M8.4,100c0,50.6,41,91.6,91.6,91.6s91.6-41,91.6-91.6S150.6,8.4,100,8.4c0,0,0,0,0,0C49.4,8.4,8.4,49.4,8.4,100
	C8.4,100,8.4,100,8.4,100"/>
</svg>
