<svg id="Capa_1" data-name="Capa 1" xmlns="http://www.w3.org/2000/svg" viewBox="0 0 200 200"><defs><style>.cls-1{fill:#ffde00;}.cls-2{fill:none;}</style></defs><path class="cls-1" d="M100,193.71A93.72,93.72,0,1,1,193.72,100,93.83,93.83,0,0,1,100,193.71"/><path d="M100,8.41A91.59,91.59,0,1,1,8.41,100,91.59,91.59,0,0,1,100,8.41m0-4.24A95.83,95.83,0,1,0,195.83,100,95.93,95.93,0,0,0,100,4.17"/><rect x="155.74" y="50.04" width="5" height="103.87"/><path d="M193.17,96.83c0,9-4.06,32.21-4.06,32.21H160.74V70.77h28.31S193.17,87.83,193.17,96.83Z"/><polygon points="156.89 146.47 157.22 146.39 156.8 145.95 156.89 146.47"/><path d="M157.25,142c-.37-.4-.61-1.17-1.31-1.19l.63.74c-.53.1-.5.58-.32,1l0-.48c.07.12.41,0,.48.17-.27.73.46.92-.12,1.6l0,0,.34.53c-.08.17-.33.11-.42,0a2.46,2.46,0,0,1,.54,1.49c1-.5-.75-1.42.21-1.92l.06,0c-.36-.63.26-1.36,0-2"/><path d="M156.43,144.35l0,0s0,0,0,0"/><path d="M157.83,118.36l-.15,0s.11.07.15,0"/><path d="M155.89,126.3s0,0,0,0c-.21-.05-.16,0,0,0"/><path d="M157.6,75.18l.22-.15c-.21,0-.25.1-.22.15"/><path d="M157.77,64.52h0"/><path d="M154.78,69.38l-.2,0c.11,0,.17,0,.2,0"/><path d="M154.39,65.93a.62.62,0,0,0,.09-.29.23.23,0,0,0-.09.29"/><path d="M157.86,64.62a.25.25,0,0,1-.08-.1.2.2,0,0,0,.08.1"/><path d="M154.42,74.56l-.51.14a2.05,2.05,0,0,0,.51-.14"/><path d="M154,65.08a.34.34,0,0,0,.19-.18c-.11,0-.19.09-.19.18"/><path d="M157.22,141.26a.77.77,0,0,0,.07.34.39.39,0,0,0-.07-.34"/><path d="M154,94a.85.85,0,0,0-.19-.06A.15.15,0,0,0,154,94"/><path d="M154,82.6v0a.18.18,0,0,0-.09,0Z"/><path d="M154.12,85.92l-.11,0a.15.15,0,0,0,.11,0"/><path d="M153.51,80.09l-.17-.12Z"/><path d="M154,77.69c-.17.11-.35,0-.52-.13-.24.61.39.81,0,1.43l.25-.29a1,1,0,0,1,0,1.5l-.17-.11c.41.39-.34,1,0,1.15.22-.15.36,0,.56-.23l.42,1-.68.08.23.5c.27-.12-.23.69.43.7-.25.3-.52-.12-.8-.22.21.29-.08.32.31.59l-.6.29.43.75c-.06,0-.1,0-.16,0,.52.34-.29.86.58,1.31,0,0-.06,0-.1,0,.48.25.13.83,0,1,.12.39.58.16.83.18-.15,1.12-.11.77.6,1.71-.75.56-1.22-.67-1.74,0,.37.09.66.59.8,1.15a6.06,6.06,0,0,1-1,1.88l.5-.06.28.73-.72-.42c.17.12.47.49.72.72.43.75-1.08.43-.33,1L154,94c.38.18.24.68.38,1.25l-.63-.2.13-.37c-.61.19.11.61.07,1,.22.37.73.19.92.39,0,.13.16.33,0,.44-.19.33-.75,0-1-.07.64.29.56.38.83,1-.31,0-.44,0-.51-.1a.69.69,0,0,0,.49.32l-.36.22c-.53.72,1.17.71,1,1.58-.34-.23.07.74-.33,1-.1-.3-.92.15-1.31,0-.23.69.75.27.9.83l-.79-.22c.35.53.43.12.67.67-.23-.14-.21.25-.46-.08-.08.72,0,.53-.11,1.16l.77.06c.08.21-.25.29-.39.35,0-.09,0-.22-.09-.21-.65.24.38.4-.23.69.24-.08.58-.16.62.11-.46-.09-.43.39-.62.42.32-.17.14.55.65.59-.35.3-.37-.09-.62-.12.59.25.08,1.06.42,1.29l-.11,0c.36.32.45.85,1,1.48l-.43-.21c-.19.64.92.39.91.91-.63-.11,0,.89-.64.64.35.32.51.66,1.05.87-.34.3-.85-.57-1-.15l.33.45L155,110c.25,0,.28.41.48.39a5.18,5.18,0,0,1-1,.23c.13.28-.26.69.1.93l-.2,0c.75.27.15.87.93,1l-.42.17c.07.44.86.36,1.05.55a1.11,1.11,0,0,1,0,.57c-.5-.57-.59.29-.88.4,0,.23.06.89.44,1.06-.4-.26-.72-.09-.76-.58-.75.27.18.74.08,1.28h-.36c.24.78.85.8,1.46,1.14a1.22,1.22,0,0,1-1-.21c-.26.52,0,1.32,0,1.9a.4.4,0,0,1-.62-.13c.33.6-.08,1.34.7,1.71-.31-.14-.2.25-.35.47.16,0,.36,0,.34.07a1.59,1.59,0,0,1,.33,1.6l-.23-.15c-.12,1,1.2,1.42.64,2.5-.17.2-.64-.2-.62.2.29.19.88.12.72.63l-.51,0,.51.35c.42-.18.27-.74.74-.35-.47.45.47.39-.09.94-.05-.13-.43-.29-.64-.38-.6,1.15.49,1.6-.14,2.77.4.58.48,1.32.86,1.72a2.55,2.55,0,0,1-1.36-.3c-.06.49,1.08.73.33,1.07.69.24.44,1.37,1.41,1.49-.19,0,0,.54-.54,0,.32.68-.85.89-.84,1.2s.61-.2.63.2c0,0-.14.06-.18.1l.23.16c-.23.15-.49-.17-.74-.19-.2.56.56.92.63,1.57L156,136l0,.66-.06,0,.35.53H156c.07.12.23.15.26.33l-.31-.06a1.36,1.36,0,0,1,.74,1.12l-.14.05.63.73c-.33.39-.74-.49-.5.28l-.64-.2c.25.55-.09.63.13,1,.31-.18.27-.43.56-.23-.73.42.18.68.48,1.09,0-.21,0-.34-.38-.49,0-.22.34-.08.37-.22l-.36-.31.43-.09-.34-.54c.5,0,.06-.5.6-.29-.21-.38.15-.59-.36-.93.3-.26.37.4.42.13a12.41,12.41,0,0,1-.16-4.63l.23.15c-.23-.15-.42-.35-.59-.47.41-.26.93-1.29.16-1.65,0,0,.16,0,.22.06-.09-.52.45-1.46.37-2.2-.81-.32.5-1.12-.6-1.4l.23.16c-.31.25-.77-.37-1-.47.71-.21.54,0,1.2-.27l-.25.3L158,128c-1.51-.95.69-1.77-.41-2.35.06,0,.16,0,.21.07.33-.4-.41-.67-.61-1,.29,0,.47.17.7.33.23-.7-.57-1.85-.1-2.61-.4-.26-.53.11-.83-.17.11-.24.43-.4.63-.11.74-.66-.48-2.16.19-3.17-.44-.52-.63-.19-.92-1,.28.19,1-.2,1,.29l.31,0c.06-.8.18-1.87-.7-2.31.64,0,.12-.15.47-.45-.07-.13-.1,0-.14.06-.55-.3,0-.45-.06-.66l.11.08-.41-.58a.63.63,0,0,1,.42-.26h-.46c0-.31.57-.15.46-.54l-.34.08c.21-.24-.26-.64.23-.69.1,0,.06,0,.08.13.67-.38-.23-1,.08-1.46l-.72.11c-.23-.46.15-.28.4-.26,0-.31.24-.38.32-.79-.19-.2-.28-.1-.48-.17l.17-.42.4.28c-1.06-.65.12-1.61-.86-2,.22-.24.44.22.57.07.47-.75-.7-1.69-.16-2.33.52-1,0-2.21.36-3.36l-.19,0,.16-.82c-.44-.22-.24-.77-.75-1.12.15,0,.39,0,.5,0,0-.35-.27-.72,0-.93l.17.11a3.22,3.22,0,0,0-.25-2.22c0-.26.31-.25.55-.33a1.52,1.52,0,0,0-.49-1.1,1.32,1.32,0,0,1,.34-.3l-.48-.17c.08-.18.4,0,.53-.18-.58-.7-.07-1.5-.11-2l-.23.07c-.19-.2.14-.59.39-.36.28-.95-.75-1.41-.63-2.71.87-.18-.25-1.17.71-1.36-.24-.55.15-.9-.41-1.28.09,0,.14-.06.15,0,.36-.21.08-.94-.16-1.48l.29,0c-.63-.2-.45-1.14-1.09-1.34.14-.06.28.1.39.18.6-.29-.29-.5-.16-.87.16,0,.34-.08.46,0,.68-1.23-.48-3,0-4.6,0-.45-.67.16-.62-.42.32-.17.65.28.78-.08-.39-.28-.31-.37-.27-.73.21.06.35,0,.49.25.27-.2-.5-.87,0-1.28a.55.55,0,0,1-.42-.13c-.56-.61.55-1.39.25-1.44,0,0-.09-.22-.16,0,0-.22.1-.55.41-.49-.17-.12-.43-.22-.47-.4l.37.1c-.07-.1-.31-.21-.35-.32l-.22.17c.3-.26-.44-.76.27-.75v.09l.32-.48c-.29-.19-.57-.38-.47-.7.73-.12.15-.81.23-1.22l.25,0c-.35-.32-.19-1.13-.31-1,0-.3.17-.72.4-.57-.15-.25-.14-.78-.56-.91l.61-.51c-.91-.3.32-1-.64-1,.15-.28.37-.21.53-.41a1.06,1.06,0,0,1-.31-1.21h.1c.08-.4-.4-.89-.45-1.45l.72-.12c-.09-.3-.66-.37-.51-.66.12-.07.15,0,.19.07a.86.86,0,0,1,.22-.86c-.52-.43-.33-.77-.9-1.14.64-.34.29.5.89.21.35-.62,0-1.24-.34-1.91.14-.06.26,0,.42,0,0,0-1.76-1.37-2.45-1.11-.48-.17-.77-.37-1.16.22.28.19.62.72.09.83l.51,0c.23.77-1,.07-1,1l.17-.19c0,.17.35.31.18.51s-.2-.07-.32-.15l.68.78a.9.9,0,0,1-.67-.15c0,.7.92-.15.72.71-.22.16-.3-.05-.47-.17-.44.41,0,.67.23,1.08-.45,0-.39-.26-.68.08.23-.07.63-.11.67.15-.46-.12-.24.2-.36.45a.46.46,0,0,1,.45.07c.08.13-.11.23-.08.41l.45-.32c.43.44-.23.69-.43,1a.24.24,0,0,1-.16-.15c-.19.35-.55.72-.16,1.16l0,0c.45.84.76-.25,1.18.72-.1.32-1.48-.16-1,.58.39-.35.93.48,1.1.91l-.87-.44c0,.17.23.46.14.56l.2,0c.74,0-.11.55.35.86a3.83,3.83,0,0,0-1.83-.47c.55.29,1.05.64.95,1.18l-.78-.45c-.17.73,1,1.57,1.63,2.17-.58-.15-.78.09-1.27-.17l.11.69-.63-.2c.65.29.21.6,1,.55-.11-.07-.21-.06-.18-.19.26,0,.77.14.74.5-.21.24-.33-.15-.57-.08.35.23-.2.25,0,.48l.36-.21c.48.17,0,.39.26.63-.2-.28-.48-.18-.78-.08l.07,0c0,.17.37.4.09.53l-.68-.15.49.26a.32.32,0,0,1-.45,0c-.41.79,1.45,0,.83,1-.25,0-.42-.12-.27-.41-.41,0-.64,0-.8.31h-.07c0,.54,0,1.25.4,1.6"/><path d="M153.63,76.09a1.22,1.22,0,0,0-.09-.65c-.13,0-.34.66.09.65"/><path d="M154.35,118.75a.86.86,0,0,0-.07-.1.86.86,0,0,0,.07.1"/><path d="M154.55,121.05a.23.23,0,0,0,.15-.12c-.14,0-.23,0-.15.12"/><path d="M153.94,110.36a.89.89,0,0,0,.57.29c-.06-.12-.21-.24-.57-.29"/><path d="M154.2,106a.39.39,0,0,0-.1-.08c0,.06.07.08.1.08"/><path d="M153.79,96.62c.22.19.2.46.33.68-.12-.19.1-.55-.33-.68"/><polygon points="155.29 123.85 154.95 123.62 155.19 123.86 155.29 123.85"/><path d="M155.06,121.71c.09-.1-.13-.47-.31-.37a.94.94,0,0,1,.31.37"/><polygon points="155.38 113.48 155.01 113.39 155.29 113.58 155.38 113.48"/><path d="M77.25,99.1v1.61c1.37,0,2.73-.08,4.09-.17,0-.56,0-1.13,0-1.69-1.36.14-2.71.23-4.08.25"/><path d="M83.72,98.74l0,1.45c1.07-.12,2.15-.26,3.22-.41l-.06-1.63c-1.06.23-2.12.43-3.19.59"/><path d="M89.92,97.6q0,.75.09,1.47c.85-.17,1.69-.36,2.54-.55,0-.53-.08-1.08-.13-1.64-.83.25-1.66.5-2.5.72"/><path d="M96.77,95.52c.07.55.13,1.09.18,1.61.67-.2,1.34-.4,2-.62-.06-.57-.13-1.15-.21-1.75l-2,.76"/><path d="M103.92,92.75c.09.6.18,1.18.26,1.75.53-.21,1.06-.41,1.58-.63-.09-.6-.18-1.22-.29-1.86-.52.26-1,.5-1.55.74"/><path d="M111.68,89c.12.63.24,1.25.35,1.86l1.26-.6c-.12-.63-.24-1.28-.38-1.94l-1.23.68"/><path d="M120.9,84c.16.67.31,1.33.46,2l1-.54c-.15-.66-.31-1.34-.47-2l-1,.59"/><path d="M130.31,78.64c.18.65.36,1.3.53,1.94l.81-.46c-.18-.65-.35-1.31-.54-2l-.8.48"/><path d="M139.4,73.43l.57,1.78.66-.37c-.19-.6-.39-1.2-.58-1.8l-.65.39"/><path d="M148.82,68.21c.2.53.4,1.05.59,1.57l.54-.29c-.2-.52-.39-1-.6-1.56l-.53.28"/><path d="M77.25,101v1.61c1.37,0,2.74,0,4.1-.08,0-.56,0-1.12,0-1.68-1.36.09-2.72.14-4.09.15"/><path d="M83.76,100.9c0,.47,0,.94,0,1.41,1.08,0,2.17-.13,3.26-.2,0-.51,0-1,0-1.54q-1.62.18-3.24.33"/><path d="M90.08,100.31c0,.46,0,.91,0,1.37l2.59-.28c0-.49,0-1-.08-1.51-.85.15-1.7.28-2.56.42"/><path d="M97.14,99.16c0,.49.08,1,.11,1.44.69-.1,1.38-.21,2.06-.33,0-.5-.07-1-.12-1.55l-2,.44"/><path d="M104.59,97.63c.06.52.12,1,.16,1.53l1.66-.34c-.06-.53-.12-1.06-.19-1.61l-1.63.42"/><path d="M112.79,95.5c.07.55.15,1.09.21,1.63l1.32-.33c-.06-.56-.14-1.13-.22-1.7l-1.31.4"/><path d="M122.65,92.52q.15.89.27,1.74L124,94c-.09-.59-.19-1.19-.28-1.8l-1.07.37"/><path d="M132.81,89.3c.11.6.22,1.19.32,1.78l.87-.28c-.1-.6-.2-1.2-.32-1.81l-.87.31"/><path d="M142.73,86c.12.57.23,1.15.33,1.71l.73-.23c-.12-.58-.23-1.16-.35-1.74Z"/><path d="M153.11,82.39c.12.53.23,1.07.34,1.61l.6-.2c-.11-.54-.23-1.08-.35-1.62-.2.07-.4.13-.59.21"/><path d="M77.25,103v1.6h4.11c0-.56,0-1.12,0-1.67-1.36,0-2.73.06-4.1.07"/><path d="M83.79,103v1.39l3.28,0c0-.5,0-1,0-1.51-1.09,0-2.18.11-3.26.14"/><path d="M90.17,102.85c0,.45,0,.88,0,1.32l2.61,0c0-.48,0-1,0-1.43l-2.6.16"/><path d="M97.34,102.46c0,.46,0,.9,0,1.35l2.1-.07c0-.48,0-1,0-1.46l-2.09.18"/><path d="M105,102c0,.48,0,1,0,1.42l1.69-.08c0-.5,0-1,0-1.5L105,102"/><path d="M113.38,101.26c0,.5.05,1,.06,1.51l1.36-.09c0-.52,0-1-.07-1.57l-1.35.15"/><path d="M123.57,100.24l.09,1.63,1.11-.09c0-.55-.06-1.11-.1-1.68l-1.1.14"/><path d="M134.11,99.23c0,.56.07,1.13.1,1.69l.91-.08c0-.57-.07-1.15-.11-1.73l-.9.12"/><path d="M144.44,98.13c0,.56.07,1.12.11,1.68l.74-.07c0-.57-.07-1.14-.11-1.7Z"/><path d="M155.29,96.87c0,.54.08,1.09.11,1.63l.62-.06c0-.55-.07-1.1-.12-1.65l-.61.08"/><path d="M77.25,104.89v1.6c1.37,0,2.74,0,4.1.07,0-.56,0-1.12,0-1.67H77.25"/><path d="M83.79,105.1v1.4c1.08,0,2.17.09,3.26.14,0-.5,0-1,0-1.51l-3.28,0"/><path d="M90.18,105.33c0,.44,0,.88,0,1.32l2.61.17c0-.49,0-1,0-1.44l-2.61,0"/><path d="M97.38,105.61c0,.45,0,.91,0,1.36l2.08.17c0-.49,0-1,0-1.46l-2.09-.07"/><path d="M105,106.11c0,.47,0,.94-.05,1.42l1.67.17c0-.51.05-1,.06-1.51l-1.68-.08"/><path d="M113.45,106.74c0,.5,0,1-.08,1.5l1.35.16c0-.53.06-1.05.09-1.57Z"/><path d="M123.66,107.65c0,.54-.06,1.08-.1,1.63l1.1.13c0-.56.08-1.11.1-1.67l-1.1-.09"/><path d="M134.19,108.88c0,.57-.06,1.13-.11,1.7l.91.12c0-.58.08-1.15.11-1.73Z"/><path d="M144.51,110.16c0,.55-.07,1.11-.11,1.68l.74.1c0-.57.09-1.14.12-1.7l-.75-.08"/><path d="M155.37,111.47c0,.54-.08,1.08-.13,1.63l.62.08c0-.55.09-1.1.13-1.65l-.62-.06"/><path d="M77.25,106.81v1.61c1.37,0,2.73.07,4.09.15,0-.56,0-1.12,0-1.68-1.36,0-2.73-.07-4.1-.08"/><path d="M83.78,107.2c0,.46,0,.94,0,1.41,1.09.09,2.17.21,3.23.34,0-.53,0-1,.05-1.55-1.09-.08-2.17-.14-3.26-.2"/><path d="M90.13,107.83c0,.45,0,.91-.06,1.37.86.13,1.71.27,2.57.42,0-.52,0-1,.08-1.51-.86-.11-1.72-.2-2.59-.28"/><path d="M97.25,108.83c0,.47-.07,1-.11,1.44.68.14,1.37.28,2,.44,0-.53.1-1,.14-1.56l-2.07-.32"/><path d="M104.75,110.35c0,.5-.11,1-.17,1.53.55.14,1.09.28,1.64.44.06-.56.12-1.1.18-1.63l-1.65-.34"/><path d="M113,112.38c-.06.53-.14,1.07-.21,1.62l1.31.41c.09-.58.16-1.14.23-1.7Z"/><path d="M122.91,115.26c-.08.58-.18,1.16-.27,1.74l1.06.37c.1-.6.2-1.2.28-1.79l-1.07-.32"/><path d="M133.06,118.74c-.1.59-.2,1.19-.31,1.78l.86.32c.12-.6.23-1.21.33-1.81l-.88-.29"/><path d="M143,122.29c-.11.57-.23,1.14-.35,1.71l.71.28c.12-.59.24-1.17.35-1.75l-.71-.24"/><path d="M153.35,126l-.36,1.61.59.21.36-1.63-.59-.19"/><path d="M77.25,108.74v1.61c1.37,0,2.73.11,4.08.25,0-.57,0-1.13,0-1.69-1.36-.1-2.72-.16-4.09-.17"/><path d="M83.75,109.32c0,.48,0,1,0,1.45q1.61.26,3.18.6c0-.56,0-1.1.07-1.63-1.07-.16-2.15-.3-3.22-.42"/><path d="M90,110.44c0,.48-.06,1-.1,1.48.84.22,1.67.46,2.5.72,0-.56.1-1.11.13-1.65-.84-.2-1.69-.38-2.53-.55"/><path d="M97,112.29c0,.53-.11,1.06-.17,1.61.65.25,1.3.5,2,.77.08-.6.15-1.18.21-1.76l-2-.62"/><path d="M104.17,115c-.08.57-.17,1.15-.26,1.75l1.55.74c.1-.64.2-1.25.29-1.86l-1.58-.63"/><path d="M112,118.62c-.11.61-.23,1.23-.35,1.87l1.22.68c.14-.67.27-1.31.39-2l-1.26-.6"/><path d="M121.34,123.6c-.15.65-.3,1.3-.46,2l1,.6c.16-.69.32-1.36.47-2l-1-.54"/><path d="M130.73,129.28q-.25,1-.54,1.95l.8.49c.19-.67.37-1.32.54-2l-.8-.46"/><path d="M139.79,134.78q-.27.9-.57,1.8l.65.38c.2-.6.39-1.21.58-1.8l-.66-.38"/><path d="M149.23,140.17q-.28.78-.6,1.56l.53.29c.21-.52.4-1.05.6-1.57l-.53-.28"/><path d="M77.25,92.83v.69c1.37,0,2.73,0,4.09-.14,0-.25,0-.51,0-.77-1.36.13-2.71.21-4.08.22"/><path d="M83.72,92.42l0,.71c1.07-.11,2.15-.25,3.22-.39l-.06-.87c-1.06.21-2.12.4-3.19.55"/><path d="M89.92,91.27q0,.45.09.87c.85-.17,1.69-.34,2.53-.53,0-.33-.08-.67-.12-1-.83.24-1.66.47-2.5.69"/><path d="M96.77,89.22c.07.39.12.76.18,1.11.66-.19,1.33-.39,2-.6q-.09-.6-.21-1.26c-.65.26-1.31.51-2,.75"/><path d="M103.91,86.46c.09.46.17.91.26,1.34l1.58-.61c-.09-.47-.19-1-.29-1.46-.52.25-1,.5-1.55.73"/><path d="M111.66,82.78c.12.52.24,1,.34,1.53l1.26-.59-.37-1.61-1.23.67"/><path d="M120.86,77.78c.16.57.3,1.14.43,1.69.34-.17.67-.36,1-.53-.14-.58-.29-1.16-.45-1.75l-1,.59"/><path d="M130.24,72.5c.16.58.33,1.15.48,1.72q.41-.24.81-.45-.24-.87-.51-1.74l-.78.47"/><path d="M139.27,67.35c.18.54.35,1.08.51,1.61l.66-.37c-.17-.54-.35-1.08-.53-1.61l-.64.37"/><path d="M148.62,62.22c.18.47.36.94.53,1.42l.54-.28-.54-1.42Z"/><path d="M77.25,93.66v.69c1.37,0,2.74,0,4.1-.06v-.75c-1.36.07-2.72.11-4.09.12"/><path d="M83.76,93.46c0,.23,0,.45,0,.67,1.08,0,2.17-.11,3.25-.19,0-.25,0-.52,0-.79-1.08.12-2.16.23-3.24.31"/><path d="M90.07,92.84l.06.76c.86-.08,1.72-.16,2.58-.26,0-.29,0-.59-.07-.9-.86.14-1.71.28-2.57.4"/><path d="M97.13,91.69c0,.33.08.64.1,1l2.06-.32c0-.34-.07-.69-.12-1.06-.68.15-1.35.3-2,.43"/><path d="M104.56,90.15c.06.38.11.76.16,1.12l1.64-.32c0-.4-.11-.81-.17-1.22l-1.63.42"/><path d="M112.72,88c.08.45.15.87.21,1.29l1.32-.32c-.07-.44-.14-.9-.22-1.36l-1.31.39"/><path d="M122.52,85.08c.09.49.17,1,.26,1.47l1.06-.31-.27-1.52-1,.36"/><path d="M132.57,81.88c.1.52.2,1,.29,1.54.29-.09.58-.17.86-.27-.09-.52-.19-1-.29-1.58l-.86.31"/><path d="M142.33,78.58c.11.51.21,1,.31,1.53.24-.07.47-.16.71-.24-.1-.51-.21-1-.32-1.54l-.7.25"/><path d="M152.5,75.05c.11.48.21,1,.32,1.45l.58-.19-.33-1.47-.57.21"/><path d="M77.25,94.49v.7h4.11c0-.25,0-.5,0-.75-1.36,0-2.73,0-4.1,0"/><path d="M83.79,94.46v.65l3.28,0c0-.25,0-.5,0-.75l-3.26.13"/><path d="M90.16,94.24c0,.25,0,.48,0,.72l2.61,0c0-.27,0-.54,0-.82-.87,0-1.73.11-2.6.15"/><path d="M97.33,93.83c0,.28,0,.57,0,.85l2.08-.07c0-.31,0-.63,0-1l-2.08.17"/><path d="M104.91,93.3c0,.34,0,.68,0,1l1.68-.08c0-.36,0-.73,0-1.1l-1.68.16"/><path d="M113.29,92.57q0,.59.06,1.17l1.36-.09c0-.41,0-.82-.08-1.24Z"/><path d="M123.39,91.54l.09,1.35,1.08-.09c0-.46,0-.92-.08-1.4l-1.09.14"/><path d="M133.78,90.5c0,.49.07,1,.09,1.47l.89-.08c0-.5-.06-1-.1-1.5l-.88.11"/><path d="M143.9,89.4c0,.5.07,1,.1,1.49l.73-.07c0-.5-.07-1-.1-1.51l-.73.09"/><path d="M154.48,88.15c0,.5.07,1,.1,1.48l.6-.07c0-.49-.06-1-.1-1.49l-.6.08"/><path d="M77.25,95.33V96c1.37,0,2.74,0,4.1.06,0-.25,0-.5,0-.75H77.25"/><path d="M83.79,95.43v.65l3.26.14c0-.26,0-.51,0-.76l-3.28,0"/><path d="M90.18,95.58c0,.24,0,.47,0,.72l2.6.16c0-.28,0-.55,0-.83l-2.6,0"/><path d="M97.37,95.82c0,.28,0,.57,0,.85l2.08.17c0-.32,0-.64,0-1-.7,0-1.39-.06-2.08-.07"/><path d="M105,96.24c0,.34,0,.67,0,1l1.67.17c0-.37,0-.73.06-1.1L105,96.24"/><path d="M113.36,96.82c0,.39,0,.78-.07,1.17l1.34.15c0-.41.06-.83.08-1.23l-1.35-.09"/><path d="M123.47,97.68q0,.67-.09,1.35l1.09.14c0-.47.07-.94.09-1.4l-1.09-.09"/><path d="M133.85,98.85c0,.49-.06,1-.1,1.47l.89.12c0-.5.07-1,.1-1.5l-.89-.09"/><path d="M144,100.08c0,.5-.06,1-.11,1.49l.73.1.12-1.51-.74-.08"/><path d="M154.55,101.35c0,.5-.07,1-.11,1.48l.6.08c0-.49.08-1,.11-1.49l-.6-.07"/><path d="M77.25,96.16v.69c1.37,0,2.73.05,4.09.13,0-.25,0-.5,0-.75-1.36,0-2.73-.07-4.1-.07"/><path d="M83.78,96.41c0,.22,0,.44,0,.67,1.09.09,2.17.19,3.23.32,0-.28,0-.53.05-.8-1.09-.07-2.17-.14-3.26-.19"/><path d="M90.13,96.94c0,.25,0,.5-.06.76.86.13,1.71.26,2.56.41,0-.31.06-.61.08-.9q-1.29-.15-2.58-.27"/><path d="M97.24,97.87c0,.3-.07.61-.11.94.68.13,1.36.28,2,.42,0-.36.09-.71.13-1.06l-2.06-.3"/><path d="M104.71,99.29c0,.36-.09.74-.15,1.12l1.62.42c.07-.41.13-.82.18-1.21l-1.65-.33"/><path d="M112.92,101.23c-.06.43-.13.85-.2,1.3l1.3.39c.08-.46.15-.92.22-1.36l-1.32-.33"/><path d="M122.77,104c-.08.48-.17,1-.26,1.47l1,.36c.1-.51.18-1,.27-1.52l-1.06-.31"/><path d="M132.8,107.41c-.09.51-.19,1-.3,1.55l.86.32c.1-.53.21-1.07.31-1.59l-.87-.28"/><path d="M142.55,110.87c-.1.51-.21,1-.32,1.53l.7.26.33-1.55-.71-.24"/><path d="M152.72,114.47c-.1.49-.21,1-.32,1.46l.57.2q.17-.72.33-1.47a5.62,5.62,0,0,1-.58-.19"/><path d="M77.25,97v.69c1.37,0,2.73.09,4.08.22,0-.26,0-.52,0-.77C80,97,78.62,97,77.25,97"/><path d="M83.75,97.42c0,.23,0,.46,0,.71,1.07.15,2.13.33,3.18.55,0-.3,0-.58.06-.87-1.06-.15-2.14-.28-3.21-.39"/><path d="M90,98.41c0,.28-.06.57-.1.87.84.21,1.67.45,2.5.7,0-.36.09-.71.13-1-.84-.19-1.69-.36-2.53-.53"/><path d="M97,100.17q-.08.52-.18,1.11c.66.24,1.31.48,2,.74.08-.43.15-.85.22-1.25-.67-.21-1.33-.41-2-.6"/><path d="M104.16,102.76c-.09.44-.17.89-.26,1.35l1.55.73c.1-.5.2-1,.29-1.46l-1.58-.62"/><path d="M112,106.26l-.34,1.53,1.23.66c.13-.55.25-1.08.36-1.6l-1.25-.59"/><path d="M121.28,111.11c-.14.56-.28,1.12-.44,1.7l1,.59c.15-.6.3-1.18.45-1.75l-1-.54"/><path d="M130.62,116.65c-.15.57-.32,1.14-.49,1.73l.79.48c.17-.59.34-1.17.5-1.75l-.8-.46"/><path d="M139.63,122.05c-.17.53-.34,1.07-.53,1.61l.65.38c.18-.55.36-1.08.53-1.63l-.65-.36"/><path d="M149,127.32l-.54,1.42.53.28.54-1.42c-.18-.09-.36-.18-.53-.28"/><path d="M77.25,111.76v.7c1.37,0,2.73-.06,4.09-.14,0-.26,0-.51,0-.77-1.36.13-2.71.21-4.08.21"/><path d="M83.72,111.36l0,.7c1.07-.11,2.15-.24,3.22-.39l-.06-.86c-1.06.21-2.12.39-3.19.55"/><path d="M89.92,110.21c0,.3.06.58.09.86.85-.16,1.69-.34,2.53-.53,0-.33-.08-.67-.12-1-.83.25-1.66.48-2.5.7"/><path d="M96.77,108.16c.07.38.12.75.18,1.11l2-.61c-.06-.4-.13-.81-.21-1.25l-2,.75"/><path d="M103.91,105.4c.09.46.17.91.26,1.34l1.58-.62c-.09-.46-.19-1-.29-1.44l-1.55.72"/><path d="M111.66,101.71c.12.52.24,1,.34,1.53l1.26-.59c-.12-.52-.24-1.05-.37-1.6l-1.23.66"/><path d="M120.86,96.71c.16.58.3,1.14.43,1.7l1-.54c-.14-.56-.29-1.15-.45-1.74Z"/><path d="M130.24,91.44c.16.58.33,1.15.48,1.71l.81-.45c-.16-.57-.33-1.15-.5-1.74l-.79.48"/><path d="M139.27,86.29c.18.53.35,1.07.51,1.6l.66-.36c-.17-.54-.35-1.08-.53-1.62l-.64.38"/><path d="M148.62,81.16c.18.47.36.94.53,1.41l.54-.27-.54-1.43-.53.29"/><path d="M77.25,112.6v.69c1.37,0,2.74,0,4.1-.07,0-.24,0-.49,0-.75-1.36.07-2.72.12-4.09.13"/><path d="M83.76,112.4c0,.23,0,.45,0,.67,1.08,0,2.17-.12,3.25-.19,0-.26,0-.53,0-.79-1.08.12-2.16.22-3.24.31"/><path d="M90.07,111.77c0,.27,0,.52.06.77q1.29-.12,2.58-.27c0-.28,0-.58-.07-.89-.86.14-1.71.28-2.57.39"/><path d="M97.13,110.63c0,.32.08.63.1.94l2.06-.32c0-.33-.07-.69-.12-1l-2,.43"/><path d="M104.56,109.09c.06.38.11.75.16,1.12l1.64-.33c0-.4-.11-.79-.17-1.21l-1.63.42"/><path d="M112.72,107q.12.66.21,1.29l1.32-.33c-.07-.44-.14-.89-.22-1.36l-1.31.4"/><path d="M122.52,104c.09.5.17,1,.26,1.47.35-.1.7-.21,1.06-.3q-.14-.75-.27-1.53-.52.19-1,.36"/><path d="M132.57,100.81c.1.52.2,1,.29,1.55.29-.08.58-.18.86-.27-.09-.52-.19-1-.29-1.59l-.86.31"/><path d="M142.33,97.52c.11.5.21,1,.31,1.53l.71-.24c-.1-.51-.21-1-.32-1.55l-.7.26"/><path d="M152.5,94c.11.48.21,1,.32,1.45l.58-.19c-.11-.49-.22-1-.32-1.47l-.58.21"/><path d="M77.25,113.43v.7h4.11c0-.25,0-.5,0-.74-1.36,0-2.73.05-4.1.05"/><path d="M83.79,113.4V114l3.28,0c0-.25,0-.5,0-.76-1.09.06-2.18.1-3.26.14"/><path d="M90.16,113.18c0,.24,0,.48,0,.71l2.61,0c0-.27,0-.54,0-.82-.87,0-1.73.11-2.6.15"/><path d="M97.33,112.76c0,.29,0,.58,0,.86l2.08-.07c0-.32,0-.63,0-1l-2.08.16"/><path d="M104.91,112.24c0,.34,0,.68,0,1l1.68-.08c0-.36,0-.72,0-1.09l-1.68.16"/><path d="M113.29,111.5c0,.4,0,.78.06,1.17l1.36-.08c0-.41,0-.82-.08-1.24-.45.06-.89.11-1.34.15"/><path d="M123.39,110.47l.09,1.36,1.08-.09c0-.46,0-.93-.08-1.41-.36.06-.73.1-1.09.14"/><path d="M133.78,109.44c0,.49.06,1,.09,1.47l.89-.08c0-.5-.06-1-.1-1.5l-.88.11"/><path d="M143.9,108.34c0,.49.07,1,.1,1.49l.73-.07c0-.5-.07-1-.1-1.52l-.73.1"/><path d="M154.48,107.09c0,.49.07,1,.1,1.48l.6-.07c0-.49-.06-1-.1-1.49l-.6.08"/><path d="M77.25,114.26v.7c1.37,0,2.74,0,4.1.05,0-.25,0-.49,0-.74H77.25"/><path d="M83.79,114.37V115c1.08,0,2.17.08,3.26.14,0-.26,0-.51,0-.76l-3.28,0"/><path d="M90.18,114.52c0,.23,0,.47,0,.72.87,0,1.73.1,2.6.16,0-.28,0-.56,0-.83l-2.6,0"/><path d="M97.37,114.75c0,.29,0,.57,0,.86l2.08.17c0-.33,0-.64,0-1l-2.08-.07"/><path d="M105,115.18c0,.33,0,.67,0,1l1.67.16c0-.36,0-.73.06-1.09l-1.68-.08"/><path d="M113.36,115.75c0,.39,0,.78-.07,1.17l1.34.16c0-.42.06-.83.08-1.24l-1.35-.09"/><path d="M123.47,116.62c0,.44,0,.9-.09,1.35l1.09.14q.06-.7.09-1.41l-1.09-.08"/><path d="M133.85,117.79c0,.48-.06,1-.1,1.47l.89.12c0-.51.07-1,.1-1.5l-.89-.09"/><path d="M144,119c0,.5-.06,1-.11,1.5l.73.1.12-1.52Z"/><path d="M154.55,120.29c0,.49-.07,1-.11,1.48l.6.08c0-.5.08-1,.11-1.49l-.6-.07"/><path d="M77.25,115.09v.7c1.37,0,2.73,0,4.09.13,0-.26,0-.51,0-.76-1.36,0-2.73-.07-4.1-.07"/><path d="M83.78,115.34c0,.23,0,.45,0,.67,1.09.09,2.17.2,3.23.33,0-.27,0-.54.05-.8-1.09-.08-2.17-.14-3.26-.2"/><path d="M90.13,115.88c0,.25,0,.5-.06.76.86.13,1.71.26,2.56.41,0-.31.06-.61.08-.9q-1.29-.15-2.58-.27"/><path d="M97.24,116.8c0,.31-.07.62-.11.94.68.13,1.36.28,2,.43,0-.36.09-.72.13-1.06l-2.06-.31"/><path d="M104.71,118.22c0,.37-.09.75-.15,1.13l1.62.42c.07-.41.13-.82.18-1.22l-1.65-.33"/><path d="M112.92,120.17c-.06.43-.13.85-.2,1.29l1.3.39c.08-.45.15-.91.22-1.36l-1.32-.32"/><path d="M122.77,123c-.08.48-.17,1-.26,1.46.34.13.7.24,1,.36.1-.51.18-1,.27-1.51l-1.06-.31"/><path d="M132.8,126.35c-.09.51-.19,1-.3,1.55l.86.31c.1-.53.21-1.06.31-1.58l-.87-.28"/><path d="M142.55,129.81c-.1.5-.21,1-.32,1.53l.7.26.33-1.55-.71-.24"/><path d="M152.72,133.41c-.1.48-.21,1-.32,1.45l.57.21.33-1.47-.58-.19"/><path d="M77.25,115.93v.69c1.37,0,2.73.09,4.08.22,0-.27,0-.52,0-.77-1.36-.08-2.72-.14-4.09-.14"/><path d="M83.75,116.35c0,.23,0,.47,0,.71,1.07.15,2.13.34,3.18.56q0-.45.06-.87c-1.06-.15-2.14-.29-3.21-.4"/><path d="M90,117.35c0,.28-.06.57-.1.87.84.21,1.67.45,2.5.7,0-.36.09-.71.13-1-.84-.19-1.69-.37-2.53-.53"/><path d="M97,119.1c0,.36-.11.72-.18,1.11.66.24,1.31.49,2,.75.08-.44.15-.86.22-1.25-.67-.22-1.33-.42-2-.61"/><path d="M104.16,121.7c-.09.44-.17.88-.26,1.35l1.55.72c.1-.5.2-1,.29-1.45l-1.58-.62"/><path d="M112,125.19c-.11.5-.22,1-.34,1.54l1.23.67q.2-.84.36-1.62l-1.25-.59"/><path d="M121.28,130.05c-.14.56-.28,1.12-.44,1.69l1,.59q.23-.9.45-1.74l-1-.54"/><path d="M130.62,135.59c-.15.57-.32,1.14-.49,1.72l.79.49c.17-.59.34-1.17.5-1.75l-.8-.46"/><path d="M139.63,141c-.17.54-.34,1.08-.53,1.61l.65.39c.18-.55.36-1.09.53-1.63l-.65-.37"/><path d="M149,146.26l-.54,1.41.53.29.54-1.42c-.18-.1-.36-.18-.53-.28"/><polygon class="cls-1" points="86.64 113.76 58.89 129.83 8.41 129.83 8.41 76.38 57.91 76.38 86.64 94.96 77.2 98.23 86.64 101.66 86.64 105.59 75.9 109.84 86.64 113.76"/><path d="M59.11,130.62H7.61v-55H58.14l.21.12L88.44,95.18l-8.86,3.07,7.85,2.86v5l-9.3,3.68,10.38,3.79ZM9.2,129H58.68l26.09-15.1-11.11-4.06,12.18-4.82v-2.82l-11-4,10-3.47L57.68,77.17H9.2Z"/><polygon points="8.48 90.59 34.32 90.59 56.77 102.72 34.32 116.78 8.41 116.23 8.48 90.59"/><path d="M34.39,117.05h-.08l-26.17-.57v-.26l.08-25.9,26.23,0L57.3,102.7ZM8.67,116l25.58.55,22-13.79-22-11.88H8.74Z"/><polygon points="7.61 123.26 7.71 83.28 44.07 83.28 65.17 95.75 64.36 97.12 43.63 84.86 9.29 84.86 9.21 121.66 43.62 121.51 64.84 107.94 65.7 109.28 44.09 123.09 7.61 123.26"/><path class="cls-2" d="M8.4,100A91.6,91.6,0,1,0,100,8.41,91.59,91.59,0,0,0,8.4,100"/></svg>